<svg xmlns="http://www.w3.org/2000/svg" width="995.248" height="84.572" viewBox="0 0 995.248 84.572">
  <defs>
    <style>
      .cls-1 {
        fill: #fff;
      }
    </style>
  </defs>
  <g id="Group_549" data-name="Group 549" transform="translate(-468.011 -7573.628)">
    <g id="Group_173" data-name="Group 173">
      <path id="Path_379" data-name="Path 379" class="cls-1" d="M778.7,7613.441a12.952,12.952,0,0,1-3.208,4.106,32.291,32.291,0,0,1-5.278,3.863,32.919,32.919,0,0,1-6.21,2.864,18.739,18.739,0,0,1-6,1.1q-4.554,0-4.555-4.83c0-.23.011-.483.036-.759a6.3,6.3,0,0,1,.1-.759,21.106,21.106,0,0,1-15.456,6.348q-5.315,0-5.313-5.038a6.309,6.309,0,0,1,.137-1.241,17.413,17.413,0,0,1,.553-1.932q.413-1.242,1.276-3.312t2.312-5.383l10.971-24.633a17.4,17.4,0,0,1,6.037-7.761q3.691-2.45,9.7-2.45a10,10,0,0,1,5.8,1.449,6.949,6.949,0,0,1,2.69,3.1l1.864-4.14h10.281L765.1,7617.3a1.31,1.31,0,0,0-.07.414q0,.485.76.484a7.161,7.161,0,0,0,2.863-.725,18.261,18.261,0,0,0,3.208-1.863,21.732,21.732,0,0,0,2.9-2.483,9.7,9.7,0,0,0,1.863-2.519Zm-11.522-26.358a11.858,11.858,0,0,0,.828-2.38,10.428,10.428,0,0,0,.275-2.312,5.525,5.525,0,0,0-.793-3.036,2.638,2.638,0,0,0-2.38-1.242,3.534,3.534,0,0,0-1.243.207,3.037,3.037,0,0,0-1.069.725,7.347,7.347,0,0,0-1.069,1.448,25.739,25.739,0,0,0-1.243,2.45l-11.868,26.427q-1.655,3.795-2.345,5.623a8.863,8.863,0,0,0-.691,2.518q0,1.657,1.381,1.657a5.361,5.361,0,0,0,2.725-.9,16.805,16.805,0,0,0,2.864-2.208,21.845,21.845,0,0,0,2.483-2.795,16.13,16.13,0,0,0,1.657-2.656Z"/>
      <path id="Path_380" data-name="Path 380" class="cls-1" d="M812.091,7613.3a13.281,13.281,0,0,1-3.07,4,32.633,32.633,0,0,1-5.072,3.934,34.545,34.545,0,0,1-5.8,2.967,14.516,14.516,0,0,1-5.243,1.173,4.765,4.765,0,0,1-3.036-.829,4.11,4.11,0,0,1-1.38-1.793,11.829,11.829,0,0,1-3.484,1.793,16.272,16.272,0,0,1-5.487.829,6.664,6.664,0,0,1-4.657-1.38,5.018,5.018,0,0,1-1.483-3.865,16.911,16.911,0,0,1,1.724-6.692l7.315-16.491h10.35l-8.97,20.079a6.127,6.127,0,0,0-.552,2.346q0,1.1.966,1.1,1.518,0,2.9-3.036l10.212-23.046,8.763,4.761-7.315,16.491a2.753,2.753,0,0,0-.275,1.242q0,1.035,1.242,1.034a6.285,6.285,0,0,0,2.656-.758,20.575,20.575,0,0,0,3.071-1.864,21.257,21.257,0,0,0,2.76-2.38,10.737,10.737,0,0,0,1.794-2.311Z"/>
      <path id="Path_381" data-name="Path 381" class="cls-1" d="M832.032,7613.3a12.943,12.943,0,0,1-3.209,4.209,31.079,31.079,0,0,1-5.278,3.9,32.889,32.889,0,0,1-6.21,2.864,18.739,18.739,0,0,1-6,1.1,4.785,4.785,0,0,1-3.691-1.45,4.89,4.89,0,0,1-1.346-3.449,7.732,7.732,0,0,1,.173-1.483,6.688,6.688,0,0,1,.586-1.692l7.452-16.766h-2.967l1.725-3.865h2.9l9.591-21.32,11.73-.76-9.8,22.08h3.1l-1.725,3.865h-3.1l-7.176,16.008a2.674,2.674,0,0,0-.345,1.1q0,.552.69.552a6.892,6.892,0,0,0,2.863-.759,20.259,20.259,0,0,0,3.209-1.9,21.593,21.593,0,0,0,2.9-2.485,10.255,10.255,0,0,0,1.863-2.449Z"/>
      <path id="Path_382" data-name="Path 382" class="cls-1" d="M867.565,7602.469q-3.8,4-11.868,4.83a61.368,61.368,0,0,1-4.553,9.592,20.423,20.423,0,0,1-4.589,5.45,12.493,12.493,0,0,1-5.072,2.451,27.672,27.672,0,0,1-5.865.586q-5.037,0-7.038-1.484a4.757,4.757,0,0,1-2-4.036,15.079,15.079,0,0,1,1.726-6.142l3.174-6.9a31.971,31.971,0,0,1,3-5.244,16.057,16.057,0,0,1,3.244-3.416,11.22,11.22,0,0,1,3.519-1.828,13.193,13.193,0,0,1,3.829-.552c.783,0,1.38.012,1.794.034a4.078,4.078,0,0,1,1.035.173,8.745,8.745,0,0,1,6.141-2.277,5.152,5.152,0,0,1,3.45.966,3.472,3.472,0,0,1,1.1,2.76,11.414,11.414,0,0,1-1.242,4.622l1.207.243a5.144,5.144,0,0,0,1,.1,9.284,9.284,0,0,0,2.932-.518,11.527,11.527,0,0,0,3.277-1.829Zm-20.975,2.071a2.367,2.367,0,0,1-1-1.207,4.6,4.6,0,0,1-.311-1.691,5.139,5.139,0,0,1,.07-.967,3.6,3.6,0,0,0-1.208,1A9.575,9.575,0,0,0,843,7603.85l-6.348,14.489a3.38,3.38,0,0,0-.344,1.38c0,.875.389,1.312,1.172,1.312a2.53,2.53,0,0,0,1.484-.518,3.942,3.942,0,0,0,1.208-1.483Zm6.762-3.1a4.226,4.226,0,0,0,.378-.9,3.65,3.65,0,0,0,.173-1.1,2.4,2.4,0,0,0-.241-1.138.894.894,0,0,0-.862-.45q-1.657,0-1.656,1.588Q851.144,7601.435,853.352,7601.435Z"/>
      <path id="Path_383" data-name="Path 383" class="cls-1" d="M911.1,7613.3a12.779,12.779,0,0,1-3.243,4.209,31.643,31.643,0,0,1-5.346,3.9,33.5,33.5,0,0,1-6.28,2.864,18.866,18.866,0,0,1-5.968,1.1,5.3,5.3,0,0,1-3.726-1.207,4.149,4.149,0,0,1-1.312-3.209,10.307,10.307,0,0,1,.863-3.451q.863-2.207,2.07-4.829t2.519-5.244q1.309-2.622,2.138-4.692a8.728,8.728,0,0,0,.277-.966,3.278,3.278,0,0,0,.069-.621q0-.828-.967-.828a2.512,2.512,0,0,0-2.621,1.724l-10.213,23.116H867.911l10.143-22.77a4,4,0,0,0,.207-.69,3.054,3.054,0,0,0,.069-.552q0-.828-1.035-.828a2.567,2.567,0,0,0-1.483.448,2.8,2.8,0,0,0-1,1.276l-10.282,23.116H853.007l13.662-30.774,7.313,3.795a10.242,10.242,0,0,1,3.451-1.794,19.374,19.374,0,0,1,5.52-.621,5.745,5.745,0,0,1,3.277.862,4.235,4.235,0,0,1,1.691,1.967,9.121,9.121,0,0,1,4.45-2.311,26.845,26.845,0,0,1,5.417-.518,5.541,5.541,0,0,1,4.036,1.38,5.057,5.057,0,0,1,1.414,3.795,10.46,10.46,0,0,1-.551,3.07q-.554,1.759-1.38,3.692t-1.76,3.9q-.931,1.967-1.621,3.691a3.79,3.79,0,0,0-.484,1.588q0,1.035,1.243,1.034a6.51,6.51,0,0,0,2.691-.758,19.7,19.7,0,0,0,3.1-1.864,21.124,21.124,0,0,0,2.76-2.38,8.914,8.914,0,0,0,1.726-2.311Z"/>
      <path id="Path_384" data-name="Path 384" class="cls-1" d="M944.225,7613.3a14.928,14.928,0,0,1-3.381,4.313,29.823,29.823,0,0,1-5.314,3.9,32.64,32.64,0,0,1-6.21,2.795,19.067,19.067,0,0,1-5.933,1.07,2.656,2.656,0,0,1-1.967-.725,3.443,3.443,0,0,1-.932-1.9,10.92,10.92,0,0,1-3.277,1.932,14.6,14.6,0,0,1-5,.69,7.383,7.383,0,0,1-4.657-1.414,5.108,5.108,0,0,1-1.828-4.313,15.809,15.809,0,0,1,.828-4.485,34.1,34.1,0,0,1,2.414-5.727,51.408,51.408,0,0,1,3.968-6.8,21.438,21.438,0,0,1,3.76-4.175,11.437,11.437,0,0,1,3.726-2.1,12.828,12.828,0,0,1,3.864-.586,7.669,7.669,0,0,1,4.036.793,6.706,6.706,0,0,1,1.967,1.967l.691-1.587h8.21l-7.245,16.215q-.759,1.725-1.069,2.449a3.319,3.319,0,0,0-.311,1.277q0,1.035,1.173,1.034a6.591,6.591,0,0,0,2.76-.758,19.81,19.81,0,0,0,3.106-1.864,21.315,21.315,0,0,0,2.759-2.38,8.907,8.907,0,0,0,1.725-2.311Zm-18.355-10.833a.789.789,0,0,0,.139-.448v-.448a1.051,1.051,0,0,0-.242-.655,1.134,1.134,0,0,0-.932-.311,2.27,2.27,0,0,0-1.621.552,4.928,4.928,0,0,0-1.069,1.724l-6.28,14.146a5.266,5.266,0,0,0-.621,2.346q0,1.1.966,1.1,1.587,0,3.036-3.036Z"/>
      <path id="Path_385" data-name="Path 385" class="cls-1" d="M964.1,7613.3a12.959,12.959,0,0,1-3.209,4.209,31.047,31.047,0,0,1-5.279,3.9,32.831,32.831,0,0,1-6.21,2.864,18.739,18.739,0,0,1-6,1.1,4.788,4.788,0,0,1-3.692-1.45,4.895,4.895,0,0,1-1.346-3.449,7.732,7.732,0,0,1,.173-1.483,6.768,6.768,0,0,1,.586-1.692l7.452-16.766H943.6l1.724-3.865h2.9l9.59-21.32,11.731-.76-9.8,22.08h3.106l-1.725,3.865h-3.106l-7.175,16.008a2.658,2.658,0,0,0-.345,1.1q0,.552.689.552a6.893,6.893,0,0,0,2.864-.759,20.305,20.305,0,0,0,3.209-1.9,21.64,21.64,0,0,0,2.9-2.485,10.257,10.257,0,0,0,1.863-2.449Z"/>
      <path id="Path_386" data-name="Path 386" class="cls-1" d="M983.967,7613.3a13.3,13.3,0,0,1-3.208,4.141,30.447,30.447,0,0,1-5.314,3.9,35.238,35.238,0,0,1-6.279,2.9,18.488,18.488,0,0,1-6.037,1.139,5.381,5.381,0,0,1-3.622-1.207,4.083,4.083,0,0,1-1.415-3.278,7.71,7.71,0,0,1,.9-3.45L969.27,7594.4l8.694,4.761-7.315,16.491a3.638,3.638,0,0,0-.344,1.242q0,1.035,1.173,1.034a6.6,6.6,0,0,0,2.76-.758,19.8,19.8,0,0,0,3.105-1.864,21.33,21.33,0,0,0,2.76-2.38,8.907,8.907,0,0,0,1.725-2.311Zm1.1-28.7a3.7,3.7,0,0,1-.863,2.38,7.381,7.381,0,0,1-2.139,1.794,12.134,12.134,0,0,1-2.795,1.139,10.788,10.788,0,0,1-2.828.414,6.446,6.446,0,0,1-3.209-.794,2.414,2.414,0,0,1-1.414-2.173,3.723,3.723,0,0,1,.759-2.174,7.528,7.528,0,0,1,2-1.9,10.874,10.874,0,0,1,2.76-1.311,10.2,10.2,0,0,1,3.1-.483,6.232,6.232,0,0,1,3.208.828A2.537,2.537,0,0,1,985.071,7584.6Z"/>
      <path id="Path_387" data-name="Path 387" class="cls-1" d="M1013.5,7613.3a10.278,10.278,0,0,1-1.794,2.726,19.071,19.071,0,0,1-2.9,2.657,35.966,35.966,0,0,1-8.556,4.933,26.637,26.637,0,0,1-9.937,1.76q-2.623,0-4.726-.207a12.471,12.471,0,0,1-3.588-.829,5.073,5.073,0,0,1-2.277-1.758,5.144,5.144,0,0,1-.793-3q0-2.829,2.138-7.728l2.554-5.727q2.483-5.658,6.485-8a19.976,19.976,0,0,1,10.212-2.346,21.335,21.335,0,0,1,7,.828,3.269,3.269,0,0,1,2.174,3.381,7.147,7.147,0,0,1-.346,1.932l-11.729,4.209a10.863,10.863,0,0,0,1.346-2.277,5.879,5.879,0,0,0,.586-2.346c0-.6-.438-.9-1.311-.9a2.347,2.347,0,0,0-2.277,1.448L989,7617.029a5.967,5.967,0,0,0-.483,2.276,1.063,1.063,0,0,0,.828,1.174,6.784,6.784,0,0,0,1.656.207,25.986,25.986,0,0,0,6.762-.967,28.172,28.172,0,0,0,6.9-2.9,23.629,23.629,0,0,0,3.726-2.656,14.124,14.124,0,0,0,2.966-3.554Z"/>
      <path id="Path_388" data-name="Path 388" class="cls-1" d="M1069.731,7613.441a12.95,12.95,0,0,1-3.208,4.106,32.288,32.288,0,0,1-5.278,3.863,32.889,32.889,0,0,1-6.21,2.864,18.74,18.74,0,0,1-6,1.1q-4.554,0-4.554-4.83c0-.23.01-.483.035-.759a6.312,6.312,0,0,1,.1-.759,21.106,21.106,0,0,1-15.456,6.348q-5.315,0-5.313-5.038a6.388,6.388,0,0,1,.137-1.241,17.427,17.427,0,0,1,.553-1.932q.414-1.242,1.276-3.312t2.312-5.383l10.971-24.633a17.4,17.4,0,0,1,6.037-7.761q3.691-2.45,9.695-2.45a9.994,9.994,0,0,1,5.8,1.449,6.948,6.948,0,0,1,2.69,3.1l1.864-4.14h10.281l-19.32,43.262a1.31,1.31,0,0,0-.07.414q0,.485.76.484a7.161,7.161,0,0,0,2.863-.725,18.263,18.263,0,0,0,3.208-1.863,21.724,21.724,0,0,0,2.9-2.483,9.7,9.7,0,0,0,1.863-2.519Zm-11.522-26.358a11.79,11.79,0,0,0,.828-2.38,10.435,10.435,0,0,0,.276-2.312,5.534,5.534,0,0,0-.793-3.036,2.64,2.64,0,0,0-2.381-1.242,3.533,3.533,0,0,0-1.243.207,3.037,3.037,0,0,0-1.069.725,7.347,7.347,0,0,0-1.069,1.448,25.748,25.748,0,0,0-1.242,2.45l-11.869,26.427q-1.655,3.795-2.345,5.623a8.863,8.863,0,0,0-.691,2.518q0,1.657,1.381,1.657a5.358,5.358,0,0,0,2.725-.9,16.806,16.806,0,0,0,2.864-2.208,21.844,21.844,0,0,0,2.483-2.795,16.047,16.047,0,0,0,1.657-2.656Z"/>
      <path id="Path_389" data-name="Path 389" class="cls-1" d="M1094.5,7613.3a15.059,15.059,0,0,1-3.243,4.348,26.552,26.552,0,0,1-5.175,3.863,30.464,30.464,0,0,1-6.486,2.795,24.749,24.749,0,0,1-7.245,1.07,8.077,8.077,0,0,1-5.624-1.9,6.177,6.177,0,0,1-2.1-4.795,8.519,8.519,0,0,1,.173-1.69,7.872,7.872,0,0,1,.586-1.76l14.628-32.844a14.117,14.117,0,0,1,5.727-6.727,18.6,18.6,0,0,1,9.246-2.036,9.448,9.448,0,0,1,5,1.1,3.652,3.652,0,0,1,1.76,3.312,6.761,6.761,0,0,1-.276,1.759,25.409,25.409,0,0,1-1.1,2.933l-4.071,8.97a26.439,26.439,0,0,1-15.387,14.421l-4.14,9.246a3.335,3.335,0,0,0-.415,1.449q0,.828,1.278,1.276a7.538,7.538,0,0,0,2.518.449,9.2,9.2,0,0,0,3.45-.725,18.962,18.962,0,0,0,3.484-1.862,20.874,20.874,0,0,0,3.1-2.554,12.622,12.622,0,0,0,2.174-2.794Zm-.276-30.5q.552-1.241.724-1.758a2.872,2.872,0,0,0,.173-.863q0-.69-1.035-.69a1.905,1.905,0,0,0-1.863,1.242l-8.625,19.044a8.05,8.05,0,0,0,3.346-2.76,24.39,24.39,0,0,0,3.14-5.313Z"/>
      <path id="Path_390" data-name="Path 390" class="cls-1" d="M1123.757,7613.3a13.52,13.52,0,0,1-2.278,3.244,20.585,20.585,0,0,1-3.656,3.1,33.1,33.1,0,0,1-7.866,4.277,26.044,26.044,0,0,1-9.039,1.45q-2.761,0-4.864-.172a11.421,11.421,0,0,1-3.554-.794,4.866,4.866,0,0,1-2.208-1.76,5.455,5.455,0,0,1-.759-3.07q0-2.829,2.139-7.728l2.553-5.727a25.048,25.048,0,0,1,2.691-4.795,12.551,12.551,0,0,1,3.415-3.209,13.9,13.9,0,0,1,4.555-1.794,29.637,29.637,0,0,1,6.106-.552,26.316,26.316,0,0,1,4.45.311,8.646,8.646,0,0,1,2.726.862,3.108,3.108,0,0,1,1.346,1.38,4.432,4.432,0,0,1,.379,1.863,17.407,17.407,0,0,1-.518,3.933,11.259,11.259,0,0,1-2.1,4.278,8.268,8.268,0,0,1-3,2.38,20.353,20.353,0,0,1-4.175,1.484,38.756,38.756,0,0,1-4.589.827q-2.312.277-4.243.346-.828,1.794-1.277,3.07a6.652,6.652,0,0,0-.448,2.1q0,1.863,2.553,1.863a23.306,23.306,0,0,0,5.8-.76,27.482,27.482,0,0,0,5.624-2.1,25.056,25.056,0,0,0,4.8-3.139,14.311,14.311,0,0,0,3.312-3.864Zm-21.045-3.518a7.853,7.853,0,0,0,5.175-2.622,8.394,8.394,0,0,0,1.518-2.553,8.67,8.67,0,0,0,.552-3.1c0-.6-.437-.9-1.311-.9a2.326,2.326,0,0,0-1.484.518,6.115,6.115,0,0,0-1.414,2.173Z"/>
      <path id="Path_391" data-name="Path 391" class="cls-1" d="M1153.5,7613.3a13.29,13.29,0,0,1-3.209,4.141,30.43,30.43,0,0,1-5.312,3.9,35.243,35.243,0,0,1-6.28,2.9,18.488,18.488,0,0,1-6.038,1.139,5.055,5.055,0,0,1-3.725-1.243,4.657,4.657,0,0,1-1.243-3.449,7.825,7.825,0,0,1,.38-2.174,27.449,27.449,0,0,1,.966-2.691q.586-1.413,1.311-2.9t1.415-2.794a34.341,34.341,0,0,0,1.863-3.83,5.924,5.924,0,0,0,.414-1.483q0-.481-1.311-1.035l-1.45-.621a27.806,27.806,0,0,1-5.381,8.9q-2,2.277-3.554,3.795a25.31,25.31,0,0,1-2.794,2.415,10.036,10.036,0,0,1-2.243,1.277,5.223,5.223,0,0,1-1.828.378l-.966-2.415a7.01,7.01,0,0,0,1.449-1.724,77.889,77.889,0,0,0,5.071-10.626q2.173-5.589,4.106-11.178l16.836,9.522a4.475,4.475,0,0,1,1.483,1.311,2.424,2.424,0,0,1,.448,1.311,5.553,5.553,0,0,1-.621,2.173q-.619,1.345-1.414,2.9t-1.414,3.1a7.391,7.391,0,0,0-.621,2.657q0,.966,1.1.965a6.608,6.608,0,0,0,2.725-.724,19.974,19.974,0,0,0,3.106-1.828,20.324,20.324,0,0,0,2.794-2.381,9.89,9.89,0,0,0,1.793-2.38Z"/>
      <path id="Path_392" data-name="Path 392" class="cls-1" d="M1173.368,7613.3a12.946,12.946,0,0,1-3.209,4.209,31.077,31.077,0,0,1-5.278,3.9,32.889,32.889,0,0,1-6.21,2.864,18.739,18.739,0,0,1-6,1.1,4.785,4.785,0,0,1-3.691-1.45,4.89,4.89,0,0,1-1.346-3.449,7.654,7.654,0,0,1,.173-1.483,6.691,6.691,0,0,1,.586-1.692l7.452-16.766h-2.967l1.725-3.865h2.9l9.591-21.32,11.73-.76-9.8,22.08h3.1l-1.725,3.865h-3.1l-7.176,16.008a2.674,2.674,0,0,0-.345,1.1q0,.552.69.552a6.892,6.892,0,0,0,2.863-.759,20.256,20.256,0,0,0,3.209-1.9,21.593,21.593,0,0,0,2.9-2.485,10.256,10.256,0,0,0,1.863-2.449Z"/>
      <path id="Path_393" data-name="Path 393" class="cls-1" d="M1203.864,7613.3a18.493,18.493,0,0,1-4.071,4.9,28.984,28.984,0,0,1-5.692,3.829,29.967,29.967,0,0,1-6.659,2.484,29.152,29.152,0,0,1-6.968.863,11.4,11.4,0,0,1-3.83-.622,9.348,9.348,0,0,1-3.037-1.724,8.518,8.518,0,0,1-2-2.484,6.3,6.3,0,0,1-.723-2.967v-.759a6.937,6.937,0,0,1-1.449,1.173q-.968.621-1.587,1.035a6.87,6.87,0,0,1-.346-1.794,5.083,5.083,0,0,1,1.277-2.967,43.575,43.575,0,0,0,2.518-3.657q1.173-1.863,2.208-3.209t2.1-2.519q1.07-1.171,2.244-2.242t2.552-2.311c-.046-.322-.081-.586-.1-.793a8.934,8.934,0,0,1-.034-.932,12.862,12.862,0,0,1,.655-4.1,10.753,10.753,0,0,1,1.828-3.416,9.027,9.027,0,0,1,2.8-2.312,7.459,7.459,0,0,1,3.554-.862,5.2,5.2,0,0,1,2.9.724,3.027,3.027,0,0,1,1.1,2.726,7.8,7.8,0,0,1-.139,1.38,5.628,5.628,0,0,1-.655,1.69,14.474,14.474,0,0,1-1.484,2.1,26.417,26.417,0,0,1-2.552,2.622q5.587,7.038,5.588,10.9a9.911,9.911,0,0,1-7.038,10,19.63,19.63,0,0,0,3.9-1.069,27.847,27.847,0,0,0,4.175-2,23.22,23.22,0,0,0,3.864-2.829,16.021,16.021,0,0,0,2.967-3.554Zm-21.8-8.072a24.918,24.918,0,0,0-2.45,1.966,14.393,14.393,0,0,0-2.518,3.071,11.659,11.659,0,0,0-1.553,3.174,9.859,9.859,0,0,0-.38,2.622,2.149,2.149,0,0,0,.587,1.691,3.1,3.1,0,0,0,2.035.517,4.217,4.217,0,0,0,2.208-.621,6.081,6.081,0,0,0,1.76-1.587,7.855,7.855,0,0,0,1.139-2.174,7.329,7.329,0,0,0,.414-2.381,17.887,17.887,0,0,0-.346-3.656A9.156,9.156,0,0,0,1182.061,7605.23Zm4.346-9.66a5.306,5.306,0,0,0,1.794-1.656,2.821,2.821,0,0,0,.345-1.242c0-.459-.206-.69-.62-.69q-1.657,0-1.656,2.069c0,.139.01.38.034.725A4.689,4.689,0,0,0,1186.407,7595.57Z"/>
    </g>
    <g id="Group_176" data-name="Group 176">
      <rect id="Rectangle_74" data-name="Rectangle 74" class="cls-1" width="984.954" height="1.441" transform="translate(473.158 7652.062)"/>
      <g id="Group_174" data-name="Group 174">
        <path id="Path_394" data-name="Path 394" class="cls-1" d="M473.429,7658.2a5.417,5.417,0,1,1,5.417-5.417A5.418,5.418,0,0,1,473.429,7658.2Z"/>
      </g>
      <g id="Group_175" data-name="Group 175">
        <path id="Path_395" data-name="Path 395" class="cls-1" d="M1457.841,7658.2a5.417,5.417,0,1,0-5.417-5.417A5.418,5.418,0,0,0,1457.841,7658.2Z"/>
      </g>
    </g>
    <g id="Group_548" data-name="Group 548">
      <path id="Path_396" data-name="Path 396" class="cls-1" d="M1363.111,7607.947l59.639-6.97-6.194,6.578,45.02.135-57.865,7,7.694-7.143Z"/>
      <path id="Path_397" data-name="Path 397" class="cls-1" d="M522.367,7607.55l7.694,7.143-57.866-7,45.021-.135-6.2-6.578,59.639,6.97Z"/>
    </g>
  </g>
</svg>
