<svg xmlns="http://www.w3.org/2000/svg" width="104.49" height="104.49" viewBox="0 0 104.49 104.49">
    <g>
        <g transform="translate(-1042.967 -790.919)">
            <circle cx="48.866" cy="48.866" r="48.866" stroke="#7ed321" stroke-miterlimit="10" stroke-width="6.757px" transform="translate(1046.345 794.298)"/>
            <path fill="#7ed321" fill-rule="evenodd" d="M1104.76 821.847h-3.594v-3.595h3.594zm-15.526 0h-3.594v-3.595h3.594zm16.927-9.064l4.037-4.037a1.559 1.559 0 0 0-2.2-2.2l-4.6 4.6a18.134 18.134 0 0 0-8.2-1.956 18.4 18.4 0 0 0-8.26 1.956l-4.626-4.6a1.559 1.559 0 1 0-2.2 2.2l4.068 4.068a18.58 18.58 0 0 0-7.608 15h37.262a18.524 18.524 0 0 0-7.673-15.031zm15.433 18.134a4.652 4.652 0 0 0-4.658 4.658v21.736a4.658 4.658 0 1 0 9.316 0v-21.736a4.652 4.652 0 0 0-4.658-4.658zm-52.788 0a4.652 4.652 0 0 0-4.658 4.658v21.736a4.658 4.658 0 1 0 9.316 0v-21.736a4.652 4.652 0 0 0-4.658-4.658zm7.763 31.052a3.114 3.114 0 0 0 3.1 3.1h3.105v10.868a4.658 4.658 0 0 0 9.316 0v-10.863h6.21v10.868a4.658 4.658 0 1 0 9.316 0v-10.868h3.1a3.114 3.114 0 0 0 3.105-3.1v-31.057h-37.262z"/>
        </g>
    </g>
</svg>
