<svg xmlns="http://www.w3.org/2000/svg" viewBox="0 0 43.16 43.16"><defs><style>.cls-1,.cls-2{fill:#7ed321;}.cls-2{fill-rule:evenodd;}</style></defs><title>Android_Icon</title><g id="Layer_2" data-name="Layer 2"><g id="MASTHEAD_copy" data-name="MASTHEAD copy"><circle cx="21.58" cy="21.58" r="20.19"/><path class="cls-1" d="M21.58,43.16A21.58,21.58,0,1,1,43.16,21.58,21.6,21.6,0,0,1,21.58,43.16Zm0-40.37A18.79,18.79,0,1,0,40.37,21.58,18.81,18.81,0,0,0,21.58,2.79Z"/><path class="cls-2" d="M25.43,12.67H24.14V11.39h1.29Zm-6.42,0H17.73V11.39H19ZM26.11,9l1.66-1.67a.63.63,0,0,0,0-.91.65.65,0,0,0-.91,0L25,8.35a7.49,7.49,0,0,0-3.38-.81,7.69,7.69,0,0,0-3.42.81l-1.91-1.9a.64.64,0,0,0-.91.91L17,9a7.68,7.68,0,0,0-3.14,6.2H29.27A7.67,7.67,0,0,0,26.11,9Zm6.37,7.49a1.92,1.92,0,0,0-1.92,1.93v9a1.92,1.92,0,0,0,3.84,0v-9A1.92,1.92,0,0,0,32.48,16.52Zm-21.81,0a1.92,1.92,0,0,0-1.92,1.93v9a1.93,1.93,0,0,0,3.85,0v-9A1.92,1.92,0,0,0,10.67,16.52Zm3.21,12.83a1.28,1.28,0,0,0,1.28,1.28h1.29v4.49a1.92,1.92,0,1,0,3.84,0V30.63h2.57v4.49a1.93,1.93,0,1,0,3.85,0V30.63H28a1.28,1.28,0,0,0,1.28-1.28V16.52H13.88Z"/></g></g></svg>