<svg xmlns="http://www.w3.org/2000/svg" width="43.164" height="43.164" viewBox="0 0 43.164 43.164">
    <g transform="translate(-375.13 -16.775)">
        <circle cx="20.186" cy="20.186" r="20.186" stroke="#7ed321" stroke-miterlimit="10" stroke-width="2.791px" transform="translate(376.526 18.17)"/>
        <path fill="#7ed321" fill-rule="evenodd" d="M400.556 29.449h-1.283v-1.282h1.283zm-6.414 0h-1.283v-1.282h1.283zm7.093-3.642l1.668-1.668a.644.644 0 0 0-.911-.911l-1.9 1.9a7.5 7.5 0 0 0-3.387-.808 7.6 7.6 0 0 0-3.412.808l-1.911-1.9a.644.644 0 0 0-.911.911l1.681 1.68a7.675 7.675 0 0 0-3.143 6.2H404.4a7.651 7.651 0 0 0-3.165-6.212zm6.376 7.491a1.922 1.922 0 0 0-1.925 1.924V44.2a1.924 1.924 0 0 0 3.849 0v-8.978a1.922 1.922 0 0 0-1.924-1.922zm-21.807 0a1.922 1.922 0 0 0-1.924 1.924V44.2a1.924 1.924 0 1 0 3.848 0v-8.978A1.921 1.921 0 0 0 385.8 33.3zm3.207 12.827a1.287 1.287 0 0 0 1.283 1.283h1.282V51.9a1.924 1.924 0 0 0 3.849 0v-4.492h2.565V51.9a1.924 1.924 0 0 0 3.848 0v-4.492h1.283a1.288 1.288 0 0 0 1.283-1.283V33.3h-15.393z"/>
    </g>
</svg>
