<svg xmlns="http://www.w3.org/2000/svg" width="43.164" height="43.164" viewBox="0 0 43.164 43.164">
    <defs>
        <style>
            .cls-2{fill:#7ed321}
        </style>
    </defs>
    <g id="Group_3" transform="translate(-322.53 -17.484)">
        <circle id="Ellipse_2" cx="20.186" cy="20.186" r="20.186" stroke="#7ed321" stroke-miterlimit="10" stroke-width="2.791px" transform="translate(323.925 18.879)"/>
        <path id="Path_12" d="M348.837 24.111c.045 3.859-2.019 6.191-5.294 6.595a6.352 6.352 0 0 1 5.294-6.595z" class="cls-2"/>
        <path id="Path_13" d="M354.176 32.9c-1.974-2.557-3.948-3.364-7.941-2.018s-7.86-2.611-11.26 1.076c-3.186 3.455-3.573 8.634.179 15.3 3.41 6.056 7.313 2.871 7.313 2.871 1.166-.539 2.781-.224 4.351.4s5.16 1.525 8.121-6.685c-2.692-1.244-6.012-6.498-.763-10.944z" class="cls-2"/>
    </g>
</svg>
