<svg xmlns="http://www.w3.org/2000/svg" width="104.49" height="104.49" viewBox="0 0 104.49 104.49">
    <defs>
        <style>
            .cls-2{fill:#7ed321}
        </style>
    </defs>
    <g id="Group_42" transform="translate(-773.375 -790.919)">
        <g id="Group_41">
            <circle id="Ellipse_4" cx="48.866" cy="48.866" r="48.866" stroke="#7ed321" stroke-miterlimit="10" stroke-width="6.757px" transform="translate(776.754 794.298)"/>
            <path id="Path_70" d="M837.06 806.964c.109 9.339-4.887 14.987-12.815 15.964a15.372 15.372 0 0 1 12.815-15.964z" class="cls-2"/>
            <path id="Path_71" d="M849.984 828.25c-4.779-6.191-9.557-8.145-19.223-4.887s-19.028-6.32-27.259 2.606c-7.711 8.362-8.648 20.9.434 37.034 8.254 14.661 17.7 6.95 17.7 6.95 2.823-1.3 6.733-.543 10.534.977s12.489 3.693 19.657-16.181c-6.513-3.041-14.55-15.749-1.843-26.499z" class="cls-2"/>
        </g>
    </g>
</svg>
