<svg xmlns="http://www.w3.org/2000/svg" viewBox="0 0 43.16 43.16"><defs><style>.cls-1{fill:#7ed321;}</style></defs><title>Apple_Icon</title><g id="Layer_2" data-name="Layer 2"><g id="MASTHEAD_copy" data-name="MASTHEAD copy"><circle cx="21.58" cy="21.58" r="20.19"/><path class="cls-1" d="M21.58,43.16A21.58,21.58,0,1,1,43.16,21.58,21.6,21.6,0,0,1,21.58,43.16Zm0-40.37A18.79,18.79,0,1,0,40.37,21.58,18.81,18.81,0,0,0,21.58,2.79Z"/><path class="cls-1" d="M26.31,6.63c0,3.86-2,6.19-5.3,6.59A6.35,6.35,0,0,1,26.31,6.63Z"/><path class="cls-1" d="M31.65,15.42c-2-2.56-3.95-3.36-7.94-2s-7.87-2.61-11.27,1.08c-3.18,3.45-3.57,8.63.18,15.3,3.41,6,7.32,2.87,7.32,2.87,1.16-.54,2.78-.23,4.35.4s5.16,1.53,8.12-6.68C29.72,25.11,26.4,19.86,31.65,15.42Z"/></g></g></svg>