<svg xmlns="http://www.w3.org/2000/svg" viewBox="0 0 335.33 45.59"><defs><style>.cls-1,.cls-2{fill:#7ed321;}.cls-2,.cls-3,.cls-5{fill-rule:evenodd;}.cls-3,.cls-4{fill:#ffca05;}.cls-5{fill:#fff;}</style></defs><title>Arv_Logo_Icon_Group</title><g id="Layer_2" data-name="Layer 2"><g id="MASTHEAD_copy" data-name="MASTHEAD copy"><circle cx="313.74" cy="21.58" r="20.19"/><path class="cls-1" d="M313.75,43.16a21.58,21.58,0,1,1,21.58-21.58A21.61,21.61,0,0,1,313.75,43.16Zm0-40.37a18.79,18.79,0,1,0,18.79,18.79A18.81,18.81,0,0,0,313.75,2.79Z"/><path class="cls-2" d="M317.59,12.67h-1.28V11.39h1.28Zm-6.42,0h-1.28V11.39h1.28ZM318.27,9l1.67-1.67a.65.65,0,0,0,0-.91.66.66,0,0,0-.92,0l-1.89,1.9a7.54,7.54,0,0,0-6.8,0l-1.91-1.9a.65.65,0,0,0-.91,0,.63.63,0,0,0,0,.91L309.19,9a7.69,7.69,0,0,0-3.15,6.2h15.4A7.67,7.67,0,0,0,318.27,9Zm6.37,7.49a1.92,1.92,0,0,0-1.92,1.93v9a1.93,1.93,0,0,0,3.85,0v-9A1.92,1.92,0,0,0,324.64,16.52Zm-21.8,0a1.92,1.92,0,0,0-1.93,1.93v9a1.93,1.93,0,0,0,3.85,0v-9A1.92,1.92,0,0,0,302.84,16.52ZM306,29.35a1.28,1.28,0,0,0,1.29,1.28h1.28v4.49a1.93,1.93,0,1,0,3.85,0V30.63H315v4.49a1.93,1.93,0,1,0,3.85,0V30.63h1.28a1.28,1.28,0,0,0,1.29-1.28V16.52H306Z"/><circle cx="261.14" cy="22.29" r="20.19"/><path class="cls-1" d="M261.14,43.87a21.58,21.58,0,1,1,21.59-21.58A21.6,21.6,0,0,1,261.14,43.87Zm0-40.37a18.79,18.79,0,1,0,18.8,18.79A18.81,18.81,0,0,0,261.14,3.5Z"/><path class="cls-1" d="M265.87,7.34c0,3.85-2,6.19-5.29,6.59A6.35,6.35,0,0,1,265.87,7.34Z"/><path class="cls-1" d="M271.21,16.13c-2-2.56-3.95-3.36-7.94-2S255.41,11.5,252,15.19c-3.19,3.45-3.57,8.63.18,15.3,3.41,6.05,7.31,2.87,7.31,2.87,1.17-.54,2.78-.23,4.35.4S269,35.29,272,27.08C269.28,25.82,266,20.57,271.21,16.13Z"/><polygon class="cls-3" points="0.08 33.1 11.47 45.52 45.06 45.52 45.06 45.51 34.37 42.42 34.37 33.1 0.08 33.1"/><polygon class="cls-3" points="172.42 33.16 172.42 42.48 161.73 45.57 161.73 45.59 195.56 45.59 206.72 33.16 172.42 33.16"/><rect class="cls-4" x="36" y="27.09" width="134.9" height="14.06"/><path class="cls-3" d="M19.77,25.81c-2.41,0-4.86-.06-7.26-.11,0,1.9,0,2.85,0,4.75H0l0-25Q12,6.68,24,7.65C27.23,15.27,30.57,22.88,34,30.46H21.78C21,28.61,20.57,27.68,19.77,25.81Zm-2-4.71-4-9.4-1.32-.25,0,9.51Z"/><path class="cls-3" d="M29.87,8.21c7.76.54,16.38,1,24.16,1.37a3.68,3.68,0,0,1,1.8.58A2.59,2.59,0,0,1,57,11.41c.89,2.46,1.34,3.68,2.23,6.11A1,1,0,0,1,59,18.7a1.82,1.82,0,0,1-1.42.47l-1.52,0c2.44,2.54,3.66,3.79,6.1,6.26-4.37,0-6.56,0-10.93-.1-2.41-2.51-3.62-3.79-6-6.39.91,2.56,1.37,3.83,2.28,6.35-4.37,0-6.56-.07-10.92-.13Zm14.34,8.05,2.14.07a1.66,1.66,0,0,0,1.26-.42,1,1,0,0,0,.21-1.1l-.7-2a2.45,2.45,0,0,0-1-1.16,3.29,3.29,0,0,0-1.62-.56L42.34,11C43.09,13.1,43.46,14.15,44.21,16.26Z"/><path class="cls-3" d="M87.75,10.6c-.86,5-1.7,9.93-2.55,14.9q-9.37,0-18.76-.1-2.7-7.75-5.38-15.53c4.09.17,6.13.24,10.21.37q2.13,6.09,4.27,12.2,1-6,2-12c4.08.09,6.12.13,10.2.19"/><path class="cls-3" d="M115,22.54v3c-8.14,0-17.35,0-25.48,0l11.06-11.87c-4.43,0-5.57,0-10-.06v-3c8.15.09,17.22.1,25.37,0L105,22.52Z"/><path class="cls-3" d="M132.91,22.4l-4.53.05c-.3,1.21-.46,1.82-.76,3l-9.82.05q1.9-7.5,3.82-15,9.07-.16,18.15-.53,1.86,7.69,3.7,15.37l-9.81.08-.75-3m-.74-3c-.59-2.43-.89-3.64-1.49-6-.61,2.44-.92,3.66-1.53,6.09l3,0"/><path class="cls-3" d="M168.85,8.6A2.24,2.24,0,0,1,170.4,9a1.49,1.49,0,0,1,.64,1.23l0,6.44a1.67,1.67,0,0,1-.66,1.3,2.44,2.44,0,0,1-1.56.58c-4.79.16-6.44.23-11.23.36,0,2.53,0,3.8,0,6.34l-10.57.1L147,9.79C154.55,9.45,161.32,9.05,168.85,8.6Zm-7.23,4.11a1.32,1.32,0,0,0-.57-1.1,2.1,2.1,0,0,0-1.4-.41l-2.07.07c0,2.06,0,3.08,0,5.13l2.07-.07a2.28,2.28,0,0,0,1.39-.52,1.48,1.48,0,0,0,.6-1.13Z"/><path class="cls-3" d="M203.33,5.77a2.44,2.44,0,0,1,1.95.6,2.34,2.34,0,0,1,.82,1.83c0,3.22,0,6.45,0,9.67a2.69,2.69,0,0,1-.82,1.95,2.79,2.79,0,0,1-2,.88q-7.55.32-15.09.56c0,3.7,0,5.55,0,9.24H174.86q.06-11.12.11-22.25,14.22-1.08,28.36-2.48m-10,6.31a2.07,2.07,0,0,0-.73-1.6,2.38,2.38,0,0,0-1.75-.57l-2.61.17c0,3,0,4.49,0,7.48l2.6-.12a2.8,2.8,0,0,0,1.75-.78,2.37,2.37,0,0,0,.75-1.68c0-1.16,0-1.74,0-2.9"/><polygon class="cls-5" points="37.13 3.94 116.66 0.05 108.4 3.72 168.44 3.8 91.27 7.71 101.53 3.72 37.13 3.94"/><path d="M47.61,38,46,35.4l-.41.55v2H43.33V30.64h2.22v2.75l1.93-2.75H50.2l-2.78,3.41L50.32,38Z"/><path d="M57.74,38,55,34.26V38H52.81V30.64H55.1l2.55,3.48V30.64h2.22V38Z"/><path d="M62.76,34.32a4,4,0,1,1,4,3.79A3.79,3.79,0,0,1,62.76,34.32Zm5.78,0a1.76,1.76,0,1,0-1.76,1.83A1.73,1.73,0,0,0,68.54,34.32Z"/><path d="M79.07,38l-.95-4.16-1,4.16H74.84l-2.1-7.34h2.48l1,4.49,1.11-4.49H79l1.11,4.49L81,30.64h2.5L81.4,38Z"/><path d="M85.5,37l1.15-1.65a3.46,3.46,0,0,0,2.37.94c.42,0,.82-.11.82-.39,0-.71-4.1,0-4.1-2.89,0-1.24,1-2.43,3.05-2.43a4.88,4.88,0,0,1,3.12,1l-1.19,1.58a3.69,3.69,0,0,0-2.16-.73c-.44,0-.56.14-.56.33,0,.69,4.08.1,4.08,2.83,0,1.62-1.2,2.55-3.17,2.55A4.85,4.85,0,0,1,85.5,37Z"/><path d="M105.41,38l-1-4.16L103.51,38h-2.33l-2.1-7.34h2.48l1,4.49,1.11-4.49h1.68l1.11,4.49.93-4.49h2.5L107.74,38Z"/><path d="M112.4,35V30.64h2.26v4.25a1.37,1.37,0,0,0,2.74,0V30.64h2.25V35c0,1.82-1.14,3.15-3.62,3.15S112.4,36.78,112.4,35Z"/><path d="M122.37,37l1.16-1.65a3.46,3.46,0,0,0,2.37.94c.42,0,.81-.11.81-.39,0-.71-4.09,0-4.09-2.89,0-1.24,1-2.43,3-2.43a4.85,4.85,0,0,1,3.11,1l-1.19,1.58a3.67,3.67,0,0,0-2.16-.73c-.44,0-.56.14-.56.33,0,.69,4.09.1,4.09,2.83,0,1.62-1.2,2.55-3.17,2.55A4.88,4.88,0,0,1,122.37,37Z"/><path d="M131.22,37l1.15-1.65a3.46,3.46,0,0,0,2.37.94c.42,0,.81-.11.81-.39,0-.71-4.09,0-4.09-2.89,0-1.24,1-2.43,3-2.43a4.83,4.83,0,0,1,3.11,1l-1.19,1.58a3.64,3.64,0,0,0-2.15-.73c-.44,0-.56.14-.56.33,0,.69,4.08.1,4.08,2.83,0,1.62-1.2,2.55-3.17,2.55A4.85,4.85,0,0,1,131.22,37Z"/><path d="M140.62,35V30.64h2.26v4.25a1.37,1.37,0,0,0,2.74,0V30.64h2.25V35c0,1.82-1.14,3.15-3.62,3.15S140.62,36.78,140.62,35Z"/><path d="M151.16,38V30.64h3.92a2.52,2.52,0,1,1,0,5h-1.7V38Zm4.3-4.82c0-.4-.3-.58-.67-.58h-1.41v1.15h1.41C155.16,33.73,155.46,33.55,155.46,33.16Z"/><path d="M160.6,35.25l-.29-4.61h2.35l-.27,4.61Zm-.27,1.69a1.17,1.17,0,1,1,2.33,0,1.17,1.17,0,0,1-2.33,0Z"/></g></g></svg>