<svg xmlns="http://www.w3.org/2000/svg" viewBox="0 0 164 164"><defs><style>.cls-1{fill:#7ed321;}</style></defs><title>Bell_Icon</title><g id="Layer_2" data-name="Layer 2"><g id="Alerts"><circle class="cls-1" cx="82" cy="82" r="72"/><path d="M82,10A72,72,0,1,1,10,82,72,72,0,0,1,82,10M82,0a82,82,0,1,0,82,82A82.09,82.09,0,0,0,82,0Z"/><path d="M62.84,49.19,56.66,43A45,45,0,0,0,38.85,77h8.64A36.52,36.52,0,0,1,62.84,49.19ZM116.4,77h8.65A45.35,45.35,0,0,0,107.24,43l-6.14,6.18A36.71,36.71,0,0,1,116.4,77Zm-8.51,2.16c0-13.27-7.09-24.38-19.46-27.32V48.85a6.49,6.49,0,1,0-13,0v2.94C63.06,54.73,56,65.79,56,79.11v21.62l-8.65,8.64v4.32h69.17v-4.32l-8.64-8.64ZM82,126.66a7.58,7.58,0,0,0,1.73-.17,8.75,8.75,0,0,0,6.22-5.1,8.54,8.54,0,0,0,.65-3.37H73.26A8.7,8.7,0,0,0,82,126.66Z"/></g></g></svg>