<svg xmlns="http://www.w3.org/2000/svg" width="164" height="164" viewBox="0 0 164 164">
  <defs>
    <style>
      .cls-1 {
        fill: #7ed321;
        stroke: #000;
        stroke-miterlimit: 10;
        stroke-width: 10px;
      }

      .cls-2 {
        stroke: none;
      }

      .cls-3 {
        fill: none;
      }
    </style>
  </defs>
  <g id="Group_547" data-name="Group 547" transform="translate(-189.765 -7395.818)">
    <g id="Ellipse_20" data-name="Ellipse 20" class="cls-1" transform="translate(199.765 7405.818)">
      <circle class="cls-2" cx="72" cy="72" r="72"/>
      <circle class="cls-3" cx="72" cy="72" r="77"/>
    </g>
    <path id="Path_230" data-name="Path 230" d="M252.6,7445.01l-6.182-6.182a45.067,45.067,0,0,0-17.812,33.937h8.647A36.513,36.513,0,0,1,252.6,7445.01Zm53.566,27.755h8.646A45.34,45.34,0,0,0,297,7438.828l-6.139,6.182A36.731,36.731,0,0,1,306.17,7472.765Zm-8.517,2.162c0-13.273-7.09-24.383-19.455-27.323v-2.94a6.485,6.485,0,0,0-12.97,0v2.94c-12.408,2.94-19.454,14.007-19.454,27.323v21.616l-8.647,8.647v4.323H306.3v-4.323l-8.646-8.647Zm-25.94,47.556a7.562,7.562,0,0,0,1.729-.173,8.772,8.772,0,0,0,6.226-5.1,8.682,8.682,0,0,0,.648-3.372H263.023A8.71,8.71,0,0,0,271.713,7522.483Z"/>
  </g>
</svg>
