<svg xmlns="http://www.w3.org/2000/svg" width="995.247" height="84.574" viewBox="0 0 995.247 84.574">
    <defs>
        <style>
            .cls-1{fill:#231f20}
        </style>
    </defs>
    <g id="Group_192" transform="translate(-462.519 -724.367)">
        <g id="Group_188">
            <path id="Path_435" d="M687.026 764.18a12.93 12.93 0 0 1-3.208 4.1 32.227 32.227 0 0 1-5.278 3.864 32.946 32.946 0 0 1-6.21 2.864 18.734 18.734 0 0 1-6 1.1q-4.554 0-4.555-4.83c0-.23.011-.483.036-.759a6.348 6.348 0 0 1 .1-.759 21.106 21.106 0 0 1-15.456 6.348q-5.315 0-5.313-5.037a6.389 6.389 0 0 1 .137-1.242 17.479 17.479 0 0 1 .553-1.932q.413-1.242 1.276-3.312t2.312-5.382l10.971-24.633a17.4 17.4 0 0 1 6.037-7.762q3.691-2.449 9.7-2.45a10 10 0 0 1 5.8 1.449 6.95 6.95 0 0 1 2.69 3.105l1.864-4.14h10.281l-19.32 43.263a1.3 1.3 0 0 0-.07.414q0 .483.76.483a7.189 7.189 0 0 0 2.863-.724 18.35 18.35 0 0 0 3.208-1.864 21.685 21.685 0 0 0 2.9-2.484 9.674 9.674 0 0 0 1.863-2.518zM675.5 737.822a11.832 11.832 0 0 0 .828-2.38 10.432 10.432 0 0 0 .275-2.312 5.525 5.525 0 0 0-.793-3.036 2.638 2.638 0 0 0-2.38-1.242 3.527 3.527 0 0 0-1.243.207 3.04 3.04 0 0 0-1.069.724 7.38 7.38 0 0 0-1.069 1.449 25.931 25.931 0 0 0-1.242 2.45l-11.869 26.427q-1.655 3.795-2.345 5.623a8.873 8.873 0 0 0-.691 2.519q0 1.656 1.381 1.656a5.362 5.362 0 0 0 2.725-.9 16.7 16.7 0 0 0 2.864-2.208 21.887 21.887 0 0 0 2.483-2.794 16.133 16.133 0 0 0 1.657-2.657z"/>
            <path id="Path_436" d="M716.7 764.042a13.267 13.267 0 0 1-3.209 4.14 30.5 30.5 0 0 1-5.312 3.9 35.311 35.311 0 0 1-6.279 2.9 18.506 18.506 0 0 1-6.039 1.139 5.06 5.06 0 0 1-3.725-1.242 4.661 4.661 0 0 1-1.242-3.45 7.824 7.824 0 0 1 .38-2.174 27.213 27.213 0 0 1 .965-2.691q.586-1.413 1.311-2.9t1.415-2.794a34.3 34.3 0 0 0 1.863-3.83 5.893 5.893 0 0 0 .414-1.483q0-.481-1.311-1.035l-1.449-.621a27.831 27.831 0 0 1-5.382 8.9q-2 2.277-3.554 3.795a25.2 25.2 0 0 1-2.794 2.415 10 10 0 0 1-2.243 1.276 5.179 5.179 0 0 1-1.828.38l-.966-2.415a7.012 7.012 0 0 0 1.449-1.725 77.8 77.8 0 0 0 5.071-10.626q2.175-5.589 4.106-11.178l16.836 9.522a4.473 4.473 0 0 1 1.483 1.311 2.424 2.424 0 0 1 .448 1.311 5.551 5.551 0 0 1-.621 2.173q-.619 1.345-1.414 2.9t-1.414 3.1a7.392 7.392 0 0 0-.621 2.657q0 .966 1.1.966a6.6 6.6 0 0 0 2.725-.725 19.882 19.882 0 0 0 3.106-1.828 20.209 20.209 0 0 0 2.794-2.381 9.913 9.913 0 0 0 1.794-2.38z"/>
            <path id="Path_437" d="M744.3 749.9q-2 4.968-3.657 8.418t-3 5.761a31.029 31.029 0 0 1-2.45 3.692 27.963 27.963 0 0 1-2 2.277 23.419 23.419 0 0 1-7.107 4.519 21.464 21.464 0 0 1-8.073 1.553 7.044 7.044 0 0 1-4.45-1.415 5.105 5.105 0 0 1-1.828-4.312q0-2.829 2.208-7.8l6.624-14.9h10.343l-9.039 20.079a6.753 6.753 0 0 0-.69 2.346.976.976 0 0 0 1.1 1.1 1.619 1.619 0 0 0 .828-.242 4.384 4.384 0 0 0 1.035-1 15.371 15.371 0 0 0 1.456-2.276q.828-1.516 2.07-4.071 1.38-2.9 3.347-7.348t4.519-11.144z"/>
            <path id="Path_438" d="M774.794 764.042a15.9 15.9 0 0 1-3.864 4.9 27.062 27.062 0 0 1-7.314 4.692 32.658 32.658 0 0 1-4.45 1.759 17.4 17.4 0 0 1-5.21.725q-2.624 0-5-.1t-4.657-.1q-2.07 0-3.8.035a12.557 12.557 0 0 0-2.277.172l-.552-2.346q2.414-2.691 5.348-5.382t5.865-5.313q2.931-2.622 5.623-5.037a60.722 60.722 0 0 0 4.554-4.485q-.828-.068-2-.1t-2.347-.1q-1.173-.067-2.242-.1t-1.76-.034a7.9 7.9 0 0 0-2.38.38 14.083 14.083 0 0 0-2.381 1l-.552-1.173a13.386 13.386 0 0 1 2.1-5.831 4.693 4.693 0 0 1 3.967-2.173 18.39 18.39 0 0 1 2.691.242q1.587.242 3.415.551t3.864.553a34.822 34.822 0 0 0 4.106.241 26.039 26.039 0 0 0 2.967-.173q1.516-.171 3.1-.31l1.035 1.173q-2.553 2.76-5.624 5.658t-6.106 5.589q-3.037 2.691-5.658 5t-4.278 3.968c.414-.092.907-.184 1.484-.276a15.29 15.29 0 0 1 2.311-.138q1.516 0 3.588.172t4.485.173a9 9 0 0 0 2.587-.38 10.557 10.557 0 0 0 3-1.621 19.481 19.481 0 0 0 2.568-2.191 9.281 9.281 0 0 0 1.656-2.311z"/>
            <path id="Path_439" d="M814.882 764.18a12.945 12.945 0 0 1-3.208 4.1 32.271 32.271 0 0 1-5.278 3.864 32.976 32.976 0 0 1-6.21 2.864 18.744 18.744 0 0 1-6 1.1q-4.555 0-4.555-4.83c0-.23.011-.483.035-.759a6.518 6.518 0 0 1 .1-.759 21.106 21.106 0 0 1-15.456 6.348q-5.314 0-5.314-5.037a6.317 6.317 0 0 1 .138-1.242 17.417 17.417 0 0 1 .552-1.932q.414-1.242 1.277-3.312t2.311-5.382l10.971-24.633a17.409 17.409 0 0 1 6.037-7.762q3.691-2.449 9.7-2.45a9.993 9.993 0 0 1 5.795 1.449 6.953 6.953 0 0 1 2.691 3.105l1.863-4.14h10.281l-19.32 43.263a1.3 1.3 0 0 0-.069.414q0 .483.759.483a7.19 7.19 0 0 0 2.864-.724 18.39 18.39 0 0 0 3.208-1.864 21.737 21.737 0 0 0 2.9-2.484 9.674 9.674 0 0 0 1.863-2.518zm-11.523-26.358a11.708 11.708 0 0 0 .828-2.38 10.439 10.439 0 0 0 .276-2.312 5.534 5.534 0 0 0-.793-3.036 2.638 2.638 0 0 0-2.381-1.242 3.517 3.517 0 0 0-1.242.207 3.031 3.031 0 0 0-1.069.724 7.38 7.38 0 0 0-1.07 1.449 25.9 25.9 0 0 0-1.242 2.45L784.8 760.109q-1.656 3.795-2.346 5.623a8.858 8.858 0 0 0-.69 2.519q0 1.656 1.381 1.656a5.356 5.356 0 0 0 2.724-.9 16.66 16.66 0 0 0 2.864-2.208 21.9 21.9 0 0 0 2.484-2.794 16.115 16.115 0 0 0 1.656-2.657z"/>
            <path id="Path_440" d="M846.484 764.042a11.028 11.028 0 0 1-1.242 2.07 12.446 12.446 0 0 1-2.311 2.38 15.064 15.064 0 0 1-3.244 1.967 9.835 9.835 0 0 1-4.105.828 4.153 4.153 0 0 1-2-.483 3.877 3.877 0 0 1-1.38-1.173 18 18 0 0 1-5.519 5.071 11.6 11.6 0 0 1-5.452 1.415 6.411 6.411 0 0 1-2.277-.345 2.851 2.851 0 0 1-1.173-.69l-6 13.524h-11.32l18.217-40.917h8.141l-1.035 2.415a12.207 12.207 0 0 1 3.381-2.622 11.4 11.4 0 0 1 5.175-.966 5.97 5.97 0 0 1 4.209 1.346 4.7 4.7 0 0 1 1.451 3.622 17.037 17.037 0 0 1-.862 4.933 57.817 57.817 0 0 1-2.657 6.728 3.907 3.907 0 0 0-.207 1.242q0 1.311 1.725 1.311a6.524 6.524 0 0 0 3.484-1.1 8.576 8.576 0 0 0 2.933-3.243zm-15.384-10.35a2.765 2.765 0 0 0 .275-1.242q0-1.1-1.173-1.1a2.22 2.22 0 0 0-2.208 1.449l-7.313 16.077a3 3 0 0 0-.277.759 2.894 2.894 0 0 0-.069.552q0 1.242 1.1 1.242 1.516 0 3.1-3.243z"/>
            <path id="Path_441" d="M878.224 764.042a11.1 11.1 0 0 1-1.243 2.07 12.445 12.445 0 0 1-2.311 2.38 15.031 15.031 0 0 1-3.243 1.967 9.842 9.842 0 0 1-4.106.828 4.153 4.153 0 0 1-2-.483 3.9 3.9 0 0 1-1.38-1.173 17.992 17.992 0 0 1-5.519 5.071 11.6 11.6 0 0 1-5.451 1.415 6.412 6.412 0 0 1-2.278-.345 2.845 2.845 0 0 1-1.172-.69l-6 13.524H832.2l18.217-40.917h8.142l-1.036 2.415a12.206 12.206 0 0 1 3.381-2.622 11.4 11.4 0 0 1 5.175-.966 5.97 5.97 0 0 1 4.209 1.346 4.7 4.7 0 0 1 1.449 3.622 17.039 17.039 0 0 1-.862 4.933 57.965 57.965 0 0 1-2.656 6.728 3.88 3.88 0 0 0-.207 1.242q0 1.311 1.724 1.311a6.527 6.527 0 0 0 3.485-1.1 8.575 8.575 0 0 0 2.932-3.243zm-15.387-10.35a2.751 2.751 0 0 0 .275-1.242q0-1.1-1.173-1.1a2.221 2.221 0 0 0-2.208 1.449l-7.313 16.077a2.991 2.991 0 0 0-.276.759 2.905 2.905 0 0 0-.07.552q0 1.242 1.1 1.242 1.515 0 3.1-3.243z"/>
            <path id="Path_442" d="M903.476 782.258q-2.969 6.555-12.351 6.555-4.073 0-5.865-1.415a4.833 4.833 0 0 1-1.794-4.036 12.63 12.63 0 0 1 1.173-4.83l20.7-46.368a11.719 11.719 0 0 1 5.589-6.107 21.983 21.983 0 0 1 9.315-1.69 8.5 8.5 0 0 1 4.829 1.139 3.667 3.667 0 0 1 1.657 3.208 9.227 9.227 0 0 1-.759 3.243l-8.763 19.527a25.221 25.221 0 0 1-2.07 3.726 37.254 37.254 0 0 1-2.622 3.485 23.019 23.019 0 0 1-2.8 2.794 11.1 11.1 0 0 1-2.725 1.725 5.246 5.246 0 0 0 1.38 2.76 3.548 3.548 0 0 0 2.63 1.035 6.212 6.212 0 0 0 1.725-.311 10.335 10.335 0 0 0 2.174-.966 11.5 11.5 0 0 0 2.242-1.724 13.421 13.421 0 0 0 2.07-2.657l2.069 2.691a13.255 13.255 0 0 1-5.1 5.658 13.044 13.044 0 0 1-6.831 2 15.417 15.417 0 0 1-1.726-.069 4.927 4.927 0 0 1-.966-.207 2.475 2.475 0 0 1 .207 1.1 10.516 10.516 0 0 1-.31 2.312 15.979 15.979 0 0 1-1.069 3zm-2.9-7.245a13.06 13.06 0 0 0 1.173-4.83q0-1.656-1.035-2l-5.728 12.765a5.855 5.855 0 0 0-.414 1.1 2.864 2.864 0 0 0-.068.483c0 .414.252.621.759.621a2.352 2.352 0 0 0 2.277-1.449zm19.458-43.539a1.547 1.547 0 0 0 .138-.69q0-.828-1.173-.828a1.767 1.767 0 0 0-1.656 1.1l-12.143 27.19a8.157 8.157 0 0 0 2.9-2.174 17.985 17.985 0 0 0 2.966-4.588z"/>
            <path id="Path_443" d="M979.928 764.042a13.283 13.283 0 0 1-3.209 4.14 30.477 30.477 0 0 1-5.313 3.9 35.279 35.279 0 0 1-6.279 2.9 18.5 18.5 0 0 1-6.037 1.139 5.063 5.063 0 0 1-3.727-1.242 4.661 4.661 0 0 1-1.242-3.45 7.863 7.863 0 0 1 .38-2.174 27.248 27.248 0 0 1 .966-2.691q.585-1.413 1.311-2.9t1.414-2.794a34.552 34.552 0 0 0 1.864-3.83 5.94 5.94 0 0 0 .414-1.483.513.513 0 0 0-.311-.449q-.31-.171-1-.586l-2.208-1.311a8.268 8.268 0 0 1-8.348 5.175c-.552 0-1.128-.023-1.725-.069a16.062 16.062 0 0 1-1.933-.276 61.334 61.334 0 0 1-4.553 9.591 20.454 20.454 0 0 1-4.589 5.451 12.5 12.5 0 0 1-5.072 2.45 27.61 27.61 0 0 1-5.865.586q-5.037 0-7.038-1.483a4.759 4.759 0 0 1-2-4.037 10.022 10.022 0 0 1 .449-2.829 24.516 24.516 0 0 1 1.277-3.312l3.174-6.9a31.9 31.9 0 0 1 3-5.244 16.048 16.048 0 0 1 3.243-3.416 11.252 11.252 0 0 1 3.519-1.828 13.166 13.166 0 0 1 3.829-.552c.783 0 1.38.012 1.794.035a4.027 4.027 0 0 1 1.035.172 8.75 8.75 0 0 1 6.141-2.277 5.15 5.15 0 0 1 3.45.966 3.472 3.472 0 0 1 1.105 2.76 11.418 11.418 0 0 1-1.242 4.623c.229.046.448.081.655.1a5.093 5.093 0 0 0 .587.035 3.617 3.617 0 0 0 2.069-.655 8.233 8.233 0 0 0 1.794-1.691 12.235 12.235 0 0 0 1.449-2.311q.621-1.277 1.173-2.519l14.076 8.487a4.279 4.279 0 0 1 1.484 1.346 2.511 2.511 0 0 1 .449 1.276 5.55 5.55 0 0 1-.621 2.173q-.621 1.345-1.415 2.9t-1.414 3.1a7.392 7.392 0 0 0-.621 2.657q0 .966 1.1.966a6.6 6.6 0 0 0 2.726-.725 19.877 19.877 0 0 0 3.105-1.828 20.1 20.1 0 0 0 2.794-2.381 9.887 9.887 0 0 0 1.794-2.38zm-44.091-8.763a2.362 2.362 0 0 1-1-1.207 4.6 4.6 0 0 1-.311-1.691 5.115 5.115 0 0 1 .07-.966 2.815 2.815 0 0 0-1.277 1 12.655 12.655 0 0 0-1.07 2.174l-6.348 14.49a3.377 3.377 0 0 0-.344 1.38c0 .874.389 1.311 1.173 1.311a2.758 2.758 0 0 0 1.483-.518 3.239 3.239 0 0 0 1.208-1.483zm6.762-3.1a4.282 4.282 0 0 0 .379-.9 3.678 3.678 0 0 0 .172-1.1 2.406 2.406 0 0 0-.241-1.139.9.9 0 0 0-.862-.448q-1.657 0-1.656 1.587 0 1.997 2.209 1.995z"/>
            <path id="Path_444" d="M1007.112 732.026a3.68 3.68 0 0 0 .345-1.311q0-1.449-2.828-1.449h-.691q-2.139 0-2.138-1.863a2.519 2.519 0 0 1 1.241-2.243q1.242-.792 5.106-.793a35.544 35.544 0 0 1 7.039.586 5.762 5.762 0 0 1 3.864 2.174 15.1 15.1 0 0 1 4.346-2.07 19.384 19.384 0 0 1 5.452-.69q10.486 0 10.487 6.9a9.26 9.26 0 0 1-1.38 4.658 20.655 20.655 0 0 1-3.76 4.623 33.941 33.941 0 0 1-5.52 4.174 41.848 41.848 0 0 1-6.658 3.312 8.481 8.481 0 0 1 4.1 2.691 6.866 6.866 0 0 1 1.621 4.554 16.853 16.853 0 0 1-2.346 8.866 20.377 20.377 0 0 1-6.382 6.555 30.9 30.9 0 0 1-9.488 4.037 47.082 47.082 0 0 1-11.591 1.38h-3.485q-1.692 0-3.139-.035t-2.45-.069a10.48 10.48 0 0 1-1.345-.1zm-5.1 38.088a2.252 2.252 0 0 0 1.241.276 8.469 8.469 0 0 0 4.278-1.346 19.121 19.121 0 0 0 4.244-3.45 20.25 20.25 0 0 0 3.278-4.691 11.065 11.065 0 0 0 1.31-5q0-3.657-5.312-6.072zm10.349-23.184q7.246-2.07 10.005-5.313a44.955 44.955 0 0 0 3.692-5.244 9 9 0 0 0 1.276-4.554q0-2.691-3.174-2.691a5.322 5.322 0 0 0-3.346 1.035 8.128 8.128 0 0 0-2.312 3.174z"/>
            <path id="Path_445" d="M1068.108 764.042a13.3 13.3 0 0 1-3.07 4 32.693 32.693 0 0 1-5.071 3.933 34.517 34.517 0 0 1-5.8 2.967 14.52 14.52 0 0 1-5.243 1.173 4.773 4.773 0 0 1-3.036-.828 4.1 4.1 0 0 1-1.38-1.794 11.866 11.866 0 0 1-3.485 1.794 16.3 16.3 0 0 1-5.486.828 6.667 6.667 0 0 1-4.657-1.38 5.017 5.017 0 0 1-1.484-3.864 16.917 16.917 0 0 1 1.725-6.693l7.314-16.491h10.35l-8.97 20.079a6.123 6.123 0 0 0-.551 2.346q0 1.1.965 1.1 1.518 0 2.9-3.036l10.212-23.046 8.762 4.761-7.314 16.491a2.745 2.745 0 0 0-.275 1.242q0 1.035 1.242 1.035a6.276 6.276 0 0 0 2.656-.759 20.639 20.639 0 0 0 3.07-1.863 21.256 21.256 0 0 0 2.76-2.381 10.685 10.685 0 0 0 1.794-2.311z"/>
            <path id="Path_446" d="M1098.6 764.042a18.493 18.493 0 0 1-4.071 4.9 28.917 28.917 0 0 1-5.692 3.829 30.02 30.02 0 0 1-6.658 2.485 29.191 29.191 0 0 1-6.969.862 11.433 11.433 0 0 1-3.83-.621 9.333 9.333 0 0 1-3.036-1.725 8.479 8.479 0 0 1-2-2.484 6.285 6.285 0 0 1-.724-2.967v-.759a6.941 6.941 0 0 1-1.449 1.173q-.968.621-1.587 1.035a6.872 6.872 0 0 1-.346-1.794 5.079 5.079 0 0 1 1.278-2.967 43.831 43.831 0 0 0 2.517-3.657q1.173-1.863 2.208-3.209t2.1-2.518q1.068-1.173 2.243-2.242t2.553-2.312c-.046-.321-.082-.586-.1-.793a9.261 9.261 0 0 1-.034-.932 12.908 12.908 0 0 1 .655-4.106 10.79 10.79 0 0 1 1.828-3.415 9.022 9.022 0 0 1 2.8-2.312 7.455 7.455 0 0 1 3.554-.862 5.2 5.2 0 0 1 2.9.724 3.024 3.024 0 0 1 1.1 2.726 7.779 7.779 0 0 1-.139 1.38 5.6 5.6 0 0 1-.655 1.691 14.548 14.548 0 0 1-1.484 2.1 26.337 26.337 0 0 1-2.552 2.622q5.588 7.038 5.589 10.9a9.911 9.911 0 0 1-7.039 10.005 19.532 19.532 0 0 0 3.9-1.069 27.692 27.692 0 0 0 4.175-2 23.172 23.172 0 0 0 3.864-2.829 16 16 0 0 0 2.967-3.554zm-21.8-8.073a24.775 24.775 0 0 0-2.449 1.966 14.363 14.363 0 0 0-2.519 3.071 11.649 11.649 0 0 0-1.553 3.174 9.86 9.86 0 0 0-.38 2.622 2.149 2.149 0 0 0 .587 1.69 3.087 3.087 0 0 0 2.035.518 4.215 4.215 0 0 0 2.208-.621 6.079 6.079 0 0 0 1.76-1.587 7.812 7.812 0 0 0 1.139-2.174 7.323 7.323 0 0 0 .414-2.38 17.893 17.893 0 0 0-.346-3.657 9.156 9.156 0 0 0-.896-2.622zm4.346-9.66a5.3 5.3 0 0 0 1.794-1.656 2.821 2.821 0 0 0 .345-1.242c0-.46-.206-.69-.62-.69q-1.657 0-1.656 2.07c0 .138.01.38.034.724a4.79 4.79 0 0 0 .105.794z"/>
            <path id="Path_447" d="M1118.477 764.042a13.3 13.3 0 0 1-3.208 4.14 30.519 30.519 0 0 1-5.314 3.9 35.312 35.312 0 0 1-6.279 2.9 18.5 18.5 0 0 1-6.037 1.139 5.372 5.372 0 0 1-3.622-1.208 4.08 4.08 0 0 1-1.415-3.277 7.7 7.7 0 0 1 .9-3.45l10.28-23.046 8.695 4.761-7.315 16.491a3.641 3.641 0 0 0-.345 1.242q0 1.035 1.173 1.035a6.586 6.586 0 0 0 2.761-.759 19.873 19.873 0 0 0 3.1-1.863 21.312 21.312 0 0 0 2.759-2.381 8.9 8.9 0 0 0 1.726-2.311zm1.1-28.7a3.7 3.7 0 0 1-.863 2.38 7.38 7.38 0 0 1-2.139 1.794 12.072 12.072 0 0 1-2.795 1.139 10.79 10.79 0 0 1-2.828.414 6.431 6.431 0 0 1-3.209-.794 2.413 2.413 0 0 1-1.414-2.173 3.717 3.717 0 0 1 .759-2.173 7.547 7.547 0 0 1 2-1.9 10.889 10.889 0 0 1 2.76-1.311 10.2 10.2 0 0 1 3.1-.483 6.233 6.233 0 0 1 3.208.828 2.54 2.54 0 0 1 1.425 2.275z"/>
            <path id="Path_448" d="M1153.113 764.042a12.808 12.808 0 0 1-3.243 4.209 31.675 31.675 0 0 1-5.348 3.9 33.539 33.539 0 0 1-6.278 2.864 18.867 18.867 0 0 1-5.969 1.1 5.292 5.292 0 0 1-3.725-1.208 4.148 4.148 0 0 1-1.312-3.208 10.282 10.282 0 0 1 .863-3.45q.863-2.208 2.07-4.83t2.518-5.244q1.31-2.622 2.139-4.692a8.4 8.4 0 0 0 .276-.966 3.281 3.281 0 0 0 .07-.621q0-.828-.967-.828a2.854 2.854 0 0 0-1.587.448 2.732 2.732 0 0 0-1.035 1.277l-10.212 23.115h-11.522l13.662-30.774 7.245 3.8a7.571 7.571 0 0 1 4.209-2.036 32.076 32.076 0 0 1 4.83-.379 5.543 5.543 0 0 1 4.036 1.38 5.062 5.062 0 0 1 1.414 3.795 10.46 10.46 0 0 1-.552 3.07 39.056 39.056 0 0 1-1.38 3.692q-.826 1.932-1.759 3.9t-1.621 3.692a3.768 3.768 0 0 0-.484 1.587q0 1.035 1.242 1.035a6.5 6.5 0 0 0 2.692-.759 19.814 19.814 0 0 0 3.1-1.863 21.192 21.192 0 0 0 2.76-2.381 8.925 8.925 0 0 0 1.726-2.311z"/>
            <path id="Path_449" d="M1182.37 764.042a13.556 13.556 0 0 1-2.277 3.243 20.667 20.667 0 0 1-3.656 3.105 33.165 33.165 0 0 1-7.867 4.278 26.06 26.06 0 0 1-9.039 1.449q-2.762 0-4.864-.172a11.422 11.422 0 0 1-3.554-.794 4.866 4.866 0 0 1-2.208-1.76 5.453 5.453 0 0 1-.759-3.07q0-2.829 2.139-7.728l2.553-5.727a25.069 25.069 0 0 1 2.691-4.8 12.567 12.567 0 0 1 3.415-3.209 13.9 13.9 0 0 1 4.555-1.794 29.59 29.59 0 0 1 6.106-.552 26.357 26.357 0 0 1 4.451.31 8.632 8.632 0 0 1 2.725.863 3.11 3.11 0 0 1 1.346 1.38 4.436 4.436 0 0 1 .379 1.863 17.4 17.4 0 0 1-.518 3.933 11.24 11.24 0 0 1-2.1 4.278 8.271 8.271 0 0 1-3 2.38 20.306 20.306 0 0 1-4.175 1.484 38.788 38.788 0 0 1-4.589.828q-2.312.276-4.243.345-.828 1.8-1.276 3.07a6.634 6.634 0 0 0-.449 2.1q0 1.863 2.553 1.863a23.3 23.3 0 0 0 5.8-.759 27.477 27.477 0 0 0 5.624-2.1 24.991 24.991 0 0 0 4.795-3.139 14.291 14.291 0 0 0 3.312-3.864zm-21.045-3.519a7.852 7.852 0 0 0 5.175-2.622 8.383 8.383 0 0 0 1.519-2.553 8.671 8.671 0 0 0 .551-3.105q0-.9-1.311-.9a2.327 2.327 0 0 0-1.484.518 6.114 6.114 0 0 0-1.414 2.173z"/>
            <path id="Path_450" d="M1212.8 764.042a18.511 18.511 0 0 1-4.071 4.9 28.957 28.957 0 0 1-5.693 3.829 30 30 0 0 1-6.658 2.485 29.191 29.191 0 0 1-6.969.862 11.433 11.433 0 0 1-3.83-.621 9.343 9.343 0 0 1-3.036-1.725 8.477 8.477 0 0 1-2-2.484 6.3 6.3 0 0 1-.724-2.967v-.759a6.913 6.913 0 0 1-1.449 1.173q-.966.621-1.587 1.035a6.9 6.9 0 0 1-.345-1.794 5.077 5.077 0 0 1 1.277-2.967 43.831 43.831 0 0 0 2.517-3.657q1.174-1.863 2.208-3.209t2.1-2.518q1.07-1.173 2.243-2.242t2.553-2.312c-.046-.321-.081-.586-.1-.793a9.253 9.253 0 0 1-.034-.932 12.908 12.908 0 0 1 .655-4.106 10.772 10.772 0 0 1 1.829-3.415 9.01 9.01 0 0 1 2.8-2.312 7.451 7.451 0 0 1 3.553-.862 5.2 5.2 0 0 1 2.9.724 3.026 3.026 0 0 1 1.1 2.726 7.863 7.863 0 0 1-.138 1.38 5.606 5.606 0 0 1-.656 1.691 14.532 14.532 0 0 1-1.483 2.1 26.359 26.359 0 0 1-2.553 2.622q5.589 7.038 5.589 10.9a9.909 9.909 0 0 1-7.038 10.005 19.541 19.541 0 0 0 3.9-1.069 27.643 27.643 0 0 0 4.175-2 23.172 23.172 0 0 0 3.864-2.829 15.974 15.974 0 0 0 2.967-3.554zm-21.8-8.073a24.9 24.9 0 0 0-2.449 1.966 14.392 14.392 0 0 0-2.519 3.071 11.642 11.642 0 0 0-1.552 3.174 9.86 9.86 0 0 0-.38 2.622 2.145 2.145 0 0 0 .587 1.69 3.083 3.083 0 0 0 2.035.518 4.22 4.22 0 0 0 2.208-.621 6.106 6.106 0 0 0 1.76-1.587 7.835 7.835 0 0 0 1.138-2.174 7.3 7.3 0 0 0 .414-2.38 17.965 17.965 0 0 0-.345-3.657 9.184 9.184 0 0 0-.903-2.622zm4.347-9.66a5.315 5.315 0 0 0 1.794-1.656 2.832 2.832 0 0 0 .344-1.242q0-.69-.62-.69-1.656 0-1.656 2.07c0 .138.011.38.034.724a4.771 4.771 0 0 0 .098.794z"/>
            <path id="Path_451" d="M1243.3 764.042a18.512 18.512 0 0 1-4.071 4.9 28.953 28.953 0 0 1-5.693 3.829 30 30 0 0 1-6.658 2.485 29.193 29.193 0 0 1-6.969.862 11.434 11.434 0 0 1-3.83-.621 9.344 9.344 0 0 1-3.036-1.725 8.512 8.512 0 0 1-2-2.484 6.3 6.3 0 0 1-.724-2.967v-.759a6.912 6.912 0 0 1-1.449 1.173q-.966.621-1.587 1.035a6.907 6.907 0 0 1-.345-1.794 5.077 5.077 0 0 1 1.277-2.967 43.8 43.8 0 0 0 2.518-3.657q1.173-1.863 2.208-3.209t2.1-2.518q1.07-1.173 2.243-2.242t2.553-2.312c-.046-.321-.081-.586-.1-.793a9.261 9.261 0 0 1-.034-.932 12.881 12.881 0 0 1 .656-4.106 10.746 10.746 0 0 1 1.828-3.415 9.023 9.023 0 0 1 2.795-2.312 7.452 7.452 0 0 1 3.553-.862 5.2 5.2 0 0 1 2.9.724 3.026 3.026 0 0 1 1.1 2.726 7.863 7.863 0 0 1-.138 1.38 5.606 5.606 0 0 1-.656 1.691 14.552 14.552 0 0 1-1.483 2.1 26.373 26.373 0 0 1-2.553 2.622q5.589 7.038 5.589 10.9a9.909 9.909 0 0 1-7.038 10.005 19.542 19.542 0 0 0 3.9-1.069 27.647 27.647 0 0 0 4.175-2 23.172 23.172 0 0 0 3.864-2.829 15.967 15.967 0 0 0 2.967-3.554zm-21.8-8.073a24.9 24.9 0 0 0-2.449 1.966 14.429 14.429 0 0 0-2.519 3.071 11.646 11.646 0 0 0-1.552 3.174 9.865 9.865 0 0 0-.38 2.622 2.145 2.145 0 0 0 .587 1.69 3.084 3.084 0 0 0 2.035.518 4.221 4.221 0 0 0 2.208-.621 6.107 6.107 0 0 0 1.76-1.587 7.838 7.838 0 0 0 1.138-2.174 7.3 7.3 0 0 0 .414-2.38 17.956 17.956 0 0 0-.345-3.657 9.18 9.18 0 0 0-.906-2.622zm4.347-9.66a5.315 5.315 0 0 0 1.794-1.656 2.835 2.835 0 0 0 .345-1.242c0-.46-.206-.69-.621-.69q-1.656 0-1.656 2.07c0 .138.011.38.034.724a4.755 4.755 0 0 0 .095.794z"/>
            <path id="Path_452" d="M1272.619 764.042a13.529 13.529 0 0 1-2.277 3.243 20.672 20.672 0 0 1-3.656 3.105 33.165 33.165 0 0 1-7.867 4.278 26.06 26.06 0 0 1-9.039 1.449q-2.762 0-4.864-.172a11.422 11.422 0 0 1-3.554-.794 4.866 4.866 0 0 1-2.208-1.76 5.453 5.453 0 0 1-.758-3.07q0-2.829 2.138-7.728l2.553-5.727a25.076 25.076 0 0 1 2.691-4.8 12.569 12.569 0 0 1 3.415-3.209 13.9 13.9 0 0 1 4.555-1.794 29.59 29.59 0 0 1 6.106-.552 26.359 26.359 0 0 1 4.451.31 8.632 8.632 0 0 1 2.725.863 3.112 3.112 0 0 1 1.346 1.38 4.436 4.436 0 0 1 .379 1.863 17.4 17.4 0 0 1-.518 3.933 11.244 11.244 0 0 1-2.1 4.278 8.271 8.271 0 0 1-3 2.38 20.305 20.305 0 0 1-4.175 1.484 38.788 38.788 0 0 1-4.589.828q-2.312.276-4.243.345-.828 1.8-1.276 3.07a6.63 6.63 0 0 0-.449 2.1q0 1.863 2.553 1.863a23.291 23.291 0 0 0 5.8-.759 27.477 27.477 0 0 0 5.624-2.1 25 25 0 0 0 4.795-3.139 14.291 14.291 0 0 0 3.312-3.864zm-21.045-3.519a7.852 7.852 0 0 0 5.175-2.622 8.385 8.385 0 0 0 1.519-2.553 8.668 8.668 0 0 0 .551-3.105q0-.9-1.311-.9a2.327 2.327 0 0 0-1.484.518 6.114 6.114 0 0 0-1.414 2.173z"/>
            <path id="Path_453" d="M1303.048 764.042a18.511 18.511 0 0 1-4.071 4.9 28.957 28.957 0 0 1-5.693 3.829 30 30 0 0 1-6.658 2.485 29.191 29.191 0 0 1-6.969.862 11.433 11.433 0 0 1-3.83-.621 9.343 9.343 0 0 1-3.036-1.725 8.477 8.477 0 0 1-2-2.484 6.3 6.3 0 0 1-.724-2.967v-.759a6.913 6.913 0 0 1-1.449 1.173q-.966.621-1.587 1.035a6.9 6.9 0 0 1-.345-1.794 5.077 5.077 0 0 1 1.277-2.967 43.831 43.831 0 0 0 2.517-3.657q1.174-1.863 2.208-3.209t2.1-2.518q1.07-1.173 2.243-2.242t2.553-2.312c-.046-.321-.081-.586-.1-.793a9.253 9.253 0 0 1-.034-.932 12.908 12.908 0 0 1 .655-4.106 10.772 10.772 0 0 1 1.829-3.415 9.01 9.01 0 0 1 2.8-2.312 7.451 7.451 0 0 1 3.553-.862 5.2 5.2 0 0 1 2.9.724 3.026 3.026 0 0 1 1.1 2.726 7.863 7.863 0 0 1-.138 1.38 5.606 5.606 0 0 1-.656 1.691 14.532 14.532 0 0 1-1.483 2.1 26.359 26.359 0 0 1-2.553 2.622q5.589 7.038 5.589 10.9a9.909 9.909 0 0 1-7.038 10.005 19.541 19.541 0 0 0 3.9-1.069 27.643 27.643 0 0 0 4.175-2 23.172 23.172 0 0 0 3.864-2.829 15.974 15.974 0 0 0 2.967-3.554zm-21.8-8.073a24.9 24.9 0 0 0-2.449 1.966 14.392 14.392 0 0 0-2.519 3.071 11.642 11.642 0 0 0-1.552 3.174 9.86 9.86 0 0 0-.38 2.622 2.145 2.145 0 0 0 .587 1.69 3.083 3.083 0 0 0 2.035.518 4.22 4.22 0 0 0 2.208-.621 6.106 6.106 0 0 0 1.76-1.587 7.835 7.835 0 0 0 1.138-2.174 7.3 7.3 0 0 0 .414-2.38 17.965 17.965 0 0 0-.345-3.657 9.184 9.184 0 0 0-.901-2.622zm4.347-9.66a5.315 5.315 0 0 0 1.794-1.656 2.832 2.832 0 0 0 .344-1.242q0-.69-.62-.69-1.656 0-1.656 2.07c0 .138.011.38.034.724a4.771 4.771 0 0 0 .1.794z"/>
        </g>
        <g id="Group_191">
            <path id="Rectangle_86" d="M0 0H984.954V1.441H0z" class="cls-1" transform="translate(467.666 802.803)"/>
            <g id="Group_189">
                <path id="Path_454" d="M467.936 808.941a5.417 5.417 0 1 1 5.418-5.418 5.418 5.418 0 0 1-5.418 5.418z" class="cls-1"/>
            </g>
            <g id="Group_190">
                <path id="Path_455" d="M1452.349 808.941a5.417 5.417 0 1 0-5.418-5.418 5.418 5.418 0 0 0 5.418 5.418z" class="cls-1"/>
            </g>
        </g>
        <g id="Group_556">
            <path id="Path_456" d="M1350.119 758.687l59.639-6.97-6.194 6.579 45.02.134-57.865 7 7.694-7.143z"/>
            <path id="Path_457" d="M559.371 758.291l7.694 7.143-57.865-7 45.02-.134-6.194-6.579 59.639 6.97z"/>
        </g>
    </g>
</svg>
