<svg xmlns="http://www.w3.org/2000/svg" width="140.375" height="140.375" viewBox="0 0 140.375 140.375"><defs><style>.a{fill:#ffcb05;stroke:#000;stroke-miterlimit:10;stroke-width:8.559px;}.b{stroke:none;}.c{fill:none;}</style></defs><g transform="translate(-385.441 -12683.22)"><g class="a" transform="translate(394.001 12691.779)"><circle class="b" cx="61.628" cy="61.628" r="61.628"/><circle class="c" cx="61.628" cy="61.628" r="65.908"/></g><path d="M480.258,12747.964a27.617,27.617,0,0,1,6.757.946v-20l-33.785-14.73-33.784,14.73V12751c0,20.474,14.392,39.6,33.784,44.258a34.534,34.534,0,0,0,6.892-2.364,26.939,26.939,0,0,1,20.136-44.934Z"/><path d="M480.258,12754.721a20.271,20.271,0,1,0,20.271,20.271A20.244,20.244,0,0,0,480.258,12754.721Zm0,6.959a5.676,5.676,0,1,1-5.676,5.677A5.667,5.667,0,0,1,480.258,12761.68Zm0,27.231a13.913,13.913,0,0,1-11.352-5.879c.271-3.649,7.636-5.474,11.352-5.474s11.081,1.824,11.351,5.474A13.736,13.736,0,0,1,480.258,12788.911Z"/></g></svg>