<svg xmlns="http://www.w3.org/2000/svg" viewBox="0 0 164 164"><defs><style>.cls-1{fill:#7ed321;}.cls-2{fill-rule:evenodd;}</style></defs><title>Cam_Icon</title><g id="Layer_2" data-name="Layer 2"><g id="LiveCams"><circle class="cls-1" cx="82" cy="82" r="72"/><path d="M82,10A72,72,0,1,1,10,82,72,72,0,0,1,82,10M82,0a82,82,0,1,0,82,82A82.09,82.09,0,0,0,82,0Z"/><path class="cls-2" d="M112.13,74.32V55.24a5.47,5.47,0,0,0-5.47-5.45H41.06a5.47,5.47,0,0,0-5.47,5.45v54.51a5.47,5.47,0,0,0,5.47,5.45h65.6a5.47,5.47,0,0,0,5.47-5.45V90.67L134,112.47V52.52Z"/></g></g></svg>