<svg xmlns="http://www.w3.org/2000/svg" viewBox="0 0 164 164"><defs><style>.cls-1{fill:#7ed321;}</style></defs><title>Chart_Icon</title><g id="Layer_2" data-name="Layer 2"><g id="ANALYTICS"><circle class="cls-1" cx="82" cy="82" r="72"/><path d="M82,10A72,72,0,1,1,10,82,72,72,0,0,1,82,10M82,0a82,82,0,1,0,82,82A82.1,82.1,0,0,0,82,0Z"/><path d="M117.07,37.15H46.87a10.06,10.06,0,0,0-10,10v70.2a10.05,10.05,0,0,0,10,10h70.2a10.05,10.05,0,0,0,10-10V47.18A10.06,10.06,0,0,0,117.07,37.15Zm-50.14,70.2h-10V82.28h10Zm20.06,0H77v-15H87Zm0-25.07H77v-10H87ZM107,107.35H97V57.21h10Z"/></g></g></svg>