<svg xmlns="http://www.w3.org/2000/svg" width="717.244" height="61.409" viewBox="0 0 717.244 61.409">
    <g>
        <g>
            <path d="M673.039 8491.889a2.153 2.153 0 0 1-1 .518 15.232 15.232 0 0 1-2.311.311q.137.9.275 1.829a12.939 12.939 0 0 1 .139 1.9 16.96 16.96 0 0 1-1.76 7.349 22.225 22.225 0 0 1-4.864 6.624 25.581 25.581 0 0 1-7.349 4.795 22.83 22.83 0 0 1-9.28 1.863 20.725 20.725 0 0 1-4.934-.552 12.809 12.809 0 0 1-3.864-1.588 7.4 7.4 0 0 1-2.519-2.621 7.3 7.3 0 0 1-.9-3.657 14.569 14.569 0 0 1 1.691-6.831 21.554 21.554 0 0 1 4.52-5.865 28.826 28.826 0 0 1 6.451-4.485 32.33 32.33 0 0 1 7.487-2.76q-.14-1.034-.207-2.208t-.07-2.76a13.8 13.8 0 0 1 1.311-5.865 20.59 20.59 0 0 1 3.519-5.244 13 13 0 0 0-4.381-2.829 10.821 10.821 0 0 0-3.278-.689 8.27 8.27 0 0 0-1.759.173 7.652 7.652 0 0 0-1.759.655q-.967.552-1.588.861a2.524 2.524 0 0 1-1.1.312 1.553 1.553 0 0 1-.965-.38 1.353 1.353 0 0 1-.483-1.139 2.754 2.754 0 0 1 .724-1.862 5.278 5.278 0 0 1 1.932-1.347 12.71 12.71 0 0 1 2.76-.793 18.441 18.441 0 0 1 3.209-.275 15.057 15.057 0 0 1 5.554.966 18.129 18.129 0 0 1 4.865 2.967 20.773 20.773 0 0 1 6.037-2.967 22.519 22.519 0 0 1 6.521-.966 9.112 9.112 0 0 1 5.14 1.311 4.349 4.349 0 0 1 1.967 3.864 8.319 8.319 0 0 1-.863 3.83 9 9 0 0 1-2.277 2.863 10.679 10.679 0 0 1-6.658 2.415 13.4 13.4 0 0 1-5.934-1.242 9.635 9.635 0 0 0-.483 2.035 16.818 16.818 0 0 0-.138 2.174 7.181 7.181 0 0 0 .551 2.588q.552 1.415 1.311 3.139.966.069 2 .069h2.208a6.272 6.272 0 0 0 2.347-.414zm-16.7 2.414a30.519 30.519 0 0 0-4.692 2.071 19.4 19.4 0 0 0-4.036 2.9 13.034 13.034 0 0 0-2.795 3.76 10.415 10.415 0 0 0-1.034 4.658 5.007 5.007 0 0 0 1.034 3.14 3.379 3.379 0 0 0 2.829 1.345 8.488 8.488 0 0 0 4.451-1.138 10.859 10.859 0 0 0 3.139-2.795 12.365 12.365 0 0 0 1.864-3.52 10.629 10.629 0 0 0 .621-3.312c0-.459-.013-.92-.035-1.38a10.216 10.216 0 0 0-.207-1.519q-.172-.828-.448-1.829t-.69-2.384zm12.972-20.216a9.722 9.722 0 0 0 1.967.862 7.051 7.051 0 0 0 2.1.311 3.688 3.688 0 0 0 1.381-.275 5.385 5.385 0 0 0 1.241-.69 4.464 4.464 0 0 0 .932-.932 1.712 1.712 0 0 0 .379-1 1.855 1.855 0 0 0-.517-1.312 1.935 1.935 0 0 0-1.484-.552 6.058 6.058 0 0 0-3.173.966 10.162 10.162 0 0 0-2.825 2.622z" transform="translate(-624.187 -8465.324)"/>
            <path d="M709.4 8494.166q-3.8 4-11.868 4.83a61.226 61.226 0 0 1-4.554 9.591 20.443 20.443 0 0 1-4.588 5.451 12.5 12.5 0 0 1-5.072 2.449 27.565 27.565 0 0 1-5.864.587q-5.039 0-7.038-1.483a4.758 4.758 0 0 1-2-4.038 15.074 15.074 0 0 1 1.724-6.14l3.174-6.9a32.042 32.042 0 0 1 3-5.244 16.041 16.041 0 0 1 3.243-3.416 11.206 11.206 0 0 1 3.519-1.827 13.165 13.165 0 0 1 3.829-.553q1.173 0 1.794.035a4.1 4.1 0 0 1 1.035.172 8.75 8.75 0 0 1 6.141-2.276 5.149 5.149 0 0 1 3.45.966 3.473 3.473 0 0 1 1.1 2.76 11.4 11.4 0 0 1-1.242 4.623l1.208.242a5.217 5.217 0 0 0 1 .1 9.3 9.3 0 0 0 2.933-.517 11.578 11.578 0 0 0 3.277-1.829zm-20.976 2.07a2.372 2.372 0 0 1-1-1.208 4.6 4.6 0 0 1-.311-1.69 5.1 5.1 0 0 1 .07-.966 3.546 3.546 0 0 0-1.208 1 9.536 9.536 0 0 0-1.139 2.173l-6.348 14.49a3.376 3.376 0 0 0-.344 1.38q0 1.313 1.172 1.311a2.535 2.535 0 0 0 1.484-.517 3.934 3.934 0 0 0 1.207-1.484zm6.762-3.105a4.2 4.2 0 0 0 .38-.9 3.713 3.713 0 0 0 .172-1.1 2.392 2.392 0 0 0-.241-1.139.9.9 0 0 0-.863-.448q-1.656 0-1.656 1.587.001 2.001 2.209 2z" transform="translate(-624.187 -8465.324)"/>
            <path d="M733 8505a10.242 10.242 0 0 1-1.794 2.725 19.023 19.023 0 0 1-2.9 2.657 35.968 35.968 0 0 1-8.556 4.934 26.651 26.651 0 0 1-9.936 1.76q-2.624 0-4.727-.207a12.513 12.513 0 0 1-3.588-.828 5.063 5.063 0 0 1-2.276-1.76 5.143 5.143 0 0 1-.794-3q0-2.83 2.139-7.729l2.553-5.727q2.484-5.657 6.486-8a19.976 19.976 0 0 1 10.212-2.347 21.374 21.374 0 0 1 7 .828 3.269 3.269 0 0 1 2.173 3.381 7.141 7.141 0 0 1-.345 1.933l-11.73 4.209a10.855 10.855 0 0 0 1.346-2.277 5.858 5.858 0 0 0 .586-2.346q0-.9-1.311-.9a2.351 2.351 0 0 0-2.277 1.45l-6.762 14.973a5.967 5.967 0 0 0-.483 2.277 1.062 1.062 0 0 0 .828 1.173 6.772 6.772 0 0 0 1.656.207 26.076 26.076 0 0 0 6.762-.966 28.194 28.194 0 0 0 6.9-2.9 23.491 23.491 0 0 0 3.726-2.656 14.1 14.1 0 0 0 2.967-3.554z" transform="translate(-624.187 -8465.324)"/>
            <path d="M752.8 8505a13.277 13.277 0 0 1-3.208 4.14 30.519 30.519 0 0 1-5.313 3.9 35.229 35.229 0 0 1-6.279 2.9 18.508 18.508 0 0 1-6.038 1.14 5.377 5.377 0 0 1-3.622-1.208 4.083 4.083 0 0 1-1.415-3.277 7.715 7.715 0 0 1 .9-3.45l10.281-23.046 8.694 4.761-7.314 16.49a3.631 3.631 0 0 0-.345 1.243q0 1.036 1.173 1.035a6.58 6.58 0 0 0 2.76-.759 19.79 19.79 0 0 0 3.1-1.863 21.523 21.523 0 0 0 2.76-2.38 8.948 8.948 0 0 0 1.726-2.312zm1.1-28.7a3.7 3.7 0 0 1-.862 2.381 7.428 7.428 0 0 1-2.139 1.793 12.047 12.047 0 0 1-2.795 1.14 10.816 10.816 0 0 1-2.829.414 6.424 6.424 0 0 1-3.208-.795 2.412 2.412 0 0 1-1.415-2.173 3.72 3.72 0 0 1 .76-2.173 7.524 7.524 0 0 1 2-1.9 10.907 10.907 0 0 1 2.76-1.312 10.167 10.167 0 0 1 3.1-.482 6.238 6.238 0 0 1 3.209.827 2.54 2.54 0 0 1 1.424 2.275z" transform="translate(-624.187 -8465.324)"/>
            <path d="M785.92 8505a14.889 14.889 0 0 1-3.38 4.312 29.953 29.953 0 0 1-5.313 3.9 32.727 32.727 0 0 1-6.21 2.795 19.1 19.1 0 0 1-5.934 1.069 2.652 2.652 0 0 1-1.967-.726 3.441 3.441 0 0 1-.931-1.9 10.9 10.9 0 0 1-3.278 1.932 14.591 14.591 0 0 1-5 .69 7.39 7.39 0 0 1-4.658-1.414 5.111 5.111 0 0 1-1.829-4.313 15.852 15.852 0 0 1 .829-4.484 34.13 34.13 0 0 1 2.415-5.728 51.312 51.312 0 0 1 3.967-6.8 21.4 21.4 0 0 1 3.761-4.175 11.414 11.414 0 0 1 3.726-2.105 12.822 12.822 0 0 1 3.863-.586 7.68 7.68 0 0 1 4.037.793 6.7 6.7 0 0 1 1.966 1.968l.691-1.587h8.211l-7.245 16.215q-.76 1.724-1.07 2.448a3.32 3.32 0 0 0-.31 1.277q0 1.036 1.173 1.035a6.579 6.579 0 0 0 2.759-.759A19.788 19.788 0 0 0 779.3 8507a21.467 21.467 0 0 0 2.761-2.38 8.941 8.941 0 0 0 1.725-2.312zm-18.354-10.833a.789.789 0 0 0 .139-.448v-.449a1.053 1.053 0 0 0-.242-.655 1.133 1.133 0 0 0-.931-.312 2.272 2.272 0 0 0-1.622.554 4.929 4.929 0 0 0-1.069 1.725l-6.279 14.145a5.254 5.254 0 0 0-.622 2.347q0 1.1.967 1.1 1.586 0 3.035-3.036z" transform="translate(-624.187 -8465.324)"/>
            <path d="M810.76 8505a15.026 15.026 0 0 1-3.243 4.346 26.629 26.629 0 0 1-5.175 3.865 30.465 30.465 0 0 1-6.486 2.795 24.781 24.781 0 0 1-7.245 1.069 8.075 8.075 0 0 1-5.623-1.9 6.175 6.175 0 0 1-2.1-4.8 8.534 8.534 0 0 1 .173-1.69 7.873 7.873 0 0 1 .586-1.76l14.628-32.844a14.119 14.119 0 0 1 5.727-6.728 18.606 18.606 0 0 1 9.246-2.035 9.464 9.464 0 0 1 5 1.1 3.655 3.655 0 0 1 1.759 3.313 6.726 6.726 0 0 1-.276 1.76 25.337 25.337 0 0 1-1.1 2.932l-4.071 8.971a26.435 26.435 0 0 1-15.387 14.421l-4.14 9.246a3.332 3.332 0 0 0-.414 1.448q0 .829 1.277 1.277a7.561 7.561 0 0 0 2.518.448 9.175 9.175 0 0 0 3.45-.726 18.8 18.8 0 0 0 3.485-1.862 20.856 20.856 0 0 0 3.1-2.554 12.633 12.633 0 0 0 2.173-2.794zm-.276-30.5q.552-1.242.724-1.76a2.83 2.83 0 0 0 .173-.862q0-.688-1.035-.689a1.9 1.9 0 0 0-1.863 1.241l-8.625 19.044a8.053 8.053 0 0 0 3.347-2.76 24.408 24.408 0 0 0 3.139-5.312z" transform="translate(-624.187 -8465.324)"/>
            <path d="M887.142 8505.136a12.636 12.636 0 0 1-3.209 4.175 30.063 30.063 0 0 1-5.313 3.83 35.118 35.118 0 0 1-6.245 2.828 18.5 18.5 0 0 1-5.934 1.105 5.681 5.681 0 0 1-3.933-1.242 4.079 4.079 0 0 1-1.38-3.174 8.9 8.9 0 0 1 .69-3.106l16.285-36.568a4.664 4.664 0 0 0 .344-1.656q0-.828-1.034-.828a5.675 5.675 0 0 0-2.554.759 18.971 18.971 0 0 0-2.9 1.9 23.917 23.917 0 0 0-2.759 2.554 13.987 13.987 0 0 0-2 2.656l-17.044 38.5H838.7l19.526-43.884a4.645 4.645 0 0 0 .346-1.656q0-.828-1.035-.828a5.675 5.675 0 0 0-2.554.759 17.658 17.658 0 0 0-2.9 1.933 26.454 26.454 0 0 0-2.759 2.587 12.949 12.949 0 0 0-2 2.726l-17.043 38.364h-11.932l19.458-43.884a3.7 3.7 0 0 0 .344-1.312q0-1.449-2.829-1.449h-.69q-2.139 0-2.138-1.862a2.514 2.514 0 0 1 1.241-2.242q1.242-.792 5.106-.794a28.665 28.665 0 0 1 8.142.932q3.036.932 3.244 3.415a14.234 14.234 0 0 1 11.04-4.347q4.138 0 6.106 1.346a4.835 4.835 0 0 1 2.173 3.76 17.483 17.483 0 0 1 5.072-3.83 15 15 0 0 1 6.521-1.275q4.277 0 6.278 1.449a4.8 4.8 0 0 1 2 4.14 14.554 14.554 0 0 1-1.518 5.727l-14.282 32.085a.978.978 0 0 0-.139.553q0 .621.966.621a6.992 6.992 0 0 0 2.726-.725 17.341 17.341 0 0 0 3.174-1.864 21.1 21.1 0 0 0 2.829-2.482 10 10 0 0 0 1.828-2.52z" transform="translate(-624.187 -8465.324)"/>
            <path d="M916.4 8505a13.6 13.6 0 0 1-2.277 3.243 20.727 20.727 0 0 1-3.657 3.1 33.109 33.109 0 0 1-7.866 4.278 26.067 26.067 0 0 1-9.039 1.449q-2.76 0-4.865-.173a11.4 11.4 0 0 1-3.553-.793 4.865 4.865 0 0 1-2.208-1.761 5.451 5.451 0 0 1-.759-3.069q0-2.83 2.139-7.729l2.553-5.727a25.076 25.076 0 0 1 2.691-4.8 12.56 12.56 0 0 1 3.416-3.208 13.834 13.834 0 0 1 4.553-1.794 29.583 29.583 0 0 1 6.107-.553 26.446 26.446 0 0 1 4.451.311 8.645 8.645 0 0 1 2.725.863 3.09 3.09 0 0 1 1.345 1.38 4.419 4.419 0 0 1 .38 1.862 17.518 17.518 0 0 1-.517 3.934 11.264 11.264 0 0 1-2.1 4.277 8.267 8.267 0 0 1-3 2.381 20.382 20.382 0 0 1-4.175 1.483 38.662 38.662 0 0 1-4.589.828q-2.313.275-4.243.344-.828 1.8-1.277 3.072a6.641 6.641 0 0 0-.448 2.1q0 1.862 2.553 1.863a23.3 23.3 0 0 0 5.8-.759 27.4 27.4 0 0 0 5.623-2.105 24.884 24.884 0 0 0 4.8-3.139 14.3 14.3 0 0 0 3.312-3.864zm-21.045-3.519a7.853 7.853 0 0 0 5.175-2.622 8.379 8.379 0 0 0 1.518-2.554 8.65 8.65 0 0 0 .552-3.1q0-.9-1.311-.9a2.33 2.33 0 0 0-1.484.519 6.131 6.131 0 0 0-1.414 2.174z" transform="translate(-624.187 -8465.324)"/>
            <path d="M949.724 8505a12.441 12.441 0 0 1-3.1 4.037 32.344 32.344 0 0 1-5.244 3.9 34.516 34.516 0 0 1-6.245 2.968 18.055 18.055 0 0 1-6.037 1.173 3.63 3.63 0 0 1-2.45-.655 5.394 5.394 0 0 1-1.207-1.622 9.176 9.176 0 0 1-1.553 1.035 9.583 9.583 0 0 1-1.725.69 12.57 12.57 0 0 1-2.1.413 23.334 23.334 0 0 1-2.691.139 6.665 6.665 0 0 1-4.175-1.347 5 5 0 0 1-1.759-4.242 14.374 14.374 0 0 1 .483-3.348 25.034 25.034 0 0 1 1.587-4.381l1.173-2.553q3.379-7.383 7.314-10.557a12.539 12.539 0 0 1 7.866-3.175 10.018 10.018 0 0 1 2.449.242 5.411 5.411 0 0 1 1.484.586L944 8465.531h11.454l-18.975 41.676a3.494 3.494 0 0 0-.345 1.449q0 .967 1.035.966a6.736 6.736 0 0 0 2.415-.586 17.022 17.022 0 0 0 2.967-1.588 19.571 19.571 0 0 0 2.9-2.347 12.773 12.773 0 0 0 2.208-2.794zm-17.871-12.282a1.274 1.274 0 0 0-1.173-.552 2.575 2.575 0 0 0-1.484.448 3.946 3.946 0 0 0-1.207 1.689l-6.762 15.389a4.232 4.232 0 0 0-.552 1.725q0 .965.828.966 1.516 0 2.484-2.139z" transform="translate(-624.187 -8465.324)"/>
            <path d="M969.6 8505a13.3 13.3 0 0 1-3.209 4.14 30.52 30.52 0 0 1-5.313 3.9 35.227 35.227 0 0 1-6.279 2.9 18.508 18.508 0 0 1-6.038 1.14 5.377 5.377 0 0 1-3.622-1.208 4.083 4.083 0 0 1-1.415-3.277 7.715 7.715 0 0 1 .9-3.45l10.281-23.046 8.694 4.761-7.314 16.49a3.631 3.631 0 0 0-.345 1.243q0 1.036 1.173 1.035a6.58 6.58 0 0 0 2.76-.759 19.79 19.79 0 0 0 3.1-1.863 21.513 21.513 0 0 0 2.759-2.38 8.907 8.907 0 0 0 1.727-2.312zm1.1-28.7a3.694 3.694 0 0 1-.863 2.381 7.374 7.374 0 0 1-2.139 1.793 12.029 12.029 0 0 1-2.8 1.14 10.809 10.809 0 0 1-2.828.414 6.424 6.424 0 0 1-3.208-.795 2.412 2.412 0 0 1-1.415-2.173 3.725 3.725 0 0 1 .759-2.173 7.543 7.543 0 0 1 2-1.9 10.891 10.891 0 0 1 2.76-1.312 10.167 10.167 0 0 1 3.1-.482 6.238 6.238 0 0 1 3.209.827 2.54 2.54 0 0 1 1.425 2.275z" transform="translate(-624.187 -8465.324)"/>
            <path d="M1002.715 8505a14.93 14.93 0 0 1-3.381 4.312 29.915 29.915 0 0 1-5.313 3.9 32.7 32.7 0 0 1-6.21 2.795 19.1 19.1 0 0 1-5.934 1.069 2.654 2.654 0 0 1-1.967-.726 3.435 3.435 0 0 1-.931-1.9 10.9 10.9 0 0 1-3.278 1.932 14.6 14.6 0 0 1-5 .69 7.391 7.391 0 0 1-4.657-1.414 5.108 5.108 0 0 1-1.828-4.313 15.809 15.809 0 0 1 .828-4.484 34.115 34.115 0 0 1 2.414-5.728 51.421 51.421 0 0 1 3.968-6.8 21.374 21.374 0 0 1 3.761-4.175 11.42 11.42 0 0 1 3.725-2.105 12.828 12.828 0 0 1 3.864-.586 7.68 7.68 0 0 1 4.037.793 6.7 6.7 0 0 1 1.966 1.968l.691-1.587h8.211l-7.245 16.215q-.76 1.724-1.07 2.448a3.32 3.32 0 0 0-.31 1.277c0 .69.389 1.035 1.173 1.035a6.579 6.579 0 0 0 2.759-.759 19.841 19.841 0 0 0 3.106-1.863 21.594 21.594 0 0 0 2.76-2.38 8.911 8.911 0 0 0 1.724-2.312zm-18.355-10.833a.789.789 0 0 0 .139-.448v-.449a1.053 1.053 0 0 0-.242-.655 1.133 1.133 0 0 0-.932-.312 2.272 2.272 0 0 0-1.621.554 4.915 4.915 0 0 0-1.069 1.725l-6.28 14.145a5.266 5.266 0 0 0-.621 2.347q0 1.1.966 1.1 1.587 0 3.036-3.036z" transform="translate(-624.187 -8465.324)"/>
            <path d="M1049.908 8505a12.552 12.552 0 0 1-2.76 3.726 29.386 29.386 0 0 1-4.278 3.382 33.393 33.393 0 0 1-7.658 3.656 27.1 27.1 0 0 1-8.487 1.312q-1.657 0-3.795-.1a15.7 15.7 0 0 1-4.072-.724 8.42 8.42 0 0 1-3.277-1.9 4.844 4.844 0 0 1-1.346-3.69 10.476 10.476 0 0 1 .139-1.587 15.492 15.492 0 0 1 .517-2.14q.379-1.242 1.07-3.036t1.862-4.416l9.867-22.011a26.6 26.6 0 0 1 3.381-5.624 16.388 16.388 0 0 1 4.244-3.76 17.5 17.5 0 0 1 5.313-2.105 30.393 30.393 0 0 1 6.59-.654 22.21 22.21 0 0 1 7.659.966 3.514 3.514 0 0 1 2.415 3.519 8.31 8.31 0 0 1-.276 2.14l-11.662 4.277a9.979 9.979 0 0 0 .691-1.138 10.949 10.949 0 0 0 .586-1.312q.242-.655.414-1.241a3.562 3.562 0 0 0 .173-.933q0-1.034-2.208-1.034a4.139 4.139 0 0 0-2.208.552 5.336 5.336 0 0 0-1.726 2.415l-13.661 30.636q-1.59 3.519-2.14 5a8.181 8.181 0 0 0-.551 1.828q0 1.175 2.484 1.173a27.071 27.071 0 0 0 6.382-.793 31.486 31.486 0 0 0 6.106-2.139 24.033 24.033 0 0 0 5-3.141 10.717 10.717 0 0 0 3.071-3.795z" transform="translate(-624.187 -8465.324)"/>
            <path d="M1084.962 8494.166q-3.8 4-11.868 4.83a61.315 61.315 0 0 1-4.554 9.591 20.466 20.466 0 0 1-4.589 5.451 12.492 12.492 0 0 1-5.071 2.449 27.575 27.575 0 0 1-5.865.587q-5.039 0-7.038-1.483a4.76 4.76 0 0 1-2-4.038 15.078 15.078 0 0 1 1.725-6.14l3.174-6.9a32.114 32.114 0 0 1 3-5.244 16.064 16.064 0 0 1 3.243-3.416 11.21 11.21 0 0 1 3.52-1.827 13.155 13.155 0 0 1 3.829-.553q1.173 0 1.794.035a4.1 4.1 0 0 1 1.035.172 8.748 8.748 0 0 1 6.14-2.276 5.152 5.152 0 0 1 3.451.966 3.473 3.473 0 0 1 1.1 2.76 11.413 11.413 0 0 1-1.242 4.623l1.207.242a5.234 5.234 0 0 0 1 .1 9.3 9.3 0 0 0 2.933-.517 11.577 11.577 0 0 0 3.277-1.829zm-20.976 2.07a2.369 2.369 0 0 1-1-1.208 4.6 4.6 0 0 1-.31-1.69 5.116 5.116 0 0 1 .069-.966 3.554 3.554 0 0 0-1.208 1 9.58 9.58 0 0 0-1.139 2.173l-6.347 14.49a3.362 3.362 0 0 0-.345 1.38q0 1.313 1.173 1.311a2.53 2.53 0 0 0 1.483-.517 3.936 3.936 0 0 0 1.208-1.484zm6.762-3.105a4.2 4.2 0 0 0 .379-.9 3.683 3.683 0 0 0 .173-1.1 2.4 2.4 0 0 0-.241-1.139.9.9 0 0 0-.863-.448q-1.656 0-1.656 1.587 0 2.001 2.208 2z" transform="translate(-624.187 -8465.324)"/>
            <path d="M1113.665 8505a12.824 12.824 0 0 1-3.243 4.209 31.723 31.723 0 0 1-5.348 3.9 33.471 33.471 0 0 1-6.278 2.862 18.813 18.813 0 0 1-5.969 1.105 5.294 5.294 0 0 1-3.725-1.208 4.147 4.147 0 0 1-1.312-3.208 10.3 10.3 0 0 1 .862-3.45q.864-2.208 2.071-4.83t2.518-5.244q1.31-2.622 2.139-4.691a8.591 8.591 0 0 0 .276-.967 3.272 3.272 0 0 0 .07-.62c0-.554-.324-.828-.967-.828a2.855 2.855 0 0 0-1.587.447 2.738 2.738 0 0 0-1.035 1.277l-10.212 23.115H1070.4l13.662-30.774 7.246 3.795a7.577 7.577 0 0 1 4.209-2.036 32.083 32.083 0 0 1 4.83-.379 5.545 5.545 0 0 1 4.036 1.38 5.064 5.064 0 0 1 1.414 3.8 10.455 10.455 0 0 1-.552 3.069 39.093 39.093 0 0 1-1.38 3.692q-.828 1.932-1.76 3.9t-1.621 3.692a3.772 3.772 0 0 0-.483 1.587q0 1.036 1.242 1.035a6.5 6.5 0 0 0 2.692-.759 19.824 19.824 0 0 0 3.1-1.863 21.391 21.391 0 0 0 2.76-2.38 8.918 8.918 0 0 0 1.725-2.312z" transform="translate(-624.187 -8465.324)"/>
            <path d="M1148.3 8505a12.824 12.824 0 0 1-3.243 4.209 31.728 31.728 0 0 1-5.348 3.9 33.472 33.472 0 0 1-6.278 2.862 18.812 18.812 0 0 1-5.969 1.105 5.3 5.3 0 0 1-3.726-1.208 4.147 4.147 0 0 1-1.311-3.208 10.3 10.3 0 0 1 .862-3.45q.862-2.208 2.07-4.83t2.519-5.244q1.309-2.622 2.139-4.691a8.807 8.807 0 0 0 .276-.967 3.266 3.266 0 0 0 .069-.62c0-.554-.323-.828-.967-.828a2.854 2.854 0 0 0-1.586.447 2.745 2.745 0 0 0-1.036 1.277l-10.212 23.115h-11.519l13.662-30.774 7.245 3.795a7.583 7.583 0 0 1 4.209-2.036 32.1 32.1 0 0 1 4.83-.379 5.543 5.543 0 0 1 4.036 1.38 5.061 5.061 0 0 1 1.415 3.8 10.455 10.455 0 0 1-.552 3.069 39.127 39.127 0 0 1-1.38 3.692q-.828 1.932-1.76 3.9t-1.621 3.692a3.773 3.773 0 0 0-.483 1.587q0 1.036 1.242 1.035a6.5 6.5 0 0 0 2.691-.759 19.788 19.788 0 0 0 3.1-1.863 21.447 21.447 0 0 0 2.759-2.38 8.9 8.9 0 0 0 1.726-2.312z" transform="translate(-624.187 -8465.324)"/>
            <path d="M1177.56 8505a13.578 13.578 0 0 1-2.278 3.243 20.645 20.645 0 0 1-3.656 3.1 33.109 33.109 0 0 1-7.866 4.278 26.068 26.068 0 0 1-9.039 1.449q-2.761 0-4.865-.173a11.4 11.4 0 0 1-3.553-.793 4.87 4.87 0 0 1-2.208-1.761 5.451 5.451 0 0 1-.759-3.069q0-2.83 2.139-7.729l2.552-5.727a25.079 25.079 0 0 1 2.692-4.8 12.558 12.558 0 0 1 3.415-3.208 13.847 13.847 0 0 1 4.554-1.794 29.577 29.577 0 0 1 6.107-.553 26.433 26.433 0 0 1 4.45.311 8.642 8.642 0 0 1 2.726.863 3.1 3.1 0 0 1 1.345 1.38 4.435 4.435 0 0 1 .379 1.862 17.461 17.461 0 0 1-.517 3.934 11.249 11.249 0 0 1-2.1 4.277 8.258 8.258 0 0 1-3 2.381 20.34 20.34 0 0 1-4.175 1.483 38.609 38.609 0 0 1-4.588.828q-2.312.275-4.244.344-.826 1.8-1.276 3.072a6.614 6.614 0 0 0-.448 2.1q0 1.862 2.553 1.863a23.3 23.3 0 0 0 5.795-.759 27.386 27.386 0 0 0 5.624-2.105 24.878 24.878 0 0 0 4.8-3.139 14.289 14.289 0 0 0 3.313-3.864zm-21.045-3.519a7.847 7.847 0 0 0 5.174-2.622 8.362 8.362 0 0 0 1.519-2.554 8.673 8.673 0 0 0 .552-3.1q0-.9-1.312-.9a2.325 2.325 0 0 0-1.483.519 6.118 6.118 0 0 0-1.414 2.174z" transform="translate(-624.187 -8465.324)"/>
            <path d="M1207.091 8505a10.263 10.263 0 0 1-1.794 2.725 19.032 19.032 0 0 1-2.9 2.657 35.941 35.941 0 0 1-8.555 4.934 26.66 26.66 0 0 1-9.937 1.76q-2.624 0-4.726-.207a12.5 12.5 0 0 1-3.588-.828 5.075 5.075 0 0 1-2.278-1.76 5.151 5.151 0 0 1-.793-3q0-2.83 2.139-7.729l2.554-5.727q2.483-5.657 6.485-8a19.978 19.978 0 0 1 10.212-2.347 21.375 21.375 0 0 1 7 .828 3.269 3.269 0 0 1 2.174 3.381 7.15 7.15 0 0 1-.346 1.933l-11.729 4.209a10.808 10.808 0 0 0 1.345-2.277 5.858 5.858 0 0 0 .586-2.346q0-.9-1.31-.9a2.351 2.351 0 0 0-2.278 1.45l-6.761 14.973a5.95 5.95 0 0 0-.484 2.277 1.063 1.063 0 0 0 .828 1.173 6.775 6.775 0 0 0 1.657.207 26.075 26.075 0 0 0 6.761-.966 28.185 28.185 0 0 0 6.9-2.9 23.486 23.486 0 0 0 3.725-2.656 14.106 14.106 0 0 0 2.967-3.554z" transform="translate(-624.187 -8465.324)"/>
            <path d="M1226.963 8505a12.977 12.977 0 0 1-3.209 4.209 31.1 31.1 0 0 1-5.278 3.9 32.853 32.853 0 0 1-6.21 2.862 18.677 18.677 0 0 1-6 1.105 4.791 4.791 0 0 1-3.692-1.449 4.895 4.895 0 0 1-1.345-3.45 7.721 7.721 0 0 1 .172-1.483 6.744 6.744 0 0 1 .586-1.69l7.453-16.767h-2.967l1.724-3.864h2.9l9.591-21.321 11.73-.759-9.8 22.08h3.106l-1.725 3.864h-3.1l-7.176 16.008a2.66 2.66 0 0 0-.345 1.1c0 .37.23.554.69.554a6.916 6.916 0 0 0 2.863-.76 20.119 20.119 0 0 0 3.209-1.9 21.743 21.743 0 0 0 2.9-2.483 10.3 10.3 0 0 0 1.864-2.45z" transform="translate(-624.187 -8465.324)"/>
            <path d="M1246.833 8505a13.291 13.291 0 0 1-3.208 4.14 30.556 30.556 0 0 1-5.313 3.9 35.2 35.2 0 0 1-6.28 2.9 18.5 18.5 0 0 1-6.037 1.14 5.373 5.373 0 0 1-3.622-1.208 4.086 4.086 0 0 1-1.415-3.277 7.715 7.715 0 0 1 .9-3.45l10.281-23.046 8.694 4.761-7.314 16.49a3.632 3.632 0 0 0-.345 1.243q0 1.036 1.173 1.035a6.583 6.583 0 0 0 2.76-.759 19.832 19.832 0 0 0 3.1-1.863 21.457 21.457 0 0 0 2.76-2.38 8.918 8.918 0 0 0 1.725-2.312zm1.1-28.7a3.7 3.7 0 0 1-.863 2.381 7.409 7.409 0 0 1-2.138 1.793 12.066 12.066 0 0 1-2.8 1.14 10.816 10.816 0 0 1-2.829.414 6.424 6.424 0 0 1-3.208-.795 2.413 2.413 0 0 1-1.415-2.173 3.719 3.719 0 0 1 .759-2.173 7.543 7.543 0 0 1 2-1.9 10.876 10.876 0 0 1 2.76-1.312 10.172 10.172 0 0 1 3.1-.482 6.232 6.232 0 0 1 3.208.827 2.539 2.539 0 0 1 1.43 2.275z" transform="translate(-624.187 -8465.324)"/>
            <path d="M1282.3 8494.166q-3.795 4-11.868 4.83a61.314 61.314 0 0 1-4.554 9.591 20.462 20.462 0 0 1-4.589 5.451 12.491 12.491 0 0 1-5.071 2.449 27.576 27.576 0 0 1-5.865.587q-5.039 0-7.039-1.483a4.76 4.76 0 0 1-2-4.038 15.082 15.082 0 0 1 1.726-6.14l3.174-6.9a32.1 32.1 0 0 1 3-5.244 16.064 16.064 0 0 1 3.243-3.416 11.211 11.211 0 0 1 3.52-1.827 13.156 13.156 0 0 1 3.829-.553q1.173 0 1.794.035a4.112 4.112 0 0 1 1.035.172 8.748 8.748 0 0 1 6.14-2.276 5.152 5.152 0 0 1 3.451.966 3.473 3.473 0 0 1 1.1 2.76 11.413 11.413 0 0 1-1.242 4.623l1.207.242a5.236 5.236 0 0 0 1 .1 9.3 9.3 0 0 0 2.933-.517 11.592 11.592 0 0 0 3.277-1.829zm-20.976 2.07a2.369 2.369 0 0 1-1-1.208 4.6 4.6 0 0 1-.31-1.69 5.114 5.114 0 0 1 .069-.966 3.554 3.554 0 0 0-1.208 1 9.531 9.531 0 0 0-1.139 2.173l-6.347 14.49a3.364 3.364 0 0 0-.345 1.38q0 1.313 1.173 1.311a2.53 2.53 0 0 0 1.483-.517 3.936 3.936 0 0 0 1.208-1.484zm6.762-3.105a4.2 4.2 0 0 0 .379-.9 3.683 3.683 0 0 0 .173-1.1 2.4 2.4 0 0 0-.241-1.139.9.9 0 0 0-.863-.448q-1.656 0-1.656 1.587-.001 2.001 2.207 2z" transform="translate(-624.187 -8465.324)"/>
            <path d="M1311 8505a12.824 12.824 0 0 1-3.243 4.209 31.728 31.728 0 0 1-5.348 3.9 33.471 33.471 0 0 1-6.278 2.862 18.813 18.813 0 0 1-5.969 1.105 5.3 5.3 0 0 1-3.726-1.208 4.147 4.147 0 0 1-1.311-3.208 10.3 10.3 0 0 1 .862-3.45q.862-2.208 2.071-4.83t2.518-5.244q1.31-2.622 2.139-4.691a8.835 8.835 0 0 0 .276-.967 3.275 3.275 0 0 0 .069-.62c0-.554-.323-.828-.966-.828a2.855 2.855 0 0 0-1.587.447 2.737 2.737 0 0 0-1.035 1.277l-10.212 23.115h-11.523l13.662-30.774 7.245 3.795a7.584 7.584 0 0 1 4.209-2.036 32.107 32.107 0 0 1 4.831-.379 5.545 5.545 0 0 1 4.036 1.38 5.064 5.064 0 0 1 1.414 3.8 10.455 10.455 0 0 1-.552 3.069 39.127 39.127 0 0 1-1.38 3.692q-.828 1.932-1.76 3.9t-1.621 3.692a3.773 3.773 0 0 0-.483 1.587q0 1.036 1.242 1.035a6.5 6.5 0 0 0 2.691-.759 19.789 19.789 0 0 0 3.105-1.863 21.382 21.382 0 0 0 2.76-2.38 8.919 8.919 0 0 0 1.725-2.312z" transform="translate(-624.187 -8465.324)"/>
            <path d="M1341.431 8505a18.5 18.5 0 0 1-4.072 4.9 28.89 28.89 0 0 1-5.692 3.828 30.125 30.125 0 0 1-6.658 2.485 29.184 29.184 0 0 1-6.969.862 11.433 11.433 0 0 1-3.83-.621 9.313 9.313 0 0 1-3.036-1.726 8.459 8.459 0 0 1-2-2.483 6.285 6.285 0 0 1-.724-2.967v-.76a6.91 6.91 0 0 1-1.449 1.174q-.968.621-1.587 1.034a6.919 6.919 0 0 1-.346-1.794 5.077 5.077 0 0 1 1.278-2.967 43.918 43.918 0 0 0 2.517-3.657q1.174-1.862 2.208-3.209t2.105-2.518q1.069-1.172 2.243-2.242t2.553-2.312c-.046-.321-.081-.587-.1-.794a9.252 9.252 0 0 1-.034-.932 12.9 12.9 0 0 1 .655-4.105 10.783 10.783 0 0 1 1.828-3.415 9.041 9.041 0 0 1 2.795-2.312 7.453 7.453 0 0 1 3.554-.861 5.19 5.19 0 0 1 2.9.725 3.02 3.02 0 0 1 1.1 2.725 7.784 7.784 0 0 1-.139 1.38 5.569 5.569 0 0 1-.655 1.691 14.58 14.58 0 0 1-1.483 2.1 26.548 26.548 0 0 1-2.553 2.621q5.587 7.039 5.589 10.9a9.909 9.909 0 0 1-7.038 10 19.485 19.485 0 0 0 3.9-1.068 27.565 27.565 0 0 0 4.175-2 23.1 23.1 0 0 0 3.864-2.829 15.941 15.941 0 0 0 2.967-3.554zm-21.8-8.073a24.917 24.917 0 0 0-2.449 1.966 14.351 14.351 0 0 0-2.519 3.071 11.69 11.69 0 0 0-1.553 3.173 9.908 9.908 0 0 0-.379 2.623 2.15 2.15 0 0 0 .586 1.69 3.091 3.091 0 0 0 2.036.518 4.212 4.212 0 0 0 2.208-.622 6.067 6.067 0 0 0 1.759-1.586 7.834 7.834 0 0 0 1.139-2.173 7.33 7.33 0 0 0 .414-2.381 17.889 17.889 0 0 0-.346-3.657 9.163 9.163 0 0 0-.9-2.623zm4.347-9.66a5.32 5.32 0 0 0 1.794-1.655 2.832 2.832 0 0 0 .344-1.242c0-.459-.206-.691-.62-.691q-1.656 0-1.656 2.071c0 .137.011.38.034.724a4.752 4.752 0 0 0 .1.792z" transform="translate(-624.187 -8465.324)"/>
            <path d="M624.187 8526.733v-1.38h703.236v1.38z" transform="translate(-624.187 -8465.324)"/>
        </g>
    </g>
</svg>
