<svg xmlns="http://www.w3.org/2000/svg" viewBox="0 0 776.99 332.67"><defs><style>.cls-1{fill:#7ed321;}.cls-2{fill:#fff;}.cls-3{fill:#ffca07;}.cls-4{fill:#4f9c3a;}.cls-5{fill:#073;}</style></defs><title>CTA_Asset_2mdpi</title><g id="Layer_2" data-name="Layer 2"><g id="CTA_FEED"><rect class="cls-1" x="189.1" y="201.39" width="400" height="100" rx="9.04"/><path class="cls-2" d="M232.32,264.65v-24h17v4.5H237.43v5.07h11.62v4.5H237.43v9.93Z"/><path class="cls-2" d="M266.44,264.65l-4.71-8.53H258v8.53h-5.11v-24H264.1c5,0,8.07,3.27,8.07,7.73a6.89,6.89,0,0,1-5.26,7.13l5.4,9.14Zm.51-16.27c0-2-1.55-3.23-3.6-3.23H258v6.47h5.37C265.4,251.62,267,250.4,267,248.38Z"/><path class="cls-2" d="M276,264.65v-24h17v4.5H281.13v5.07h11.63v4.5H281.13v5.44H293v4.49Z"/><path class="cls-2" d="M297,264.65v-24h17v4.5H302.12v5.07h11.63v4.5H302.12v5.44H314v4.49Z"/><path class="cls-2" d="M332.75,264.65v-19.5h-7v-4.5h19.14v4.5h-7v19.5Z"/><path class="cls-2" d="M361.73,264.65,357,256.12h-3.75v8.53h-5.11v-24h11.23c5,0,8.07,3.27,8.07,7.73a6.89,6.89,0,0,1-5.26,7.13l5.4,9.14Zm.51-16.27c0-2-1.55-3.23-3.6-3.23h-5.37v6.47h5.37C360.69,251.62,362.24,250.4,362.24,248.38Z"/><path class="cls-2" d="M371.31,264.65v-24h5.11v24Z"/><path class="cls-2" d="M397.73,264.65l-1.47-4.06H386l-1.51,4.06h-5.83l9.28-24h6.41l9.25,24Zm-6.62-18.89-3.74,10.33h7.48Z"/><path class="cls-2" d="M405.8,264.65v-24h5.11v19.51h10.15v4.49Z"/><path class="cls-2" d="M432.69,252.67c0-7.24,5.29-12.42,12.53-12.42s12.56,5.18,12.56,12.42-5.29,12.42-12.56,12.42S432.69,259.9,432.69,252.67Zm19.83,0c0-4.5-2.88-7.88-7.3-7.88s-7.27,3.38-7.27,7.88,2.84,7.88,7.27,7.88S452.52,257.13,452.52,252.67Z"/><path class="cls-2" d="M461.38,264.65v-24h17v4.5H466.49v5.07h11.63v4.5H466.49v9.93Z"/><path class="cls-2" d="M481.94,264.65v-24h17v4.5H487.05v5.07h11.62v4.5H487.05v9.93Z"/><path class="cls-2" d="M502.49,264.65v-24h17v4.5H507.6v5.07h11.63v4.5H507.6v5.44h11.88v4.49Z"/><path class="cls-2" d="M537.05,264.65l-4.71-8.53h-3.75v8.53h-5.11v-24h11.23c5,0,8.06,3.27,8.06,7.73a6.89,6.89,0,0,1-5.25,7.13l5.4,9.14Zm.51-16.27c0-2-1.55-3.23-3.6-3.23h-5.37v6.47H534C536,251.62,537.56,250.4,537.56,248.38Z"/><path class="cls-2" d="M229.94,269.8v-.72H544.25v.72Z"/><path class="cls-2" d="M199.9,327.38a15.49,15.49,0,0,1,4.72-10.63l.84.85a16.6,16.6,0,0,0-3.85,10.3,15.77,15.77,0,0,0,.67,4.12l-1.16.65A11.11,11.11,0,0,1,199.9,327.38Z"/><path class="cls-2" d="M211.83,317.08h1.8l-2.64,12h-1.8Z"/><path class="cls-2" d="M220.73,323.51a3.36,3.36,0,0,0,.09-.58c0-.94-.74-1.31-1.57-1.31a3.9,3.9,0,0,0-2.65,1.26l-1.35,6.21h-1.62l1.93-8.7h1.62l-.29,1.23a4.51,4.51,0,0,1,3-1.45c1.58,0,2.63.8,2.63,2.18a6.16,6.16,0,0,1-.09.72l-1.34,6H219.5Z"/><path class="cls-2" d="M224.45,327.09l1.17-5.29h-1.44l.32-1.41H226l.52-2.38h1.62l-.52,2.38h1.76L229,321.8h-1.77l-1.08,4.93a1.72,1.72,0,0,0,0,.34c0,.51.28.79.86.79a1.36,1.36,0,0,0,.77-.25l.13,1.3a2.21,2.21,0,0,1-1.33.39c-1.32,0-2.16-.52-2.16-1.67A3.06,3.06,0,0,1,224.45,327.09Z"/><path class="cls-2" d="M231.13,320.39h1.62l-.31,1.28a3.89,3.89,0,0,1,3.19-1.48l-.36,1.64a4.14,4.14,0,0,0-.72-.07,3.31,3.31,0,0,0-2.41,1.31l-1.32,6H229.2Z"/><path class="cls-2" d="M240.51,320.17a3.75,3.75,0,0,1,4.09,3.89,5.1,5.1,0,0,1-4.92,5.24,3.71,3.71,0,0,1-4.07-3.88A5.1,5.1,0,0,1,240.51,320.17Zm0,1.45c-1.85,0-3.17,1.83-3.17,3.72a2.28,2.28,0,0,0,2.43,2.52c1.86,0,3.17-1.82,3.17-3.72A2.29,2.29,0,0,0,240.47,321.62Z"/><path class="cls-2" d="M254.44,317.08h1.62l-2.66,12h-1.62l.27-1.21a3.49,3.49,0,0,1-2.79,1.42c-2,0-3.35-1.29-3.35-3.58,0-2.77,1.71-5.55,4.57-5.55a3.39,3.39,0,0,1,3,1.54Zm-4.55,10.78a3.15,3.15,0,0,0,2.46-1.35l.81-3.6a2.76,2.76,0,0,0-2.46-1.29c-1.84,0-3.08,1.83-3.08,3.8A2.21,2.21,0,0,0,249.89,327.86Z"/><path class="cls-2" d="M258.29,326a4,4,0,0,0-.09.59c0,.94.74,1.31,1.71,1.31a3.83,3.83,0,0,0,2.5-1.28l1.37-6.19h1.62l-1.92,8.7h-1.62l.27-1.23a4.5,4.5,0,0,1-3,1.44c-1.56,0-2.63-.79-2.63-2.18a3.6,3.6,0,0,1,.11-.71l1.33-6h1.62Z"/><path class="cls-2" d="M271.32,320.17a3.57,3.57,0,0,1,3.33,1.66l-1.22.92a2.32,2.32,0,0,0-2.09-1.13,3.46,3.46,0,0,0-3.29,3.74,2.36,2.36,0,0,0,2.57,2.5,2.77,2.77,0,0,0,2.09-1l.9,1.1a4.21,4.21,0,0,1-3.15,1.33,3.75,3.75,0,0,1-4.07-3.9A5.07,5.07,0,0,1,271.32,320.17Z"/><path class="cls-2" d="M275.73,327.09l1.17-5.29h-1.44l.33-1.41h1.44l.52-2.38h1.62l-.52,2.38h1.76l-.32,1.41h-1.77l-1.08,4.93a1.72,1.72,0,0,0,0,.34c0,.51.28.79.86.79a1.42,1.42,0,0,0,.78-.25l.12,1.3a2.21,2.21,0,0,1-1.33.39c-1.32,0-2.16-.52-2.16-1.67A4.47,4.47,0,0,1,275.73,327.09Z"/><path class="cls-2" d="M285.71,320.17a3.74,3.74,0,0,1,4.08,3.89,5.1,5.1,0,0,1-4.91,5.24,3.71,3.71,0,0,1-4.07-3.88A5.1,5.1,0,0,1,285.71,320.17Zm0,1.45c-1.85,0-3.17,1.83-3.17,3.72a2.28,2.28,0,0,0,2.43,2.52c1.86,0,3.17-1.82,3.17-3.72A2.29,2.29,0,0,0,285.67,321.62Z"/><path class="cls-2" d="M292.71,320.39h1.62l-.31,1.28a3.89,3.89,0,0,1,3.19-1.48l-.36,1.64a4.14,4.14,0,0,0-.72-.07,3.31,3.31,0,0,0-2.42,1.31l-1.31,6h-1.62Z"/><path class="cls-2" d="M297.12,331.14c.46,0,.81-.2,1.22-.81l.77-1.19-1.6-8.75h1.68l1.18,6.83,4.25-6.83h1.8l-6.59,10.35a3.22,3.22,0,0,1-2.89,1.88,4,4,0,0,1-1.25-.2l.56-1.44A2.25,2.25,0,0,0,297.12,331.14Z"/><path class="cls-2" d="M317.94,316.88c3.15,0,5.64,2,5.64,5.28a6.9,6.9,0,0,1-6.81,7.14c-3.15,0-5.63-2-5.63-5.29A6.9,6.9,0,0,1,317.94,316.88Zm-.1,1.6c-2.63,0-4.83,2.33-4.83,5.42a3.63,3.63,0,0,0,3.87,3.8,5.12,5.12,0,0,0,4.83-5.42A3.65,3.65,0,0,0,317.84,318.48Z"/><path class="cls-2" d="M326.24,321.81H324.8l.31-1.42h1.44l.12-.57c.42-1.86,1.39-2.92,3-2.92a2.89,2.89,0,0,1,1.68.45l-.61,1.13a1.53,1.53,0,0,0-.9-.25c-.83,0-1.28.54-1.52,1.59l-.12.57h1.76l-.31,1.42h-1.76l-1.62,7.28h-1.62Zm5.33,0h-1.44l.31-1.42h1.44l.12-.57c.42-1.86,1.39-2.92,3-2.92a2.91,2.91,0,0,1,1.68.45l-.61,1.13a1.54,1.54,0,0,0-.91-.25c-.82,0-1.27.54-1.51,1.59l-.12.57h1.76l-.31,1.42h-1.76l-1.62,7.28H330Z"/><path class="cls-2" d="M340.12,320.17a3.61,3.61,0,0,1,3.8,3.84,5.8,5.8,0,0,1-.16,1.26h-6.9a1.79,1.79,0,0,0,0,.36c0,1.17.94,2.34,2.81,2.34a4.07,4.07,0,0,0,2.42-.79l.52,1.13a5.27,5.27,0,0,1-3.05,1c-2.68,0-4.32-1.51-4.32-3.87A5.08,5.08,0,0,1,340.12,320.17Zm2.34,3.64a2.24,2.24,0,0,0-2.47-2.3,3.15,3.15,0,0,0-3,2.59h5.42A1.23,1.23,0,0,0,342.46,323.81Z"/><path class="cls-2" d="M346.87,320.39h1.62l-.31,1.28a3.89,3.89,0,0,1,3.19-1.48l-.36,1.64a4.14,4.14,0,0,0-.72-.07,3.29,3.29,0,0,0-2.41,1.31l-1.32,6h-1.62Z"/><path class="cls-2" d="M356,324h9.6l-.33,1.4h-9.59Z"/><path class="cls-2" d="M375,319.46l-2.13,9.63H371l2.65-12h1.85L380,326.5l2.09-9.42h1.8l-2.65,12h-1.74Z"/><path class="cls-2" d="M389.06,320.17a3.75,3.75,0,0,1,4.09,3.89,5.1,5.1,0,0,1-4.92,5.24,3.72,3.72,0,0,1-4.07-3.88A5.11,5.11,0,0,1,389.06,320.17Zm0,1.45c-1.85,0-3.16,1.83-3.16,3.72a2.28,2.28,0,0,0,2.43,2.52c1.85,0,3.17-1.82,3.17-3.72A2.3,2.3,0,0,0,389,321.62Z"/><path class="cls-2" d="M406.27,316.88a5.2,5.2,0,0,1,5,3l-1.71.65a3.56,3.56,0,0,0-3.4-2,5.13,5.13,0,0,0-4.85,5.42,3.63,3.63,0,0,0,3.88,3.8,4.37,4.37,0,0,0,3.09-1.37l1.37,1a6.12,6.12,0,0,1-4.57,2c-3.23,0-5.64-2.08-5.64-5.29A6.88,6.88,0,0,1,406.27,316.88Z"/><path class="cls-2" d="M412.93,320.39h1.62l-.31,1.28a3.89,3.89,0,0,1,3.19-1.48l-.36,1.64a4.14,4.14,0,0,0-.72-.07,3.33,3.33,0,0,0-2.42,1.31l-1.31,6H411Z"/><path class="cls-2" d="M422.34,320.17a3.61,3.61,0,0,1,3.8,3.84,5.8,5.8,0,0,1-.16,1.26h-6.9a1.86,1.86,0,0,0,0,.36c0,1.17.93,2.34,2.81,2.34a4,4,0,0,0,2.41-.79l.52,1.13a5.23,5.23,0,0,1-3,1c-2.69,0-4.32-1.51-4.32-3.87A5.07,5.07,0,0,1,422.34,320.17Zm2.34,3.64a2.23,2.23,0,0,0-2.46-2.3,3.14,3.14,0,0,0-3,2.59h5.41A1.23,1.23,0,0,0,424.68,323.81Z"/><path class="cls-2" d="M436,317.08h1.62l-2.66,12h-1.62l.27-1.21a3.49,3.49,0,0,1-2.79,1.42c-2,0-3.35-1.29-3.35-3.58,0-2.77,1.71-5.55,4.57-5.55a3.39,3.39,0,0,1,2.95,1.54Zm-4.55,10.78a3.13,3.13,0,0,0,2.46-1.35l.81-3.6a2.76,2.76,0,0,0-2.46-1.29c-1.84,0-3.08,1.83-3.08,3.8A2.21,2.21,0,0,0,431.47,327.86Z"/><path class="cls-2" d="M439.49,320.39h1.62l-1.92,8.7h-1.62Zm1.44-3.53a.94.94,0,0,1,1,.9,1.19,1.19,0,0,1-1.17,1.17.91.91,0,0,1-1-.9A1.19,1.19,0,0,1,440.93,316.86Z"/><path class="cls-2" d="M442.52,327.09l1.17-5.29h-1.44l.32-1.41H444l.52-2.38h1.62l-.52,2.38h1.77l-.33,1.41h-1.76l-1.08,4.93a1.67,1.67,0,0,0,0,.34c0,.51.29.79.87.79a1.38,1.38,0,0,0,.77-.25l.13,1.3a2.24,2.24,0,0,1-1.34.39c-1.31,0-2.16-.52-2.16-1.67A3.25,3.25,0,0,1,442.52,327.09Z"/><path class="cls-2" d="M459.4,316.88a5.22,5.22,0,0,1,5,3l-1.71.65a3.57,3.57,0,0,0-3.41-2,5.12,5.12,0,0,0-4.84,5.42,3.62,3.62,0,0,0,3.87,3.8,4.39,4.39,0,0,0,3.1-1.37l1.37,1a6.14,6.14,0,0,1-4.58,2c-3.22,0-5.63-2.08-5.63-5.29A6.88,6.88,0,0,1,459.4,316.88Z"/><path class="cls-2" d="M472.25,320.39h1.63l-1.93,8.7h-1.62l.27-1.21a3.49,3.49,0,0,1-2.79,1.42c-2,0-3.35-1.29-3.35-3.58,0-2.77,1.71-5.55,4.57-5.55a3.42,3.42,0,0,1,3,1.54Zm-3.81,7.47a3.17,3.17,0,0,0,2.47-1.35l.8-3.6a2.76,2.76,0,0,0-2.46-1.29c-1.84,0-3.08,1.83-3.08,3.8A2.21,2.21,0,0,0,468.44,327.86Z"/><path class="cls-2" d="M476.46,320.39h1.63l-.31,1.28a3.89,3.89,0,0,1,3.19-1.48l-.36,1.64a4.14,4.14,0,0,0-.72-.07,3.31,3.31,0,0,0-2.42,1.31l-1.31,6h-1.62Z"/><path class="cls-2" d="M489.48,317.08h1.62l-2.66,12h-1.62l.27-1.21a3.49,3.49,0,0,1-2.79,1.42c-2,0-3.35-1.29-3.35-3.58,0-2.77,1.71-5.55,4.57-5.55a3.39,3.39,0,0,1,3,1.54Zm-4.55,10.78a3.15,3.15,0,0,0,2.46-1.35l.81-3.6a2.76,2.76,0,0,0-2.46-1.29c-1.84,0-3.08,1.83-3.08,3.8A2.21,2.21,0,0,0,484.93,327.86Z"/><path class="cls-2" d="M500.87,324.46h-2.35l-1,4.63h-1.8l2.64-12H503a3.28,3.28,0,0,1,3.49,3.2,4,4,0,0,1-3.76,4.09l2,4.72h-2Zm3.71-4a1.86,1.86,0,0,0-1.91-1.79h-2.86l-.94,4.22h3A2.43,2.43,0,0,0,504.58,320.45Z"/><path class="cls-2" d="M511.66,320.17a3.62,3.62,0,0,1,3.8,3.84,5.18,5.18,0,0,1-.17,1.26H508.4a1.79,1.79,0,0,0,0,.36c0,1.17.94,2.34,2.81,2.34a4,4,0,0,0,2.41-.79l.52,1.13a5.23,5.23,0,0,1-3,1c-2.68,0-4.32-1.51-4.32-3.87A5.08,5.08,0,0,1,511.66,320.17Zm2.34,3.64a2.24,2.24,0,0,0-2.47-2.3,3.15,3.15,0,0,0-3,2.59H514A1.23,1.23,0,0,0,514,323.81Z"/><path class="cls-2" d="M524.6,320.39h1.62l-2.67,12h-1.62l1-4.52a3.48,3.48,0,0,1-2.79,1.42c-2,0-3.35-1.29-3.35-3.58,0-2.77,1.71-5.55,4.58-5.55a3.41,3.41,0,0,1,3,1.54Zm-3.82,7.47a3.15,3.15,0,0,0,2.47-1.35l.81-3.6a2.79,2.79,0,0,0-2.47-1.29c-1.83,0-3.08,1.83-3.08,3.8A2.21,2.21,0,0,0,520.78,327.86Z"/><path class="cls-2" d="M529.13,326a4,4,0,0,0-.09.59c0,.94.74,1.31,1.71,1.31a3.86,3.86,0,0,0,2.51-1.28l1.36-6.19h1.63l-1.93,8.7H532.7l.27-1.23a4.5,4.5,0,0,1-3,1.44c-1.56,0-2.63-.79-2.63-2.18a3.6,3.6,0,0,1,.11-.71l1.33-6h1.63Z"/><path class="cls-2" d="M538.82,320.39h1.62l-1.93,8.7h-1.62Zm1.44-3.53a.93.93,0,0,1,1,.9,1.19,1.19,0,0,1-1.17,1.17.9.9,0,0,1-.95-.9A1.19,1.19,0,0,1,540.26,316.86Z"/><path class="cls-2" d="M543,320.39h1.62l-.3,1.28a3.86,3.86,0,0,1,3.18-1.48l-.36,1.64a4,4,0,0,0-.72-.07,3.31,3.31,0,0,0-2.41,1.31l-1.32,6h-1.62Z"/><path class="cls-2" d="M552.43,320.17a3.61,3.61,0,0,1,3.79,3.84,5.8,5.8,0,0,1-.16,1.26h-6.89a1.79,1.79,0,0,0,0,.36c0,1.17.94,2.34,2.81,2.34a4,4,0,0,0,2.41-.79l.52,1.13a5.23,5.23,0,0,1-3,1c-2.68,0-4.32-1.51-4.32-3.87A5.07,5.07,0,0,1,552.43,320.17Zm2.34,3.64a2.24,2.24,0,0,0-2.47-2.3,3.14,3.14,0,0,0-3,2.59h5.42A1.23,1.23,0,0,0,554.77,323.81Z"/><path class="cls-2" d="M566.11,317.08h1.62l-2.67,12h-1.62l.27-1.21a3.48,3.48,0,0,1-2.79,1.42c-2,0-3.35-1.29-3.35-3.58,0-2.77,1.71-5.55,4.58-5.55a3.41,3.41,0,0,1,3,1.54Zm-4.56,10.78a3.15,3.15,0,0,0,2.47-1.35l.81-3.6a2.79,2.79,0,0,0-2.47-1.29c-1.83,0-3.08,1.83-3.08,3.8A2.21,2.21,0,0,0,561.55,327.86Z"/><path class="cls-2" d="M576.24,322.05a15.46,15.46,0,0,1-4.74,10.62l-.82-.84a16.56,16.56,0,0,0,3.85-10.3,15.92,15.92,0,0,0-.67-4.13l1.14-.65A11.18,11.18,0,0,1,576.24,322.05Z"/><g id="Group_344" data-name="Group 344"><g id="STAND"><g id="Group_339" data-name="Group 339"><g id="Rectangle_518" data-name="Rectangle 518"><rect x="47.51" y="0.78" width="681.56" height="157.89"/><path class="cls-2" d="M728.29,1.56V157.89h-680V1.56h680M729.85,0H46.73V159.45H729.85V0Z"/></g><path id="Path_686" data-name="Path 686" class="cls-3" d="M510.77,35.76l-125.48,0,14.47,10.29L300,55.88,428.13,56,410.42,44.69Z"/><path id="Path_687" data-name="Path 687" class="cls-3" d="M718.26,146.05H58.32V13.4H718.26ZM61,143.37H715.58V16.08H61Z"/><g id="Group_338" data-name="Group 338"><path id="Path_688" data-name="Path 688" class="cls-2" d="M99.16,114.62a7,7,0,0,1-2.94-1.23,5.6,5.6,0,0,1-1.8-2.36,9.58,9.58,0,0,1-.63-3.75V97.09H104v7.83q0,1.6.63,2.07a6.39,6.39,0,0,0,3.15.47,7.6,7.6,0,0,0,3.06-.42c.53-.28.79-1,.79-2.11V96.76a10.7,10.7,0,0,0-1.34-5.56,16.31,16.31,0,0,0-3.31-4A39.82,39.82,0,0,0,102.72,84a31.49,31.49,0,0,1-4.28-3.36,17.06,17.06,0,0,1-3.31-4.34,12.78,12.78,0,0,1-1.34-6.19V61.21c0-3.14.86-5.21,2.6-6.19a14.85,14.85,0,0,1,7.3-1.47h8a25.59,25.59,0,0,1,4.19.29A8.08,8.08,0,0,1,119,55a5.28,5.28,0,0,1,2,2.36,9.5,9.5,0,0,1,.67,3.87V71.74h-10V63.65c0-1.12-.27-1.82-.8-2.1a7.24,7.24,0,0,0-3.06-.42,6.91,6.91,0,0,0-3.15.42c-.41.28-.62,1-.62,2.1v5.9a6.48,6.48,0,0,0,1.34,4,18.31,18.31,0,0,0,3.31,3.33c1.32,1,2.76,2.1,4.32,3.16a28.28,28.28,0,0,1,4.33,3.62,18.51,18.51,0,0,1,3.31,4.72A14.52,14.52,0,0,1,122,94.91v12.38a9.5,9.5,0,0,1-.67,3.87,5.22,5.22,0,0,1-2,2.36,8.48,8.48,0,0,1-3.15,1.18A23.53,23.53,0,0,1,112,115h-8.89A28.91,28.91,0,0,1,99.16,114.62Z"/><path id="Path_689" data-name="Path 689" class="cls-2" d="M135,114.87a23.21,23.21,0,0,1-3.82-.26,4.51,4.51,0,0,1-2.31-1,3.91,3.91,0,0,1-1.13-2.18,18.51,18.51,0,0,1-.29-3.71V82.19H121.8l15.77-20.64V74.94h7.3v7.25h-7.3v22.49a2.1,2.1,0,0,0,1,2.78,2.14,2.14,0,0,0,1.75,0h4.53v7.41Z"/><path id="Path_690" data-name="Path 690" class="cls-2" d="M155.2,114.87a22.33,22.33,0,0,1-3.74-.26,4.44,4.44,0,0,1-2.3-1,4.11,4.11,0,0,1-1.18-2.18,17.14,17.14,0,0,1-.34-3.71V96a21.41,21.41,0,0,1,.26-3.58,4.2,4.2,0,0,1,1-2.19A4,4,0,0,1,151,89.14a18.67,18.67,0,0,1,3.65-.3h11.07V84.38a1.6,1.6,0,0,0-2.18-2.19H149.23V75h19a22.13,22.13,0,0,1,3.73.25,4.51,4.51,0,0,1,2.31,1,4,4,0,0,1,1.17,2.19,16.45,16.45,0,0,1,.34,3.7v32.77Zm10.57-7.42V96.08h-5.63c-.62,0-1.11,0-1.47,0a1,1,0,0,0-1.09.93.49.49,0,0,0,0,.17c0,.37-.05.86-.05,1.47v6.23a8.71,8.71,0,0,0,.09,1.44,1.38,1.38,0,0,0,.33.75,1.24,1.24,0,0,0,.8.3c.36,0,.85,0,1.47,0Z"/><path id="Path_691" data-name="Path 691" class="cls-2" d="M179.77,114.87V74.94h9.9v2.53a13.32,13.32,0,0,1,4.54-2.66,15.74,15.74,0,0,1,4.53-.63,13.36,13.36,0,0,1,3,.38,12.18,12.18,0,0,1,2.93,1.1,7.37,7.37,0,0,1,2.23,1.77,3.65,3.65,0,0,1,.88,2.39v35.05h-10V84.12a2.11,2.11,0,0,0-.21-1.18c-.14-.17-.52-.25-1.13-.25h-6c-.56,0-.84.34-.84,1v31.17Z"/><path id="Path_692" data-name="Path 692" class="cls-2" d="M218.87,114.87a18.55,18.55,0,0,1-3.65-.3,4,4,0,0,1-2.14-1.09,4.14,4.14,0,0,1-1-2.19,20.4,20.4,0,0,1-.25-3.58V82.1a17,17,0,0,1,.33-3.7,4.1,4.1,0,0,1,1.18-2.19,4.51,4.51,0,0,1,2.31-1,22.14,22.14,0,0,1,3.73-.26h10.57V51.44l10,4.55v58.88Zm11.07-7.42V82.18H224.4a3.77,3.77,0,0,0-2.26.42,4,4,0,0,0-.42,2.36v19.71a3.94,3.94,0,0,0,.42,2.36,3.63,3.63,0,0,0,2.26.42Z"/><path id="Path_693" data-name="Path 693" class="cls-2" d="M259.63,114.87a23.17,23.17,0,0,1-3.81-.26,4.27,4.27,0,0,1-2.31-1,4.44,4.44,0,0,1-1.18-2.23,17.24,17.24,0,0,1-.33-3.79V61.05a17.14,17.14,0,0,1,.33-3.79A4.47,4.47,0,0,1,253.51,55,4.34,4.34,0,0,1,255.82,54a23.16,23.16,0,0,1,3.81-.25h13a23.57,23.57,0,0,1,3.85.25A4.55,4.55,0,0,1,278.88,55a4.2,4.2,0,0,1,1.22,2.24,17.14,17.14,0,0,1,.34,3.79v46.49a19.16,19.16,0,0,1-.3,3.71,4.19,4.19,0,0,1-1.09,2.23,4.27,4.27,0,0,1-2.19,1.1,17.81,17.81,0,0,1-3.65.29Zm8.06-7.59a1.84,1.84,0,0,0,2.43-2.44V63.73a3.43,3.43,0,0,0-.38-2.06,3.34,3.34,0,0,0-2.05-.38h-3a3.35,3.35,0,0,0-2.06.38,3.43,3.43,0,0,0-.38,2.06v41.11a1.84,1.84,0,0,0,2.44,2.44Z"/><path id="Path_694" data-name="Path 694" class="cls-2" d="M302.83,114.87H293.1a9.84,9.84,0,0,1-6.67-1.86q-2.06-1.85-2.05-6.56V75h9.9V105a2.18,2.18,0,0,0,2.51,2.44h5.62V75h10v38.58l-9.57,3.28Z"/><path id="Path_695" data-name="Path 695" class="cls-2" d="M326.57,114.87a23.17,23.17,0,0,1-3.81-.26,4.51,4.51,0,0,1-2.31-1,3.88,3.88,0,0,1-1.13-2.18,19.28,19.28,0,0,1-.3-3.71V82.19H313.4l15.77-20.64V74.94h7.3v7.25h-7.3v22.49a2.1,2.1,0,0,0,1,2.78,2.14,2.14,0,0,0,1.75,0h4.54v7.41Z"/><path id="Path_696" data-name="Path 696" class="cls-2" d="M394.1,95.12a12,12,0,0,1-4.69,2.79A30.66,30.66,0,0,1,383,99.26a27.32,27.32,0,0,1-1.37,4.93,19,19,0,0,1-2.9,5.16,16.9,16.9,0,0,1-4.66,4.05,15.37,15.37,0,0,1-11.39,1,3.41,3.41,0,0,1-2-1.68,10.78,10.78,0,0,1-3.26,1.65,13.33,13.33,0,0,1-4.15.69,6.93,6.93,0,0,1-4.79-1.41,4.88,4.88,0,0,1-1.55-3.81,11.08,11.08,0,0,1,.48-3,25.5,25.5,0,0,1,1.31-3.51l6.76-15.19,7.11,4.14-7,15.55a7,7,0,0,0-.39,1.08,3.45,3.45,0,0,0-.16,1q0,1,.9,1c.91,0,1.77-.88,2.57-2.64L365,93.62l6.94,4.2-4.43,10a4.49,4.49,0,0,0-.47,2c0,.64.27,1,.83,1a3.49,3.49,0,0,0,2.33-1.5,21.94,21.94,0,0,0,2.54-3.66,29.18,29.18,0,0,0,2.1-4.54,15.27,15.27,0,0,0,1-4.17,2.44,2.44,0,0,1-.92-1.2,5.31,5.31,0,0,1-.21-1.68,5.92,5.92,0,0,1,.54-2.52,6.49,6.49,0,0,1,1.49-2.1A7.12,7.12,0,0,1,379,88a7.43,7.43,0,0,1,2.87-.54,5.49,5.49,0,0,1,3.38,1,3.4,3.4,0,0,1,1.28,2.94,7.83,7.83,0,0,1-1.31,3.42c.24,0,.49.07.78.09s.56,0,.84,0a7.36,7.36,0,0,0,2.54-.42,14.12,14.12,0,0,0,2.6-1.32Zm-12.25-1a4.59,4.59,0,0,0,.35-1.68c0-.88-.29-1.32-.89-1.32q-1.44,0-1.44,1.38a1.56,1.56,0,0,0,.42,1.14,2.37,2.37,0,0,0,1.56.48Z"/><path id="Path_697" data-name="Path 697" class="cls-2" d="M405.94,104.54a11.76,11.76,0,0,1-2.78,3.6,26.75,26.75,0,0,1-4.6,3.39,30.26,30.26,0,0,1-5.45,2.52,16.06,16.06,0,0,1-5.23,1,4.64,4.64,0,0,1-3.13-1.05,3.53,3.53,0,0,1-1.23-2.85,6.66,6.66,0,0,1,.78-3l8.91-20,7.53,4.14-6.33,14.35a2.9,2.9,0,0,0-.3,1.08c0,.6.34.9,1,.9a5.74,5.74,0,0,0,2.4-.66,18,18,0,0,0,2.69-1.62,18.85,18.85,0,0,0,2.39-2.08,7.56,7.56,0,0,0,1.49-2Zm.95-25a3.24,3.24,0,0,1-.74,2.07,6.51,6.51,0,0,1-1.86,1.57,10,10,0,0,1-2.42,1,9.2,9.2,0,0,1-2.45.37,5.63,5.63,0,0,1-2.78-.7A2.07,2.07,0,0,1,395.42,82a3.25,3.25,0,0,1,.65-1.89,6.51,6.51,0,0,1,1.74-1.65,9.55,9.55,0,0,1,2.39-1.14,8.74,8.74,0,0,1,2.69-.42,5.35,5.35,0,0,1,2.78.72A2.21,2.21,0,0,1,406.89,79.57Z"/><path id="Path_698" data-name="Path 698" class="cls-2" d="M423.15,104.54a11.09,11.09,0,0,1-2.78,3.66,27.11,27.11,0,0,1-4.57,3.4,28.85,28.85,0,0,1-5.38,2.49,16.49,16.49,0,0,1-5.2,1,4.16,4.16,0,0,1-3.2-1.26,4.29,4.29,0,0,1-1.16-3,7.09,7.09,0,0,1,.15-1.29,6,6,0,0,1,.51-1.47L408,93.44H405.4l1.5-3.36h2.51l8.31-18.55,10.16-.66-8.49,19.21h2.69l-1.49,3.36H417.9l-6.22,13.92a2.34,2.34,0,0,0-.3,1q0,.48.6.48a5.84,5.84,0,0,0,2.48-.66,16.55,16.55,0,0,0,2.78-1.65,18.45,18.45,0,0,0,2.51-2.16,8.6,8.6,0,0,0,1.61-2.13Z"/><path id="Path_699" data-name="Path 699" class="cls-2" d="M453,104.54a10.49,10.49,0,0,1-2.69,3.57,27.85,27.85,0,0,1-4.54,3.4,29.48,29.48,0,0,1-5.35,2.55,15.81,15.81,0,0,1-5.17,1,3.94,3.94,0,0,1-3.38-1.26,4.73,4.73,0,0,1-.93-2.83,7.7,7.7,0,0,1,.12-1.35,6.48,6.48,0,0,1,.48-1.47c.92-2.16,1.84-4.16,2.78-6a58,58,0,0,0,2.6-5.94c.2-.52.31-.86.36-1a1.52,1.52,0,0,0,.06-.42q0-.78-.9-.78a2.27,2.27,0,0,0-2.21,1.5l-8.55,19.39h-9.92l19.85-44.66h9.92l-9.2,20.53a11,11,0,0,1,2.57-1.11,8.36,8.36,0,0,1,2.33-.33,5.77,5.77,0,0,1,3.86,1,3.68,3.68,0,0,1,1.16,2.94A10.25,10.25,0,0,1,446,95.6a19.71,19.71,0,0,1-.81,2.61c-.35,1-.8,2.1-1.34,3.36s-1.19,2.75-1.94,4.48q-.18.54-.33,1a2.13,2.13,0,0,0-.16.66q0,.9,1.08.9a5.24,5.24,0,0,0,2.15-.66,19.42,19.42,0,0,0,5-3.7,7.59,7.59,0,0,0,1.5-2Z"/><path id="Path_700" data-name="Path 700" class="cls-2" d="M468.26,61.63h-4.94V53.71h22.31l6.79,61.16h-10l-.59-7.33h-9.22l-.67,7.33H461.89ZM481,99.79l-3.86-38.41L473.3,99.79Z"/><path id="Path_701" data-name="Path 701" class="cls-2" d="M495.45,114.87V74.35l9.39-4.55v5.14h8.47v7.24H508a3.94,3.94,0,0,0-2.19.34,4,4,0,0,0-.33,2.19v30.15Z"/><path id="Path_702" data-name="Path 702" class="cls-2" d="M523.38,114.87,514,74.94h10.57l4.62,29.73,4.44-29.73h10.65l-9.39,39.93Z"/><path id="Path_703" data-name="Path 703" class="cls-2" d="M545.35,114.87v-5.65l13.59-27H546.11V74.94h25.67v5.64l-13.26,26.87h12.84v7.41Z"/><path id="Path_704" data-name="Path 704" class="cls-2" d="M581,61.63h-5V53.71h22.31l6.8,61.16h-10l-.59-7.33h-9.22l-.67,7.33H574.63Zm12.75,38.16L589.9,61.38,586,99.79Z"/><path id="Path_705" data-name="Path 705" class="cls-2" d="M608.19,134.83V74.52l9.89-4.64v5.06h10.57a22.73,22.73,0,0,1,3.78.25,4.61,4.61,0,0,1,2.34,1A4.14,4.14,0,0,1,636,78.39a16.48,16.48,0,0,1,.33,3.71v25.6a17.19,17.19,0,0,1-.29,3.58,4.4,4.4,0,0,1-1,2.19,4,4,0,0,1-2.14,1.1,17.7,17.7,0,0,1-3.56.29H618.08v20Zm9.89-27.38h5.54a3.67,3.67,0,0,0,2.27-.42,4,4,0,0,0,.41-2.36V85a4,4,0,0,0-.41-2.36,3.82,3.82,0,0,0-2.27-.42h-5.54Z"/><path id="Path_706" data-name="Path 706" class="cls-2" d="M640.31,134.83V74.52l9.9-4.64v5.06h10.57a22.73,22.73,0,0,1,3.78.25,4.61,4.61,0,0,1,2.34,1,4.14,4.14,0,0,1,1.18,2.19,16.48,16.48,0,0,1,.33,3.71v25.6a17.19,17.19,0,0,1-.29,3.58,4.4,4.4,0,0,1-1,2.19,4,4,0,0,1-2.14,1.1,17.7,17.7,0,0,1-3.56.29H650.21v20Zm9.9-27.38h5.54A3.63,3.63,0,0,0,658,107a3.94,3.94,0,0,0,.42-2.36V85A4,4,0,0,0,658,82.6a3.77,3.77,0,0,0-2.26-.42h-5.54Z"/><path id="Path_707" data-name="Path 707" class="cls-2" d="M671.35,53.71h11.58l-2.69,48.69h-5.78Zm1.93,53.15h8.13v8h-8.13Z"/></g></g></g></g><polygon class="cls-1" points="73.96 195.9 129.4 251.35 73.96 306.8 73.96 195.9"/><polygon class="cls-4" points="30.55 217.14 64.76 251.35 30.55 285.56 30.55 217.14"/><polygon class="cls-5" points="0 229.38 21.96 251.35 0 273.31 0 229.38"/><polygon class="cls-1" points="703.03 195.9 647.58 251.35 703.03 306.8 703.03 195.9"/><polygon class="cls-4" points="746.43 217.14 712.23 251.35 746.43 285.56 746.43 217.14"/><polygon class="cls-5" points="776.99 229.38 755.02 251.35 776.99 273.31 776.99 229.38"/></g></g></svg>