<svg xmlns="http://www.w3.org/2000/svg" viewBox="0 0 1921.39 690.63"><defs><style>.cls-1{fill:#ffcb05;}.cls-2{fill:#6b5513;}.cls-3{fill:#7ed321;}.cls-4{fill:#fff;}.cls-5{fill:#ffca07;}.cls-6{fill:#4f9c3a;}.cls-7{fill:#073;}.cls-8{fill:none;stroke:#ffcb05;stroke-miterlimit:10;stroke-width:2px;}</style></defs><title>CTA_Band_1mdpi</title><g id="Layer_2" data-name="Layer 2"><g id="CTA_FEED"><polygon class="cls-1" points="0.52 690.63 1920.52 690.63 1920.52 0 43.76 0 0.52 0 0.52 690.63"/><rect x="0.55" y="35.45" width="1920.84" height="70.14"/><polygon class="cls-2" points="1057.47 105.57 1127.58 35.45 1030.91 35.45 960.8 105.57 1057.47 105.57"/><polygon class="cls-2" points="1250.47 105.57 1320.58 35.45 1223.91 35.45 1153.8 105.57 1250.47 105.57"/><polygon class="cls-2" points="1443.47 105.57 1513.58 35.45 1416.91 35.45 1346.8 105.57 1443.47 105.57"/><polygon class="cls-2" points="1636.47 105.57 1706.58 35.45 1609.91 35.45 1539.8 105.57 1636.47 105.57"/><polygon class="cls-2" points="864.4 105.57 794.28 35.45 890.95 35.45 961.06 105.57 864.4 105.57"/><polygon class="cls-2" points="671.4 105.57 601.28 35.45 697.95 35.45 768.06 105.57 671.4 105.57"/><polygon class="cls-2" points="478.4 105.57 408.28 35.45 504.95 35.45 575.06 105.57 478.4 105.57"/><polygon class="cls-2" points="285.4 105.57 215.28 35.45 311.95 35.45 382.06 105.57 285.4 105.57"/><rect x="0.55" y="584.83" width="1920.84" height="70.14"/><polygon class="cls-2" points="864.48 584.86 794.36 654.97 891.03 654.97 961.14 584.86 864.48 584.86"/><polygon class="cls-2" points="671.48 584.86 601.36 654.97 698.03 654.97 768.14 584.86 671.48 584.86"/><polygon class="cls-2" points="478.48 584.86 408.36 654.97 505.03 654.97 575.14 584.86 478.48 584.86"/><polygon class="cls-2" points="285.48 584.86 215.36 654.97 312.03 654.97 382.14 584.86 285.48 584.86"/><polygon class="cls-2" points="1057.55 584.86 1127.66 654.97 1031 654.97 960.88 584.86 1057.55 584.86"/><polygon class="cls-2" points="1250.55 584.86 1320.66 654.97 1224 654.97 1153.88 584.86 1250.55 584.86"/><polygon class="cls-2" points="1443.55 584.86 1513.66 654.97 1417 654.97 1346.88 584.86 1443.55 584.86"/><polygon class="cls-2" points="1636.55 584.86 1706.66 654.97 1610 654.97 1539.88 584.86 1636.55 584.86"/><polygon points="0.52 584.73 1920.52 584.73 1920.52 105.9 43.76 105.9 0.52 105.9 0.52 584.73"/><rect class="cls-3" x="760.83" y="383.89" width="400" height="100" rx="9.04"/><path class="cls-4" d="M804.05,447.15v-24h17v4.49H809.16v5.08h11.63v4.5H809.16v9.93Z"/><path class="cls-4" d="M838.18,447.15l-4.72-8.53h-3.74v8.53h-5.11v-24h11.23c5,0,8.06,3.27,8.06,7.73a6.89,6.89,0,0,1-5.25,7.13l5.4,9.14Zm.5-16.27c0-2-1.54-3.24-3.6-3.24h-5.36v6.48h5.36C837.14,434.12,838.68,432.9,838.68,430.88Z"/><path class="cls-4" d="M847.76,447.15v-24h17v4.49H852.87v5.08h11.62v4.5H852.87v5.43h11.88v4.5Z"/><path class="cls-4" d="M868.74,447.15v-24h17v4.49H873.86v5.08h11.62v4.5H873.86v5.43h11.87v4.5Z"/><path class="cls-4" d="M904.49,447.15V427.64h-7v-4.49h19.15v4.49h-7v19.51Z"/><path class="cls-4" d="M933.47,447.15l-4.72-8.53H925v8.53H919.9v-24h11.23c5,0,8.06,3.27,8.06,7.73a6.89,6.89,0,0,1-5.25,7.13l5.4,9.14Zm.5-16.27c0-2-1.54-3.24-3.6-3.24H925v6.48h5.36C932.43,434.12,934,432.9,934,430.88Z"/><path class="cls-4" d="M943.05,447.15v-24h5.11v24Z"/><path class="cls-4" d="M969.47,447.15,968,443.09H957.7l-1.51,4.06h-5.83l9.28-24h6.41l9.25,24Zm-6.62-18.89-3.75,10.33h7.49Z"/><path class="cls-4" d="M977.53,447.15v-24h5.12v19.5H992.8v4.5Z"/><path class="cls-4" d="M1004.43,435.17c0-7.24,5.29-12.42,12.52-12.42s12.57,5.18,12.57,12.42-5.3,12.42-12.57,12.42S1004.43,442.4,1004.43,435.17Zm19.83,0c0-4.5-2.88-7.89-7.31-7.89s-7.27,3.39-7.27,7.89,2.85,7.88,7.27,7.88S1024.26,439.63,1024.26,435.17Z"/><path class="cls-4" d="M1033.12,447.15v-24h17v4.49h-11.88v5.08h11.63v4.5h-11.63v9.93Z"/><path class="cls-4" d="M1053.67,447.15v-24h17v4.49h-11.87v5.08h11.62v4.5h-11.62v9.93Z"/><path class="cls-4" d="M1074.23,447.15v-24h17v4.49h-11.88v5.08H1091v4.5h-11.63v5.43h11.88v4.5Z"/><path class="cls-4" d="M1108.79,447.15l-4.72-8.53h-3.74v8.53h-5.11v-24h11.23c5,0,8.06,3.27,8.06,7.73a6.89,6.89,0,0,1-5.25,7.13l5.4,9.14Zm.5-16.27c0-2-1.55-3.24-3.6-3.24h-5.36v6.48h5.36C1107.74,434.12,1109.29,432.9,1109.29,430.88Z"/><path class="cls-4" d="M801.68,452.3v-.72H1116v.72Z"/><path class="cls-4" d="M771.64,509.88a15.48,15.48,0,0,1,4.71-10.63l.85.85a16.6,16.6,0,0,0-3.85,10.3,15.77,15.77,0,0,0,.66,4.12l-1.15.65A11.11,11.11,0,0,1,771.64,509.88Z"/><path class="cls-4" d="M783.57,499.58h1.8l-2.65,12h-1.8Z"/><path class="cls-4" d="M792.46,506a2.61,2.61,0,0,0,.09-.58c0-.94-.73-1.32-1.56-1.32a3.91,3.91,0,0,0-2.65,1.27L787,511.59h-1.62l1.93-8.7h1.62l-.29,1.22a4.52,4.52,0,0,1,3-1.44c1.59,0,2.63.8,2.63,2.18a4.57,4.57,0,0,1-.09.72l-1.33,6h-1.62Z"/><path class="cls-4" d="M796.19,509.59l1.17-5.29h-1.44l.32-1.41h1.44l.52-2.38h1.62l-.52,2.38h1.77l-.33,1.41H799l-1.08,4.93a1.67,1.67,0,0,0,0,.34c0,.5.29.79.87.79a1.38,1.38,0,0,0,.77-.25l.13,1.3a2.24,2.24,0,0,1-1.34.39c-1.31,0-2.16-.52-2.16-1.67A3.25,3.25,0,0,1,796.19,509.59Z"/><path class="cls-4" d="M802.87,502.89h1.62l-.31,1.28a3.89,3.89,0,0,1,3.19-1.48l-.36,1.64a4.14,4.14,0,0,0-.72-.07,3.33,3.33,0,0,0-2.42,1.31l-1.31,6h-1.62Z"/><path class="cls-4" d="M812.25,502.67a3.74,3.74,0,0,1,4.08,3.89,5.1,5.1,0,0,1-4.91,5.24,3.72,3.72,0,0,1-4.07-3.89A5.1,5.1,0,0,1,812.25,502.67Zm0,1.44c-1.85,0-3.17,1.84-3.17,3.73a2.28,2.28,0,0,0,2.43,2.52c1.86,0,3.17-1.82,3.17-3.72A2.3,2.3,0,0,0,812.21,504.11Z"/><path class="cls-4" d="M826.18,499.58h1.62l-2.67,12h-1.62l.27-1.21A3.48,3.48,0,0,1,821,511.8c-2,0-3.35-1.29-3.35-3.58,0-2.77,1.71-5.55,4.58-5.55a3.4,3.4,0,0,1,2.95,1.54Zm-4.56,10.78a3.15,3.15,0,0,0,2.47-1.35l.81-3.6a2.79,2.79,0,0,0-2.47-1.3c-1.83,0-3.08,1.84-3.08,3.8A2.21,2.21,0,0,0,821.62,510.36Z"/><path class="cls-4" d="M830,508.45a3.23,3.23,0,0,0-.09.6c0,.94.74,1.31,1.71,1.31a3.83,3.83,0,0,0,2.5-1.28l1.37-6.19h1.62l-1.93,8.7h-1.62l.27-1.23a4.45,4.45,0,0,1-3,1.44c-1.57,0-2.63-.79-2.63-2.18a3.15,3.15,0,0,1,.11-.72l1.33-6h1.62Z"/><path class="cls-4" d="M843.06,502.67a3.57,3.57,0,0,1,3.33,1.66l-1.22.92a2.33,2.33,0,0,0-2.09-1.14,3.47,3.47,0,0,0-3.3,3.75,2.37,2.37,0,0,0,2.58,2.5,2.8,2.8,0,0,0,2.09-1l.9,1.1a4.21,4.21,0,0,1-3.15,1.33,3.74,3.74,0,0,1-4.07-3.9A5.07,5.07,0,0,1,843.06,502.67Z"/><path class="cls-4" d="M847.47,509.59l1.17-5.29H847.2l.32-1.41H849l.53-2.38h1.62l-.53,2.38h1.77L852,504.3h-1.76l-1.08,4.93a1.67,1.67,0,0,0,0,.34c0,.5.29.79.87.79a1.36,1.36,0,0,0,.77-.25l.13,1.3a2.23,2.23,0,0,1-1.33.39c-1.32,0-2.16-.52-2.16-1.67A3.06,3.06,0,0,1,847.47,509.59Z"/><path class="cls-4" d="M857.44,502.67a3.75,3.75,0,0,1,4.09,3.89,5.1,5.1,0,0,1-4.92,5.24,3.72,3.72,0,0,1-4.07-3.89A5.11,5.11,0,0,1,857.44,502.67Zm0,1.44c-1.86,0-3.17,1.84-3.17,3.73a2.28,2.28,0,0,0,2.43,2.52c1.85,0,3.17-1.82,3.17-3.72A2.3,2.3,0,0,0,857.41,504.11Z"/><path class="cls-4" d="M864.44,502.89h1.62l-.3,1.28a3.89,3.89,0,0,1,3.18-1.48l-.36,1.64a3.92,3.92,0,0,0-.72-.07,3.31,3.31,0,0,0-2.41,1.31l-1.31,6h-1.62Z"/><path class="cls-4" d="M868.85,513.64c.47,0,.81-.2,1.23-.81l.77-1.19-1.6-8.75h1.67l1.19,6.83,4.25-6.83h1.8l-6.59,10.35a3.24,3.24,0,0,1-2.9,1.88,4,4,0,0,1-1.24-.2l.56-1.44A2.23,2.23,0,0,0,868.85,513.64Z"/><path class="cls-4" d="M889.68,499.38c3.15,0,5.64,2,5.64,5.28a6.9,6.9,0,0,1-6.81,7.14c-3.15,0-5.64-2-5.64-5.29A6.9,6.9,0,0,1,889.68,499.38Zm-.11,1.6c-2.63,0-4.82,2.33-4.82,5.42a3.63,3.63,0,0,0,3.87,3.8c2.61,0,4.82-2.32,4.82-5.42A3.64,3.64,0,0,0,889.57,501Z"/><path class="cls-4" d="M898,504.31h-1.44l.3-1.42h1.44l.13-.57c.41-1.86,1.39-2.92,3-2.92a2.86,2.86,0,0,1,1.67.45l-.61,1.13a1.49,1.49,0,0,0-.9-.25c-.83,0-1.28.54-1.51,1.59l-.13.57h1.77l-.31,1.42H899.6L898,511.59h-1.62Zm5.33,0h-1.44l.3-1.42h1.44l.13-.57c.41-1.86,1.39-2.92,3-2.92a2.86,2.86,0,0,1,1.67.45l-.61,1.13a1.49,1.49,0,0,0-.9-.25c-.83,0-1.28.54-1.51,1.59l-.13.57H907l-.31,1.42h-1.76l-1.62,7.28h-1.62Z"/><path class="cls-4" d="M911.86,502.67a3.61,3.61,0,0,1,3.79,3.84,5.8,5.8,0,0,1-.16,1.26H908.6a1.79,1.79,0,0,0,0,.36c0,1.17.94,2.34,2.81,2.34a4,4,0,0,0,2.41-.79l.52,1.13a5.23,5.23,0,0,1-3,1c-2.68,0-4.32-1.51-4.32-3.87A5.08,5.08,0,0,1,911.86,502.67Zm2.34,3.64a2.24,2.24,0,0,0-2.47-2.3,3.15,3.15,0,0,0-3,2.59h5.42A1.23,1.23,0,0,0,914.2,506.31Z"/><path class="cls-4" d="M918.6,502.89h1.63l-.31,1.28a3.89,3.89,0,0,1,3.19-1.48l-.36,1.64a4.14,4.14,0,0,0-.72-.07,3.31,3.31,0,0,0-2.42,1.31l-1.31,6h-1.62Z"/><path class="cls-4" d="M927.77,506.53h9.59l-.32,1.4h-9.6Z"/><path class="cls-4" d="M946.68,502l-2.12,9.64h-1.8l2.65-12h1.85l4.45,9.41,2.09-9.41h1.8l-2.65,12H951.2Z"/><path class="cls-4" d="M960.8,502.67a3.74,3.74,0,0,1,4.08,3.89A5.1,5.1,0,0,1,960,511.8a3.72,3.72,0,0,1-4.07-3.89A5.1,5.1,0,0,1,960.8,502.67Zm0,1.44c-1.85,0-3.17,1.84-3.17,3.73a2.28,2.28,0,0,0,2.43,2.52c1.86,0,3.17-1.82,3.17-3.72A2.3,2.3,0,0,0,960.76,504.11Z"/><path class="cls-4" d="M978,499.38a5.21,5.21,0,0,1,5,3l-1.71.65a3.57,3.57,0,0,0-3.4-2,5.12,5.12,0,0,0-4.85,5.42,3.62,3.62,0,0,0,3.87,3.8,4.37,4.37,0,0,0,3.1-1.37l1.37,1a6.14,6.14,0,0,1-4.57,2c-3.23,0-5.64-2.08-5.64-5.29A6.88,6.88,0,0,1,978,499.38Z"/><path class="cls-4" d="M984.66,502.89h1.62l-.3,1.28a3.89,3.89,0,0,1,3.18-1.48l-.35,1.64a4.17,4.17,0,0,0-.73-.07,3.31,3.31,0,0,0-2.41,1.31l-1.31,6h-1.62Z"/><path class="cls-4" d="M994.08,502.67a3.62,3.62,0,0,1,3.8,3.84,5.8,5.8,0,0,1-.16,1.26h-6.9a1.79,1.79,0,0,0,0,.36c0,1.17.94,2.34,2.81,2.34a4.07,4.07,0,0,0,2.42-.79l.52,1.13a5.29,5.29,0,0,1-3,1c-2.68,0-4.32-1.51-4.32-3.87A5.08,5.08,0,0,1,994.08,502.67Zm2.34,3.64A2.24,2.24,0,0,0,994,504a3.15,3.15,0,0,0-3,2.59h5.42A1.23,1.23,0,0,0,996.42,506.31Z"/><path class="cls-4" d="M1007.76,499.58h1.62l-2.67,12h-1.62l.27-1.21a3.48,3.48,0,0,1-2.79,1.42c-2,0-3.35-1.29-3.35-3.58,0-2.77,1.72-5.55,4.58-5.55a3.4,3.4,0,0,1,3,1.54Zm-4.56,10.78a3.15,3.15,0,0,0,2.47-1.35l.81-3.6a2.79,2.79,0,0,0-2.47-1.3c-1.83,0-3.07,1.84-3.07,3.8A2.21,2.21,0,0,0,1003.2,510.36Z"/><path class="cls-4" d="M1011.23,502.89h1.62l-1.93,8.7h-1.62Zm1.44-3.53a.94.94,0,0,1,1,.9,1.19,1.19,0,0,1-1.17,1.17.91.91,0,0,1-1-.9A1.19,1.19,0,0,1,1012.67,499.36Z"/><path class="cls-4" d="M1014.25,509.59l1.17-5.29H1014l.33-1.41h1.44l.52-2.38h1.62l-.52,2.38h1.76l-.32,1.41h-1.76l-1.08,4.93a1.67,1.67,0,0,0,0,.34c0,.5.29.79.86.79a1.39,1.39,0,0,0,.78-.25l.12,1.3a2.21,2.21,0,0,1-1.33.39c-1.31,0-2.16-.52-2.16-1.67A4.47,4.47,0,0,1,1014.25,509.59Z"/><path class="cls-4" d="M1031.14,499.38a5.2,5.2,0,0,1,5,3l-1.71.65a3.55,3.55,0,0,0-3.4-2,5.12,5.12,0,0,0-4.84,5.42,3.62,3.62,0,0,0,3.87,3.8,4.39,4.39,0,0,0,3.1-1.37l1.36,1a6.12,6.12,0,0,1-4.57,2c-3.22,0-5.64-2.08-5.64-5.29A6.88,6.88,0,0,1,1031.14,499.38Z"/><path class="cls-4" d="M1044,502.89h1.62l-1.92,8.7h-1.62l.27-1.21a3.5,3.5,0,0,1-2.8,1.42c-2,0-3.34-1.29-3.34-3.58,0-2.77,1.71-5.55,4.57-5.55a3.39,3.39,0,0,1,3,1.54Zm-3.81,7.47a3.15,3.15,0,0,0,2.46-1.35l.81-3.6a2.78,2.78,0,0,0-2.47-1.3c-1.83,0-3.07,1.84-3.07,3.8A2.21,2.21,0,0,0,1040.18,510.36Z"/><path class="cls-4" d="M1048.2,502.89h1.62l-.3,1.28a3.86,3.86,0,0,1,3.18-1.48l-.36,1.64a4,4,0,0,0-.72-.07,3.31,3.31,0,0,0-2.41,1.31l-1.31,6h-1.62Z"/><path class="cls-4" d="M1061.22,499.58h1.62l-2.67,12h-1.62l.27-1.21a3.48,3.48,0,0,1-2.79,1.42c-2,0-3.35-1.29-3.35-3.58,0-2.77,1.71-5.55,4.58-5.55a3.4,3.4,0,0,1,3,1.54Zm-4.56,10.78a3.15,3.15,0,0,0,2.47-1.35l.81-3.6a2.79,2.79,0,0,0-2.47-1.3c-1.83,0-3.08,1.84-3.08,3.8A2.21,2.21,0,0,0,1056.66,510.36Z"/><path class="cls-4" d="M1072.61,507h-2.36l-1,4.63h-1.8l2.65-12h4.63a3.28,3.28,0,0,1,3.49,3.2,4,4,0,0,1-3.76,4.09l2,4.72h-2Zm3.71-4a1.87,1.87,0,0,0-1.91-1.79h-2.86l-.94,4.22h3A2.43,2.43,0,0,0,1076.32,503Z"/><path class="cls-4" d="M1083.39,502.67a3.61,3.61,0,0,1,3.8,3.84,5.8,5.8,0,0,1-.16,1.26h-6.9a3.25,3.25,0,0,0,0,.36c0,1.17.93,2.34,2.81,2.34a4,4,0,0,0,2.41-.79l.52,1.13a5.23,5.23,0,0,1-3,1c-2.68,0-4.32-1.51-4.32-3.87A5.07,5.07,0,0,1,1083.39,502.67Zm2.34,3.64a2.23,2.23,0,0,0-2.46-2.3,3.14,3.14,0,0,0-3,2.59h5.42A2.44,2.44,0,0,0,1085.73,506.31Z"/><path class="cls-4" d="M1096.34,502.89H1098l-2.67,12h-1.62l1-4.52a3.49,3.49,0,0,1-2.79,1.42c-2,0-3.35-1.29-3.35-3.58,0-2.77,1.71-5.55,4.57-5.55a3.42,3.42,0,0,1,3,1.54Zm-3.82,7.47A3.17,3.17,0,0,0,1095,509l.81-3.6a2.8,2.8,0,0,0-2.47-1.3c-1.84,0-3.08,1.84-3.08,3.8A2.21,2.21,0,0,0,1092.52,510.36Z"/><path class="cls-4" d="M1100.87,508.45a3.23,3.23,0,0,0-.09.6c0,.94.74,1.31,1.71,1.31a3.83,3.83,0,0,0,2.5-1.28l1.37-6.19H1108l-1.92,8.7h-1.62l.27-1.23a4.5,4.5,0,0,1-3,1.44c-1.57,0-2.63-.79-2.63-2.18a3.82,3.82,0,0,1,.11-.72l1.33-6h1.62Z"/><path class="cls-4" d="M1110.55,502.89h1.62l-1.92,8.7h-1.62Zm1.44-3.53a.94.94,0,0,1,1,.9,1.19,1.19,0,0,1-1.17,1.17.91.91,0,0,1-1-.9A1.19,1.19,0,0,1,1112,499.36Z"/><path class="cls-4" d="M1114.75,502.89h1.62l-.31,1.28a3.89,3.89,0,0,1,3.19-1.48l-.36,1.64a4.14,4.14,0,0,0-.72-.07,3.29,3.29,0,0,0-2.41,1.31l-1.32,6h-1.62Z"/><path class="cls-4" d="M1124.16,502.67a3.61,3.61,0,0,1,3.8,3.84,5.8,5.8,0,0,1-.16,1.26h-6.9a3.25,3.25,0,0,0,0,.36c0,1.17.93,2.34,2.81,2.34a4,4,0,0,0,2.41-.79l.52,1.13a5.23,5.23,0,0,1-3,1c-2.68,0-4.32-1.51-4.32-3.87A5.07,5.07,0,0,1,1124.16,502.67Zm2.34,3.64A2.23,2.23,0,0,0,1124,504a3.14,3.14,0,0,0-3,2.59h5.41A1.23,1.23,0,0,0,1126.5,506.31Z"/><path class="cls-4" d="M1137.84,499.58h1.62l-2.66,12h-1.62l.27-1.21a3.49,3.49,0,0,1-2.79,1.42c-2,0-3.35-1.29-3.35-3.58,0-2.77,1.71-5.55,4.57-5.55a3.42,3.42,0,0,1,3,1.54Zm-4.55,10.78a3.17,3.17,0,0,0,2.47-1.35l.81-3.6a2.8,2.8,0,0,0-2.47-1.3c-1.84,0-3.08,1.84-3.08,3.8A2.21,2.21,0,0,0,1133.29,510.36Z"/><path class="cls-4" d="M1148,504.55a15.46,15.46,0,0,1-4.74,10.62l-.83-.85a16.46,16.46,0,0,0,3.86-10.29,15.92,15.92,0,0,0-.67-4.13l1.13-.65A11.07,11.07,0,0,1,1148,504.55Z"/><g id="Group_344" data-name="Group 344"><g id="STAND"><g id="Group_339" data-name="Group 339"><g id="Rectangle_518" data-name="Rectangle 518"><rect x="619.24" y="183.28" width="681.56" height="157.89"/><path class="cls-4" d="M1300,184.06V340.38H620V184.06h680m1.56-1.56H618.46V342h683.13V182.5Z"/></g><path id="Path_686" data-name="Path 686" class="cls-5" d="M1082.51,218.26,957,218.3l14.48,10.29-99.79,9.79,128.16.09-17.71-11.28Z"/><path id="Path_687" data-name="Path 687" class="cls-5" d="M1290,328.55H630.06V195.9H1290Zm-657.26-2.68h654.59V198.58H632.73Z"/><g id="Group_338" data-name="Group 338"><path id="Path_688" data-name="Path 688" class="cls-4" d="M670.89,297.12a7,7,0,0,1-2.93-1.23,5.62,5.62,0,0,1-1.81-2.36,9.76,9.76,0,0,1-.62-3.75V279.59h10.23v7.83q0,1.6.63,2.07a6.37,6.37,0,0,0,3.14.47,7.57,7.57,0,0,0,3.06-.42c.53-.29.8-1,.8-2.11v-8.17a10.79,10.79,0,0,0-1.34-5.56,16.31,16.31,0,0,0-3.31-4,39.82,39.82,0,0,0-4.28-3.25,30.22,30.22,0,0,1-4.28-3.37,16.84,16.84,0,0,1-3.31-4.33,12.9,12.9,0,0,1-1.35-6.19v-8.85c0-3.14.87-5.21,2.6-6.19a14.85,14.85,0,0,1,7.3-1.47h8a25.59,25.59,0,0,1,4.19.29,8,8,0,0,1,3.14,1.14,5.27,5.27,0,0,1,2,2.35,9.92,9.92,0,0,1,.67,3.88v10.53h-10v-8.09c0-1.12-.27-1.82-.8-2.1a7.24,7.24,0,0,0-3.06-.42,6.89,6.89,0,0,0-3.15.42c-.42.28-.62,1-.62,2.1v5.9a6.48,6.48,0,0,0,1.34,4,18.31,18.31,0,0,0,3.31,3.33c1.32,1,2.76,2.1,4.32,3.16a27.73,27.73,0,0,1,4.32,3.62,18.55,18.55,0,0,1,3.32,4.72,14.5,14.5,0,0,1,1.34,6.48v12.39a9.84,9.84,0,0,1-.67,3.87,5.28,5.28,0,0,1-2,2.36,8.48,8.48,0,0,1-3.15,1.18,23.65,23.65,0,0,1-4.2.34h-8.89A29.25,29.25,0,0,1,670.89,297.12Z"/><path id="Path_689" data-name="Path 689" class="cls-4" d="M706.71,297.37a23.17,23.17,0,0,1-3.81-.26,4.51,4.51,0,0,1-2.31-1,3.9,3.9,0,0,1-1.13-2.19,19.12,19.12,0,0,1-.3-3.7V264.69h-5.62l15.77-20.64v13.39h7.3v7.25h-7.3v22.49a2.09,2.09,0,0,0,1,2.78,2.14,2.14,0,0,0,1.75,0h4.53v7.41Z"/><path id="Path_690" data-name="Path 690" class="cls-4" d="M726.93,297.37a22.14,22.14,0,0,1-3.73-.26,4.51,4.51,0,0,1-2.31-1,4,4,0,0,1-1.17-2.19,16.4,16.4,0,0,1-.34-3.7V278.5a21.41,21.41,0,0,1,.25-3.58,4.29,4.29,0,0,1,1-2.19,4,4,0,0,1,2.14-1.09,18.61,18.61,0,0,1,3.65-.3H737.5v-4.46a1.6,1.6,0,0,0-.57-2.19,1.62,1.62,0,0,0-1.62,0H721v-7.25h19a23.23,23.23,0,0,1,3.73.26,4.51,4.51,0,0,1,2.31,1,4.16,4.16,0,0,1,1.17,2.19,17.05,17.05,0,0,1,.34,3.7v32.77ZM737.5,290V278.58h-5.63c-.61,0-1.1,0-1.46,0a1,1,0,0,0-1.1.93v.17c0,.36,0,.86,0,1.47v6.23a9.93,9.93,0,0,0,.08,1.44,1.4,1.4,0,0,0,.34.75,1.22,1.22,0,0,0,.8.3c.36,0,.85,0,1.46,0Z"/><path id="Path_691" data-name="Path 691" class="cls-4" d="M751.51,297.37V257.44h9.9V260a13.37,13.37,0,0,1,4.53-2.66,15.8,15.8,0,0,1,4.54-.63,13.43,13.43,0,0,1,3,.38,12.34,12.34,0,0,1,2.93,1.1,7.45,7.45,0,0,1,2.22,1.76,3.66,3.66,0,0,1,.89,2.4v35.05h-10V266.62a2.2,2.2,0,0,0-.21-1.18c-.14-.17-.52-.25-1.14-.25h-6c-.56,0-.84.34-.84,1v31.17Z"/><path id="Path_692" data-name="Path 692" class="cls-4" d="M790.6,297.37a18.67,18.67,0,0,1-3.65-.3,4,4,0,0,1-2.14-1.09,4.2,4.2,0,0,1-1-2.19,20.4,20.4,0,0,1-.25-3.58V264.6a16.53,16.53,0,0,1,.33-3.71,4.11,4.11,0,0,1,1.18-2.18,4.44,4.44,0,0,1,2.3-1,22.33,22.33,0,0,1,3.74-.26h10.56v-23.5l10,4.55v58.88ZM801.67,290V264.68h-5.53a3.8,3.8,0,0,0-2.27.42,4,4,0,0,0-.42,2.36v19.71a4,4,0,0,0,.42,2.36,3.66,3.66,0,0,0,2.27.42Z"/><path id="Path_693" data-name="Path 693" class="cls-4" d="M831.37,297.37a23.29,23.29,0,0,1-3.82-.26,4.24,4.24,0,0,1-2.3-1.05,4.29,4.29,0,0,1-1.18-2.23,17.24,17.24,0,0,1-.33-3.79V243.55a17.28,17.28,0,0,1,.33-3.8,4.41,4.41,0,0,1,1.18-2.23,4.31,4.31,0,0,1,2.3-1.05,23.28,23.28,0,0,1,3.82-.25h13a23.77,23.77,0,0,1,3.86.25,4.62,4.62,0,0,1,2.39,1.05,4.21,4.21,0,0,1,1.22,2.23,17.28,17.28,0,0,1,.33,3.8V290a18.4,18.4,0,0,1-.29,3.71,4.34,4.34,0,0,1-1.09,2.23,4.27,4.27,0,0,1-2.19,1.1,17.92,17.92,0,0,1-3.65.29Zm8-7.59a1.85,1.85,0,0,0,2.44-.92,1.91,1.91,0,0,0,0-1.52V246.23a3.43,3.43,0,0,0-.38-2.06,3.35,3.35,0,0,0-2.06-.38h-3a3.31,3.31,0,0,0-2,.38,3.43,3.43,0,0,0-.38,2.06v41.11a1.84,1.84,0,0,0,.92,2.44,1.81,1.81,0,0,0,1.51,0Z"/><path id="Path_694" data-name="Path 694" class="cls-4" d="M874.57,297.37h-9.73a9.84,9.84,0,0,1-6.67-1.86q-2.05-1.85-2.06-6.56V257.44H866v30.08a2.19,2.19,0,0,0,2.52,2.44h5.62V257.44h10V296l-9.56,3.28Z"/><path id="Path_695" data-name="Path 695" class="cls-4" d="M898.31,297.37a23.29,23.29,0,0,1-3.82-.26,4.44,4.44,0,0,1-2.3-1,3.88,3.88,0,0,1-1.14-2.19,19.11,19.11,0,0,1-.29-3.7V264.69h-5.62l15.77-20.64v13.39h7.3v7.25h-7.3v22.49a2.09,2.09,0,0,0,1,2.78,2.14,2.14,0,0,0,1.75,0h4.53v7.41Z"/><path id="Path_696" data-name="Path 696" class="cls-4" d="M965.84,277.62a12.07,12.07,0,0,1-4.69,2.79,30.79,30.79,0,0,1-6.43,1.35,27.32,27.32,0,0,1-1.37,4.93,18.82,18.82,0,0,1-2.9,5.15,16.67,16.67,0,0,1-4.67,4.06,15.34,15.34,0,0,1-11.38,1,3.43,3.43,0,0,1-2-1.68,10.72,10.72,0,0,1-3.25,1.65,13.34,13.34,0,0,1-4.16.69,6.91,6.91,0,0,1-4.78-1.41,4.88,4.88,0,0,1-1.55-3.81,10.71,10.71,0,0,1,.47-3,26.91,26.91,0,0,1,1.32-3.51l6.75-15.19,7.12,4.14-7,15.55a9.9,9.9,0,0,0-.39,1.08,3.85,3.85,0,0,0-.15,1c0,.64.3,1,.89,1q1.38,0,2.58-2.64l6.51-14.53,6.93,4.2-4.42,10a4.5,4.5,0,0,0-.48,2q0,1,.84,1a3.51,3.51,0,0,0,2.33-1.5,21.94,21.94,0,0,0,2.54-3.66,30.08,30.08,0,0,0,2.09-4.54,14.93,14.93,0,0,0,1-4.17,2.46,2.46,0,0,1-.93-1.2,6,6,0,0,1-.21-1.68A6.23,6.23,0,0,1,947,274a6.52,6.52,0,0,1,1.5-2.1,7.12,7.12,0,0,1,2.27-1.44,7.4,7.4,0,0,1,2.87-.54,5.46,5.46,0,0,1,3.37,1,3.44,3.44,0,0,1,1.29,2.94,8,8,0,0,1-1.32,3.42c.24,0,.5.07.79.09s.55,0,.83,0a7.28,7.28,0,0,0,2.54-.42,13.81,13.81,0,0,0,2.6-1.32Zm-12.26-1a4.4,4.4,0,0,0,.36-1.68c0-.88-.3-1.32-.89-1.32q-1.44,0-1.44,1.38a1.56,1.56,0,0,0,.42,1.14,2.36,2.36,0,0,0,1.55.48Z"/><path id="Path_697" data-name="Path 697" class="cls-4" d="M977.67,287a11.46,11.46,0,0,1-2.78,3.6,26.37,26.37,0,0,1-4.6,3.39,30.17,30.17,0,0,1-5.44,2.52,16.06,16.06,0,0,1-5.23,1,4.65,4.65,0,0,1-3.14-1.05,3.55,3.55,0,0,1-1.22-2.85,6.66,6.66,0,0,1,.78-3L965,270.59l7.53,4.14-6.33,14.35a2.9,2.9,0,0,0-.3,1.08c0,.6.33.9,1,.9a5.7,5.7,0,0,0,2.39-.66,17,17,0,0,0,2.69-1.62,17.56,17.56,0,0,0,2.39-2.08,7.59,7.59,0,0,0,1.5-2Zm1-25a3.19,3.19,0,0,1-.75,2.07,6.34,6.34,0,0,1-1.85,1.57,10.59,10.59,0,0,1-2.42,1,9.26,9.26,0,0,1-2.45.37,5.63,5.63,0,0,1-2.78-.7,2.1,2.1,0,0,1-1.23-1.89,3.33,3.33,0,0,1,.66-1.89,6.62,6.62,0,0,1,1.73-1.65,9.72,9.72,0,0,1,2.39-1.14,8.79,8.79,0,0,1,2.69-.42,5.3,5.3,0,0,1,2.78.72A2.21,2.21,0,0,1,978.63,262.07Z"/><path id="Path_698" data-name="Path 698" class="cls-4" d="M994.89,287a11.22,11.22,0,0,1-2.78,3.66,27.11,27.11,0,0,1-4.57,3.4,29.15,29.15,0,0,1-5.38,2.49,16.49,16.49,0,0,1-5.2,1,4.14,4.14,0,0,1-3.2-1.27,4.22,4.22,0,0,1-1.17-3,6.32,6.32,0,0,1,.16-1.29,5.58,5.58,0,0,1,.51-1.47l6.45-14.58h-2.57l1.5-3.36h2.51l8.3-18.55,10.17-.66-8.49,19.21h2.69l-1.5,3.36h-2.69l-6.21,13.92a2.34,2.34,0,0,0-.3,1q0,.48.6.48a5.84,5.84,0,0,0,2.48-.66A17.39,17.39,0,0,0,989,289a19.74,19.74,0,0,0,2.51-2.16,9.05,9.05,0,0,0,1.61-2.13Z"/><path id="Path_699" data-name="Path 699" class="cls-4" d="M1024.72,287a10.49,10.49,0,0,1-2.69,3.57,27.93,27.93,0,0,1-4.55,3.4,29.39,29.39,0,0,1-5.34,2.55,15.81,15.81,0,0,1-5.18,1,3.92,3.92,0,0,1-3.37-1.26,4.66,4.66,0,0,1-.93-2.83,7.7,7.7,0,0,1,.12-1.35,6,6,0,0,1,.48-1.47q1.37-3.24,2.78-6a60.33,60.33,0,0,0,2.6-5.94c.2-.52.31-.86.36-1a3,3,0,0,0,.06-.42q0-.78-.9-.78A2.26,2.26,0,0,0,1006,278l-8.55,19.39h-9.92l19.85-44.66h9.92l-9.2,20.53a10.86,10.86,0,0,1,2.57-1.11,8.3,8.3,0,0,1,2.33-.33,5.74,5.74,0,0,1,3.85,1,3.69,3.69,0,0,1,1.17,2.94,10.25,10.25,0,0,1-.27,2.34,23.21,23.21,0,0,1-.81,2.61c-.36,1-.8,2.1-1.34,3.36s-1.19,2.75-1.94,4.48q-.18.54-.33,1a2.14,2.14,0,0,0-.16.65c0,.6.36.91,1.08.91a5.28,5.28,0,0,0,2.15-.66,19.42,19.42,0,0,0,5-3.7,7.56,7.56,0,0,0,1.49-2Z"/><path id="Path_700" data-name="Path 700" class="cls-4" d="M1040,244.13h-5v-7.92h22.32l6.79,61.16h-10l-.59-7.33h-9.22l-.67,7.33h-10.07Zm12.75,38.16-3.86-38.41L1045,282.29Z"/><path id="Path_701" data-name="Path 701" class="cls-4" d="M1067.18,297.37V256.85l9.4-4.55v5.14h8.47v7.24h-5.28a3.93,3.93,0,0,0-2.19.34,4,4,0,0,0-.34,2.19v30.15Z"/><path id="Path_702" data-name="Path 702" class="cls-4" d="M1095.11,297.37l-9.39-39.93h10.57l4.61,29.73,4.45-29.73H1116l-9.39,39.93Z"/><path id="Path_703" data-name="Path 703" class="cls-4" d="M1117.09,297.37v-5.65l13.59-27h-12.83v-7.24h25.67v5.64L1130.26,290h12.84v7.41Z"/><path id="Path_704" data-name="Path 704" class="cls-4" d="M1152.74,244.13h-5v-7.92h22.32l6.79,61.16h-10l-.59-7.33h-9.22l-.67,7.33h-10.07Zm12.75,38.16-3.85-38.41-3.86,38.41Z"/><path id="Path_705" data-name="Path 705" class="cls-4" d="M1179.92,317.33V257l9.9-4.64v5.06h10.57a22.8,22.8,0,0,1,3.78.25,4.61,4.61,0,0,1,2.34,1,4.06,4.06,0,0,1,1.17,2.19,16.48,16.48,0,0,1,.34,3.71v25.6a17.9,17.9,0,0,1-.29,3.58,4.48,4.48,0,0,1-1,2.19,4,4,0,0,1-2.14,1.1,18.46,18.46,0,0,1-3.56.29h-11.16v20Zm9.9-27.38h5.54a3.63,3.63,0,0,0,2.26-.42,3.94,3.94,0,0,0,.42-2.36V267.46a4,4,0,0,0-.42-2.36,3.77,3.77,0,0,0-2.26-.42h-5.54Z"/><path id="Path_706" data-name="Path 706" class="cls-4" d="M1212.05,317.33V257l9.9-4.64v5.06h10.57a22.61,22.61,0,0,1,3.77.25,4.6,4.6,0,0,1,2.35,1,4.06,4.06,0,0,1,1.17,2.19,16.48,16.48,0,0,1,.34,3.71v25.6a18.67,18.67,0,0,1-.29,3.58,4.48,4.48,0,0,1-1,2.19,4,4,0,0,1-2.14,1.1,18.57,18.57,0,0,1-3.57.29h-11.16v20ZM1222,290h5.54a3.63,3.63,0,0,0,2.26-.42,3.94,3.94,0,0,0,.42-2.36V267.46a4,4,0,0,0-.42-2.36,3.77,3.77,0,0,0-2.26-.42h-5.55Z"/><path id="Path_707" data-name="Path 707" class="cls-4" d="M1243.09,236.21h11.58L1252,284.9h-5.78Zm1.93,53.15h8.13v8H1245Z"/></g></g></g></g><polygon class="cls-3" points="645.69 378.4 701.14 433.85 645.69 489.3 645.69 378.4"/><polygon class="cls-6" points="602.29 399.64 636.5 433.85 602.29 468.06 602.29 399.64"/><polygon class="cls-7" points="571.74 411.88 593.7 433.85 571.74 455.81 571.74 411.88"/><polygon class="cls-3" points="1274.77 378.4 1219.32 433.85 1274.77 489.3 1274.77 378.4"/><polygon class="cls-6" points="1318.17 399.64 1283.96 433.85 1318.17 468.06 1318.17 399.64"/><polygon class="cls-7" points="1348.72 411.88 1326.76 433.85 1348.72 455.81 1348.72 411.88"/><line class="cls-8" y1="105.72" x2="1920.46" y2="105.72"/><line class="cls-8" y1="585.82" x2="1920.46" y2="585.82"/></g></g></svg>