<svg xmlns="http://www.w3.org/2000/svg" viewBox="0 0 164 164"><defs><style>.cls-1{fill:#7ed321;}</style></defs><title>Custom_Icon</title><g id="Layer_2" data-name="Layer 2"><g id="CUSTOM_COPY"><circle class="cls-1" cx="82" cy="82" r="72"/><path d="M82,10A72,72,0,1,1,10,82,72,72,0,0,1,82,10M82,0a82,82,0,1,0,82,82A82.09,82.09,0,0,0,82,0Z"/><path d="M36,35.16H77v41H36Zm51.18,0h40.94v41H87.22ZM36,86.34H77v41H36Zm76.77,0H102.57V101.7H87.22v10.24h15.35v15.35h10.24V111.94h15.35V101.7H112.81Z"/></g></g></svg>