<svg xmlns="http://www.w3.org/2000/svg" width="995.247" height="82.902" viewBox="0 0 995.247 82.902">
    <g>
        <g>
            <path d="M645.417 6818.077a12.579 12.579 0 0 1-2.76 3.726 29.34 29.34 0 0 1-4.279 3.381 33.377 33.377 0 0 1-7.658 3.658 27.1 27.1 0 0 1-8.487 1.311q-1.657 0-3.795-.1a15.685 15.685 0 0 1-4.071-.725 8.428 8.428 0 0 1-3.278-1.9 4.845 4.845 0 0 1-1.345-3.691 10.574 10.574 0 0 1 .138-1.587 15.538 15.538 0 0 1 .517-2.139q.379-1.243 1.07-3.037t1.863-4.416l9.867-22.01a26.515 26.515 0 0 1 3.381-5.624 16.413 16.413 0 0 1 4.244-3.761 17.489 17.489 0 0 1 5.312-2.1 30.306 30.306 0 0 1 6.59-.655 22.225 22.225 0 0 1 7.659.965 3.515 3.515 0 0 1 2.415 3.519 8.265 8.265 0 0 1-.276 2.14l-11.661 4.277a10.017 10.017 0 0 0 .69-1.138 10.839 10.839 0 0 0 .586-1.311c.161-.437.3-.85.414-1.242a3.547 3.547 0 0 0 .173-.932q0-1.035-2.208-1.034a4.141 4.141 0 0 0-2.208.551 5.333 5.333 0 0 0-1.726 2.416l-13.661 30.636q-1.588 3.518-2.139 5a8.235 8.235 0 0 0-.552 1.828q0 1.174 2.484 1.174a27.087 27.087 0 0 0 6.382-.794 31.3 31.3 0 0 0 6.107-2.139 24.044 24.044 0 0 0 5-3.14 10.7 10.7 0 0 0 3.07-3.795z" transform="translate(-462.519 -6778.403)"/>
            <path d="M679.088 6818.077a13.282 13.282 0 0 1-3.07 4 32.607 32.607 0 0 1-5.071 3.933 34.517 34.517 0 0 1-5.8 2.968 14.536 14.536 0 0 1-5.243 1.173 4.768 4.768 0 0 1-3.036-.829 4.1 4.1 0 0 1-1.38-1.793 11.848 11.848 0 0 1-3.485 1.793 16.283 16.283 0 0 1-5.486.829 6.668 6.668 0 0 1-4.657-1.38 5.018 5.018 0 0 1-1.484-3.865 16.914 16.914 0 0 1 1.725-6.692l7.314-16.492h10.35L650.8 6821.8a6.131 6.131 0 0 0-.551 2.347q0 1.1.965 1.1 1.518 0 2.9-3.036l10.212-23.046 8.762 4.76-7.314 16.492a2.739 2.739 0 0 0-.275 1.242q0 1.035 1.242 1.034a6.283 6.283 0 0 0 2.656-.758 20.563 20.563 0 0 0 3.07-1.864 21.3 21.3 0 0 0 2.76-2.38 10.718 10.718 0 0 0 1.794-2.312z" transform="translate(-462.519 -6778.403)"/>
            <path d="M709.585 6818.077a18.48 18.48 0 0 1-4.071 4.9 28.918 28.918 0 0 1-5.692 3.83 30.025 30.025 0 0 1-6.658 2.484 29.135 29.135 0 0 1-6.969.863 11.408 11.408 0 0 1-3.83-.622 9.311 9.311 0 0 1-3.036-1.725 8.467 8.467 0 0 1-2-2.484 6.28 6.28 0 0 1-.724-2.966v-.76a6.923 6.923 0 0 1-1.449 1.174q-.968.62-1.587 1.034a6.864 6.864 0 0 1-.346-1.794 5.077 5.077 0 0 1 1.278-2.966 43.847 43.847 0 0 0 2.517-3.658q1.173-1.862 2.208-3.208t2.105-2.519q1.068-1.172 2.243-2.242t2.552-2.311c-.045-.322-.081-.587-.1-.794a9.237 9.237 0 0 1-.034-.931 12.9 12.9 0 0 1 .655-4.106 10.783 10.783 0 0 1 1.828-3.415 9.027 9.027 0 0 1 2.795-2.312 7.447 7.447 0 0 1 3.554-.862 5.2 5.2 0 0 1 2.9.724 3.022 3.022 0 0 1 1.105 2.725 7.768 7.768 0 0 1-.139 1.38 5.6 5.6 0 0 1-.655 1.691 14.51 14.51 0 0 1-1.484 2.1 26.412 26.412 0 0 1-2.552 2.621q5.587 7.039 5.589 10.9a9.913 9.913 0 0 1-7.039 10 19.552 19.552 0 0 0 3.9-1.07 27.562 27.562 0 0 0 4.175-2 23.124 23.124 0 0 0 3.864-2.829 15.96 15.96 0 0 0 2.967-3.554zm-21.8-8.072a24.665 24.665 0 0 0-2.449 1.966 14.348 14.348 0 0 0-2.519 3.071 11.646 11.646 0 0 0-1.553 3.174 9.859 9.859 0 0 0-.38 2.622 2.149 2.149 0 0 0 .587 1.69 3.092 3.092 0 0 0 2.035.518 4.215 4.215 0 0 0 2.208-.621 6.11 6.11 0 0 0 1.76-1.587 7.851 7.851 0 0 0 1.139-2.174 7.33 7.33 0 0 0 .414-2.381 17.888 17.888 0 0 0-.346-3.656 9.144 9.144 0 0 0-.899-2.627zm4.346-9.661a5.3 5.3 0 0 0 1.794-1.655 2.828 2.828 0 0 0 .345-1.242q0-.69-.62-.69-1.657 0-1.656 2.069c0 .139.01.38.034.725a4.787 4.787 0 0 0 .1.793z" transform="translate(-462.519 -6778.403)"/>
            <path d="M729.526 6818.077a12.973 12.973 0 0 1-3.209 4.209 31.053 31.053 0 0 1-5.278 3.9 33.011 33.011 0 0 1-6.21 2.864 18.726 18.726 0 0 1-6 1.1 4.788 4.788 0 0 1-3.692-1.45 4.894 4.894 0 0 1-1.345-3.449 7.743 7.743 0 0 1 .172-1.484 6.774 6.774 0 0 1 .586-1.691l7.45-16.763h-2.967l1.724-3.865h2.9l9.591-21.32 11.73-.76-9.8 22.08h3.106l-1.725 3.865h-3.105l-7.176 16.008a2.658 2.658 0 0 0-.345 1.1q0 .552.69.551a6.9 6.9 0 0 0 2.863-.758 20.239 20.239 0 0 0 3.209-1.9 21.705 21.705 0 0 0 2.9-2.484 10.3 10.3 0 0 0 1.864-2.45z" transform="translate(-462.519 -6778.403)"/>
            <path d="M765.06 6807.244q-3.795 4-11.868 4.83a61.4 61.4 0 0 1-4.554 9.592 20.417 20.417 0 0 1-4.589 5.45 12.48 12.48 0 0 1-5.071 2.45 27.607 27.607 0 0 1-5.865.587q-5.038 0-7.038-1.484a4.757 4.757 0 0 1-2-4.036 15.082 15.082 0 0 1 1.725-6.142l3.174-6.9a32.1 32.1 0 0 1 3-5.245 16.059 16.059 0 0 1 3.243-3.415 11.205 11.205 0 0 1 3.52-1.828 13.16 13.16 0 0 1 3.829-.552q1.173 0 1.794.034a4.078 4.078 0 0 1 1.035.173 8.744 8.744 0 0 1 6.141-2.277 5.16 5.16 0 0 1 3.45.965 3.479 3.479 0 0 1 1.1 2.761 11.414 11.414 0 0 1-1.242 4.622l1.207.242a5.088 5.088 0 0 0 1 .1 9.3 9.3 0 0 0 2.933-.518 11.565 11.565 0 0 0 3.277-1.829zm-20.976 2.071a2.377 2.377 0 0 1-1-1.208 4.589 4.589 0 0 1-.31-1.69 5.138 5.138 0 0 1 .069-.967 3.578 3.578 0 0 0-1.208 1 9.6 9.6 0 0 0-1.138 2.174l-6.348 14.489a3.367 3.367 0 0 0-.345 1.38q0 1.313 1.173 1.311a2.524 2.524 0 0 0 1.483-.517 3.934 3.934 0 0 0 1.208-1.484zm6.762-3.1a4.2 4.2 0 0 0 .379-.9 3.683 3.683 0 0 0 .173-1.1 2.4 2.4 0 0 0-.241-1.139.9.9 0 0 0-.863-.449q-1.656 0-1.656 1.588 0 1.995 2.208 1.995z" transform="translate(-462.519 -6778.403)"/>
            <path d="M808.6 6818.077a12.805 12.805 0 0 1-3.243 4.209 31.623 31.623 0 0 1-5.347 3.9 33.614 33.614 0 0 1-6.279 2.864 18.862 18.862 0 0 1-5.969 1.1 5.3 5.3 0 0 1-3.725-1.208 4.147 4.147 0 0 1-1.312-3.208 10.3 10.3 0 0 1 .862-3.451q.864-2.207 2.071-4.829t2.518-5.244q1.309-2.622 2.139-4.692a8.62 8.62 0 0 0 .276-.967 3.27 3.27 0 0 0 .07-.621q0-.827-.967-.827a2.511 2.511 0 0 0-2.621 1.724l-10.213 23.116h-11.455l10.142-22.77a3.937 3.937 0 0 0 .207-.69 3.074 3.074 0 0 0 .07-.553q0-.827-1.035-.827a2.57 2.57 0 0 0-1.484.448 2.806 2.806 0 0 0-1 1.276l-10.281 23.116H750.5l13.663-30.774 7.313 3.795a10.236 10.236 0 0 1 3.45-1.794 19.381 19.381 0 0 1 5.521-.621 5.745 5.745 0 0 1 3.277.862 4.238 4.238 0 0 1 1.691 1.967 9.131 9.131 0 0 1 4.45-2.312 26.91 26.91 0 0 1 5.417-.517 5.547 5.547 0 0 1 4.036 1.379 5.064 5.064 0 0 1 1.414 3.795 10.466 10.466 0 0 1-.552 3.071 39.1 39.1 0 0 1-1.38 3.692q-.826 1.932-1.759 3.9t-1.622 3.691a3.782 3.782 0 0 0-.483 1.588q0 1.035 1.242 1.034a6.5 6.5 0 0 0 2.692-.758 19.793 19.793 0 0 0 3.1-1.864 21.236 21.236 0 0 0 2.76-2.38 8.916 8.916 0 0 0 1.725-2.312z" transform="translate(-462.519 -6778.403)"/>
            <path d="M858.83 6818.077a15.552 15.552 0 0 1-3.864 4.865 28.9 28.9 0 0 1-7.314 4.727 37.1 37.1 0 0 1-4.485 1.759 17.052 17.052 0 0 1-5.175.725q-2.622 0-5-.1t-4.658-.1q-2.07 0-3.795.034a12.628 12.628 0 0 0-2.277.173l-.552-2.347q2.415-2.691 5.347-5.381t5.865-5.313q2.933-2.622 5.624-5.038a60.724 60.724 0 0 0 4.554-4.484q-1.656-.138-3.623-.242t-3.346-.1a6.534 6.534 0 0 0-1.622.173 2.9 2.9 0 0 0-1.242.724 9.23 9.23 0 0 0-1.241 1.518q-.658.968-1.553 2.622a63.555 63.555 0 0 1-3.657 5.762 38.038 38.038 0 0 1-5.071 5.831 27.286 27.286 0 0 1-6.417 4.485 16.978 16.978 0 0 1-7.763 1.794 5.376 5.376 0 0 1-3.622-1.208 4.083 4.083 0 0 1-1.415-3.277 8.019 8.019 0 0 1 .9-3.45l10.281-23.046 8.694 4.76-7.315 16.492a3.627 3.627 0 0 0-.344 1.242q0 1.035 1.173 1.034a4.273 4.273 0 0 0 2.346-.828 16.953 16.953 0 0 0 2.553-2.138 28.932 28.932 0 0 0 2.588-3q1.277-1.69 2.449-3.485a23.408 23.408 0 0 0 2.242-4.415q.931-2.415 1.9-4.486a13.921 13.921 0 0 1 2.243-3.484 4.217 4.217 0 0 1 3.277-1.415 18.5 18.5 0 0 1 2.691.242q1.586.243 3.416.552t3.863.552a34.57 34.57 0 0 0 4.1.241 26.222 26.222 0 0 0 2.968-.172q1.516-.171 3.1-.31l1.035 1.172q-2.553 2.761-5.623 5.659t-6.107 5.588q-3.038 2.691-5.658 5t-4.278 3.968q.621-.138 1.483-.276a15.335 15.335 0 0 1 2.312-.138q1.518 0 3.588.172t4.485.172a9.055 9.055 0 0 0 2.588-.379 10.559 10.559 0 0 0 3-1.622 19.41 19.41 0 0 0 2.553-2.173 9.283 9.283 0 0 0 1.656-2.312zm-29.325-28.7a3.7 3.7 0 0 1-.863 2.38 7.4 7.4 0 0 1-2.139 1.794 12.114 12.114 0 0 1-2.795 1.139 10.785 10.785 0 0 1-2.828.413 6.445 6.445 0 0 1-3.209-.793 2.414 2.414 0 0 1-1.414-2.173 3.72 3.72 0 0 1 .759-2.174 7.527 7.527 0 0 1 2-1.9 10.856 10.856 0 0 1 2.76-1.311 10.188 10.188 0 0 1 3.105-.483 6.237 6.237 0 0 1 3.208.827 2.539 2.539 0 0 1 1.416 2.278z" transform="translate(-462.519 -6778.403)"/>
            <path d="M888.155 6818.077a13.539 13.539 0 0 1-2.278 3.244 20.587 20.587 0 0 1-3.656 3.1 33.139 33.139 0 0 1-7.866 4.277 26.044 26.044 0 0 1-9.039 1.45q-2.762 0-4.864-.173a11.409 11.409 0 0 1-3.554-.793 4.872 4.872 0 0 1-2.208-1.76 5.454 5.454 0 0 1-.759-3.07q0-2.829 2.139-7.728l2.553-5.727a25.091 25.091 0 0 1 2.691-4.8 12.535 12.535 0 0 1 3.415-3.208 13.875 13.875 0 0 1 4.555-1.794 29.563 29.563 0 0 1 6.106-.552 26.337 26.337 0 0 1 4.45.31 8.67 8.67 0 0 1 2.726.862 3.11 3.11 0 0 1 1.346 1.381 4.432 4.432 0 0 1 .379 1.863 17.4 17.4 0 0 1-.518 3.933 11.243 11.243 0 0 1-2.1 4.277 8.258 8.258 0 0 1-3 2.381 20.3 20.3 0 0 1-4.174 1.484 38.958 38.958 0 0 1-4.589.827q-2.312.278-4.243.346-.828 1.794-1.277 3.07a6.625 6.625 0 0 0-.448 2.1q0 1.864 2.553 1.864a23.306 23.306 0 0 0 5.8-.76 27.482 27.482 0 0 0 5.624-2.1 25.079 25.079 0 0 0 4.795-3.139 14.31 14.31 0 0 0 3.312-3.865zm-21.045-3.519a7.846 7.846 0 0 0 5.175-2.621 8.4 8.4 0 0 0 1.518-2.553 8.669 8.669 0 0 0 .552-3.1q0-.9-1.312-.9a2.333 2.333 0 0 0-1.483.517 6.125 6.125 0 0 0-1.414 2.173z" transform="translate(-462.519 -6778.403)"/>
            <path d="M944.388 6818.077a13.028 13.028 0 0 1-2.69 3.658 25.615 25.615 0 0 1-4.279 3.415 35.276 35.276 0 0 1-5.14 2.726 25.536 25.536 0 0 1-5.209 1.655 29.221 29.221 0 0 1-3.381 6.349 19.77 19.77 0 0 1-3.9 4.1 13.269 13.269 0 0 1-4.209 2.208 15.1 15.1 0 0 1-4.381.655 9.452 9.452 0 0 1-5.624-1.552 5.206 5.206 0 0 1-2.173-4.519 9.153 9.153 0 0 1 1.138-4.485 12.488 12.488 0 0 1 3.209-3.726 21.794 21.794 0 0 1 4.9-2.9 37.2 37.2 0 0 1 6.278-2.071l2.692-6.278a21.346 21.346 0 0 1-14.421 5.174q-5.314 0-5.314-4.9a13.141 13.141 0 0 1 1.242-5.037l11.8-26.5a3.679 3.679 0 0 0 .345-1.311q0-1.45-2.76-1.449h-.759q-2.139 0-2.138-1.863a2.976 2.976 0 0 1 .275-1.277 2.158 2.158 0 0 1 1-.966 6.644 6.644 0 0 1 1.932-.586 19.165 19.165 0 0 1 3.139-.207 28.419 28.419 0 0 1 8.418 1q3.106 1 3.106 3.83a8.811 8.811 0 0 1-.9 3.519l-12.627 28.634a1.751 1.751 0 0 0-.276.829q0 .76.828.758a7.319 7.319 0 0 0 2.622-.827 17.611 17.611 0 0 0 8.074-7.108l13.524-30.428h11.453l-20.492 44.5a20.918 20.918 0 0 0 4.381-.931 12.807 12.807 0 0 0 3-1.552 23.616 23.616 0 0 0 3.208-2.622 9.67 9.67 0 0 0 2.036-2.623zm-28.151 11.317a11.674 11.674 0 0 0-2.692 1.138 11.348 11.348 0 0 0-2.173 1.622 7.3 7.3 0 0 0-1.449 1.9 4.388 4.388 0 0 0-.517 2.036.879.879 0 0 0 .482.862 2.442 2.442 0 0 0 1.1.242 2.083 2.083 0 0 0 1.794-1.035 18.053 18.053 0 0 0 1.966-2.967 22.318 22.318 0 0 0 1.489-3.798z" transform="translate(-462.519 -6778.403)"/>
            <path d="M980.2 6807.244q-3.795 4-11.868 4.83a61.3 61.3 0 0 1-4.554 9.592 20.416 20.416 0 0 1-4.589 5.45 12.479 12.479 0 0 1-5.071 2.45 27.61 27.61 0 0 1-5.866.587q-5.037 0-7.038-1.484a4.757 4.757 0 0 1-2-4.036 15.086 15.086 0 0 1 1.726-6.142l3.174-6.9a32.1 32.1 0 0 1 3-5.245 16.059 16.059 0 0 1 3.243-3.415 11.21 11.21 0 0 1 3.519-1.828 13.167 13.167 0 0 1 3.83-.552c.782 0 1.379.011 1.794.034a4.085 4.085 0 0 1 1.035.173 8.744 8.744 0 0 1 6.141-2.277 5.16 5.16 0 0 1 3.45.965 3.479 3.479 0 0 1 1.1 2.761 11.414 11.414 0 0 1-1.242 4.622l1.207.242a5.088 5.088 0 0 0 1 .1 9.3 9.3 0 0 0 2.933-.518 11.565 11.565 0 0 0 3.277-1.829zm-20.976 2.071a2.367 2.367 0 0 1-1-1.208 4.59 4.59 0 0 1-.31-1.69 5.137 5.137 0 0 1 .069-.967 3.578 3.578 0 0 0-1.208 1 9.547 9.547 0 0 0-1.139 2.174l-6.347 14.489a3.368 3.368 0 0 0-.345 1.38q0 1.313 1.173 1.311a2.524 2.524 0 0 0 1.483-.517 3.935 3.935 0 0 0 1.208-1.484zm6.762-3.1a4.2 4.2 0 0 0 .379-.9 3.685 3.685 0 0 0 .173-1.1 2.4 2.4 0 0 0-.241-1.139.894.894 0 0 0-.862-.449q-1.658 0-1.657 1.588-.001 1.995 2.207 1.995z" transform="translate(-462.519 -6778.403)"/>
            <path d="M1007.729 6818.077a13.282 13.282 0 0 1-3.07 4 32.6 32.6 0 0 1-5.071 3.933 34.48 34.48 0 0 1-5.8 2.968 14.536 14.536 0 0 1-5.243 1.173 4.768 4.768 0 0 1-3.036-.829 4.1 4.1 0 0 1-1.38-1.793 11.848 11.848 0 0 1-3.485 1.793 16.283 16.283 0 0 1-5.486.829 6.667 6.667 0 0 1-4.657-1.38 5.017 5.017 0 0 1-1.483-3.865 16.911 16.911 0 0 1 1.724-6.692l7.315-16.492h10.349l-8.97 20.079a6.13 6.13 0 0 0-.551 2.347q0 1.1.966 1.1 1.516 0 2.9-3.036l10.212-23.046 8.763 4.76-7.315 16.492a2.753 2.753 0 0 0-.275 1.242q0 1.035 1.242 1.034a6.283 6.283 0 0 0 2.656-.758 20.563 20.563 0 0 0 3.07-1.864 21.3 21.3 0 0 0 2.76-2.38 10.718 10.718 0 0 0 1.794-2.312z" transform="translate(-462.519 -6778.403)"/>
            <path d="M1037.538 6818.077a13.294 13.294 0 0 1-3.209 4.141 30.507 30.507 0 0 1-5.312 3.9 35.314 35.314 0 0 1-6.28 2.9 18.526 18.526 0 0 1-6.038 1.139 5.057 5.057 0 0 1-3.725-1.243 4.66 4.66 0 0 1-1.243-3.449 7.822 7.822 0 0 1 .38-2.174 27.259 27.259 0 0 1 .966-2.691q.586-1.414 1.311-2.9t1.415-2.794a34.4 34.4 0 0 0 1.863-3.83 5.957 5.957 0 0 0 .414-1.483q0-.483-1.311-1.036l-1.45-.621a27.776 27.776 0 0 1-5.382 8.9q-2 2.277-3.553 3.795a25.252 25.252 0 0 1-2.794 2.415 9.99 9.99 0 0 1-2.243 1.276 5.194 5.194 0 0 1-1.828.379l-.966-2.415a7.01 7.01 0 0 0 1.449-1.724 77.888 77.888 0 0 0 5.071-10.626q2.173-5.589 4.106-11.178l16.836 9.522a4.475 4.475 0 0 1 1.483 1.311 2.424 2.424 0 0 1 .448 1.311 5.554 5.554 0 0 1-.621 2.173q-.619 1.345-1.414 2.9t-1.414 3.1a7.387 7.387 0 0 0-.621 2.657q0 .966 1.1.965a6.61 6.61 0 0 0 2.726-.724 19.936 19.936 0 0 0 3.106-1.828 20.257 20.257 0 0 0 2.793-2.381 9.864 9.864 0 0 0 1.794-2.381z" transform="translate(-462.519 -6778.403)"/>
            <path d="M1064.722 6786.062a3.7 3.7 0 0 0 .344-1.311q0-1.45-2.828-1.449h-.69q-2.141 0-2.139-1.863a2.517 2.517 0 0 1 1.241-2.243q1.243-.792 5.107-.793a35.57 35.57 0 0 1 7.038.586 5.761 5.761 0 0 1 3.864 2.173 15.135 15.135 0 0 1 4.347-2.069 19.379 19.379 0 0 1 5.451-.69q10.486 0 10.487 6.9a9.258 9.258 0 0 1-1.38 4.658 20.586 20.586 0 0 1-3.759 4.623 33.991 33.991 0 0 1-5.521 4.175 41.8 41.8 0 0 1-6.658 3.312 8.477 8.477 0 0 1 4.1 2.69 6.867 6.867 0 0 1 1.622 4.555 16.864 16.864 0 0 1-2.346 8.866 20.394 20.394 0 0 1-6.383 6.555 30.886 30.886 0 0 1-9.487 4.037 47.092 47.092 0 0 1-11.592 1.38h-3.484q-1.692 0-3.14-.035t-2.449-.069a10.422 10.422 0 0 1-1.346-.1zm-5.106 38.088a2.256 2.256 0 0 0 1.241.276 8.484 8.484 0 0 0 4.279-1.346 19.131 19.131 0 0 0 4.243-3.45 20.252 20.252 0 0 0 3.278-4.692 11.06 11.06 0 0 0 1.311-5q0-3.657-5.313-6.072zm10.35-23.184q7.245-2.07 10.005-5.313a44.87 44.87 0 0 0 3.691-5.245 8.981 8.981 0 0 0 1.276-4.553q0-2.691-3.173-2.692a5.329 5.329 0 0 0-3.347 1.035 8.126 8.126 0 0 0-2.312 3.174z" transform="translate(-462.519 -6778.403)"/>
            <path d="M1125.718 6818.077a13.288 13.288 0 0 1-3.071 4 32.6 32.6 0 0 1-5.071 3.933 34.484 34.484 0 0 1-5.8 2.968 14.527 14.527 0 0 1-5.243 1.173 4.768 4.768 0 0 1-3.036-.829 4.114 4.114 0 0 1-1.38-1.793 11.84 11.84 0 0 1-3.484 1.793 16.285 16.285 0 0 1-5.487.829 6.668 6.668 0 0 1-4.657-1.38 5.018 5.018 0 0 1-1.483-3.865 16.911 16.911 0 0 1 1.724-6.692l7.315-16.492h10.355l-8.969 20.079a6.133 6.133 0 0 0-.552 2.347q0 1.1.966 1.1 1.518 0 2.9-3.036l10.212-23.046 8.763 4.76-7.315 16.492a2.753 2.753 0 0 0-.275 1.242q0 1.035 1.242 1.034a6.279 6.279 0 0 0 2.656-.758 20.572 20.572 0 0 0 3.071-1.864 21.436 21.436 0 0 0 2.76-2.38 10.707 10.707 0 0 0 1.793-2.312z" transform="translate(-462.519 -6778.403)"/>
            <path d="M1156.216 6818.077a18.5 18.5 0 0 1-4.071 4.9 28.955 28.955 0 0 1-5.693 3.83 30 30 0 0 1-6.658 2.484 29.134 29.134 0 0 1-6.969.863 11.407 11.407 0 0 1-3.83-.622 9.322 9.322 0 0 1-3.036-1.725 8.469 8.469 0 0 1-2-2.484 6.291 6.291 0 0 1-.724-2.966v-.76a6.9 6.9 0 0 1-1.449 1.174q-.966.62-1.587 1.034a6.9 6.9 0 0 1-.345-1.794 5.075 5.075 0 0 1 1.277-2.966 43.847 43.847 0 0 0 2.517-3.658q1.175-1.862 2.208-3.208t2.1-2.519q1.07-1.172 2.243-2.242t2.553-2.311q-.069-.483-.1-.794a9.241 9.241 0 0 1-.034-.931 12.9 12.9 0 0 1 .655-4.106 10.763 10.763 0 0 1 1.829-3.415 9.023 9.023 0 0 1 2.794-2.312 7.45 7.45 0 0 1 3.554-.862 5.2 5.2 0 0 1 2.9.724 3.024 3.024 0 0 1 1.1 2.725 7.768 7.768 0 0 1-.139 1.38 5.574 5.574 0 0 1-.655 1.691 14.57 14.57 0 0 1-1.483 2.1 26.43 26.43 0 0 1-2.553 2.621q5.589 7.039 5.589 10.9a9.911 9.911 0 0 1-7.038 10 19.564 19.564 0 0 0 3.9-1.07 27.519 27.519 0 0 0 4.175-2 23.125 23.125 0 0 0 3.864-2.829 15.934 15.934 0 0 0 2.967-3.554zm-21.8-8.072a24.785 24.785 0 0 0-2.449 1.966 14.377 14.377 0 0 0-2.519 3.071 11.642 11.642 0 0 0-1.552 3.174 9.857 9.857 0 0 0-.38 2.622 2.146 2.146 0 0 0 .587 1.69 3.088 3.088 0 0 0 2.035.518 4.22 4.22 0 0 0 2.208-.621 6.136 6.136 0 0 0 1.76-1.587 7.85 7.85 0 0 0 1.138-2.174 7.3 7.3 0 0 0 .414-2.381 17.964 17.964 0 0 0-.345-3.656 9.17 9.17 0 0 0-.901-2.627zm4.347-9.661a5.305 5.305 0 0 0 1.794-1.655 2.839 2.839 0 0 0 .344-1.242c0-.46-.206-.69-.62-.69q-1.656 0-1.656 2.069 0 .208.034.725a4.76 4.76 0 0 0 .1.793z" transform="translate(-462.519 -6778.403)"/>
            <path d="M1176.087 6818.077a13.306 13.306 0 0 1-3.208 4.141 30.52 30.52 0 0 1-5.314 3.9 35.306 35.306 0 0 1-6.279 2.9 18.52 18.52 0 0 1-6.037 1.139 5.376 5.376 0 0 1-3.622-1.208 4.083 4.083 0 0 1-1.415-3.277 7.71 7.71 0 0 1 .9-3.45l10.281-23.046 8.694 4.76-7.314 16.492a3.609 3.609 0 0 0-.345 1.242q0 1.035 1.173 1.034a6.59 6.59 0 0 0 2.76-.758 19.8 19.8 0 0 0 3.1-1.864 21.305 21.305 0 0 0 2.76-2.38 8.917 8.917 0 0 0 1.725-2.312zm1.1-28.7a3.7 3.7 0 0 1-.863 2.38 7.4 7.4 0 0 1-2.139 1.794 12.123 12.123 0 0 1-2.794 1.139 10.8 10.8 0 0 1-2.829.413 6.445 6.445 0 0 1-3.209-.793 2.414 2.414 0 0 1-1.414-2.173 3.72 3.72 0 0 1 .759-2.174 7.527 7.527 0 0 1 2-1.9 10.856 10.856 0 0 1 2.76-1.311 10.187 10.187 0 0 1 3.1-.483 6.237 6.237 0 0 1 3.208.827 2.539 2.539 0 0 1 1.425 2.278z" transform="translate(-462.519 -6778.403)"/>
            <path d="M1210.724 6818.077a12.81 12.81 0 0 1-3.244 4.209 31.622 31.622 0 0 1-5.347 3.9 33.618 33.618 0 0 1-6.279 2.864 18.852 18.852 0 0 1-5.968 1.1 5.3 5.3 0 0 1-3.726-1.208 4.147 4.147 0 0 1-1.311-3.208 10.3 10.3 0 0 1 .862-3.451q.862-2.207 2.07-4.829t2.519-5.244q1.309-2.622 2.138-4.692a8.667 8.667 0 0 0 .277-.967 3.258 3.258 0 0 0 .069-.621q0-.827-.967-.827a2.854 2.854 0 0 0-1.587.448 2.744 2.744 0 0 0-1.035 1.276l-10.212 23.116h-11.522l13.662-30.774 7.245 3.795a7.567 7.567 0 0 1 4.209-2.036 32.1 32.1 0 0 1 4.83-.379 5.547 5.547 0 0 1 4.036 1.379 5.06 5.06 0 0 1 1.414 3.795 10.463 10.463 0 0 1-.551 3.071 39.392 39.392 0 0 1-1.38 3.692q-.828 1.932-1.76 3.9t-1.621 3.691a3.782 3.782 0 0 0-.483 1.588q0 1.035 1.242 1.034a6.5 6.5 0 0 0 2.691-.758 19.754 19.754 0 0 0 3.1-1.864 21.3 21.3 0 0 0 2.759-2.38 8.924 8.924 0 0 0 1.726-2.312z" transform="translate(-462.519 -6778.403)"/>
            <path d="M1239.979 6818.077a13.5 13.5 0 0 1-2.277 3.244 20.629 20.629 0 0 1-3.656 3.1 33.141 33.141 0 0 1-7.866 4.277 26.045 26.045 0 0 1-9.039 1.45q-2.761 0-4.865-.173a11.4 11.4 0 0 1-3.553-.793 4.872 4.872 0 0 1-2.208-1.76 5.455 5.455 0 0 1-.759-3.07q0-2.829 2.139-7.728l2.552-5.727a25.088 25.088 0 0 1 2.692-4.8 12.521 12.521 0 0 1 3.415-3.208 13.871 13.871 0 0 1 4.554-1.794 29.579 29.579 0 0 1 6.107-.552 26.338 26.338 0 0 1 4.45.31 8.671 8.671 0 0 1 2.726.862 3.107 3.107 0 0 1 1.345 1.381 4.431 4.431 0 0 1 .379 1.863 17.45 17.45 0 0 1-.517 3.933 11.242 11.242 0 0 1-2.1 4.277 8.259 8.259 0 0 1-3 2.381 20.279 20.279 0 0 1-4.175 1.484 38.9 38.9 0 0 1-4.588.827q-2.313.278-4.244.346-.827 1.794-1.276 3.07a6.627 6.627 0 0 0-.448 2.1q0 1.864 2.552 1.864a23.3 23.3 0 0 0 5.8-.76 27.439 27.439 0 0 0 5.624-2.1 25.013 25.013 0 0 0 4.795-3.139 14.3 14.3 0 0 0 3.313-3.865zm-21.044-3.519a7.841 7.841 0 0 0 5.174-2.621 8.383 8.383 0 0 0 1.519-2.553 8.67 8.67 0 0 0 .552-3.1q0-.9-1.312-.9a2.329 2.329 0 0 0-1.483.517 6.113 6.113 0 0 0-1.414 2.173z" transform="translate(-462.519 -6778.403)"/>
            <path d="M1270.408 6818.077a18.481 18.481 0 0 1-4.071 4.9 28.948 28.948 0 0 1-5.692 3.83 30.013 30.013 0 0 1-6.659 2.484 29.126 29.126 0 0 1-6.968.863 11.413 11.413 0 0 1-3.831-.622 9.332 9.332 0 0 1-3.036-1.725 8.5 8.5 0 0 1-2-2.484 6.29 6.29 0 0 1-.723-2.966v-.76a6.923 6.923 0 0 1-1.449 1.174q-.968.62-1.587 1.034a6.866 6.866 0 0 1-.346-1.794 5.081 5.081 0 0 1 1.277-2.966 43.615 43.615 0 0 0 2.518-3.658q1.173-1.862 2.208-3.208t2.1-2.519q1.07-1.172 2.244-2.242t2.552-2.311c-.046-.322-.081-.587-.1-.794a8.955 8.955 0 0 1-.034-.931 12.873 12.873 0 0 1 .655-4.106 10.763 10.763 0 0 1 1.828-3.415 9.03 9.03 0 0 1 2.8-2.312 7.447 7.447 0 0 1 3.554-.862 5.2 5.2 0 0 1 2.9.724 3.024 3.024 0 0 1 1.1 2.725 7.768 7.768 0 0 1-.139 1.38 5.629 5.629 0 0 1-.655 1.691 14.5 14.5 0 0 1-1.484 2.1 26.317 26.317 0 0 1-2.553 2.621q5.589 7.039 5.589 10.9a9.911 9.911 0 0 1-7.038 10 19.572 19.572 0 0 0 3.9-1.07 27.509 27.509 0 0 0 4.174-2 23.172 23.172 0 0 0 3.865-2.829 15.986 15.986 0 0 0 2.967-3.554zM1248.6 6810a24.9 24.9 0 0 0-2.449 1.966 14.378 14.378 0 0 0-2.518 3.071 11.649 11.649 0 0 0-1.553 3.174 9.857 9.857 0 0 0-.38 2.622 2.146 2.146 0 0 0 .587 1.69 3.09 3.09 0 0 0 2.035.518 4.218 4.218 0 0 0 2.208-.621 6.109 6.109 0 0 0 1.76-1.587 7.875 7.875 0 0 0 1.139-2.174 7.33 7.33 0 0 0 .414-2.381 17.961 17.961 0 0 0-.346-3.656 9.11 9.11 0 0 0-.897-2.622zm4.347-9.661a5.3 5.3 0 0 0 1.794-1.655 2.828 2.828 0 0 0 .345-1.242c0-.46-.206-.69-.62-.69q-1.657 0-1.657 2.069c0 .139.011.38.035.725a4.676 4.676 0 0 0 .107.798z" transform="translate(-462.519 -6778.403)"/>
            <path d="M1300.905 6818.077a18.481 18.481 0 0 1-4.071 4.9 28.948 28.948 0 0 1-5.692 3.83 30.014 30.014 0 0 1-6.659 2.484 29.128 29.128 0 0 1-6.968.863 11.4 11.4 0 0 1-3.83-.622 9.326 9.326 0 0 1-3.037-1.725 8.5 8.5 0 0 1-2-2.484 6.292 6.292 0 0 1-.723-2.966v-.76a6.92 6.92 0 0 1-1.449 1.174q-.968.62-1.587 1.034a6.866 6.866 0 0 1-.346-1.794 5.082 5.082 0 0 1 1.277-2.966 43.587 43.587 0 0 0 2.518-3.658q1.173-1.862 2.208-3.208t2.1-2.519q1.07-1.172 2.244-2.242t2.552-2.311c-.046-.322-.081-.587-.1-.794a8.913 8.913 0 0 1-.034-.931 12.873 12.873 0 0 1 .655-4.106 10.763 10.763 0 0 1 1.828-3.415 9.027 9.027 0 0 1 2.8-2.312 7.447 7.447 0 0 1 3.554-.862 5.2 5.2 0 0 1 2.9.724 3.024 3.024 0 0 1 1.1 2.725 7.778 7.778 0 0 1-.139 1.38 5.632 5.632 0 0 1-.655 1.691 14.5 14.5 0 0 1-1.484 2.1 26.419 26.419 0 0 1-2.552 2.621q5.587 7.039 5.588 10.9a9.911 9.911 0 0 1-7.038 10 19.571 19.571 0 0 0 3.9-1.07 27.565 27.565 0 0 0 4.175-2 23.17 23.17 0 0 0 3.864-2.829 15.986 15.986 0 0 0 2.967-3.554zM1279.1 6810a24.772 24.772 0 0 0-2.45 1.966 14.378 14.378 0 0 0-2.518 3.071 11.642 11.642 0 0 0-1.553 3.174 9.857 9.857 0 0 0-.38 2.622 2.146 2.146 0 0 0 .587 1.69 3.09 3.09 0 0 0 2.035.518 4.217 4.217 0 0 0 2.208-.621 6.109 6.109 0 0 0 1.76-1.587 7.882 7.882 0 0 0 1.139-2.174 7.333 7.333 0 0 0 .414-2.381 17.892 17.892 0 0 0-.346-3.656 9.149 9.149 0 0 0-.896-2.622zm4.346-9.661a5.3 5.3 0 0 0 1.794-1.655 2.827 2.827 0 0 0 .345-1.242q0-.69-.62-.69-1.657 0-1.656 2.069c0 .139.01.38.034.725a4.676 4.676 0 0 0 .105.798z" transform="translate(-462.519 -6778.403)"/>
        </g>
        <g>
            <path d="M0 0H988.104V1H0z" transform="translate(-462.519 -6778.403) translate(466.091 6857.044)"/>
            <g>
                <path d="M466.279 6861.3a3.76 3.76 0 1 1 3.759-3.759 3.759 3.759 0 0 1-3.759 3.759z" transform="translate(-462.519 -6778.403)"/>
            </g>
            <g transform="translate(-462.519 -6778.403)">
                <circle cx="3.76" cy="3.76" r="3.76" transform="translate(1450.246 6853.785)"/>
            </g>
        </g>
        <path d="M1357.618 6812.709l59.639-6.97-6.194 6.578 45.021.135-57.866 7 7.694-7.142z" transform="translate(-462.519 -6778.403)"/>
        <path d="M516.874 6812.313l7.694 7.142-57.866-7 45.021-.135-6.194-6.578 59.639 6.97z" transform="translate(-462.519 -6778.403)"/>
    </g>
</svg>
