<svg xmlns="http://www.w3.org/2000/svg" width="140.375" height="140.375" viewBox="0 0 140.375 140.375"><defs><style>.a{fill:#ffcb05;stroke:#000;stroke-miterlimit:10;stroke-width:8.559px;}.b{stroke:none;}.c{fill:none;}</style></defs><g transform="translate(-1050.603 -12909.832)"><g class="a" transform="translate(1059.162 12918.392)"><circle class="b" cx="61.628" cy="61.628" r="61.628"/><circle class="c" cx="61.628" cy="61.628" r="65.908"/></g><path d="M1157.332,12948.586h-74.466a8.3,8.3,0,0,0-8.274,8.274v41.37a8.3,8.3,0,0,0,8.274,8.273h74.466a8.3,8.3,0,0,0,8.274-8.273v-41.37A8.3,8.3,0,0,0,1157.332,12948.586Zm-12.411,49.645h-49.644v-41.37h49.644Z"/><rect width="6.206" height="6.206" transform="translate(1132.51 12974.442)"/><rect width="6.206" height="6.206" transform="translate(1122.167 12974.442)"/><rect width="6.206" height="6.206" transform="translate(1111.825 12974.442)"/><rect width="6.206" height="6.206" transform="translate(1101.482 12974.442)"/></g></svg>