<svg xmlns="http://www.w3.org/2000/svg" width="995.247" height="82.912" viewBox="0 0 995.247 82.912">
    <g>
        <g>
            <path d="M715.417 9888.971a12.967 12.967 0 0 1-3.209 4.106 32.286 32.286 0 0 1-5.279 3.863 32.857 32.857 0 0 1-6.21 2.863 18.7 18.7 0 0 1-6 1.1 5.512 5.512 0 0 1-3.795-1.414 4.414 4.414 0 0 1-1.587-3.416 4.638 4.638 0 0 1 .552-2.069l8-17.94H689.4l-10.968 24.636h-11.937l19.458-43.884a3.68 3.68 0 0 0 .345-1.311q0-1.45-2.829-1.45h-.69q-2.139 0-2.139-1.862a2.514 2.514 0 0 1 1.242-2.242q1.242-.792 5.106-.794a28.028 28.028 0 0 1 8.384 1q3.067 1 3.07 3.829a8.367 8.367 0 0 1-.172 1.622 8.619 8.619 0 0 1-.656 1.9l-6.555 14.7h8.556l10.212-22.839h11.454l-19.527 43.47a1.3 1.3 0 0 0-.069.414q0 .483.828.483a7.167 7.167 0 0 0 2.863-.725 18.242 18.242 0 0 0 3.209-1.864 20.14 20.14 0 0 0 2.864-2.482 9.994 9.994 0 0 0 1.828-2.52z" transform="translate(-462.519 -9849.158)"/>
            <path d="M744.741 9888.833a13.557 13.557 0 0 1-2.278 3.243 20.565 20.565 0 0 1-3.656 3.1 33.109 33.109 0 0 1-7.866 4.278 26.044 26.044 0 0 1-9.039 1.449q-2.762 0-4.864-.172a11.394 11.394 0 0 1-3.554-.794 4.864 4.864 0 0 1-2.208-1.761 5.451 5.451 0 0 1-.759-3.069q0-2.83 2.139-7.728l2.552-5.728a25.119 25.119 0 0 1 2.692-4.795 12.546 12.546 0 0 1 3.415-3.209 13.866 13.866 0 0 1 4.555-1.794 29.628 29.628 0 0 1 6.106-.553 26.318 26.318 0 0 1 4.45.312 8.645 8.645 0 0 1 2.726.862 3.108 3.108 0 0 1 1.346 1.38 4.434 4.434 0 0 1 .378 1.862 17.4 17.4 0 0 1-.517 3.934 11.243 11.243 0 0 1-2.1 4.277 8.248 8.248 0 0 1-3 2.381 20.411 20.411 0 0 1-4.174 1.484 38.858 38.858 0 0 1-4.589.827q-2.312.275-4.243.345-.828 1.8-1.277 3.071a6.612 6.612 0 0 0-.448 2.1q0 1.862 2.553 1.863a23.312 23.312 0 0 0 5.8-.76 27.372 27.372 0 0 0 5.624-2.105 24.981 24.981 0 0 0 4.795-3.138 14.319 14.319 0 0 0 3.312-3.865zm-21.045-3.519a7.853 7.853 0 0 0 5.175-2.622 8.379 8.379 0 0 0 1.518-2.554 8.664 8.664 0 0 0 .552-3.1q0-.9-1.312-.9a2.323 2.323 0 0 0-1.483.519 6.1 6.1 0 0 0-1.414 2.173z" transform="translate(-462.519 -9849.158)"/>
            <path d="M774.48 9888.833a13.281 13.281 0 0 1-3.209 4.14 30.469 30.469 0 0 1-5.313 3.9 35.232 35.232 0 0 1-6.279 2.9 18.478 18.478 0 0 1-6.038 1.14 5.059 5.059 0 0 1-3.725-1.242 4.655 4.655 0 0 1-1.243-3.449 7.818 7.818 0 0 1 .38-2.174 27.239 27.239 0 0 1 .966-2.692q.586-1.412 1.311-2.9t1.415-2.795a34.583 34.583 0 0 0 1.863-3.829 5.935 5.935 0 0 0 .414-1.484c0-.32-.439-.667-1.312-1.035l-1.449-.62a27.812 27.812 0 0 1-5.382 8.9q-2 2.276-3.553 3.794a25.221 25.221 0 0 1-2.794 2.416 10.052 10.052 0 0 1-2.243 1.276 5.2 5.2 0 0 1-1.829.379l-.965-2.415a7.045 7.045 0 0 0 1.449-1.725 77.956 77.956 0 0 0 5.071-10.626q2.173-5.588 4.106-11.179l16.836 9.522a4.473 4.473 0 0 1 1.483 1.311 2.425 2.425 0 0 1 .448 1.312 5.561 5.561 0 0 1-.621 2.174q-.62 1.343-1.414 2.9t-1.414 3.106a7.388 7.388 0 0 0-.621 2.656q0 .967 1.1.966a6.6 6.6 0 0 0 2.726-.725 19.883 19.883 0 0 0 3.105-1.828 20.139 20.139 0 0 0 2.794-2.381 9.848 9.848 0 0 0 1.794-2.381z" transform="translate(-462.519 -9849.158)"/>
            <path d="M803.736 9888.833a13.557 13.557 0 0 1-2.278 3.243 20.565 20.565 0 0 1-3.656 3.1 33.109 33.109 0 0 1-7.866 4.278 26.044 26.044 0 0 1-9.039 1.449q-2.761 0-4.864-.172a11.394 11.394 0 0 1-3.554-.794 4.864 4.864 0 0 1-2.208-1.761 5.451 5.451 0 0 1-.759-3.069q0-2.83 2.139-7.728l2.553-5.728a25.066 25.066 0 0 1 2.691-4.795 12.56 12.56 0 0 1 3.415-3.209 13.875 13.875 0 0 1 4.555-1.794 29.634 29.634 0 0 1 6.106-.553 26.309 26.309 0 0 1 4.45.312 8.645 8.645 0 0 1 2.726.862 3.1 3.1 0 0 1 1.346 1.38 4.434 4.434 0 0 1 .379 1.862 17.4 17.4 0 0 1-.518 3.934 11.255 11.255 0 0 1-2.1 4.277 8.265 8.265 0 0 1-3 2.381 20.443 20.443 0 0 1-4.175 1.484 38.855 38.855 0 0 1-4.589.827q-2.312.275-4.243.345-.828 1.8-1.277 3.071a6.639 6.639 0 0 0-.448 2.1q0 1.862 2.553 1.863a23.307 23.307 0 0 0 5.8-.76 27.373 27.373 0 0 0 5.624-2.105 24.981 24.981 0 0 0 4.795-3.138 14.318 14.318 0 0 0 3.312-3.865zm-21.045-3.519a7.853 7.853 0 0 0 5.175-2.622 8.38 8.38 0 0 0 1.518-2.554 8.664 8.664 0 0 0 .552-3.1q0-.9-1.311-.9a2.324 2.324 0 0 0-1.484.519 6.115 6.115 0 0 0-1.414 2.173z" transform="translate(-462.519 -9849.158)"/>
            <path d="M816.915 9860.819a15.508 15.508 0 0 0 2.863-1.173 4.092 4.092 0 0 0 1.829-1.863 7.294 7.294 0 0 1-1.381.139 4.849 4.849 0 0 1-2.9-.794 2.6 2.6 0 0 1-1.1-2.243 3.658 3.658 0 0 1 .794-2.276 7.2 7.2 0 0 1 2.07-1.794 12.053 12.053 0 0 1 2.829-1.208 10.806 10.806 0 0 1 3-.448 6.693 6.693 0 0 1 3.209.759 2.667 2.667 0 0 1 1.415 2.553 5.384 5.384 0 0 1-1 3.244 14.686 14.686 0 0 1-2.726 2.759 21.225 21.225 0 0 1-3.761 2.277 23.475 23.475 0 0 1-4.657 1.588z" transform="translate(-462.519 -9849.158)"/>
            <path d="M853.416 9888.833a18.528 18.528 0 0 1-4.072 4.9 28.888 28.888 0 0 1-5.692 3.828 30.028 30.028 0 0 1-6.658 2.485 29.134 29.134 0 0 1-6.969.862 11.432 11.432 0 0 1-3.83-.621 9.312 9.312 0 0 1-3.036-1.726 8.457 8.457 0 0 1-2-2.483 6.282 6.282 0 0 1-.724-2.967v-.76a6.938 6.938 0 0 1-1.449 1.174q-.967.621-1.587 1.034a6.91 6.91 0 0 1-.346-1.794 5.075 5.075 0 0 1 1.278-2.966 43.925 43.925 0 0 0 2.517-3.658q1.173-1.862 2.208-3.209t2.1-2.518q1.07-1.172 2.243-2.242t2.553-2.312q-.069-.482-.1-.793a9.239 9.239 0 0 1-.034-.933 12.893 12.893 0 0 1 .655-4.1 10.775 10.775 0 0 1 1.828-3.416 9.043 9.043 0 0 1 2.795-2.312 7.453 7.453 0 0 1 3.554-.861 5.19 5.19 0 0 1 2.9.725 3.02 3.02 0 0 1 1.1 2.725 7.8 7.8 0 0 1-.139 1.381 5.6 5.6 0 0 1-.655 1.69 14.511 14.511 0 0 1-1.483 2.1 26.658 26.658 0 0 1-2.553 2.622q5.587 7.039 5.589 10.9a9.911 9.911 0 0 1-7.038 10 19.553 19.553 0 0 0 3.9-1.068 27.658 27.658 0 0 0 4.175-2 23.207 23.207 0 0 0 3.864-2.829 16 16 0 0 0 2.967-3.555zm-21.8-8.073a24.94 24.94 0 0 0-2.449 1.966 14.36 14.36 0 0 0-2.519 3.072 11.663 11.663 0 0 0-1.553 3.173 9.859 9.859 0 0 0-.38 2.622 2.153 2.153 0 0 0 .587 1.691 3.1 3.1 0 0 0 2.035.518 4.222 4.222 0 0 0 2.209-.622 6.084 6.084 0 0 0 1.759-1.587 7.805 7.805 0 0 0 1.139-2.173 7.33 7.33 0 0 0 .414-2.381 17.884 17.884 0 0 0-.346-3.656 9.162 9.162 0 0 0-.9-2.623zm4.346-9.66a5.291 5.291 0 0 0 1.794-1.655 2.821 2.821 0 0 0 .345-1.242c0-.459-.206-.69-.62-.69q-1.656 0-1.656 2.07c0 .138.011.38.034.724a4.77 4.77 0 0 0 .099.793z" transform="translate(-462.519 -9849.158)"/>
            <path d="M884.877 9895.457q-8 5.452-14.49 5.451-3.312 0-4.83-1.449a4.758 4.758 0 0 1-1.517-3.588 8.116 8.116 0 0 1 .241-1.9 14.906 14.906 0 0 1 .656-2.034l15.731-35.121a3.68 3.68 0 0 0 .345-1.311q0-1.45-2.828-1.45h-.69q-2.141 0-2.139-1.862a2.516 2.516 0 0 1 1.241-2.242q1.242-.792 5.107-.794a28.021 28.021 0 0 1 8.383 1q3.069 1 3.071 3.829a9.056 9.056 0 0 1-.828 3.52l-15.663 34.982a3.6 3.6 0 0 0-.345.932 3.973 3.973 0 0 0-.07.725.853.853 0 0 0 .966.966 5.483 5.483 0 0 0 2.415-.76 16.3 16.3 0 0 0 4.279-3.416 41.533 41.533 0 0 0 4-5.139 106.276 106.276 0 0 0 9.073-16.906q3.831-8.968 7.486-19.526h11.386q-2.07 5.521-4.209 10.868t-4.416 10.626q-2.278 5.278-4.762 10.659t-5.243 10.972a4.2 4.2 0 0 0-.483 1.656q0 .967 1.035.966a3.642 3.642 0 0 0 1-.173 6.929 6.929 0 0 0 1.345-.587 16.794 16.794 0 0 0 4.313-3.416 35.7 35.7 0 0 0 3.968-5.139 93.8 93.8 0 0 0 4.933-8.212q2.241-4.207 4.209-8.728t3.795-9.35q1.827-4.83 3.622-10.144h11.456q-2.068 5.59-4.312 11.108a108.026 108.026 0 0 1-5.037 10.7 80.06 80.06 0 0 1-6.417 10.006 58.915 58.915 0 0 1-8.452 9.039 55.628 55.628 0 0 1-11.454 8 22.237 22.237 0 0 1-9.8 2.69q-3.383 0-4.727-1.449a5.072 5.072 0 0 1-1.346-3.588z" transform="translate(-462.519 -9849.158)"/>
            <path d="M964.987 9888.833a12.15 12.15 0 0 1-3.1 4.105 32.375 32.375 0 0 1-5.245 3.9 33.608 33.608 0 0 1-6.176 2.931 17.877 17.877 0 0 1-5.967 1.14q-2.831 0-3.9-1.449a5.32 5.32 0 0 1-1.07-3.242 8.961 8.961 0 0 1 .139-1.553 6.842 6.842 0 0 1 .551-1.691q1.587-3.725 3.209-6.9a67.433 67.433 0 0 0 3-6.831q.345-.9.414-1.173a2.1 2.1 0 0 0 .07-.483q0-.9-1.035-.9a2.61 2.61 0 0 0-2.553 1.725l-9.867 22.287H922l22.908-51.336h11.454l-10.627 23.6a13.357 13.357 0 0 1 2.968-1.278 10.155 10.155 0 0 1 2.69-.379q3.105 0 4.451 1.174a4.241 4.241 0 0 1 1.345 3.381 11.625 11.625 0 0 1-.311 2.69 26.536 26.536 0 0 1-.93 3q-.621 1.692-1.553 3.865t-2.243 5.14c-.138.414-.265.783-.379 1.1a2.445 2.445 0 0 0-.173.76q0 1.034 1.242 1.034a5.918 5.918 0 0 0 2.485-.759 21.731 21.731 0 0 0 3.036-1.863 21.509 21.509 0 0 0 2.76-2.38 8.941 8.941 0 0 0 1.725-2.312z" transform="translate(-462.519 -9849.158)"/>
            <path d="M998.106 9888.833a14.894 14.894 0 0 1-3.38 4.312 29.875 29.875 0 0 1-5.314 3.9 32.669 32.669 0 0 1-6.21 2.795 19.1 19.1 0 0 1-5.933 1.069 2.65 2.65 0 0 1-1.967-.726 3.433 3.433 0 0 1-.932-1.9 10.9 10.9 0 0 1-3.277 1.932 14.6 14.6 0 0 1-5 .69 7.387 7.387 0 0 1-4.657-1.414 5.106 5.106 0 0 1-1.829-4.313 15.811 15.811 0 0 1 .828-4.484 34.13 34.13 0 0 1 2.415-5.728 51.542 51.542 0 0 1 3.967-6.8 21.408 21.408 0 0 1 3.761-4.175 11.424 11.424 0 0 1 3.726-2.105 12.859 12.859 0 0 1 3.864-.586 7.676 7.676 0 0 1 4.036.793 6.72 6.72 0 0 1 1.967 1.968l.69-1.587h8.211l-7.245 16.215q-.76 1.724-1.069 2.448a3.323 3.323 0 0 0-.311 1.278q0 1.034 1.173 1.034a6.587 6.587 0 0 0 2.76-.759 19.79 19.79 0 0 0 3.1-1.863 21.447 21.447 0 0 0 2.76-2.38 8.917 8.917 0 0 0 1.725-2.312zM979.752 9878a.79.79 0 0 0 .139-.448v-.449a1.048 1.048 0 0 0-.243-.654 1.13 1.13 0 0 0-.931-.312 2.269 2.269 0 0 0-1.621.553 4.939 4.939 0 0 0-1.07 1.725l-6.279 14.145a5.269 5.269 0 0 0-.621 2.347q0 1.1.966 1.1 1.586 0 3.036-3.037z" transform="translate(-462.519 -9849.158)"/>
            <path d="M1017.978 9888.833a12.967 12.967 0 0 1-3.209 4.209 31.12 31.12 0 0 1-5.279 3.9 32.827 32.827 0 0 1-6.21 2.863 18.7 18.7 0 0 1-6 1.1 4.785 4.785 0 0 1-3.691-1.449 4.893 4.893 0 0 1-1.346-3.449 7.719 7.719 0 0 1 .173-1.483 6.71 6.71 0 0 1 .586-1.691l7.452-16.767h-2.967l1.725-3.864h2.9l9.591-21.32 11.731-.76-9.8 22.08h3.1l-1.724 3.864h-3.106l-7.176 16.008a2.674 2.674 0 0 0-.344 1.1q0 .554.689.553a6.886 6.886 0 0 0 2.863-.76 20.1 20.1 0 0 0 3.209-1.9 21.625 21.625 0 0 0 2.9-2.484 10.248 10.248 0 0 0 1.863-2.45z" transform="translate(-462.519 -9849.158)"/>
            <path d="M1067.725 9888.833a12.88 12.88 0 0 1-2.485 3.45 24.064 24.064 0 0 1-3.863 3.243 27.213 27.213 0 0 1-4.348 2.415 9.771 9.771 0 0 1-3.8.966 4.1 4.1 0 0 1-2.069-.552l-2.829 6.555q-3.66 8.694-14.9 8.693-7.8 0-7.8-5.036a7.747 7.747 0 0 1 .828-3.519 10.784 10.784 0 0 1 2.242-3 15.048 15.048 0 0 1 3.277-2.346 15.94 15.94 0 0 1 3.934-1.483q-5.108-.965-5.106-6.349a14.074 14.074 0 0 1 .448-3.243 19.782 19.782 0 0 1 1.276-3.657l6.694-15.042 8.141 4.762-6.555 14.766a5.343 5.343 0 0 0-.551 2.07q0 .967.828.966a3.019 3.019 0 0 0 2.76-2.069l9.729-21.8 8.142 6.072-6.831 15.248a5.919 5.919 0 0 0-.759 2.485c0 .689.389 1.034 1.173 1.034a6.275 6.275 0 0 0 2.656-.759 22.149 22.149 0 0 0 3.1-1.863 20.206 20.206 0 0 0 2.794-2.38 10.722 10.722 0 0 0 1.794-2.312zm-28.083 9.936q-1.727 1.175-2.864 2.105a7.808 7.808 0 0 0-1.9 2.311 27.61 27.61 0 0 0-1.312 2.554 3.669 3.669 0 0 0-.344 1.312q0 .9 1.172.9a1.906 1.906 0 0 0 1.726-1.173 31.2 31.2 0 0 0 1.587-3.243q.831-1.935 1.935-4.766z" transform="translate(-462.519 -9849.158)"/>
            <path d="M1103.259 9878q-3.8 4-11.868 4.83a61.374 61.374 0 0 1-4.554 9.592 20.445 20.445 0 0 1-4.589 5.45 12.507 12.507 0 0 1-5.071 2.45 27.64 27.64 0 0 1-5.865.586q-5.039 0-7.039-1.483a4.758 4.758 0 0 1-2-4.037 15.086 15.086 0 0 1 1.726-6.141l3.174-6.9a32.114 32.114 0 0 1 3-5.244 16.087 16.087 0 0 1 3.243-3.416 11.231 11.231 0 0 1 3.52-1.827 13.188 13.188 0 0 1 3.829-.553q1.173 0 1.794.035a4.111 4.111 0 0 1 1.035.172 8.748 8.748 0 0 1 6.14-2.276 5.152 5.152 0 0 1 3.451.966 3.474 3.474 0 0 1 1.1 2.761 11.413 11.413 0 0 1-1.242 4.622l1.207.242a5.157 5.157 0 0 0 1 .1 9.289 9.289 0 0 0 2.932-.517 11.557 11.557 0 0 0 3.278-1.829zm-20.976 2.07a2.367 2.367 0 0 1-1-1.207 4.6 4.6 0 0 1-.31-1.69 5.135 5.135 0 0 1 .069-.967 3.565 3.565 0 0 0-1.208 1 9.531 9.531 0 0 0-1.139 2.174l-6.347 14.489a3.362 3.362 0 0 0-.345 1.38q0 1.313 1.173 1.311a2.53 2.53 0 0 0 1.483-.517 3.928 3.928 0 0 0 1.208-1.484zm6.762-3.1a4.214 4.214 0 0 0 .379-.9 3.677 3.677 0 0 0 .173-1.1 2.389 2.389 0 0 0-.242-1.139.894.894 0 0 0-.862-.449q-1.656 0-1.656 1.588 0 1.996 2.208 1.996z" transform="translate(-462.519 -9849.158)"/>
            <path d="M1130.79 9888.833a13.3 13.3 0 0 1-3.07 4 32.612 32.612 0 0 1-5.072 3.933 34.4 34.4 0 0 1-5.8 2.968 14.536 14.536 0 0 1-5.244 1.173 4.77 4.77 0 0 1-3.036-.828 4.12 4.12 0 0 1-1.38-1.794 11.863 11.863 0 0 1-3.484 1.794 16.283 16.283 0 0 1-5.486.828 6.666 6.666 0 0 1-4.658-1.38 5.017 5.017 0 0 1-1.483-3.864 16.9 16.9 0 0 1 1.725-6.693l7.314-16.49h10.35l-8.97 20.078a6.131 6.131 0 0 0-.552 2.347q0 1.1.966 1.1 1.518 0 2.9-3.037l10.212-23.046 8.763 4.762-7.314 16.49a2.746 2.746 0 0 0-.276 1.243q0 1.034 1.242 1.034a6.278 6.278 0 0 0 2.657-.759 20.657 20.657 0 0 0 3.07-1.863 21.381 21.381 0 0 0 2.76-2.38 10.717 10.717 0 0 0 1.794-2.312z" transform="translate(-462.519 -9849.158)"/>
            <path d="M1184.539 9888.833a13.016 13.016 0 0 1-2.691 3.657 24.977 24.977 0 0 1-4.313 3.416 37.106 37.106 0 0 1-5.175 2.726 25.531 25.531 0 0 1-5.209 1.655 30.267 30.267 0 0 1-3.346 6.348 19.089 19.089 0 0 1-3.865 4.106 13.213 13.213 0 0 1-4.243 2.208 15.277 15.277 0 0 1-4.347.654 9.451 9.451 0 0 1-5.623-1.552 5.206 5.206 0 0 1-2.174-4.52 9.16 9.16 0 0 1 1.138-4.484 12.509 12.509 0 0 1 3.209-3.727 21.833 21.833 0 0 1 4.9-2.9 37.771 37.771 0 0 1 6.21-2.071 19.869 19.869 0 0 0 .931-1.794c.345-.734.632-1.334.863-1.794a13.629 13.629 0 0 1-3.1 1.243 15.269 15.269 0 0 1-4.209.551 11.065 11.065 0 0 1-6.486-1.622 5.433 5.433 0 0 1-2.276-4.726 18.7 18.7 0 0 1 1.862-7.107l8.211-18.63a21.084 21.084 0 0 1 3.243-5.347 15.254 15.254 0 0 1 4.243-3.485 18.456 18.456 0 0 1 5.314-1.9 32.9 32.9 0 0 1 6.451-.587 22.206 22.206 0 0 1 7.659.966 3.516 3.516 0 0 1 2.415 3.519 8.3 8.3 0 0 1-.276 2.14l-11.73 4.277a9.979 9.979 0 0 0 .691-1.138q.343-.655.62-1.311a12.1 12.1 0 0 0 .449-1.242 3.553 3.553 0 0 0 .172-.933q0-1.034-2.208-1.034a4.144 4.144 0 0 0-2.208.552 5.336 5.336 0 0 0-1.725 2.415l-4.139 9.178 14.765 8.142q-1.932 4.967-4.209 9.831t-4.485 9.351a20.246 20.246 0 0 0 4.347-.932 12.936 12.936 0 0 0 2.967-1.553 20.173 20.173 0 0 0 3.243-2.622 9.891 9.891 0 0 0 2-2.622zm-28.152 11.316a12.377 12.377 0 0 0-2.726 1.139 10 10 0 0 0-2.173 1.621 7.7 7.7 0 0 0-1.415 1.9 4.4 4.4 0 0 0-.517 2.037.88.88 0 0 0 .483.862 2.287 2.287 0 0 0 1.035.241 2.026 2.026 0 0 0 1.07-.275 2.8 2.8 0 0 0 .793-.76 20.8 20.8 0 0 0 1.9-2.967 26.385 26.385 0 0 0 1.55-3.798zm5.8-30.084l-6.83 14.628q-.209.552-.346 1a2.891 2.891 0 0 0-.138.861q0 1.45 1.863 1.45a9.68 9.68 0 0 0 3.208-.518 11.737 11.737 0 0 0 2.856-1.486q1.38-2.829 2.829-6.073t2.691-6.555z" transform="translate(-462.519 -9849.158)"/>
            <path d="M1213.8 9888.833a13.577 13.577 0 0 1-2.277 3.243 20.606 20.606 0 0 1-3.657 3.1 33.109 33.109 0 0 1-7.866 4.278 26.044 26.044 0 0 1-9.039 1.449q-2.762 0-4.864-.172a11.4 11.4 0 0 1-3.554-.794 4.864 4.864 0 0 1-2.208-1.761 5.451 5.451 0 0 1-.759-3.069q0-2.83 2.139-7.728l2.553-5.728a25.069 25.069 0 0 1 2.691-4.795 12.561 12.561 0 0 1 3.415-3.209 13.875 13.875 0 0 1 4.555-1.794 29.635 29.635 0 0 1 6.106-.553 26.309 26.309 0 0 1 4.45.312 8.638 8.638 0 0 1 2.726.862 3.1 3.1 0 0 1 1.346 1.38 4.435 4.435 0 0 1 .379 1.862 17.4 17.4 0 0 1-.518 3.934 11.254 11.254 0 0 1-2.1 4.277 8.264 8.264 0 0 1-3 2.381 20.442 20.442 0 0 1-4.175 1.484 38.862 38.862 0 0 1-4.589.827q-2.311.275-4.243.345-.828 1.8-1.277 3.071a6.638 6.638 0 0 0-.448 2.1q0 1.862 2.553 1.863a23.307 23.307 0 0 0 5.8-.76 27.374 27.374 0 0 0 5.624-2.105 24.981 24.981 0 0 0 4.8-3.138 14.3 14.3 0 0 0 3.312-3.865zm-21.045-3.519a7.853 7.853 0 0 0 5.175-2.622 8.381 8.381 0 0 0 1.518-2.554 8.642 8.642 0 0 0 .552-3.1q0-.9-1.311-.9a2.324 2.324 0 0 0-1.484.519 6.115 6.115 0 0 0-1.414 2.173z" transform="translate(-462.519 -9849.158)"/>
            <path d="M1233.667 9888.833a12.967 12.967 0 0 1-3.209 4.209 31.158 31.158 0 0 1-5.278 3.9 32.858 32.858 0 0 1-6.21 2.863 18.7 18.7 0 0 1-6 1.1 4.787 4.787 0 0 1-3.692-1.449 4.9 4.9 0 0 1-1.345-3.449 7.646 7.646 0 0 1 .173-1.483 6.709 6.709 0 0 1 .585-1.691l7.453-16.767h-2.967l1.724-3.864h2.9l9.591-21.32 11.73-.76-9.8 22.08h3.106l-1.725 3.864h-3.1l-7.176 16.008a2.663 2.663 0 0 0-.345 1.1q0 .554.69.553a6.885 6.885 0 0 0 2.863-.76 20.191 20.191 0 0 0 3.209-1.9 21.615 21.615 0 0 0 2.9-2.484 10.258 10.258 0 0 0 1.864-2.45z" transform="translate(-462.519 -9849.158)"/>
            <path d="M1243.326 9894.905a3.706 3.706 0 0 1-.862 2.381 7.739 7.739 0 0 1-2.174 1.828 11.814 11.814 0 0 1-2.829 1.173 10.563 10.563 0 0 1-2.76.414 6.074 6.074 0 0 1-3.347-.862 2.533 2.533 0 0 1-1.345-2.174 3.664 3.664 0 0 1 .76-2.208 7.294 7.294 0 0 1 2-1.828 11.54 11.54 0 0 1 2.793-1.277 10.575 10.575 0 0 1 3.14-.482 6.278 6.278 0 0 1 3.174.828 2.484 2.484 0 0 1 1.45 2.207zm-6.969-10.212l15.111-35.328h12.007l-17.941 40.089z" transform="translate(-462.519 -9849.158)"/>
        </g>
        <g>
            <path d="M0 0H988.104V1H0z" transform="translate(-462.519 -9849.158) translate(466.091 9927.811)"/>
            <g>
                <path d="M466.279 9932.07a3.76 3.76 0 1 1 3.759-3.761 3.761 3.761 0 0 1-3.759 3.761z" transform="translate(-462.519 -9849.158)"/>
            </g>
            <g transform="translate(-462.519 -9849.158)">
                <circle cx="3.76" cy="3.76" r="3.76" transform="translate(1450.246 9924.55)"/>
            </g>
        </g>
        <path d="M1357.618 9883.474l59.639-6.97-6.194 6.578 45.021.135-57.866 7 7.694-7.142z" transform="translate(-462.519 -9849.158)"/>
        <path d="M516.874 9883.078l7.694 7.142-57.866-7 45.021-.135-6.194-6.578 59.639 6.97z" transform="translate(-462.519 -9849.158)"/>
    </g>
</svg>
