<svg xmlns="http://www.w3.org/2000/svg" viewBox="0 0 164 164"><defs><style>.cls-1{fill:#7ed321;}</style></defs><title>Engage_Icon</title><g id="Layer_2" data-name="Layer 2"><g id="XD_PRICING_FINAL"><circle class="cls-1" cx="82" cy="82" r="72"/><path d="M82,10A72,72,0,1,1,10,82,72,72,0,0,1,82,10M82,0a82,82,0,1,0,82,82A82.1,82.1,0,0,0,82,0Z"/><path d="M74.09,90.19H64.24a44.34,44.34,0,0,1,44.33-44.34V55.7A34.46,34.46,0,0,0,74.09,90.19Zm34.48-14.78V65.56A24.64,24.64,0,0,0,83.94,90.19h9.85A14.76,14.76,0,0,1,108.57,75.41ZM54.38,40.92a9.85,9.85,0,1,0-9.85,9.86A9.82,9.82,0,0,0,54.38,40.92ZM76.3,43.39H66.45A14.72,14.72,0,0,1,51.92,55.7H37.14a7.38,7.38,0,0,0-7.39,7.39V75.41H59.31V64.27A24.46,24.46,0,0,0,76.3,43.39ZM113.5,105a9.86,9.86,0,1,0-9.85-9.86A9.82,9.82,0,0,0,113.5,105Zm7.39,4.92H106.11A14.72,14.72,0,0,1,91.58,97.58H81.72a24.48,24.48,0,0,0,17,20.88V129.6h29.56V117.28A7.38,7.38,0,0,0,120.89,109.89Z"/></g></g></svg>