<svg xmlns="http://www.w3.org/2000/svg" viewBox="0 0 164 164"><defs><style>.cls-1{fill:#7ed321;}</style></defs><title>Eye_Icon</title><g id="Layer_2" data-name="Layer 2"><g id="LiveCams"><circle class="cls-1" cx="82" cy="82" r="72"/><path d="M82,10A72,72,0,1,1,10,82,72,72,0,0,1,82,10M82,0a82,82,0,1,0,82,82A82.09,82.09,0,0,0,82,0Z"/><path d="M81.56,46.48A59.44,59.44,0,0,0,26.28,84.17a59.38,59.38,0,0,0,110.55,0A59.43,59.43,0,0,0,81.56,46.48Zm0,62.82a25.13,25.13,0,1,1,25.12-25.13A25.14,25.14,0,0,1,81.56,109.3Zm0-40.2A15.08,15.08,0,1,0,96.63,84.17,15.06,15.06,0,0,0,81.56,69.1Z"/></g></g></svg>