<svg xmlns="http://www.w3.org/2000/svg" width="43.15" height="43.149" viewBox="0 0 43.15 43.149"><defs><style>.a{fill:none;stroke:#ffca05;stroke-miterlimit:10;stroke-width:2.5px;}.b{fill:#ffca05;}</style></defs><g transform="translate(-710.323 -15735.057)"><path d="M731.91,15737.886a18.754,18.754,0,1,0,18.787,18.753A18.786,18.786,0,0,0,731.91,15737.886Z"/><path class="a" d="M731.893,15776.956a20.325,20.325,0,1,1,20.33-20.327A20.348,20.348,0,0,1,731.893,15776.956Z"/><path class="b" d="M735.707,15747.508l3.186-.007v-4.624l-4.426-.2a5.842,5.842,0,0,0-5.835,5.835v4.426H724.6v5.03h4.029v12.944h5.1v-12.944h4.358l.672-5.03h-5.03v-3.448A1.982,1.982,0,0,1,735.707,15747.508Z"/></g></svg>