<svg xmlns="http://www.w3.org/2000/svg" width="1920.841" height="70.143" viewBox="0 0 1920.841 70.143">
  <defs>
    <style>
      .cls-1 {
        fill: #6b5513;
      }
    </style>
  </defs>
  <g id="Group_134" data-name="Group 134" transform="translate(-0.317 -9581.117)">
    <rect id="Rectangle_63" data-name="Rectangle 63" width="1920.841" height="70.142" transform="translate(0.317 9581.117)"/>
    <path id="Path_240" data-name="Path 240" class="cls-1" d="M1057.231,9651.232l70.114-70.114h-96.667l-70.114,70.114Z"/>
    <path id="Path_241" data-name="Path 241" class="cls-1" d="M1250.231,9651.232l70.114-70.114h-96.667l-70.114,70.114Z"/>
    <path id="Path_242" data-name="Path 242" class="cls-1" d="M1443.231,9651.232l70.114-70.114h-96.667l-70.114,70.114Z"/>
    <path id="Path_243" data-name="Path 243" class="cls-1" d="M1636.231,9651.232l70.114-70.114h-96.667l-70.114,70.114Z"/>
    <path id="Path_244" data-name="Path 244" class="cls-1" d="M864.161,9651.232l-70.114-70.114h96.667l70.114,70.114Z"/>
    <path id="Path_245" data-name="Path 245" class="cls-1" d="M671.161,9651.232l-70.114-70.114h96.667l70.114,70.114Z"/>
    <path id="Path_246" data-name="Path 246" class="cls-1" d="M478.161,9651.232l-70.114-70.114h96.667l70.114,70.114Z"/>
    <path id="Path_247" data-name="Path 247" class="cls-1" d="M285.161,9651.232l-70.114-70.114h96.667l70.114,70.114Z"/>
  </g>
</svg>
