<svg xmlns="http://www.w3.org/2000/svg" width="995.247" height="83.401" viewBox="0 0 995.247 83.401">
    <defs>
        <style>
            .cls-1{fill:#ffcb05}
        </style>
    </defs>
    <g id="Group_108" transform="translate(-462.159 -4631.005)">
        <g id="Group_104">
            <path id="Path_180" d="M735.03 4658.4l-6 12.971a40.4 40.4 0 0 1-3.173 5.59 16.655 16.655 0 0 1-3.417 3.691 11.287 11.287 0 0 1-3.966 2 18.042 18.042 0 0 1-4.762.587q-4.485 0-6.278-1.45a4.31 4.31 0 0 1-1.794-3.449 11.927 11.927 0 0 1 .414-2.933 35.931 35.931 0 0 1 1.655-4.588 38.2 38.2 0 0 1 2.864-5.452 28.123 28.123 0 0 1 3.692-4.657 22.553 22.553 0 0 1 4.726-3.657 26.2 26.2 0 0 1 6.037-2.519l5.866-14.489a6.869 6.869 0 0 0 .551-2.139q0-1.725-2.552-1.726h-2.829q-1.8 0-1.794-2.208 0-2.277 2.069-2.276H762.7q-1.932 2.069-3.036 3.346t-1.759 2.208a12.036 12.036 0 0 0-1.035 1.725c-.254.529-.517 1.162-.794 1.9h-4.968q.552-1.378 1.173-2.621a7.1 7.1 0 0 1 1.519-2.071h-10.834a2.165 2.165 0 0 0 .034.346 3.093 3.093 0 0 1 .034.483 15.243 15.243 0 0 1-.414 2.9 32.132 32.132 0 0 1-1.794 5.244l-4 9.383h11.317l-1.726 3.865zm-12.489 2.208a10.51 10.51 0 0 0-4.727 3.725 38.537 38.537 0 0 0-4.312 7.591q-.968 2.208-1.311 3.277a5.868 5.868 0 0 0-.344 1.483c0 .507.275.76.828.76a2.625 2.625 0 0 0 2.208-1.311 53.768 53.768 0 0 0 3.415-6.073q2.034-4.071 4.243-9.454z" class="cls-1"/>
            <path id="Path_181" d="M772.772 4671.162a13.5 13.5 0 0 1-2.277 3.244 20.647 20.647 0 0 1-3.656 3.105 33.137 33.137 0 0 1-7.866 4.277 26.044 26.044 0 0 1-9.039 1.45q-2.762 0-4.865-.173a11.4 11.4 0 0 1-3.553-.793 4.869 4.869 0 0 1-2.208-1.76 5.458 5.458 0 0 1-.759-3.07q0-2.829 2.138-7.728l2.553-5.727a25.091 25.091 0 0 1 2.692-4.8 12.52 12.52 0 0 1 3.415-3.208 13.87 13.87 0 0 1 4.554-1.794 29.577 29.577 0 0 1 6.107-.553 26.382 26.382 0 0 1 4.45.311 8.671 8.671 0 0 1 2.726.862 3.112 3.112 0 0 1 1.345 1.381 4.434 4.434 0 0 1 .379 1.863 17.447 17.447 0 0 1-.517 3.933 11.242 11.242 0 0 1-2.1 4.277 8.258 8.258 0 0 1-3 2.381 20.281 20.281 0 0 1-4.175 1.484 38.919 38.919 0 0 1-4.589.827q-2.312.278-4.243.346-.827 1.794-1.276 3.07a6.625 6.625 0 0 0-.448 2.1q0 1.864 2.552 1.864a23.3 23.3 0 0 0 5.8-.76 27.411 27.411 0 0 0 5.624-2.1 24.993 24.993 0 0 0 4.795-3.139 14.3 14.3 0 0 0 3.313-3.865zm-21.044-3.519a7.841 7.841 0 0 0 5.174-2.621 8.386 8.386 0 0 0 1.519-2.553 8.674 8.674 0 0 0 .552-3.105q0-.9-1.312-.9a2.329 2.329 0 0 0-1.483.517 6.115 6.115 0 0 0-1.414 2.173z" class="cls-1"/>
            <path id="Path_182" d="M805.893 4671.162a14.947 14.947 0 0 1-3.381 4.313 29.869 29.869 0 0 1-5.314 3.9 32.639 32.639 0 0 1-6.21 2.795 19.067 19.067 0 0 1-5.933 1.07 2.657 2.657 0 0 1-1.967-.725 3.446 3.446 0 0 1-.932-1.9 10.929 10.929 0 0 1-3.277 1.932 14.6 14.6 0 0 1-5 .69 7.385 7.385 0 0 1-4.657-1.415 5.106 5.106 0 0 1-1.828-4.312 15.811 15.811 0 0 1 .828-4.485 34.078 34.078 0 0 1 2.414-5.727 51.343 51.343 0 0 1 3.968-6.8 21.418 21.418 0 0 1 3.76-4.175 11.41 11.41 0 0 1 3.726-2.1 12.814 12.814 0 0 1 3.864-.587 7.663 7.663 0 0 1 4.036.794 6.693 6.693 0 0 1 1.967 1.967l.691-1.588h8.21l-7.245 16.216q-.759 1.725-1.069 2.449a3.314 3.314 0 0 0-.311 1.277q0 1.035 1.173 1.034a6.589 6.589 0 0 0 2.76-.758 19.809 19.809 0 0 0 3.106-1.864 21.389 21.389 0 0 0 2.759-2.38 8.916 8.916 0 0 0 1.725-2.312zm-18.355-10.833a.789.789 0 0 0 .139-.448v-.449a1.054 1.054 0 0 0-.242-.655 1.134 1.134 0 0 0-.932-.31 2.272 2.272 0 0 0-1.621.551 4.95 4.95 0 0 0-1.07 1.725l-6.279 14.145a5.269 5.269 0 0 0-.621 2.347q0 1.1.966 1.1 1.587 0 3.036-3.036z" class="cls-1"/>
            <path id="Path_183" d="M825.764 4671.162a12.972 12.972 0 0 1-3.209 4.209 31.02 31.02 0 0 1-5.279 3.9 32.954 32.954 0 0 1-6.21 2.864 18.726 18.726 0 0 1-6 1.1 4.787 4.787 0 0 1-3.691-1.45 4.893 4.893 0 0 1-1.346-3.449 7.753 7.753 0 0 1 .173-1.484 6.738 6.738 0 0 1 .586-1.691l7.452-16.766h-2.966l1.724-3.865h2.9l9.59-21.32 11.731-.76-9.8 22.08h3.1l-1.719 3.87h-3.106l-7.175 16.008a2.66 2.66 0 0 0-.345 1.1q0 .552.689.551a6.914 6.914 0 0 0 2.864-.758 20.277 20.277 0 0 0 3.209-1.9 21.71 21.71 0 0 0 2.9-2.484 10.268 10.268 0 0 0 1.863-2.45z" class="cls-1"/>
            <path id="Path_184" d="M859.3 4671.162a13.3 13.3 0 0 1-3.07 4 32.663 32.663 0 0 1-5.072 3.933 34.441 34.441 0 0 1-5.8 2.968 14.526 14.526 0 0 1-5.243 1.173 4.77 4.77 0 0 1-3.036-.829 4.116 4.116 0 0 1-1.38-1.793 11.852 11.852 0 0 1-3.484 1.793 16.283 16.283 0 0 1-5.486.829 6.67 6.67 0 0 1-4.658-1.38 5.017 5.017 0 0 1-1.483-3.865 16.911 16.911 0 0 1 1.724-6.692l7.315-16.492h10.35l-8.97 20.079a6.133 6.133 0 0 0-.552 2.347q0 1.1.966 1.1 1.518 0 2.9-3.036l10.212-23.046 8.763 4.76-7.315 16.492a2.753 2.753 0 0 0-.275 1.242q0 1.035 1.242 1.034a6.287 6.287 0 0 0 2.657-.758 20.619 20.619 0 0 0 3.07-1.864 21.329 21.329 0 0 0 2.76-2.38 10.751 10.751 0 0 0 1.794-2.312z" class="cls-1"/>
            <path id="Path_185" d="M889.1 4671.162a13.281 13.281 0 0 1-3.208 4.141 30.539 30.539 0 0 1-5.313 3.9 35.34 35.34 0 0 1-6.279 2.9 18.536 18.536 0 0 1-6.038 1.139 5.056 5.056 0 0 1-3.722-1.242 4.659 4.659 0 0 1-1.242-3.449 7.827 7.827 0 0 1 .38-2.174 27.042 27.042 0 0 1 .966-2.691q.585-1.414 1.31-2.9t1.415-2.794a34.4 34.4 0 0 0 1.863-3.83 5.908 5.908 0 0 0 .414-1.483q0-.483-1.311-1.036l-1.449-.621a27.779 27.779 0 0 1-5.382 8.9q-2 2.277-3.554 3.795a25.252 25.252 0 0 1-2.794 2.415 10.013 10.013 0 0 1-2.243 1.276 5.2 5.2 0 0 1-1.828.379l-.966-2.415a7.011 7.011 0 0 0 1.449-1.724 78.016 78.016 0 0 0 5.072-10.626q2.173-5.589 4.1-11.178l16.836 9.522a4.458 4.458 0 0 1 1.483 1.311 2.429 2.429 0 0 1 .449 1.311 5.555 5.555 0 0 1-.621 2.173q-.62 1.345-1.414 2.9t-1.415 3.1a7.388 7.388 0 0 0-.621 2.657q0 .966 1.1.965a6.61 6.61 0 0 0 2.725-.724 19.808 19.808 0 0 0 3.106-1.828 20.263 20.263 0 0 0 2.794-2.381 9.893 9.893 0 0 0 1.794-2.381z" class="cls-1"/>
            <path id="Path_186" d="M918.36 4671.162a13.5 13.5 0 0 1-2.277 3.244 20.647 20.647 0 0 1-3.656 3.105 33.136 33.136 0 0 1-7.866 4.277 26.05 26.05 0 0 1-9.04 1.45q-2.76 0-4.864-.173a11.4 11.4 0 0 1-3.553-.793 4.869 4.869 0 0 1-2.208-1.76 5.457 5.457 0 0 1-.759-3.07q0-2.829 2.138-7.728l2.553-5.727a25.091 25.091 0 0 1 2.692-4.8 12.52 12.52 0 0 1 3.415-3.208 13.869 13.869 0 0 1 4.554-1.794 29.577 29.577 0 0 1 6.107-.553 26.382 26.382 0 0 1 4.45.311 8.655 8.655 0 0 1 2.725.862 3.11 3.11 0 0 1 1.346 1.381 4.434 4.434 0 0 1 .379 1.863 17.45 17.45 0 0 1-.517 3.933 11.243 11.243 0 0 1-2.1 4.277 8.258 8.258 0 0 1-3 2.381 20.3 20.3 0 0 1-4.175 1.484 38.919 38.919 0 0 1-4.589.827q-2.312.278-4.243.346-.828 1.794-1.276 3.07a6.624 6.624 0 0 0-.448 2.1q0 1.864 2.552 1.864a23.3 23.3 0 0 0 5.8-.76 27.411 27.411 0 0 0 5.624-2.1 25.027 25.027 0 0 0 4.795-3.139 14.314 14.314 0 0 0 3.313-3.865zm-21.045-3.519a7.84 7.84 0 0 0 5.175-2.621 8.386 8.386 0 0 0 1.519-2.553 8.674 8.674 0 0 0 .552-3.105q0-.9-1.312-.9a2.329 2.329 0 0 0-1.483.517 6.1 6.1 0 0 0-1.414 2.173z" class="cls-1"/>
            <path id="Path_187" d="M951.687 4671.162a12.416 12.416 0 0 1-3.105 4.037 32.314 32.314 0 0 1-5.244 3.9 34.507 34.507 0 0 1-6.244 2.968 18.035 18.035 0 0 1-6.037 1.173 3.632 3.632 0 0 1-2.451-.656 5.448 5.448 0 0 1-1.207-1.621 9.075 9.075 0 0 1-1.552 1.034 9.54 9.54 0 0 1-1.725.69 12.468 12.468 0 0 1-2.1.414 23.352 23.352 0 0 1-2.692.139 6.675 6.675 0 0 1-4.175-1.346 5 5 0 0 1-1.758-4.243 14.411 14.411 0 0 1 .482-3.347 25.047 25.047 0 0 1 1.587-4.381l1.173-2.554q3.381-7.382 7.314-10.557a12.538 12.538 0 0 1 7.866-3.174 10.127 10.127 0 0 1 2.45.242 5.4 5.4 0 0 1 1.483.587l10.212-22.77h11.454l-18.975 41.675a3.493 3.493 0 0 0-.345 1.45q0 .966 1.035.965a6.72 6.72 0 0 0 2.415-.586 16.92 16.92 0 0 0 2.967-1.587 19.664 19.664 0 0 0 2.9-2.346 12.782 12.782 0 0 0 2.208-2.795zm-17.871-12.281a1.274 1.274 0 0 0-1.172-.553 2.566 2.566 0 0 0-1.484.449 3.938 3.938 0 0 0-1.208 1.691l-6.762 15.387a4.233 4.233 0 0 0-.552 1.724q0 .968.828.967 1.518 0 2.484-2.139z" class="cls-1"/>
            <path id="Path_188" d="M1019.306 4673.854q-3.038 2.967-5.21 4.795a22.971 22.971 0 0 1-4.174 2.863 13.722 13.722 0 0 1-4.106 1.38 30.876 30.876 0 0 1-4.933.346 22.425 22.425 0 0 1-9.419-1.967 74.306 74.306 0 0 1-9.073-5 21.626 21.626 0 0 1-4.209 3.554 23.477 23.477 0 0 1-4.14 2.1 18.606 18.606 0 0 1-3.864 1.035 24.189 24.189 0 0 1-3.52.276 7.768 7.768 0 0 1-4.554-1.346q-1.932-1.345-1.931-4.589a10.76 10.76 0 0 1 .689-3.829 8.241 8.241 0 0 1 2.208-3.209 11.278 11.278 0 0 1 3.83-2.208 16.779 16.779 0 0 1 5.623-.827h1.967q.932 0 1.9.069a82.205 82.205 0 0 0 3.864-7.453q1.722-3.794 3.933-7.728 1.242-2.344 2.345-4.1t2.14-3.243q1.034-1.482 2.069-2.829t2.208-2.794a11.655 11.655 0 0 0-4.036-2.933 13.793 13.793 0 0 0-5.21-.863 9.078 9.078 0 0 0-2.518.311 15.667 15.667 0 0 0-1.863.656q-.793.345-1.38.655a2.23 2.23 0 0 1-1 .31 1.456 1.456 0 0 1-1.069-.448 1.379 1.379 0 0 1-.448-1 2.512 2.512 0 0 1 .932-1.932 7.764 7.764 0 0 1 2.311-1.38 13.341 13.341 0 0 1 3.07-.794 23.284 23.284 0 0 1 3.278-.241 19.26 19.26 0 0 1 7.175 1.1 15.6 15.6 0 0 1 4.416 2.622 16.326 16.326 0 0 1 4.693-3.1 14.468 14.468 0 0 1 5.8-1.1 7.009 7.009 0 0 1 5.278 1.828 6.357 6.357 0 0 1 1.76 4.589 8.485 8.485 0 0 1-2.174 6 7.649 7.649 0 0 1-5.9 2.346 16.142 16.142 0 0 1-6.28-1.1q-1.173 2.346-2.415 5.071t-2.725 5.865q-1.485 3.141-3.278 6.658t-4.07 7.383a20.76 20.76 0 0 1 4.347 2.519q2.07 1.553 4.243 3a27.923 27.923 0 0 0 4.726 2.519 15.061 15.061 0 0 0 5.866 1.07q4.414 0 9.8-5.727zm-45.954-1.656a9.135 9.135 0 0 0-1.932-.207 8.763 8.763 0 0 0-2.312.31 6.593 6.593 0 0 0-2.036.932 4.686 4.686 0 0 0-1.414 1.518 4.067 4.067 0 0 0-.517 2.07q0 1.242 1.656 1.242a4.792 4.792 0 0 0 2.932-1.518 24.4 24.4 0 0 0 3.623-4.345zm28.98-31.671a5.283 5.283 0 0 0 3.174.9 3.6 3.6 0 0 0 2.553-.9 2.753 2.753 0 0 0 .965-2.071 1.88 1.88 0 0 0-.448-1.276 1.372 1.372 0 0 0-1.069-.518 4.39 4.39 0 0 0-2.829 1 10.46 10.46 0 0 0-2.346 2.865z" class="cls-1"/>
            <path id="Path_189" d="M1032.277 4671.162a13.3 13.3 0 0 1-3.208 4.141 30.539 30.539 0 0 1-5.313 3.9 35.336 35.336 0 0 1-6.279 2.9 18.53 18.53 0 0 1-6.038 1.139 5.38 5.38 0 0 1-3.622-1.208 4.083 4.083 0 0 1-1.415-3.277 7.7 7.7 0 0 1 .9-3.45l10.28-23.046 8.694 4.76-7.314 16.492a3.611 3.611 0 0 0-.345 1.242q0 1.035 1.173 1.034a6.6 6.6 0 0 0 2.761-.758 19.79 19.79 0 0 0 3.1-1.864 21.26 21.26 0 0 0 2.76-2.38 8.948 8.948 0 0 0 1.726-2.312zm1.1-28.7a3.7 3.7 0 0 1-.863 2.38 7.416 7.416 0 0 1-2.139 1.794 12.11 12.11 0 0 1-2.8 1.139 10.79 10.79 0 0 1-2.828.413 6.442 6.442 0 0 1-3.209-.793 2.412 2.412 0 0 1-1.414-2.173 3.72 3.72 0 0 1 .759-2.174 7.5 7.5 0 0 1 2-1.9 10.884 10.884 0 0 1 2.759-1.311 10.19 10.19 0 0 1 3.106-.483 6.242 6.242 0 0 1 3.208.827 2.541 2.541 0 0 1 1.426 2.278z" class="cls-1"/>
            <path id="Path_190" d="M1059.877 4657.017q-2 4.968-3.657 8.418t-3 5.762a31.058 31.058 0 0 1-2.449 3.691 28.258 28.258 0 0 1-2 2.277 23.444 23.444 0 0 1-7.108 4.52 21.456 21.456 0 0 1-8.073 1.553 7.051 7.051 0 0 1-4.45-1.415 5.106 5.106 0 0 1-1.828-4.312q0-2.829 2.208-7.8l6.624-14.9h10.349l-9.039 20.079a6.758 6.758 0 0 0-.69 2.347.976.976 0 0 0 1.1 1.1 1.623 1.623 0 0 0 .828-.242 4.42 4.42 0 0 0 1.035-1 15.227 15.227 0 0 0 1.449-2.276q.828-1.518 2.07-4.072 1.38-2.9 3.347-7.348t4.519-11.143z" class="cls-1"/>
            <path id="Path_191" d="M1089.892 4671.162a13.537 13.537 0 0 1-2.278 3.244 20.607 20.607 0 0 1-3.656 3.105 33.136 33.136 0 0 1-7.866 4.277 26.044 26.044 0 0 1-9.039 1.45q-2.761 0-4.865-.173a11.409 11.409 0 0 1-3.553-.793 4.874 4.874 0 0 1-2.208-1.76 5.458 5.458 0 0 1-.759-3.07q0-2.829 2.139-7.728l2.552-5.727a25.141 25.141 0 0 1 2.692-4.8 12.535 12.535 0 0 1 3.415-3.208 13.867 13.867 0 0 1 4.555-1.794 29.56 29.56 0 0 1 6.106-.553 26.382 26.382 0 0 1 4.45.311 8.671 8.671 0 0 1 2.726.862 3.107 3.107 0 0 1 1.345 1.381 4.433 4.433 0 0 1 .379 1.863 17.45 17.45 0 0 1-.517 3.933 11.242 11.242 0 0 1-2.1 4.277 8.26 8.26 0 0 1-3 2.381 20.283 20.283 0 0 1-4.175 1.484 38.9 38.9 0 0 1-4.588.827q-2.312.278-4.244.346-.827 1.794-1.276 3.07a6.627 6.627 0 0 0-.448 2.1q0 1.864 2.553 1.864a23.3 23.3 0 0 0 5.8-.76 27.44 27.44 0 0 0 5.625-2.1 25.013 25.013 0 0 0 4.794-3.139 14.3 14.3 0 0 0 3.313-3.865zm-21.045-3.519a7.841 7.841 0 0 0 5.174-2.621 8.386 8.386 0 0 0 1.519-2.553 8.675 8.675 0 0 0 .552-3.105q0-.9-1.312-.9a2.331 2.331 0 0 0-1.483.517 6.115 6.115 0 0 0-1.414 2.173z" class="cls-1"/>
            <path id="Path_192" d="M1137.086 4671.162a12.58 12.58 0 0 1-2.76 3.726 29.39 29.39 0 0 1-4.278 3.381 33.377 33.377 0 0 1-7.658 3.658 27.1 27.1 0 0 1-8.488 1.311q-1.656 0-3.795-.1a15.672 15.672 0 0 1-4.071-.725 8.422 8.422 0 0 1-3.277-1.9 4.843 4.843 0 0 1-1.346-3.691 10.46 10.46 0 0 1 .139-1.587 15.462 15.462 0 0 1 .516-2.139q.38-1.244 1.071-3.037t1.862-4.416l9.867-22.01a26.594 26.594 0 0 1 3.381-5.624 16.411 16.411 0 0 1 4.244-3.761 17.505 17.505 0 0 1 5.313-2.1 30.3 30.3 0 0 1 6.59-.655 22.23 22.23 0 0 1 7.659.965 3.516 3.516 0 0 1 2.415 3.519 8.268 8.268 0 0 1-.277 2.14l-11.661 4.277a10.031 10.031 0 0 0 .691-1.138 11.171 11.171 0 0 0 .586-1.311c.161-.437.3-.85.414-1.242a3.552 3.552 0 0 0 .173-.932q0-1.035-2.208-1.034a4.145 4.145 0 0 0-2.209.551 5.338 5.338 0 0 0-1.725 2.416l-13.661 30.636q-1.59 3.518-2.14 5a8.231 8.231 0 0 0-.552 1.828q0 1.175 2.485 1.174a27.073 27.073 0 0 0 6.382-.794 31.284 31.284 0 0 0 6.106-2.139 23.99 23.99 0 0 0 5-3.14 10.693 10.693 0 0 0 3.07-3.795z" class="cls-1"/>
            <path id="Path_193" d="M1170.413 4671.162a14.911 14.911 0 0 1-3.381 4.313 29.859 29.859 0 0 1-5.313 3.9 32.667 32.667 0 0 1-6.21 2.795 19.073 19.073 0 0 1-5.934 1.07 2.658 2.658 0 0 1-1.967-.725 3.444 3.444 0 0 1-.931-1.9 10.934 10.934 0 0 1-3.278 1.932 14.6 14.6 0 0 1-5 .69 7.388 7.388 0 0 1-4.657-1.415 5.109 5.109 0 0 1-1.828-4.312 15.845 15.845 0 0 1 .828-4.485 34.164 34.164 0 0 1 2.414-5.727 51.357 51.357 0 0 1 3.968-6.8 21.455 21.455 0 0 1 3.761-4.175 11.4 11.4 0 0 1 3.725-2.1 12.824 12.824 0 0 1 3.865-.587 7.668 7.668 0 0 1 4.036.794 6.693 6.693 0 0 1 1.967 1.967l.69-1.588h8.211l-7.245 16.216q-.76 1.725-1.069 2.449a3.3 3.3 0 0 0-.311 1.277q0 1.035 1.173 1.034a6.593 6.593 0 0 0 2.76-.758 19.843 19.843 0 0 0 3.1-1.864 21.325 21.325 0 0 0 2.76-2.38 8.907 8.907 0 0 0 1.724-2.312zm-18.354-10.833a.8.8 0 0 0 .138-.448v-.449a1.054 1.054 0 0 0-.242-.655 1.132 1.132 0 0 0-.932-.31 2.276 2.276 0 0 0-1.621.551 4.951 4.951 0 0 0-1.069 1.725l-6.279 14.145a5.27 5.27 0 0 0-.621 2.347q0 1.1.965 1.1 1.587 0 3.037-3.036z" class="cls-1"/>
            <path id="Path_194" d="M1219.886 4671.162a12.818 12.818 0 0 1-3.243 4.209 31.661 31.661 0 0 1-5.347 3.9 33.643 33.643 0 0 1-6.279 2.864 18.862 18.862 0 0 1-5.969 1.1 5.3 5.3 0 0 1-3.726-1.208 4.147 4.147 0 0 1-1.311-3.208 10.3 10.3 0 0 1 .862-3.451q.862-2.207 2.07-4.829t2.519-5.244q1.309-2.622 2.139-4.692a8.837 8.837 0 0 0 .276-.967 3.258 3.258 0 0 0 .069-.621q0-.827-.967-.827a2.512 2.512 0 0 0-2.621 1.724l-10.212 23.116h-11.454l10.143-22.77a4.034 4.034 0 0 0 .207-.69 3.047 3.047 0 0 0 .069-.553q0-.827-1.035-.827a2.564 2.564 0 0 0-1.483.448 2.793 2.793 0 0 0-1 1.276l-10.281 23.116h-11.523l13.662-30.774 7.314 3.795a10.227 10.227 0 0 1 3.45-1.794 19.393 19.393 0 0 1 5.52-.622 5.751 5.751 0 0 1 3.278.863 4.235 4.235 0 0 1 1.69 1.967 9.135 9.135 0 0 1 4.45-2.312 26.924 26.924 0 0 1 5.417-.518 5.547 5.547 0 0 1 4.036 1.38 5.061 5.061 0 0 1 1.415 3.795 10.464 10.464 0 0 1-.552 3.071 39.177 39.177 0 0 1-1.38 3.692q-.828 1.931-1.76 3.9t-1.621 3.691a3.782 3.782 0 0 0-.483 1.588q0 1.035 1.242 1.034a6.5 6.5 0 0 0 2.691-.758 19.754 19.754 0 0 0 3.1-1.864 21.258 21.258 0 0 0 2.759-2.38 8.9 8.9 0 0 0 1.726-2.312z" class="cls-1"/>
        </g>
        <g id="Group_107">
            <path id="Rectangle_39" d="M0 0H988.103V1H0z" class="cls-1" transform="translate(465.731 4710.146)"/>
            <g id="Group_105">
                <path id="Path_195" d="M465.919 4714.406a3.76 3.76 0 1 1 3.76-3.76 3.76 3.76 0 0 1-3.76 3.76z" class="cls-1"/>
            </g>
            <g id="Group_106">
                <path id="Path_196" d="M1453.646 4714.406a3.76 3.76 0 1 0-3.759-3.76 3.76 3.76 0 0 0 3.759 3.76z" class="cls-1"/>
            </g>
        </g>
        <g id="Group_544">
            <path id="Path_197" d="M1357.259 4665.81l59.639-6.97-6.195 6.578 45.021.135-57.866 7 7.694-7.142z" class="cls-1"/>
            <path id="Path_198" d="M516.514 4665.414l7.694 7.142-57.865-7 45.02-.135-6.194-6.578 59.639 6.97z" class="cls-1"/>
        </g>
    </g>
</svg>
