<svg xmlns="http://www.w3.org/2000/svg" viewBox="0 0 164 164"><defs><style>.cls-1{fill:#7ed321;}</style></defs><title>Features_Icon</title><g id="Layer_2" data-name="Layer 2"><g id="FEATURES"><circle class="cls-1" cx="82" cy="82" r="72"/><path d="M82,10A72,72,0,1,1,10,82,72,72,0,0,1,82,10M82,0a82,82,0,1,0,82,82A82.1,82.1,0,0,0,82,0Z"/><rect x="10" y="68.15" width="19.83" height="52.88"/><path d="M95.94,94.59H69.5L55.75,89.3l2.37-6.15L70.68,88h8.07a3.87,3.87,0,0,0,3.9-3.9,3.81,3.81,0,0,0-2.51-3.64L47.61,68.15H36.44v43.5L71.35,121l37.81-13.22A13.26,13.26,0,0,0,95.94,94.59Z"/><path d="M101,54.23a17.78,17.78,0,0,0,.15-2.36,15.29,15.29,0,0,0-.17-2.37l5.11-4a1.26,1.26,0,0,0,.3-1.54l-4.83-8.35a1.24,1.24,0,0,0-1.49-.56L94,37.5a18,18,0,0,0-4.08-2.37L89,28.74a1.22,1.22,0,0,0-1.21-1H78.15a1.19,1.19,0,0,0-1.18,1l-.91,6.39A18.75,18.75,0,0,0,72,37.5l-6-2.42a1.19,1.19,0,0,0-1.48.56L59.68,44a1.16,1.16,0,0,0,.3,1.54l5.11,4a14.42,14.42,0,0,0-.23,2.37A14.18,14.18,0,0,0,65,54.23l-5.11,4a1.24,1.24,0,0,0-.3,1.54l4.83,8.35a1.22,1.22,0,0,0,1.48.55l6-2.41A17.79,17.79,0,0,0,76,68.6l.9,6.4a1.25,1.25,0,0,0,1.21,1h9.66A1.18,1.18,0,0,0,89,75l.9-6.4A17.18,17.18,0,0,0,94,66.24l6,2.41a1.19,1.19,0,0,0,1.48-.55l4.83-8.35a1.17,1.17,0,0,0-.3-1.54Zm-18,6.7A9.06,9.06,0,1,1,92,51.87,9.09,9.09,0,0,1,83,60.93Z"/></g></g></svg>