<svg xmlns="http://www.w3.org/2000/svg" viewBox="0 0 314.27 114.12"><defs><style>.cls-1{stroke:#8bc53f;stroke-miterlimit:10;stroke-width:1.45px;}.cls-2{fill:#ffcb05;}.cls-3{fill:#fff;}.cls-4{fill:#7ed321;}</style></defs><title>Footer_60Day_2</title><g id="Layer_2" data-name="Layer 2"><g id="FOOTER"><rect class="cls-1" x="0.72" y="0.72" width="312.82" height="112.67" rx="5.79"/><path class="cls-2" d="M20.28,34.38a7.72,7.72,0,0,0,2.37,1.76,7,7,0,0,0,3.1.69A4.2,4.2,0,0,0,28.62,36a2.54,2.54,0,0,0,.94-2A2,2,0,0,0,29,32.58a4,4,0,0,0-1.38-.88A22.87,22.87,0,0,0,25.36,31a23.33,23.33,0,0,1-3.11-1,5.25,5.25,0,0,1-2.05-1.47,3.9,3.9,0,0,1-.86-2.64,4.41,4.41,0,0,1,.78-2.55,5.19,5.19,0,0,1,2.19-1.78,7.72,7.72,0,0,1,3.18-.64,8.89,8.89,0,0,1,6.33,2.22l-1.51,1.93a6.21,6.21,0,0,0-2.26-1.53A7.53,7.53,0,0,0,25.28,23a3.73,3.73,0,0,0-2.36.71,2.26,2.26,0,0,0-.9,1.86,1.7,1.7,0,0,0,.53,1.27,3.77,3.77,0,0,0,1.33.8c.53.2,1.26.42,2.18.66a23.93,23.93,0,0,1,3.18,1,5.34,5.34,0,0,1,2.1,1.55,4.2,4.2,0,0,1,.88,2.77,5.08,5.08,0,0,1-.7,2.63,4.83,4.83,0,0,1-2.16,1.9,8.43,8.43,0,0,1-3.71.72,11,11,0,0,1-4-.66,7.81,7.81,0,0,1-2.89-1.89Z"/><path class="cls-2" d="M35.24,21.22h2.61V38.6H35.24Z"/><path class="cls-2" d="M42.2,25.23a8.33,8.33,0,0,1,3.27-3.18A9.49,9.49,0,0,1,50,20.93a8.36,8.36,0,0,1,6.88,3.23l-2.11,1.23A6.09,6.09,0,0,0,50,23a6.21,6.21,0,0,0-3.25.88,6,6,0,0,0-2.26,2.44,8,8,0,0,0,0,7.11A6,6,0,0,0,50,36.83a5.79,5.79,0,0,0,2.5-.56,6.81,6.81,0,0,0,1.9-1.3V31.59H48.85V29.48H57v6.39a9.47,9.47,0,0,1-3.09,2.25,9.75,9.75,0,0,1-8.47-.31,8.42,8.42,0,0,1-3.27-3.19,9.18,9.18,0,0,1-1.2-4.7A9.17,9.17,0,0,1,42.2,25.23Z"/><path class="cls-2" d="M63,25.26V38.6h-2.6V21.22h2.68l9.46,13v-13h2.61V38.6H72.59Z"/><path class="cls-2" d="M85.7,21.22h2.63V31.88a5.12,5.12,0,0,0,1.23,3.63,5.19,5.19,0,0,0,6.92,0,5.15,5.15,0,0,0,1.21-3.63V21.22h2.63V31.79A7.19,7.19,0,0,1,98.46,37,7.26,7.26,0,0,1,93,38.94,7.26,7.26,0,0,1,87.58,37a7.1,7.1,0,0,1-1.88-5.2Z"/><path class="cls-2" d="M104.21,21.22h7.32a6,6,0,0,1,3,.72,4.69,4.69,0,0,1,1.91,1.94,5.83,5.83,0,0,1,0,5.37,4.9,4.9,0,0,1-1.92,1.94,5.83,5.83,0,0,1-3,.72h-4.72V38.6h-2.6Zm9.29,3a3.13,3.13,0,0,0-2.31-.9h-4.38V29.8h4.38a3.13,3.13,0,0,0,2.31-.9,3.48,3.48,0,0,0,0-4.67Z"/><path class="cls-2" d="M126.49,21.22h11.68v2.11H129.1V28.6H138v2.11H129.1V38.6h-2.61Z"/><path class="cls-2" d="M141.36,25.32a8.1,8.1,0,0,1,3.1-3.23,9.5,9.5,0,0,1,9.1,0,8.1,8.1,0,0,1,3.1,3.23,10.17,10.17,0,0,1,0,9.24,8.07,8.07,0,0,1-3.1,3.22,9.5,9.5,0,0,1-9.1,0,8.07,8.07,0,0,1-3.1-3.22,10.17,10.17,0,0,1,0-9.24Zm13,1.08a5.87,5.87,0,0,0-2.14-2.47,6.16,6.16,0,0,0-6.38,0,5.85,5.85,0,0,0-2.13,2.47,8.84,8.84,0,0,0,0,7.08,5.82,5.82,0,0,0,2.13,2.46,6.13,6.13,0,0,0,6.38,0,6,6,0,0,0,2.14-2.46,8.6,8.6,0,0,0,0-7.07Z"/><path class="cls-2" d="M166.79,31.91h-3.26V38.6h-2.61V21.22h7.33a6.17,6.17,0,0,1,2.9.66,4.83,4.83,0,0,1,2,1.88,5.47,5.47,0,0,1,.71,2.8,4.88,4.88,0,0,1-1.27,3.53,5,5,0,0,1-3.06,1.56l4.46,7h-3Zm3.44-7.68a3.17,3.17,0,0,0-2.32-.9h-4.38V29.8h4.38a3.17,3.17,0,0,0,2.32-.9,3.45,3.45,0,0,0,0-4.67Z"/><path class="cls-2" d="M194.76,35h-8.53l-1.41,3.59H182l6.91-17.38h3.25L199,38.6h-2.87Zm-7.85-2.11H194l-3.52-9.2Z"/><path class="cls-3" d="M206.59,30c0-5.55,3.34-9,8.6-9a8.74,8.74,0,0,1,5.29,1.67l-1.95,3.44a4.85,4.85,0,0,0-3.34-1.15,4,4,0,0,0-4.07,4v.21a5.48,5.48,0,0,1,4.28-2c3.13,0,6,2,6,5.71s-2.89,6.1-6.93,6.1C209,38.92,206.59,34.93,206.59,30Zm10.29,3c0-1.45-1.48-2-2.84-2a4.05,4.05,0,0,0-2.92,1.17A2.92,2.92,0,0,0,214.2,35C215.87,35,216.88,33.94,216.88,33Z"/><path class="cls-3" d="M222.67,29.93c0-4.59,2.37-9,7.46-9s7.45,4.38,7.45,9-2.37,9-7.45,9S222.67,34.51,222.67,29.93Zm10.37,0c0-3.08-.83-5-2.91-5s-2.92,1.93-2.92,5,.83,5,2.92,5S233,33,233,29.93Z"/><path class="cls-3" d="M246.5,38.6V21.22h7.29c5.48,0,9.41,3.29,9.41,8.68s-3.93,8.7-9.38,8.7Zm12.11-8.7a4.45,4.45,0,0,0-4.79-4.77H251V34.7h2.81A4.62,4.62,0,0,0,258.61,29.9Z"/><path class="cls-3" d="M276.42,38.6l-.86-2.5H268.7l-.86,2.5h-5.08l6.54-17.38h5.63L281.5,38.6Zm-4.3-13-2.22,6.54h4.43Z"/><path class="cls-3" d="M285.75,38.6v-7l-6.6-10.37h5.06L288,27.63l3.73-6.41h5.08l-6.57,10.37v7Z"/><rect class="cls-4" x="67.83" y="52.74" width="180" height="40" rx="5.61"/><path class="cls-3" d="M102.42,79.81V66.46h9.78v3h-6.34v2.08h6.2v3h-6.2v5.27Z"/><path class="cls-3" d="M121.9,79.81l-2.24-4.49H117.9v4.49h-3.44V66.46h6.68a4.3,4.3,0,0,1,4.64,4.44,4,4,0,0,1-2.66,4l2.72,4.91Zm.38-8.93a1.49,1.49,0,0,0-1.66-1.42H117.9v2.86h2.72A1.48,1.48,0,0,0,122.28,70.88Z"/><path class="cls-3" d="M128.08,79.81V66.46h9.78v3h-6.34v2.08h6.2v3h-6.2V76.8h6.34v3Z"/><path class="cls-3" d="M140.26,79.81V66.46H150v3H143.7v2.08h6.2v3h-6.2V76.8H150v3Z"/><path class="cls-3" d="M160.94,79.81V69.46H157.2v-3h10.9v3h-3.72V79.81Z"/><path class="cls-3" d="M177.58,79.81l-2.24-4.49h-1.76v4.49h-3.44V66.46h6.68a4.3,4.3,0,0,1,4.64,4.44,4,4,0,0,1-2.66,4l2.72,4.91Zm.38-8.93a1.49,1.49,0,0,0-1.66-1.42h-2.72v2.86h2.72A1.48,1.48,0,0,0,178,70.88Z"/><path class="cls-3" d="M183.76,79.81V66.46h3.44V79.81Z"/><path class="cls-3" d="M199.06,79.81l-.66-1.93h-5.26l-.66,1.93h-3.9l5-13.35h4.32l5,13.35Zm-3.3-10-1.7,5h3.4Z"/><path class="cls-3" d="M204.34,79.81V66.46h3.44V76.8h5.36v3Z"/></g></g></svg>