<svg xmlns="http://www.w3.org/2000/svg" width="93.315" height="123.771" viewBox="0 0 93.315 123.771">
  <defs>
    <style>
      .cls-1 {
        fill: #7ed321;
        stroke-miterlimit: 10;
      }

      .cls-2, .cls-3 {
        stroke: none;
      }

      .cls-3 {
        fill: #000;
      }
    </style>
  </defs>
  <g id="Group_125" data-name="Group 125" transform="translate(-917.668 -8653.026)">
    <g id="Group_124" data-name="Group 124">
      <g id="Group_123" data-name="Group 123">
        <g id="Path_229" data-name="Path 229" class="cls-1">
          <path class="cls-2" d="M 994.010009765625 8774.2978515625 L 957.2230224609375 8774.2978515625 C 954.4295043945312 8774.2978515625 951.6920776367188 8773.162109375 949.7127075195312 8771.181640625 L 922.9492797851562 8744.4189453125 L 921.192626953125 8742.6630859375 L 922.93798828125 8740.89453125 L 927.218017578125 8736.5595703125 L 927.2239990234375 8736.5537109375 L 927.2300415039062 8736.5478515625 C 928.856201171875 8734.9228515625 931.0037231445312 8734.0283203125 933.2769775390625 8734.0283203125 L 933.3016357421875 8734.0283203125 L 933.3299560546875 8734.0283203125 C 933.882080078125 8734.0283203125 934.2412109375 8734.0732421875 936.2517700195312 8734.4814453125 C 938.1914672851562 8734.875 941.83154296875 8735.6435546875 949.0835571289062 8737.17578125 L 950.6599731445312 8737.5087890625 L 950.6599731445312 8682.4052734375 C 950.6599731445312 8679.5625 951.7642822265625 8676.8935546875 953.7694091796875 8674.888671875 C 955.7745361328125 8672.8837890625 958.4443359375 8671.779296875 961.2869873046875 8671.779296875 C 964.1292724609375 8671.779296875 966.7987670898438 8672.8837890625 968.8037719726562 8674.888671875 C 970.808837890625 8676.8935546875 971.9130249023438 8679.5634765625 971.9130249023438 8682.4052734375 L 971.9130249023438 8712.412109375 L 973.531005859375 8712.412109375 C 974.8422241210938 8712.412109375 976.1470336914062 8712.67578125 977.4092407226562 8713.1962890625 L 977.490966796875 8713.23046875 L 977.570068359375 8713.26953125 L 1002.096130371094 8725.478515625 C 1003.944946289062 8726.265625 1005.525024414062 8727.580078125 1006.669616699219 8729.283203125 C 1007.855895996094 8731.048828125 1008.482971191406 8733.1044921875 1008.482971191406 8735.2275390625 C 1008.482971191406 8735.7314453125 1008.412353515625 8736.2275390625 1008.349975585938 8736.6640625 L 1004.286010742188 8765.2158203125 L 1004.284606933594 8765.2255859375 L 1004.283081054688 8765.2353515625 C 1003.905456542969 8767.7421875 1002.700134277344 8770.025390625 1000.88916015625 8771.666015625 C 999.01611328125 8773.36328125 996.5731201171875 8774.2978515625 994.010009765625 8774.2978515625 Z M 972.3309936523438 8707.3505859375 L 972.3309936523438 8702.66796875 L 972.3309936523438 8682.4052734375 C 972.3309936523438 8676.3154296875 967.3766479492188 8671.361328125 961.2869873046875 8671.361328125 C 955.19677734375 8671.361328125 950.2420043945312 8676.3154296875 950.2420043945312 8682.4052734375 L 950.2420043945312 8702.66796875 L 950.2420043945312 8707.3505859375 L 946.3511352539062 8704.7451171875 C 942.7427978515625 8702.3291015625 939.7416381835938 8699.048828125 937.672119140625 8695.2587890625 C 935.5360717773438 8691.345703125 934.406982421875 8686.9013671875 934.406982421875 8682.4052734375 C 934.406982421875 8678.771484375 935.1165771484375 8675.248046875 936.51611328125 8671.9326171875 C 937.8681640625 8668.7294921875 939.80419921875 8665.85546875 942.2705078125 8663.388671875 C 944.73681640625 8660.9228515625 947.6113891601562 8658.9873046875 950.8143920898438 8657.6357421875 C 954.1298217773438 8656.236328125 957.6533203125 8655.5263671875 961.2869873046875 8655.5263671875 C 964.920654296875 8655.5263671875 968.444091796875 8656.236328125 971.7594604492188 8657.6357421875 C 974.96240234375 8658.9873046875 977.8368530273438 8660.9228515625 980.302978515625 8663.3896484375 C 982.7691650390625 8665.85546875 984.7051391601562 8668.7294921875 986.0570678710938 8671.9326171875 C 987.4564208984375 8675.248046875 988.166015625 8678.771484375 988.166015625 8682.4052734375 C 988.166015625 8686.9013671875 987.0369262695312 8691.345703125 984.90087890625 8695.2587890625 C 982.8313598632812 8699.048828125 979.8302001953125 8702.3291015625 976.2218627929688 8704.7451171875 L 972.3309936523438 8707.3505859375 Z"/>
          <path class="cls-3" d="M 961.2869873046875 8658.0263671875 C 947.7969970703125 8658.0263671875 936.906982421875 8668.9150390625 936.906982421875 8682.4052734375 C 936.906982421875 8690.857421875 941.18701171875 8698.279296875 947.7420043945312 8702.66796875 L 947.7420043945312 8682.4052734375 C 947.7420043945312 8674.9287109375 953.8099975585938 8668.861328125 961.2869873046875 8668.861328125 C 968.7630004882812 8668.861328125 974.8309936523438 8674.9287109375 974.8309936523438 8682.4052734375 L 974.8309936523438 8702.66796875 C 981.385986328125 8698.279296875 985.666015625 8690.857421875 985.666015625 8682.4052734375 C 985.666015625 8668.9150390625 974.7769775390625 8658.0263671875 961.2869873046875 8658.0263671875 M 961.2869873046875 8674.279296875 C 956.7899780273438 8674.279296875 953.1599731445312 8677.9091796875 953.1599731445312 8682.4052734375 L 953.1599731445312 8740.591796875 C 934.1607666015625 8736.580078125 933.9774780273438 8736.5283203125 933.3298950195312 8736.5283203125 C 933.3126831054688 8736.5283203125 933.295166015625 8736.5283203125 933.2769775390625 8736.5283203125 C 931.5980224609375 8736.5283203125 930.0809936523438 8737.2333984375 928.9970092773438 8738.31640625 L 924.7169799804688 8742.6513671875 L 951.4810180664062 8769.4140625 C 952.9429931640625 8770.876953125 955.0020141601562 8771.7978515625 957.2230224609375 8771.7978515625 L 994.010009765625 8771.7978515625 C 998.072998046875 8771.7978515625 1001.215026855469 8768.818359375 1001.810974121094 8764.86328125 L 1005.875 8736.3115234375 C 1005.929016113281 8735.9326171875 1005.982971191406 8735.552734375 1005.982971191406 8735.2275390625 C 1005.982971191406 8731.869140625 1003.924011230469 8728.9443359375 1001.052978515625 8727.751953125 L 976.4559936523438 8715.5078125 C 975.5349731445312 8715.1279296875 974.5599975585938 8714.912109375 973.531005859375 8714.912109375 L 969.4130249023438 8714.912109375 L 969.4130249023438 8682.4052734375 C 969.4130249023438 8677.9091796875 965.7830200195312 8674.279296875 961.2869873046875 8674.279296875 M 961.2869873046875 8653.0263671875 C 965.2564086914062 8653.0263671875 969.10693359375 8653.8017578125 972.7316284179688 8655.33203125 C 976.2332153320312 8656.8095703125 979.3753662109375 8658.92578125 982.0707397460938 8661.62109375 C 984.7661743164062 8664.31640625 986.8822631835938 8667.458984375 988.3602905273438 8670.9609375 C 989.8902587890625 8674.5849609375 990.666015625 8678.435546875 990.666015625 8682.4052734375 C 990.666015625 8684.8994140625 990.3532104492188 8687.376953125 989.7363891601562 8689.7685546875 C 989.1362915039062 8692.095703125 988.2476806640625 8694.345703125 987.0951538085938 8696.4560546875 C 984.8333740234375 8700.5986328125 981.5543823242188 8704.18359375 977.6127319335938 8706.822265625 L 974.4130249023438 8708.96484375 L 974.4130249023438 8709.943359375 C 975.7529296875 8710.0400390625 977.0777587890625 8710.35546875 978.362548828125 8710.8857421875 L 978.5259399414062 8710.953125 L 978.6841430664062 8711.0322265625 L 1003.147216796875 8723.208984375 C 1005.411560058594 8724.189453125 1007.343933105469 8725.8046875 1008.74462890625 8727.888671875 C 1010.208984375 8730.0673828125 1010.982971191406 8732.60546875 1010.982971191406 8735.2275390625 C 1010.982971191406 8735.908203125 1010.895385742188 8736.5234375 1010.825012207031 8737.0166015625 L 1006.755187988281 8765.6083984375 C 1006.291870117188 8768.6826171875 1004.8046875 8771.4921875 1002.567687988281 8773.51953125 C 1000.233947753906 8775.6337890625 997.1947631835938 8776.7978515625 994.010009765625 8776.7978515625 L 957.2230224609375 8776.7978515625 C 953.7711181640625 8776.7978515625 950.38916015625 8775.39453125 947.9443969726562 8772.9482421875 L 917.6682739257812 8742.673828125 L 925.463134765625 8734.779296875 C 926.4678344726562 8733.775390625 927.6370849609375 8732.982421875 928.9384765625 8732.4228515625 C 930.31884765625 8731.8291015625 931.7785034179688 8731.5283203125 933.2769775390625 8731.5283203125 L 933.3298950195312 8731.5283203125 C 934.1624145507812 8731.5283203125 934.7711181640625 8731.6298828125 936.7489624023438 8732.03125 C 938.5645751953125 8732.400390625 941.8506469726562 8733.0927734375 948.1599731445312 8734.42578125 L 948.1599731445312 8708.96484375 L 944.9603271484375 8706.8232421875 C 941.0186157226562 8704.18359375 937.7396240234375 8700.5986328125 935.4778442382812 8696.4560546875 C 934.3253173828125 8694.345703125 933.4366455078125 8692.095703125 932.8366088867188 8689.7685546875 C 932.2197265625 8687.376953125 931.906982421875 8684.8994140625 931.906982421875 8682.4052734375 C 931.906982421875 8678.435546875 932.6828002929688 8674.5849609375 934.2129516601562 8670.9599609375 C 935.6910400390625 8667.458984375 937.8072509765625 8664.31640625 940.5028076171875 8661.62109375 C 943.1983032226562 8658.92578125 946.340576171875 8656.8095703125 949.8422241210938 8655.33203125 C 953.4669799804688 8653.8017578125 957.3175659179688 8653.0263671875 961.2869873046875 8653.0263671875 Z"/>
        </g>
      </g>
    </g>
  </g>
</svg>
