<svg xmlns="http://www.w3.org/2000/svg" width="164" height="164" viewBox="0 0 164 164"><defs><style>.a{fill:#7ed321;stroke:#000;stroke-miterlimit:10;stroke-width:10px;}.b{stroke:none;}.c{fill:none;}</style></defs><g transform="translate(-158.833 -12097.223)"><g class="a" transform="translate(168.833 12107.223)"><circle class="b" cx="72" cy="72" r="72"/><circle class="c" cx="72" cy="72" r="77"/></g><rect width="19.832" height="52.884" transform="translate(190.82 12165.37)"/><path d="M276.758,12191.813H250.315l-13.75-5.289,2.38-6.147,12.56,4.825h8.065a3.865,3.865,0,0,0,3.9-3.9,3.8,3.8,0,0,0-2.512-3.636l-32.523-12.295H217.263v43.5l34.9,9.387,37.813-13.221A13.259,13.259,0,0,0,276.758,12191.813Z"/><path d="M281.772,12151.456a17.752,17.752,0,0,0,.151-2.366,14.529,14.529,0,0,0-.176-2.365l5.109-3.977a1.234,1.234,0,0,0,.3-1.535l-4.832-8.354a1.229,1.229,0,0,0-1.485-.555l-6.015,2.416a17.8,17.8,0,0,0-4.077-2.366l-.906-6.392a1.218,1.218,0,0,0-1.208-1.032h-9.664a1.193,1.193,0,0,0-1.183,1.032l-.906,6.392a18.2,18.2,0,0,0-4.077,2.366l-6.015-2.416a1.2,1.2,0,0,0-1.485.555l-4.806,8.354a1.144,1.144,0,0,0,.3,1.535l5.108,3.977a14.025,14.025,0,0,0-.05,4.731l-5.109,3.976a1.236,1.236,0,0,0-.3,1.536l4.832,8.355a1.23,1.23,0,0,0,1.485.554l6.015-2.416a17.794,17.794,0,0,0,4.077,2.365l.906,6.393a1.237,1.237,0,0,0,1.208,1.032h9.664a1.173,1.173,0,0,0,1.183-1.032l.906-6.393a17.28,17.28,0,0,0,4.077-2.365l6.015,2.416a1.2,1.2,0,0,0,1.485-.554l4.832-8.355a1.167,1.167,0,0,0-.3-1.536Zm-17.969,6.694a9.06,9.06,0,1,1,9.06-9.061A9.087,9.087,0,0,1,263.8,12158.15Z"/></g></svg>