<svg xmlns="http://www.w3.org/2000/svg" viewBox="0 0 164 164"><defs><style>.cls-1{fill:#7ed321;}</style></defs><title>Horn_Icon</title><g id="Layer_2" data-name="Layer 2"><g id="PROMOTE"><circle class="cls-1" cx="82" cy="82" r="72"/><path d="M82,10A72,72,0,1,1,10,82,72,72,0,0,1,82,10M82,0a82,82,0,1,0,82,82A82.1,82.1,0,0,0,82,0Z"/><path d="M112.36,78V89h21.91V78Zm-11,36.2c5.25,3.89,12.1,9,17.52,13.09,2.19-2.9,4.38-5.86,6.57-8.76-5.42-4-12.26-9.2-17.52-13.14C105.79,108.33,103.6,111.29,101.41,114.19ZM125.5,48.42c-2.19-2.9-4.38-5.86-6.57-8.76-5.42,4.05-12.27,9.2-17.52,13.14,2.19,2.9,4.38,5.86,6.57,8.76C113.24,57.62,120.08,52.53,125.5,48.42ZM35.68,67A11,11,0,0,1,24.73,78V89a11,11,0,0,1,11,11h5.48v21.91h11V99.9h5.48L85,116.33V50.61L57.59,67Zm63,16.43a24.55,24.55,0,0,0-8.22-18.35v36.64A24.32,24.32,0,0,0,98.67,83.47Z"/></g></g></svg>