<svg xmlns="http://www.w3.org/2000/svg" width="43.15" height="43.149" viewBox="0 0 43.15 43.149"><defs><style>.a{fill:none;stroke:#ffca05;stroke-miterlimit:10;stroke-width:2.5px;}.b{fill:#ffca05;fill-rule:evenodd;}</style></defs><g transform="translate(-769.982 -15735.057)"><path d="M791.6,15737.886a18.754,18.754,0,1,0,18.785,18.753A18.788,18.788,0,0,0,791.6,15737.886Z"/><path class="a" d="M791.556,15776.956a20.325,20.325,0,1,1,20.326-20.324A20.345,20.345,0,0,1,791.556,15776.956Z"/><path class="b" d="M800.229,15751.773a.529.529,0,0,1-.528.527h-3.149a.529.529,0,0,1-.527-.527v-3.149a.526.526,0,0,1,.527-.528H799.7a.527.527,0,0,1,.528.528Zm2.634-3.678v17.066a2.777,2.777,0,0,1-2.773,2.778H783.024a2.78,2.78,0,0,1-2.779-2.778V15748.1a2.781,2.781,0,0,1,2.779-2.772H800.09A2.777,2.777,0,0,1,802.863,15748.1Zm-2.71,6.813h-1.809a6.991,6.991,0,1,1-13.753,1.776,7.1,7.1,0,0,1,.227-1.776h-1.787c-.01,0-.024-.01-.034-.01v8.866a1.488,1.488,0,0,0,1.489,1.49h14.178a1.487,1.487,0,0,0,1.489-1.49Zm-4.05,1.776a4.523,4.523,0,1,1-4.522-4.53A4.527,4.527,0,0,1,796.1,15756.685Z"/></g></svg>