<svg xmlns="http://www.w3.org/2000/svg" width="39.156" height="39.155" viewBox="0 0 39.156 39.155">
    <defs>
        <style>
            .cls-1{fill:#7ed321;fill-rule:evenodd}
        </style>
    </defs>
    <g id="Group_5" transform="translate(-1574.381 -17.915)">
        <path id="Path_16" d="M1609.186 17.915h-30.454a4.349 4.349 0 0 0-4.351 4.35v8.7h4.351v-8.7h30.454V52.72h-30.454v-8.7h-4.351v8.7a4.349 4.349 0 0 0 4.351 4.35h30.454a4.363 4.363 0 0 0 4.351-4.35V22.265a4.363 4.363 0 0 0-4.351-4.35z" class="cls-1"/>
        <path id="Path_17" d="M1589.8 45.3l3.067 3.067 10.877-10.877-10.877-10.877-3.067 3.067 5.612 5.634h-21.035v4.351h21.035z" class="cls-1"/>
    </g>
</svg>
