<svg xmlns="http://www.w3.org/2000/svg" width="144.201" height="190.253" viewBox="0 0 144.201 190.253">
    <defs>
        <clipPath id="clip-path">
            <rect id="Rectangle_178" width="144.201" height="144.201" class="cls-1" rx="19.227" transform="translate(1384.171 8236.596)"/>
        </clipPath>
        <clipPath id="clip-path-2">
            <path id="Rectangle_177" d="M0 0H2280.773V324.451H0z" class="cls-1" transform="translate(-479.697 8171.706)"/>
        </clipPath>
        <clipPath id="clip-path-3">
            <path id="Path_690" fill="none" d="M1500.3 8286a27.674 27.674 0 0 1-9.7 2.648h-.015c4.325-2.215 6.867-7.633 7.4-9.37-4.931 3-9.052 3.99-10.9 4.128a17.1 17.1 0 0 0-29.333 11.958 17.767 17.767 0 0 0 .38 3.628c-17-.1-31.807-12.914-35.069-17.74-2.733 4.2-4.819 15.629 5.045 22.557a14.443 14.443 0 0 1-7.488-2c0 4.248 1.622 13.277 13.52 16.912a16.309 16.309 0 0 1-7.549.351 17.654 17.654 0 0 0 15.8 11.819 33.874 33.874 0 0 1-24.872 7.11 48.241 48.241 0 0 0 74.472-40.488c0-.719 0-1.448-.038-2.153 0-.235-.016-.463-.016-.69a29.168 29.168 0 0 0 8.363-8.67" clip-rule="evenodd"/>
        </clipPath>
        <style>
            .cls-1{fill:none}.cls-4{clip-path:url(#clip-path-2)}
        </style>
    </defs>
    <g id="Group_344" transform="translate(-1384.171 -8236.596)">
        <g id="Group_576">
            <g id="Group_339">
                <g id="Group_338" clip-path="url(#clip-path)">
                    <g id="Group_337">
                        <g id="Group_336" class="cls-4">
                            <path id="Rectangle_176" fill="#000002" d="M0 0H168.234V168.234H0z" transform="translate(1372.154 8224.579)"/>
                        </g>
                    </g>
                </g>
            </g>
            <g id="Group_343">
                <g id="Group_342" clip-path="url(#clip-path-3)">
                    <g id="Group_341">
                        <g id="Group_340" class="cls-4">
                            <path id="Rectangle_179" fill="#ffca05" d="M0 0H106.814V91.541H0z" transform="translate(1405.505 8266.232)"/>
                        </g>
                    </g>
                </g>
            </g>
        </g>
        <text id="Twitter" font-family="ProximaNova-Semibold, Proxima Nova" font-size="33.647px" font-weight="600" transform="translate(1405.995 8416.849)">
            <tspan x="0" y="0">Twitter</tspan>
        </text>
    </g>
</svg>
