<svg xmlns="http://www.w3.org/2000/svg" width="144.201" height="189.251" viewBox="0 0 144.201 189.251">
    <defs>
        <clipPath id="clip-path">
            <rect id="Rectangle_161" width="144.201" height="144.201" class="cls-1" rx="19.227" transform="translate(986.376 8236.596)"/>
        </clipPath>
        <clipPath id="clip-path-2">
            <path id="Rectangle_160" d="M0 0H2280.773V324.451H0z" class="cls-1" transform="translate(-279.059 8171.706)"/>
        </clipPath>
        <clipPath id="clip-path-3">
            <path id="Path_685" fill="none" d="M1059.678 8267.839a42.059 42.059 0 1 0 42.059 42.06 42.1 42.1 0 0 0-42.059-42.06zm1.753 22.771a89.237 89.237 0 0 0 12.293-1.086 76.77 76.77 0 0 1 2.583 18.62h-14.876zm0-3.529v-15.506c4.493 1.146 8.507 6.628 11.241 14.535a87.067 87.067 0 0 1-11.241.971zm-3.505-15.506v15.506a86.565 86.565 0 0 1-11.245-.971c2.734-7.91 6.751-13.388 11.245-14.535zm0 19.035v17.534h-14.88a76.72 76.72 0 0 1 2.584-18.62 89.266 89.266 0 0 0 12.296 1.086zm-18.385 17.534h-18.328a38.316 38.316 0 0 1 8.64-22.641 87.758 87.758 0 0 0 12.278 3.4 79.822 79.822 0 0 0-2.59 19.242zm0 3.506a82.847 82.847 0 0 0 1.816 16.06 87.7 87.7 0 0 0-13.474 3.953 38.3 38.3 0 0 1-6.67-20.013zm3.505 0h14.88v14.2a89.549 89.549 0 0 0-13.092 1.218 79.168 79.168 0 0 1-1.788-15.418zm14.88 17.7v18.867c-5.083-1.293-9.548-8.131-12.244-17.749a86.957 86.957 0 0 1 12.244-1.115zm3.505 18.867v-18.867a86.957 86.957 0 0 1 12.24 1.118c-2.692 9.621-7.161 16.459-12.24 17.752zm0-22.372v-14.2h14.876a79.1 79.1 0 0 1-1.788 15.415 89.548 89.548 0 0 0-13.088-1.212zm18.381-14.2h18.329a38.306 38.306 0 0 1-6.671 20.013 87.672 87.672 0 0 0-13.47-3.948 82.62 82.62 0 0 0 1.812-16.06zm0-3.506a79.828 79.828 0 0 0-2.59-19.244 88.117 88.117 0 0 0 12.282-3.4 38.346 38.346 0 0 1 8.637 22.641zm7.119-25.49a84.163 84.163 0 0 1-10.733 2.867 35.915 35.915 0 0 0-7.126-12.972 38.558 38.558 0 0 1 17.859 10.11zm-36.65-10.1a35.915 35.915 0 0 0-7.126 12.972 84.353 84.353 0 0 1-10.733-2.863 38.53 38.53 0 0 1 17.859-10.108zm-20.2 62.02a84.408 84.408 0 0 1 12.11-3.456c1.893 6.883 4.69 12.48 8.087 16.133a38.593 38.593 0 0 1-20.194-12.677zm38.988 12.677c3.4-3.652 6.194-9.25 8.087-16.133a84.264 84.264 0 0 1 12.11 3.456 38.6 38.6 0 0 1-20.194 12.677z" clip-rule="evenodd"/>
        </clipPath>
        <style>
            .cls-1{fill:none}.cls-5{clip-path:url(#clip-path-2)}
        </style>
    </defs>
    <g id="Group_313" transform="translate(-986.376 -8236.596)">
        <text id="WEBSITE" font-family="ProximaNova-Semibold, Proxima Nova" font-size="28.84px" font-weight="600" transform="translate(1000.799 8416.847)">
            <tspan x="0" y="0">WEBSITE</tspan>
        </text>
        <g id="Group_574">
            <g id="Group_308">
                <g id="Group_307" clip-path="url(#clip-path)">
                    <g id="Group_306">
                        <g id="Group_305" class="cls-5">
                            <path id="Rectangle_159" fill="#000002" d="M0 0H168.234V168.234H0z" transform="translate(974.359 8224.579)"/>
                        </g>
                    </g>
                </g>
            </g>
            <g id="Group_573">
                <g id="Group_312">
                    <g id="Group_311" clip-path="url(#clip-path-3)">
                        <g id="Group_310">
                            <g id="Group_309" class="cls-5">
                                <path id="Rectangle_162" fill="#ffca05" d="M0 0H108.15V108.15H0z" transform="translate(1005.603 8255.822)"/>
                            </g>
                        </g>
                    </g>
                </g>
                <path id="Path_686" fill="none" stroke="#ffca05" stroke-miterlimit="10" stroke-width="0.601px" d="M1059.678 8267.839a42.059 42.059 0 1 0 42.059 42.06 42.1 42.1 0 0 0-42.059-42.06zm1.753 22.771a89.209 89.209 0 0 0 12.292-1.086 76.768 76.768 0 0 1 2.584 18.62h-14.876zm0-3.529v-15.506c4.493 1.146 8.507 6.628 11.241 14.535a87.083 87.083 0 0 1-11.241.971zm-3.505-15.506v15.506a86.55 86.55 0 0 1-11.245-.971c2.734-7.91 6.751-13.388 11.245-14.535zm0 19.035v17.534h-14.88a76.77 76.77 0 0 1 2.583-18.62 89.28 89.28 0 0 0 12.297 1.086zm-18.385 17.534h-18.329a38.324 38.324 0 0 1 8.641-22.641 87.758 87.758 0 0 0 12.278 3.4 79.822 79.822 0 0 0-2.59 19.242zm0 3.506a82.847 82.847 0 0 0 1.816 16.06 87.672 87.672 0 0 0-13.474 3.953 38.3 38.3 0 0 1-6.671-20.013zm3.505 0h14.88v14.2a89.549 89.549 0 0 0-13.092 1.218 79.083 79.083 0 0 1-1.788-15.418zm14.88 17.7v18.867c-5.083-1.293-9.549-8.131-12.244-17.749a86.944 86.944 0 0 1 12.244-1.115zm3.505 18.867v-18.867a86.957 86.957 0 0 1 12.24 1.118c-2.692 9.621-7.161 16.459-12.24 17.752zm0-22.372v-14.2h14.876a79.253 79.253 0 0 1-1.788 15.415 89.548 89.548 0 0 0-13.088-1.212zm18.381-14.2h18.328a38.3 38.3 0 0 1-6.67 20.013 87.736 87.736 0 0 0-13.47-3.948 82.62 82.62 0 0 0 1.812-16.06zm0-3.506a79.771 79.771 0 0 0-2.591-19.244 88.089 88.089 0 0 0 12.283-3.4 38.345 38.345 0 0 1 8.636 22.641zm7.119-25.49a84.206 84.206 0 0 1-10.733 2.867 35.915 35.915 0 0 0-7.126-12.972 38.558 38.558 0 0 1 17.859 10.11zm-36.65-10.1a35.9 35.9 0 0 0-7.126 12.972 84.266 84.266 0 0 1-10.733-2.863 38.53 38.53 0 0 1 17.859-10.108zm-20.2 62.02a84.408 84.408 0 0 1 12.11-3.456c1.893 6.883 4.69 12.48 8.087 16.133a38.593 38.593 0 0 1-20.194-12.677zm38.988 12.677c3.4-3.652 6.194-9.25 8.086-16.133a84.274 84.274 0 0 1 12.111 3.456 38.6 38.6 0 0 1-20.194 12.677z"/>
            </g>
        </g>
    </g>
</svg>
