<svg xmlns="http://www.w3.org/2000/svg" viewBox="0 0 164 164"><defs><style>.cls-1{fill:#7ed321;}</style></defs><title>Movie_Icon</title><g id="Layer_2" data-name="Layer 2"><g id="VideoTeaser"><circle class="cls-1" cx="82" cy="82" r="72"/><path d="M82,10A72,72,0,1,1,10,82,72,72,0,0,1,82,10M82,0a82,82,0,1,0,82,82A82.09,82.09,0,0,0,82,0Z"/><path d="M107.43,47.57l8.69,17.37h-13L94.4,47.57H85.72L94.4,64.94h-13L72.69,47.57H64l8.68,17.37h-13L51,47.57H46.64A8.68,8.68,0,0,0,38,56.25l0,52.11a8.71,8.71,0,0,0,8.69,8.69h69.48a8.71,8.71,0,0,0,8.68-8.69V47.57Z"/></g></g></svg>