<svg xmlns="http://www.w3.org/2000/svg" viewBox="0 0 406.51 86.86"><defs><style>.cls-1,.cls-2{fill:#ffca05;}.cls-1,.cls-3{fill-rule:evenodd;}.cls-3{fill:#fff;}</style></defs><title>New_Web_Logo_2mdpi</title><g id="Layer_2" data-name="Layer 2"><g id="Layer_1-2" data-name="Layer 1"><polygon class="cls-1" points="0.14 63.04 21.87 86.73 85.94 86.73 85.94 86.7 65.55 80.81 65.55 63.04 0.14 63.04"/><polygon class="cls-1" points="328.84 63.16 328.84 80.93 308.45 86.83 308.45 86.86 372.97 86.86 394.25 63.16 328.84 63.16"/><rect class="cls-2" x="68.66" y="51.58" width="257.27" height="26.81"/><path class="cls-1" d="M37.7,49.14c-4.58-.08-9.26-.12-13.84-.2,0,3.62,0,5.42,0,9H0L.06,10.28q22.76,2.38,45.64,4.23Q55,36.31,64.92,58H41.53C40,54.48,39.23,52.71,37.7,49.14Zm-3.76-9L26.42,22.23l-2.52-.47,0,18.13Z"/><path class="cls-1" d="M57,15.57c14.8,1,31.24,1.92,46.09,2.61a7,7,0,0,1,3.43,1.12,4.87,4.87,0,0,1,2.13,2.37c1.7,4.69,2.55,7,4.25,11.65a2,2,0,0,1-.43,2.26,3.56,3.56,0,0,1-2.72.9l-2.89-.07c4.65,4.85,7,7.23,11.62,12-8.33-.07-12.5-.1-20.83-.19C93,43.37,90.71,40.93,86.1,36c1.74,4.88,2.61,7.31,4.35,12.12C82.12,48,78,48,69.62,47.84ZM84.31,30.92l4.08.14a3.21,3.21,0,0,0,2.4-.8,1.89,1.89,0,0,0,.42-2.09l-1.35-3.78a4.62,4.62,0,0,0-1.92-2.22,6.38,6.38,0,0,0-3.09-1.07l-4.1-.26C82.18,24.89,82.89,26.91,84.31,30.92Z"/><path class="cls-1" d="M167.35,20.12q-2.44,14.22-4.85,28.43-17.9-.06-35.79-.2-5.14-14.79-10.25-29.61c7.78.32,11.68.46,19.46.7Q140,31.07,144.07,42.7,146,31.22,147.9,19.76c7.78.19,11.67.26,19.45.36"/><path class="cls-1" d="M219.29,42.9c0,2.27,0,3.41,0,5.68-15.51,0-33.08,0-48.59,0L191.79,26c-8.46,0-10.64,0-19.09-.11,0-2.28,0-3.41,0-5.69,15.54.17,32.84.19,48.38,0L200.16,42.86Z"/><path class="cls-1" d="M253.49,42.64l-8.65.09c-.58,2.31-.87,3.46-1.46,5.77-7.48,0-11.23,0-18.72.07q3.65-14.3,7.28-28.59,17.33-.33,34.62-1,3.56,14.66,7.06,29.31c-7.49.07-11.23.1-18.72.15-.56-2.32-.85-3.48-1.41-5.79m-1.42-5.77c-1.13-4.62-1.7-6.93-2.84-11.53-1.17,4.66-1.75,7-2.92,11.61l5.76-.08"/><path class="cls-1" d="M322,16.31a4.25,4.25,0,0,1,3,.82,2.8,2.8,0,0,1,1.23,2.35c0,4.91-.06,7.37-.09,12.28a3.21,3.21,0,0,1-1.26,2.47,4.68,4.68,0,0,1-3,1.12c-9.15.3-12.29.44-21.44.69,0,4.83,0,7.24-.07,12.08l-20.16.19q.09-14.87.17-29.73C294.76,17.94,307.67,17.18,322,16.31Zm-13.77,7.84a2.5,2.5,0,0,0-1.1-2.09,3.93,3.93,0,0,0-2.65-.79l-4,.14c0,3.92,0,5.87-.06,9.79l4-.14a4.45,4.45,0,0,0,2.64-1,2.85,2.85,0,0,0,1.15-2.17Z"/><path class="cls-1" d="M387.78,10.92a4.65,4.65,0,0,1,3.72,1.14,4.48,4.48,0,0,1,1.56,3.49L393,34a5.15,5.15,0,0,1-1.57,3.72,5.33,5.33,0,0,1-3.73,1.68Q373.35,40,359,40.47c0,7,0,10.57-.06,17.61H333.48q.11-21.23.22-42.44,27.12-2.07,54.08-4.73M368.72,23a3.86,3.86,0,0,0-1.38-3.05A4.45,4.45,0,0,0,364,18.82l-5,.32,0,14.27,5-.24a5.23,5.23,0,0,0,3.32-1.49,4.51,4.51,0,0,0,1.44-3.2c0-2.21,0-3.32,0-5.52"/><polygon class="cls-3" points="70.81 7.43 222.49 0 206.74 7.01 321.24 7.16 174.07 14.62 193.63 7.01 70.81 7.43"/><path d="M90.8,72.35l-3.15-4.93-.78,1v3.88H82.63v-14h4.24v5.24l3.67-5.24h5.19l-5.29,6.5L96,72.35Z"/><path d="M110.12,72.35,105,65.25v7.1h-4.24v-14h4.37L110,65V58.35h4.24v14Z"/><path d="M119.69,65.36c0-4.31,3.34-7.24,7.67-7.24S135,61.05,135,65.36s-3.34,7.24-7.66,7.24S119.69,69.66,119.69,65.36Zm11,0a3.36,3.36,0,1,0-3.36,3.51A3.32,3.32,0,0,0,130.72,65.36Z"/><path d="M150.79,72.35,149,64.41l-1.81,7.94h-4.45l-4-14h4.74l1.81,8.56,2.12-8.56h3.19l2.12,8.56,1.79-8.56h4.76l-4,14Z"/><path d="M163.06,70.38l2.2-3.15a6.53,6.53,0,0,0,4.52,1.8c.79,0,1.55-.21,1.55-.75,0-1.35-7.81,0-7.81-5.5,0-2.38,2-4.64,5.82-4.64a9.27,9.27,0,0,1,5.94,2l-2.27,3a7.1,7.1,0,0,0-4.12-1.38c-.83,0-1.07.27-1.07.62,0,1.33,7.79.19,7.79,5.4,0,3.09-2.28,4.87-6,4.87A9.25,9.25,0,0,1,163.06,70.38Z"/><path d="M201,72.35l-1.8-7.94-1.81,7.94H193l-4-14h4.75l1.8,8.56,2.12-8.56h3.19l2.12,8.56,1.79-8.56h4.76l-4,14Z"/><path d="M214.36,66.6V58.35h4.3v8.1a2.62,2.62,0,0,0,5.23,0v-8.1h4.31v8.23c0,3.48-2.19,6-6.91,6S214.36,70.06,214.36,66.6Z"/><path d="M233.39,70.38l2.2-3.15A6.52,6.52,0,0,0,240.1,69c.8,0,1.56-.21,1.56-.75,0-1.35-7.81,0-7.81-5.5,0-2.38,2-4.64,5.81-4.64a9.28,9.28,0,0,1,6,2l-2.27,3a7.1,7.1,0,0,0-4.12-1.38c-.84,0-1.07.27-1.07.62,0,1.33,7.79.19,7.79,5.4,0,3.09-2.29,4.87-6.05,4.87A9.22,9.22,0,0,1,233.39,70.38Z"/><path d="M250.25,70.38l2.2-3.15A6.53,6.53,0,0,0,257,69c.8,0,1.55-.21,1.55-.75,0-1.35-7.81,0-7.81-5.5,0-2.38,2-4.64,5.82-4.64a9.25,9.25,0,0,1,5.94,2l-2.27,3a7.09,7.09,0,0,0-4.11-1.38c-.84,0-1.07.27-1.07.62,0,1.33,7.79.19,7.79,5.4,0,3.09-2.29,4.87-6.05,4.87A9.25,9.25,0,0,1,250.25,70.38Z"/><path d="M268.18,66.6V58.35h4.31v8.1a2.62,2.62,0,0,0,5.23,0v-8.1H282v8.23c0,3.48-2.18,6-6.91,6S268.18,70.06,268.18,66.6Z"/><path d="M288.28,72.35v-14h7.47a4.8,4.8,0,1,1,0,9.59h-3.23v4.41Zm8.21-9.2c0-.75-.57-1.11-1.28-1.11h-2.69v2.21h2.69C295.92,64.25,296.49,63.89,296.49,63.15Z"/><path d="M306.3,67.14l-.57-8.79h4.49l-.52,8.79Zm-.53,3.22A2.23,2.23,0,1,1,308,72.58,2.26,2.26,0,0,1,305.77,70.36Z"/><path class="cls-2" d="M396.22,11.82h-1.63V10.66h4.66v1.16H397.6v4.91h-1.38Z"/><path class="cls-2" d="M405.08,14.41c0-.73-.06-1.61-.06-2.5h0c-.19.78-.45,1.64-.68,2.35l-.74,2.37h-1.07l-.65-2.34c-.2-.72-.4-1.58-.55-2.38h0c0,.82-.07,1.76-.11,2.52l-.11,2.3h-1.27l.39-6.07H402l.6,2c.19.69.38,1.46.51,2.17h0c.17-.7.38-1.5.58-2.18l.64-2h1.8l.33,6.07h-1.34Z"/></g></g></svg>