<svg xmlns="http://www.w3.org/2000/svg" viewBox="0 0 206.72 45.54"><defs><style>.cls-1,.cls-2{fill:#ffca05;}.cls-1,.cls-3{fill-rule:evenodd;}.cls-3{fill:#fff;}</style></defs><title>New_Arvz_Logo</title><g id="Layer_2" data-name="Layer 2"><g id="MASTHEAD_copy" data-name="MASTHEAD copy"><polygon class="cls-1" points="0.08 33.05 11.47 45.48 45.06 45.48 45.06 45.46 34.37 42.37 34.37 33.05 0.08 33.05"/><polygon class="cls-1" points="172.42 33.12 172.42 42.44 161.73 45.53 161.73 45.54 195.56 45.54 206.72 33.12 172.42 33.12"/><rect class="cls-2" x="36" y="27.05" width="134.9" height="14.06"/><path class="cls-1" d="M19.77,25.77l-7.26-.11c0,1.9,0,2.85,0,4.74H0l0-25Q12,6.64,24,7.61c3.27,7.62,6.61,15.22,10.08,22.8H21.78C21,28.56,20.57,27.64,19.77,25.77Zm-2-4.71-4-9.4-1.32-.25,0,9.5Z"/><path class="cls-1" d="M29.87,8.16c7.76.54,16.38,1,24.16,1.37a3.6,3.6,0,0,1,1.8.59A2.57,2.57,0,0,1,57,11.36c.89,2.46,1.34,3.68,2.23,6.11A1,1,0,0,1,59,18.66a1.89,1.89,0,0,1-1.42.47l-1.52,0c2.44,2.54,3.66,3.79,6.1,6.27l-10.93-.1c-2.41-2.52-3.62-3.8-6-6.4.91,2.56,1.37,3.83,2.28,6.36l-10.92-.13Zm14.34,8.05,2.14.08a1.7,1.7,0,0,0,1.26-.43,1,1,0,0,0,.21-1.09l-.7-2a2.43,2.43,0,0,0-1-1.17,3.39,3.39,0,0,0-1.62-.56l-2.15-.13C43.09,13.05,43.46,14.11,44.21,16.21Z"/><path class="cls-1" d="M87.75,10.55c-.86,5-1.7,9.94-2.55,14.91q-9.37,0-18.76-.11-2.7-7.76-5.38-15.52c4.09.16,6.13.24,10.21.36q2.13,6.11,4.27,12.2,1-6,2-12c4.08.1,6.12.14,10.2.19"/><path class="cls-1" d="M115,22.49v3c-8.14,0-17.35,0-25.48,0L100.56,13.6c-4.43,0-5.57,0-10,0v-3c8.15.09,17.22.09,25.37,0L105,22.47Z"/><path class="cls-1" d="M132.91,22.36l-4.53.05c-.3,1.21-.46,1.81-.76,3l-9.82,0q1.9-7.5,3.82-15,9.07-.17,18.15-.52,1.86,7.68,3.7,15.37l-9.81.07-.75-3m-.74-3c-.59-2.42-.89-3.63-1.49-6-.61,2.44-.92,3.66-1.53,6.09l3-.05"/><path class="cls-1" d="M168.85,8.55A2.24,2.24,0,0,1,170.4,9a1.5,1.5,0,0,1,.64,1.24l0,6.43a1.65,1.65,0,0,1-.66,1.3,2.44,2.44,0,0,1-1.56.58c-4.79.16-6.44.24-11.23.37,0,2.53,0,3.8,0,6.33l-10.57.1L147,9.74C154.55,9.41,161.32,9,168.85,8.55Zm-7.23,4.11a1.33,1.33,0,0,0-.57-1.1,2.1,2.1,0,0,0-1.4-.41l-2.07.08c0,2,0,3.08,0,5.13l2.07-.07a2.41,2.41,0,0,0,1.39-.52,1.5,1.5,0,0,0,.6-1.14Z"/><path class="cls-1" d="M203.33,5.73a2.43,2.43,0,0,1,1.95.59,2.36,2.36,0,0,1,.82,1.84c0,3.22,0,6.44,0,9.66a2.7,2.7,0,0,1-.82,2,2.82,2.82,0,0,1-2,.87q-7.55.32-15.09.57c0,3.69,0,5.54,0,9.24H174.86q.06-11.13.11-22.26,14.22-1.08,28.36-2.47m-10,6.31a2.05,2.05,0,0,0-.73-1.6,2.3,2.3,0,0,0-1.75-.57l-2.61.17c0,3,0,4.48,0,7.48l2.6-.13a2.7,2.7,0,0,0,1.75-.78,2.37,2.37,0,0,0,.75-1.68c0-1.16,0-1.74,0-2.89"/><polygon class="cls-3" points="37.13 3.89 116.66 0 108.4 3.68 168.44 3.75 91.27 7.67 101.53 3.67 37.13 3.89"/><path d="M47.61,37.94,46,35.35l-.41.55v2H43.33V30.59h2.22v2.76l1.93-2.76H50.2L47.42,34l2.9,3.93Z"/><path d="M57.74,37.94,55,34.22v3.72H52.81V30.59H55.1l2.55,3.48V30.59h2.22v7.35Z"/><path d="M62.76,34.27a4,4,0,1,1,4,3.8A3.79,3.79,0,0,1,62.76,34.27Zm5.78,0a1.76,1.76,0,1,0-1.76,1.84A1.74,1.74,0,0,0,68.54,34.27Z"/><path d="M79.07,37.94l-.95-4.17-1,4.17H74.84l-2.1-7.35h2.48l1,4.5,1.11-4.5H79l1.11,4.5.93-4.5h2.5l-2.1,7.35Z"/><path d="M85.5,36.9l1.15-1.65a3.43,3.43,0,0,0,2.37,1c.42,0,.82-.11.82-.4,0-.7-4.1,0-4.1-2.88,0-1.25,1-2.44,3.05-2.44a4.83,4.83,0,0,1,3.12,1l-1.19,1.57a3.77,3.77,0,0,0-2.16-.73c-.44,0-.56.15-.56.33,0,.7,4.08.1,4.08,2.83,0,1.62-1.2,2.56-3.17,2.56A4.81,4.81,0,0,1,85.5,36.9Z"/><path d="M105.41,37.94l-1-4.17-.95,4.17h-2.33l-2.1-7.35h2.48l1,4.5,1.11-4.5h1.68l1.11,4.5.93-4.5h2.5l-2.1,7.35Z"/><path d="M112.4,34.92V30.59h2.26v4.25a1.37,1.37,0,0,0,2.74,0V30.59h2.25v4.32c0,1.83-1.14,3.16-3.62,3.16S112.4,36.74,112.4,34.92Z"/><path d="M122.37,36.9l1.16-1.65a3.43,3.43,0,0,0,2.37,1c.42,0,.81-.11.81-.4,0-.7-4.09,0-4.09-2.88,0-1.25,1-2.44,3-2.44a4.8,4.8,0,0,1,3.11,1l-1.19,1.57a3.74,3.74,0,0,0-2.16-.73c-.44,0-.56.15-.56.33,0,.7,4.09.1,4.09,2.83,0,1.62-1.2,2.56-3.17,2.56A4.84,4.84,0,0,1,122.37,36.9Z"/><path d="M131.22,36.9l1.15-1.65a3.43,3.43,0,0,0,2.37,1c.42,0,.81-.11.81-.4,0-.7-4.09,0-4.09-2.88,0-1.25,1-2.44,3-2.44a4.78,4.78,0,0,1,3.11,1l-1.19,1.57a3.71,3.71,0,0,0-2.15-.73c-.44,0-.56.15-.56.33,0,.7,4.08.1,4.08,2.83,0,1.62-1.2,2.56-3.17,2.56A4.81,4.81,0,0,1,131.22,36.9Z"/><path d="M140.62,34.92V30.59h2.26v4.25a1.37,1.37,0,0,0,2.74,0V30.59h2.25v4.32c0,1.83-1.14,3.16-3.62,3.16S140.62,36.74,140.62,34.92Z"/><path d="M151.16,37.94V30.59h3.92a2.52,2.52,0,1,1,0,5h-1.7v2.32Zm4.3-4.83c0-.39-.3-.58-.67-.58h-1.41v1.16h1.41C155.16,33.69,155.46,33.5,155.46,33.11Z"/><path d="M160.6,35.21l-.29-4.62h2.35l-.27,4.62Zm-.27,1.68a1.17,1.17,0,1,1,1.17,1.17A1.19,1.19,0,0,1,160.33,36.89Z"/></g></g></svg>