<svg xmlns="http://www.w3.org/2000/svg" width="798.04" height="61.41" viewBox="0 0 798.04 61.41">
    <defs>
        <style>
            .cls-1{fill:#7ed321}
        </style>
    </defs>
    <g id="Group_272" transform="translate(-583.789 -8928.098)">
        <g id="Group_271">
            <path id="Path_627" d="M628.846 8967.773a12.63 12.63 0 0 1-2.76 3.727 29.5 29.5 0 0 1-4.278 3.381 33.423 33.423 0 0 1-7.659 3.657 27.1 27.1 0 0 1-8.487 1.31q-1.656 0-3.795-.1a15.734 15.734 0 0 1-4.071-.726 8.421 8.421 0 0 1-3.277-1.9 4.848 4.848 0 0 1-1.346-3.692 10.481 10.481 0 0 1 .138-1.587 15.537 15.537 0 0 1 .518-2.138q.378-1.242 1.069-3.036t1.863-4.416l9.867-22.012a26.55 26.55 0 0 1 3.381-5.623 16.389 16.389 0 0 1 4.243-3.761 17.455 17.455 0 0 1 5.313-2.1 30.326 30.326 0 0 1 6.59-.656 22.206 22.206 0 0 1 7.659.967 3.514 3.514 0 0 1 2.415 3.52 8.3 8.3 0 0 1-.276 2.138L624.292 8939a10.167 10.167 0 0 0 .69-1.139 10.8 10.8 0 0 0 .586-1.312q.242-.655.414-1.242a3.5 3.5 0 0 0 .173-.931q0-1.037-2.208-1.035a4.152 4.152 0 0 0-2.208.551 5.341 5.341 0 0 0-1.725 2.415l-13.662 30.637q-1.588 3.52-2.139 5a8.136 8.136 0 0 0-.552 1.828q0 1.173 2.484 1.173a27.11 27.11 0 0 0 6.382-.793 31.282 31.282 0 0 0 6.107-2.14 24.014 24.014 0 0 0 5-3.139 10.729 10.729 0 0 0 3.07-3.795z" class="cls-1"/>
            <path id="Path_628" d="M662.518 8967.773a13.344 13.344 0 0 1-3.071 4 32.689 32.689 0 0 1-5.072 3.934 34.6 34.6 0 0 1-5.795 2.967 14.537 14.537 0 0 1-5.245 1.172 4.769 4.769 0 0 1-3.035-.828 4.1 4.1 0 0 1-1.381-1.794 11.791 11.791 0 0 1-3.484 1.794 16.273 16.273 0 0 1-5.485.828 6.666 6.666 0 0 1-4.658-1.38 5.012 5.012 0 0 1-1.483-3.864 16.9 16.9 0 0 1 1.725-6.692l7.314-16.49H643.2l-8.97 20.079a6.122 6.122 0 0 0-.552 2.345q0 1.106.966 1.1 1.516 0 2.9-3.035l10.211-23.047 8.764 4.762-7.314 16.49a2.733 2.733 0 0 0-.276 1.242q0 1.036 1.242 1.035a6.278 6.278 0 0 0 2.656-.76 20.656 20.656 0 0 0 3.071-1.862 21.223 21.223 0 0 0 2.759-2.381 10.733 10.733 0 0 0 1.795-2.311z" class="cls-1"/>
            <path id="Path_629" d="M693.015 8967.773a18.49 18.49 0 0 1-4.071 4.9 29.007 29.007 0 0 1-5.692 3.829 30.063 30.063 0 0 1-6.659 2.484 29.231 29.231 0 0 1-6.969.861 11.426 11.426 0 0 1-3.829-.621 9.3 9.3 0 0 1-3.036-1.724 8.478 8.478 0 0 1-2-2.485 6.283 6.283 0 0 1-.725-2.966v-.759a6.885 6.885 0 0 1-1.449 1.173q-.967.621-1.587 1.035a6.966 6.966 0 0 1-.345-1.794 5.082 5.082 0 0 1 1.277-2.968 44.3 44.3 0 0 0 2.518-3.656q1.173-1.863 2.208-3.209t2.1-2.519q1.068-1.172 2.242-2.242t2.553-2.312c-.046-.321-.08-.587-.1-.794a8.864 8.864 0 0 1-.035-.932 12.887 12.887 0 0 1 .656-4.106 10.794 10.794 0 0 1 1.828-3.415 9.012 9.012 0 0 1 2.795-2.311 7.452 7.452 0 0 1 3.553-.862 5.2 5.2 0 0 1 2.9.725 3.024 3.024 0 0 1 1.1 2.726 7.776 7.776 0 0 1-.138 1.38 5.638 5.638 0 0 1-.655 1.69 14.562 14.562 0 0 1-1.484 2.1 26.322 26.322 0 0 1-2.553 2.622q5.589 7.037 5.589 10.9a9.91 9.91 0 0 1-7.038 10 19.567 19.567 0 0 0 3.9-1.069 27.739 27.739 0 0 0 4.174-2 23 23 0 0 0 3.864-2.83 15.907 15.907 0 0 0 2.967-3.552zm-21.8-8.073a25.05 25.05 0 0 0-2.449 1.967 14.382 14.382 0 0 0-2.519 3.07 11.661 11.661 0 0 0-1.552 3.174 9.867 9.867 0 0 0-.38 2.622 2.142 2.142 0 0 0 .587 1.689 3.081 3.081 0 0 0 2.035.519 4.22 4.22 0 0 0 2.208-.621 6.087 6.087 0 0 0 1.76-1.587 7.83 7.83 0 0 0 1.138-2.173 7.314 7.314 0 0 0 .414-2.382 17.956 17.956 0 0 0-.345-3.656 9.142 9.142 0 0 0-.901-2.622zm4.347-9.659a5.32 5.32 0 0 0 1.794-1.656 2.825 2.825 0 0 0 .345-1.243q0-.688-.621-.689-1.656 0-1.656 2.07c0 .138.011.38.035.725a4.816 4.816 0 0 0 .099.793z" class="cls-1"/>
            <path id="Path_630" d="M712.956 8967.773a12.987 12.987 0 0 1-3.209 4.209 31.059 31.059 0 0 1-5.279 3.9 32.951 32.951 0 0 1-6.21 2.863 18.688 18.688 0 0 1-6 1.1 4.789 4.789 0 0 1-3.691-1.448 4.9 4.9 0 0 1-1.346-3.45 7.671 7.671 0 0 1 .173-1.483 6.631 6.631 0 0 1 .587-1.69l7.451-16.767h-2.967l1.725-3.865h2.9l9.591-21.32 11.73-.759-9.8 22.079h3.105l-1.725 3.865h-3.1l-7.175 16.007a2.662 2.662 0 0 0-.346 1.1q0 .554.69.553a6.921 6.921 0 0 0 2.864-.759 20.229 20.229 0 0 0 3.209-1.9 21.732 21.732 0 0 0 2.9-2.482 10.285 10.285 0 0 0 1.863-2.449z" class="cls-1"/>
            <path id="Path_631" d="M748.489 8956.94q-3.8 4-11.868 4.829a61.238 61.238 0 0 1-4.554 9.592 20.409 20.409 0 0 1-4.588 5.45 12.47 12.47 0 0 1-5.072 2.449 27.505 27.505 0 0 1-5.865.587q-5.037 0-7.038-1.482a4.756 4.756 0 0 1-2-4.037 15.089 15.089 0 0 1 1.725-6.142l3.174-6.9a31.918 31.918 0 0 1 3-5.244 16 16 0 0 1 3.243-3.416 11.2 11.2 0 0 1 3.519-1.828 13.132 13.132 0 0 1 3.829-.552q1.173 0 1.794.034a4.013 4.013 0 0 1 1.035.173 8.741 8.741 0 0 1 6.141-2.278 5.159 5.159 0 0 1 3.45.966 3.479 3.479 0 0 1 1.1 2.761 11.414 11.414 0 0 1-1.242 4.623c.459.093.863.173 1.208.241a5.072 5.072 0 0 0 1 .1 9.272 9.272 0 0 0 2.933-.519 11.549 11.549 0 0 0 3.277-1.828zm-20.976 2.069a2.36 2.36 0 0 1-1-1.208 4.584 4.584 0 0 1-.311-1.689 5.207 5.207 0 0 1 .069-.966 3.574 3.574 0 0 0-1.207 1 9.536 9.536 0 0 0-1.139 2.173l-6.348 14.489a3.387 3.387 0 0 0-.345 1.381q0 1.313 1.173 1.312a2.53 2.53 0 0 0 1.484-.518 3.953 3.953 0 0 0 1.207-1.483zm6.762-3.1a4.179 4.179 0 0 0 .38-.9 3.72 3.72 0 0 0 .172-1.1 2.4 2.4 0 0 0-.241-1.14.9.9 0 0 0-.863-.447q-1.656 0-1.656 1.587 0 1.998 2.208 1.996z" class="cls-1"/>
            <path id="Path_632" d="M792.028 8967.773a12.82 12.82 0 0 1-3.243 4.209 31.629 31.629 0 0 1-5.348 3.9 33.542 33.542 0 0 1-6.278 2.863 18.833 18.833 0 0 1-5.969 1.1 5.291 5.291 0 0 1-3.726-1.208 4.147 4.147 0 0 1-1.311-3.208 10.281 10.281 0 0 1 .863-3.449q.861-2.209 2.069-4.83t2.519-5.244q1.309-2.621 2.139-4.691a8.7 8.7 0 0 0 .276-.966 3.291 3.291 0 0 0 .069-.621q0-.829-.966-.828a2.512 2.512 0 0 0-2.622 1.725l-10.212 23.114h-11.454l10.143-22.769a3.951 3.951 0 0 0 .207-.691 3.045 3.045 0 0 0 .069-.551q0-.829-1.035-.828a2.568 2.568 0 0 0-1.484.448 2.8 2.8 0 0 0-1 1.276l-10.281 23.114H733.93l13.662-30.773 7.314 3.8a10.229 10.229 0 0 1 3.45-1.795 19.414 19.414 0 0 1 5.52-.62 5.738 5.738 0 0 1 3.277.862 4.228 4.228 0 0 1 1.691 1.966 9.153 9.153 0 0 1 4.45-2.312 27 27 0 0 1 5.417-.516 5.547 5.547 0 0 1 4.037 1.38 5.058 5.058 0 0 1 1.414 3.795 10.466 10.466 0 0 1-.552 3.07 39.253 39.253 0 0 1-1.38 3.69q-.828 1.932-1.759 3.9t-1.622 3.691a3.776 3.776 0 0 0-.483 1.587q0 1.036 1.242 1.035a6.5 6.5 0 0 0 2.691-.76 19.825 19.825 0 0 0 3.1-1.862 21.232 21.232 0 0 0 2.76-2.381 8.92 8.92 0 0 0 1.725-2.311z" class="cls-1"/>
            <path id="Path_633" d="M819.212 8935.758a3.689 3.689 0 0 0 .346-1.312q0-1.449-2.829-1.448h-.69q-2.141 0-2.14-1.863a2.517 2.517 0 0 1 1.243-2.243q1.242-.791 5.106-.794a35.561 35.561 0 0 1 7.038.587 5.757 5.757 0 0 1 3.863 2.174 15.116 15.116 0 0 1 4.348-2.069 19.372 19.372 0 0 1 5.451-.691q10.487 0 10.488 6.9a9.272 9.272 0 0 1-1.38 4.657 20.652 20.652 0 0 1-3.761 4.623 33.944 33.944 0 0 1-5.52 4.174 41.756 41.756 0 0 1-6.658 3.312 8.486 8.486 0 0 1 4.1 2.692 6.864 6.864 0 0 1 1.622 4.553 16.865 16.865 0 0 1-2.346 8.867 20.386 20.386 0 0 1-6.383 6.554 30.866 30.866 0 0 1-9.488 4.037 47.045 47.045 0 0 1-11.591 1.38h-3.485q-1.692 0-3.139-.033t-2.45-.069a10.5 10.5 0 0 1-1.345-.1zm-5.106 38.087a2.245 2.245 0 0 0 1.243.277 8.485 8.485 0 0 0 4.277-1.346 19.156 19.156 0 0 0 4.244-3.45 20.2 20.2 0 0 0 3.277-4.692 11.044 11.044 0 0 0 1.311-5q0-3.656-5.312-6.073zm10.351-23.184q7.245-2.07 10-5.313a44.7 44.7 0 0 0 3.692-5.244 8.977 8.977 0 0 0 1.277-4.553q0-2.691-3.175-2.691a5.333 5.333 0 0 0-3.346 1.034 8.126 8.126 0 0 0-2.311 3.175z" class="cls-1"/>
            <path id="Path_634" d="M880.208 8967.773a13.322 13.322 0 0 1-3.07 4 32.686 32.686 0 0 1-5.072 3.934 34.6 34.6 0 0 1-5.795 2.967 14.541 14.541 0 0 1-5.245 1.172 4.769 4.769 0 0 1-3.035-.828 4.1 4.1 0 0 1-1.381-1.794 11.791 11.791 0 0 1-3.484 1.794 16.277 16.277 0 0 1-5.485.828 6.666 6.666 0 0 1-4.658-1.38 5.012 5.012 0 0 1-1.483-3.864 16.9 16.9 0 0 1 1.725-6.692l7.314-16.49h10.35l-8.971 20.079a6.137 6.137 0 0 0-.551 2.345q0 1.106.966 1.1 1.516 0 2.9-3.035l10.212-23.047 8.764 4.762-7.314 16.49a2.732 2.732 0 0 0-.276 1.242q0 1.036 1.241 1.035a6.277 6.277 0 0 0 2.657-.76 20.592 20.592 0 0 0 3.07-1.862 21.164 21.164 0 0 0 2.76-2.381 10.731 10.731 0 0 0 1.795-2.311z" class="cls-1"/>
            <path id="Path_635" d="M910.706 8967.773a18.509 18.509 0 0 1-4.071 4.9 29.01 29.01 0 0 1-5.692 3.829 30.063 30.063 0 0 1-6.659 2.484 29.231 29.231 0 0 1-6.969.861 11.426 11.426 0 0 1-3.829-.621 9.287 9.287 0 0 1-3.036-1.724 8.478 8.478 0 0 1-2-2.485 6.283 6.283 0 0 1-.725-2.966v-.759a6.886 6.886 0 0 1-1.449 1.173q-.968.621-1.587 1.035a6.965 6.965 0 0 1-.345-1.794 5.081 5.081 0 0 1 1.277-2.968 44.3 44.3 0 0 0 2.518-3.656q1.173-1.863 2.208-3.209t2.1-2.519q1.068-1.172 2.242-2.242t2.553-2.312c-.046-.321-.08-.587-.1-.794a8.881 8.881 0 0 1-.035-.932 12.887 12.887 0 0 1 .656-4.106 10.8 10.8 0 0 1 1.828-3.415 9.012 9.012 0 0 1 2.8-2.311 7.452 7.452 0 0 1 3.553-.862 5.2 5.2 0 0 1 2.9.725 3.024 3.024 0 0 1 1.1 2.726 7.782 7.782 0 0 1-.138 1.38 5.643 5.643 0 0 1-.656 1.69 14.46 14.46 0 0 1-1.483 2.1 26.322 26.322 0 0 1-2.553 2.622q5.589 7.037 5.589 10.9a9.91 9.91 0 0 1-7.038 10 19.568 19.568 0 0 0 3.9-1.069 27.742 27.742 0 0 0 4.174-2 22.992 22.992 0 0 0 3.864-2.83 15.907 15.907 0 0 0 2.967-3.552zm-21.8-8.073a25.057 25.057 0 0 0-2.449 1.967 14.382 14.382 0 0 0-2.519 3.07 11.657 11.657 0 0 0-1.552 3.174 9.865 9.865 0 0 0-.38 2.622 2.142 2.142 0 0 0 .587 1.689 3.082 3.082 0 0 0 2.035.519 4.22 4.22 0 0 0 2.208-.621 6.087 6.087 0 0 0 1.76-1.587 7.829 7.829 0 0 0 1.138-2.173 7.314 7.314 0 0 0 .414-2.382 17.961 17.961 0 0 0-.345-3.656 9.142 9.142 0 0 0-.903-2.622zm4.347-9.659a5.33 5.33 0 0 0 1.794-1.656 2.825 2.825 0 0 0 .345-1.243q0-.688-.621-.689-1.656 0-1.656 2.07c0 .138.011.38.035.725a4.7 4.7 0 0 0 .099.793z" class="cls-1"/>
            <path id="Path_636" d="M930.577 8967.773a13.29 13.29 0 0 1-3.208 4.141 30.562 30.562 0 0 1-5.313 3.9 35.238 35.238 0 0 1-6.279 2.9 18.553 18.553 0 0 1-6.038 1.138 5.372 5.372 0 0 1-3.622-1.208 4.077 4.077 0 0 1-1.415-3.276 7.708 7.708 0 0 1 .9-3.449l10.281-23.047 8.694 4.762-7.314 16.49a3.627 3.627 0 0 0-.345 1.242q0 1.036 1.173 1.035a6.583 6.583 0 0 0 2.76-.76 19.783 19.783 0 0 0 3.1-1.862 21.3 21.3 0 0 0 2.76-2.381 8.9 8.9 0 0 0 1.725-2.311zm1.1-28.7a3.7 3.7 0 0 1-.862 2.381 7.445 7.445 0 0 1-2.139 1.794 12.149 12.149 0 0 1-2.795 1.139 10.816 10.816 0 0 1-2.829.414 6.434 6.434 0 0 1-3.208-.794 2.414 2.414 0 0 1-1.415-2.173 3.726 3.726 0 0 1 .759-2.174 7.528 7.528 0 0 1 2-1.9 10.891 10.891 0 0 1 2.76-1.312 10.2 10.2 0 0 1 3.1-.482 6.23 6.23 0 0 1 3.209.828 2.536 2.536 0 0 1 1.424 2.275z" class="cls-1"/>
            <path id="Path_637" d="M965.214 8967.773a12.834 12.834 0 0 1-3.243 4.209 31.623 31.623 0 0 1-5.347 3.9 33.581 33.581 0 0 1-6.279 2.863 18.833 18.833 0 0 1-5.969 1.1 5.291 5.291 0 0 1-3.726-1.208 4.147 4.147 0 0 1-1.311-3.208 10.279 10.279 0 0 1 .863-3.449q.861-2.209 2.069-4.83t2.519-5.244q1.31-2.621 2.139-4.691a8.718 8.718 0 0 0 .276-.966 3.3 3.3 0 0 0 .069-.621q0-.829-.966-.828a2.843 2.843 0 0 0-1.587.448 2.726 2.726 0 0 0-1.035 1.276l-10.212 23.114h-11.523l13.662-30.773 7.245 3.8a7.565 7.565 0 0 1 4.209-2.036 32.1 32.1 0 0 1 4.83-.379 5.546 5.546 0 0 1 4.037 1.38 5.059 5.059 0 0 1 1.414 3.795 10.468 10.468 0 0 1-.552 3.07 39.27 39.27 0 0 1-1.38 3.69q-.828 1.932-1.759 3.9t-1.622 3.691a3.762 3.762 0 0 0-.483 1.587q0 1.036 1.242 1.035a6.5 6.5 0 0 0 2.691-.76 19.828 19.828 0 0 0 3.105-1.862 21.3 21.3 0 0 0 2.76-2.381 8.9 8.9 0 0 0 1.725-2.311z" class="cls-1"/>
            <path id="Path_638" d="M994.471 8967.773a13.541 13.541 0 0 1-2.278 3.242 20.648 20.648 0 0 1-3.656 3.106 33.178 33.178 0 0 1-7.867 4.277 26.06 26.06 0 0 1-9.039 1.448q-2.76 0-4.863-.172a11.436 11.436 0 0 1-3.555-.793 4.883 4.883 0 0 1-2.207-1.76 5.458 5.458 0 0 1-.76-3.071q0-2.827 2.139-7.728l2.552-5.728a25.232 25.232 0 0 1 2.692-4.795 12.594 12.594 0 0 1 3.416-3.209 13.848 13.848 0 0 1 4.555-1.793 29.5 29.5 0 0 1 6.105-.552 26.472 26.472 0 0 1 4.451.309 8.617 8.617 0 0 1 2.725.864 3.108 3.108 0 0 1 1.346 1.38 4.429 4.429 0 0 1 .378 1.863 17.379 17.379 0 0 1-.517 3.932 11.247 11.247 0 0 1-2.1 4.279 8.262 8.262 0 0 1-3 2.38 20.25 20.25 0 0 1-4.173 1.483 38.679 38.679 0 0 1-4.59.828q-2.312.277-4.242.345-.829 1.8-1.278 3.071a6.64 6.64 0 0 0-.447 2.1q0 1.862 2.553 1.862a23.308 23.308 0 0 0 5.795-.759 27.527 27.527 0 0 0 5.625-2.1 25.035 25.035 0 0 0 4.8-3.14 14.3 14.3 0 0 0 3.312-3.863zm-21.045-3.519a7.848 7.848 0 0 0 5.174-2.622 8.369 8.369 0 0 0 1.519-2.553 8.678 8.678 0 0 0 .551-3.106q0-.9-1.311-.9a2.339 2.339 0 0 0-1.484.517 6.146 6.146 0 0 0-1.414 2.174z" class="cls-1"/>
            <path id="Path_639" d="M1024.9 8967.773a18.489 18.489 0 0 1-4.071 4.9 28.979 28.979 0 0 1-5.692 3.829 30.073 30.073 0 0 1-6.658 2.484 29.231 29.231 0 0 1-6.969.861 11.432 11.432 0 0 1-3.83-.621 9.308 9.308 0 0 1-3.036-1.724 8.477 8.477 0 0 1-2-2.485 6.282 6.282 0 0 1-.724-2.966v-.759a6.937 6.937 0 0 1-1.449 1.173q-.968.621-1.587 1.035a6.889 6.889 0 0 1-.346-1.794 5.082 5.082 0 0 1 1.277-2.968 43.809 43.809 0 0 0 2.518-3.656q1.173-1.863 2.208-3.209t2.1-2.519q1.068-1.172 2.243-2.242t2.552-2.312c-.045-.321-.081-.587-.1-.794a9.23 9.23 0 0 1-.034-.932 12.914 12.914 0 0 1 .655-4.106 10.814 10.814 0 0 1 1.828-3.415 9.023 9.023 0 0 1 2.795-2.311 7.453 7.453 0 0 1 3.554-.862 5.2 5.2 0 0 1 2.9.725 3.022 3.022 0 0 1 1.1 2.726 7.784 7.784 0 0 1-.139 1.38 5.61 5.61 0 0 1-.655 1.69 14.562 14.562 0 0 1-1.484 2.1 26.41 26.41 0 0 1-2.552 2.622q5.588 7.037 5.589 10.9a9.912 9.912 0 0 1-7.039 10 19.549 19.549 0 0 0 3.9-1.069 27.752 27.752 0 0 0 4.175-2 23 23 0 0 0 3.864-2.83 15.963 15.963 0 0 0 2.967-3.552zm-21.8-8.073a24.819 24.819 0 0 0-2.449 1.967 14.322 14.322 0 0 0-2.519 3.07 11.666 11.666 0 0 0-1.553 3.174 9.867 9.867 0 0 0-.38 2.622 2.145 2.145 0 0 0 .587 1.689 3.083 3.083 0 0 0 2.035.519 4.215 4.215 0 0 0 2.208-.621 6.073 6.073 0 0 0 1.76-1.587 7.857 7.857 0 0 0 1.139-2.173 7.34 7.34 0 0 0 .414-2.382 17.889 17.889 0 0 0-.346-3.656 9.145 9.145 0 0 0-.901-2.622zm4.346-9.659a5.32 5.32 0 0 0 1.794-1.656 2.824 2.824 0 0 0 .345-1.243q0-.688-.62-.689-1.658 0-1.656 2.07c0 .138.01.38.034.725a4.809 4.809 0 0 0 .098.793z" class="cls-1"/>
            <path id="Path_640" d="M1055.4 8967.773a18.512 18.512 0 0 1-4.072 4.9 28.979 28.979 0 0 1-5.692 3.829 30.074 30.074 0 0 1-6.658 2.484 29.231 29.231 0 0 1-6.969.861 11.432 11.432 0 0 1-3.83-.621 9.307 9.307 0 0 1-3.036-1.724 8.476 8.476 0 0 1-2-2.485 6.282 6.282 0 0 1-.724-2.966v-.759a6.939 6.939 0 0 1-1.449 1.173q-.968.621-1.587 1.035a6.889 6.889 0 0 1-.346-1.794 5.077 5.077 0 0 1 1.278-2.968 44.058 44.058 0 0 0 2.517-3.656q1.173-1.863 2.208-3.209t2.1-2.519q1.07-1.172 2.243-2.242t2.553-2.312c-.046-.321-.082-.587-.1-.794a9.208 9.208 0 0 1-.034-.932 12.914 12.914 0 0 1 .655-4.106 10.814 10.814 0 0 1 1.828-3.415 9.022 9.022 0 0 1 2.8-2.311 7.453 7.453 0 0 1 3.554-.862 5.2 5.2 0 0 1 2.9.725 3.022 3.022 0 0 1 1.1 2.726 7.8 7.8 0 0 1-.139 1.38 5.614 5.614 0 0 1-.655 1.69 14.552 14.552 0 0 1-1.484 2.1 26.417 26.417 0 0 1-2.552 2.622q5.587 7.037 5.589 10.9a9.913 9.913 0 0 1-7.038 10 19.559 19.559 0 0 0 3.9-1.069 27.752 27.752 0 0 0 4.175-2 23 23 0 0 0 3.864-2.83 15.961 15.961 0 0 0 2.967-3.552zm-21.8-8.073a24.812 24.812 0 0 0-2.449 1.967 14.324 14.324 0 0 0-2.519 3.07 11.662 11.662 0 0 0-1.553 3.174 9.865 9.865 0 0 0-.38 2.622 2.145 2.145 0 0 0 .587 1.689 3.083 3.083 0 0 0 2.035.519 4.215 4.215 0 0 0 2.208-.621 6.074 6.074 0 0 0 1.76-1.587 7.831 7.831 0 0 0 1.139-2.173 7.343 7.343 0 0 0 .414-2.382 17.889 17.889 0 0 0-.346-3.656 9.146 9.146 0 0 0-.904-2.622zm4.346-9.659a5.321 5.321 0 0 0 1.794-1.656 2.825 2.825 0 0 0 .345-1.243q0-.688-.62-.689-1.656 0-1.656 2.07c0 .138.011.38.034.725a4.815 4.815 0 0 0 .095.793z" class="cls-1"/>
            <path id="Path_641" d="M1063.053 8979.641l19.458-43.883a3.7 3.7 0 0 0 .344-1.312q0-1.449-2.829-1.448h-.689q-2.141 0-2.14-1.863a2.518 2.518 0 0 1 1.242-2.243q1.243-.791 5.107-.794a33.542 33.542 0 0 1 7.038.621 5.873 5.873 0 0 1 3.863 2.208 12.966 12.966 0 0 1 4.175-2.1 19.393 19.393 0 0 1 5.623-.726q5.313 0 7.659 1.519a4.938 4.938 0 0 1 2.347 4.416 12.716 12.716 0 0 1-1.381 5.244l-7.727 17.111a21.363 21.363 0 0 1-7.9 9.385q-5.142 3.312-13.628 3.313a35.952 35.952 0 0 1-3.8-.207l-4.83 10.763zm37.95-39.33q.964-2.275 1.276-3.311a6.13 6.13 0 0 0 .311-1.657 2.366 2.366 0 0 0-.725-1.793 3.268 3.268 0 0 0-2.311-.69 5.493 5.493 0 0 0-5.382 3.588l-12.282 27.669c.367.047.713.081 1.035.1s.621.036.9.036a9.223 9.223 0 0 0 5.728-1.726 15.333 15.333 0 0 0 4.209-6.071z" class="cls-1"/>
            <path id="Path_642" d="M1138.953 8967.773a13.294 13.294 0 0 1-3.209 4.141 30.553 30.553 0 0 1-5.312 3.9 35.211 35.211 0 0 1-6.28 2.9 18.548 18.548 0 0 1-6.038 1.138 5.063 5.063 0 0 1-3.725-1.241 4.663 4.663 0 0 1-1.243-3.45 7.816 7.816 0 0 1 .38-2.173 27.37 27.37 0 0 1 .966-2.691q.587-1.415 1.311-2.9t1.415-2.795a34.331 34.331 0 0 0 1.863-3.829 5.958 5.958 0 0 0 .414-1.483q0-.482-1.311-1.034l-1.45-.621a27.789 27.789 0 0 1-5.381 8.9q-2 2.278-3.554 3.795a25.2 25.2 0 0 1-2.794 2.415 10.013 10.013 0 0 1-2.243 1.276 5.184 5.184 0 0 1-1.828.38l-.966-2.415a7 7 0 0 0 1.449-1.725 77.848 77.848 0 0 0 5.071-10.626q2.173-5.59 4.106-11.179l16.836 9.521a4.485 4.485 0 0 1 1.483 1.312 2.424 2.424 0 0 1 .448 1.311 5.555 5.555 0 0 1-.621 2.175q-.619 1.345-1.414 2.9t-1.414 3.105a7.384 7.384 0 0 0-.621 2.655q0 .968 1.1.967a6.6 6.6 0 0 0 2.725-.725 19.79 19.79 0 0 0 3.106-1.829 20.245 20.245 0 0 0 2.794-2.38 9.883 9.883 0 0 0 1.793-2.38z" class="cls-1"/>
            <path id="Path_643" d="M1174.418 8956.94q-3.8 4-11.868 4.829a61.33 61.33 0 0 1-4.554 9.592 20.427 20.427 0 0 1-4.589 5.45 12.466 12.466 0 0 1-5.071 2.449 27.513 27.513 0 0 1-5.865.587q-5.038 0-7.038-1.482a4.758 4.758 0 0 1-2-4.037 15.089 15.089 0 0 1 1.725-6.142l3.174-6.9a31.981 31.981 0 0 1 3-5.244 16.017 16.017 0 0 1 3.243-3.416 11.216 11.216 0 0 1 3.52-1.828 13.122 13.122 0 0 1 3.829-.552q1.173 0 1.794.034a4.014 4.014 0 0 1 1.035.173 8.741 8.741 0 0 1 6.141-2.278 5.161 5.161 0 0 1 3.45.966 3.479 3.479 0 0 1 1.1 2.761 11.413 11.413 0 0 1-1.242 4.623q.688.139 1.207.241a5.09 5.09 0 0 0 1 .1 9.273 9.273 0 0 0 2.933-.519 11.55 11.55 0 0 0 3.277-1.828zm-20.976 2.069a2.356 2.356 0 0 1-1-1.208 4.582 4.582 0 0 1-.31-1.689 5.123 5.123 0 0 1 .069-.966 3.579 3.579 0 0 0-1.208 1 9.542 9.542 0 0 0-1.138 2.173l-6.348 14.489a3.372 3.372 0 0 0-.345 1.381q0 1.313 1.173 1.312a2.525 2.525 0 0 0 1.483-.518 3.955 3.955 0 0 0 1.208-1.483zm6.762-3.1a4.176 4.176 0 0 0 .379-.9 3.688 3.688 0 0 0 .173-1.1 2.411 2.411 0 0 0-.241-1.14.9.9 0 0 0-.863-.447q-1.656 0-1.656 1.587.004 1.998 2.204 1.996z" class="cls-1"/>
            <path id="Path_644" d="M1217.957 8967.773a12.834 12.834 0 0 1-3.243 4.209 31.656 31.656 0 0 1-5.347 3.9 33.609 33.609 0 0 1-6.279 2.863 18.834 18.834 0 0 1-5.969 1.1 5.29 5.29 0 0 1-3.725-1.208 4.145 4.145 0 0 1-1.312-3.208 10.3 10.3 0 0 1 .862-3.449q.864-2.209 2.071-4.83t2.518-5.244q1.31-2.621 2.139-4.691a8.7 8.7 0 0 0 .276-.966 3.3 3.3 0 0 0 .07-.621q0-.829-.967-.828a2.511 2.511 0 0 0-2.621 1.725l-10.213 23.114h-11.453l10.142-22.769a4.031 4.031 0 0 0 .207-.691 3.067 3.067 0 0 0 .07-.551q0-.829-1.036-.828a2.565 2.565 0 0 0-1.483.448 2.8 2.8 0 0 0-1 1.276l-10.281 23.114h-11.523l13.662-30.773 7.314 3.8a10.23 10.23 0 0 1 3.45-1.795 19.422 19.422 0 0 1 5.521-.62 5.74 5.74 0 0 1 3.277.862 4.225 4.225 0 0 1 1.69 1.966 9.156 9.156 0 0 1 4.451-2.312 26.984 26.984 0 0 1 5.417-.516 5.545 5.545 0 0 1 4.036 1.38 5.058 5.058 0 0 1 1.414 3.795 10.466 10.466 0 0 1-.552 3.07 38.963 38.963 0 0 1-1.38 3.69q-.828 1.932-1.76 3.9t-1.621 3.691a3.778 3.778 0 0 0-.483 1.587q0 1.036 1.242 1.035a6.506 6.506 0 0 0 2.692-.76 19.817 19.817 0 0 0 3.1-1.862 21.172 21.172 0 0 0 2.76-2.381 8.9 8.9 0 0 0 1.725-2.311z" class="cls-1"/>
            <path id="Path_645" d="M1253.423 8956.94q-3.8 4-11.868 4.829a61.33 61.33 0 0 1-4.554 9.592 20.427 20.427 0 0 1-4.589 5.45 12.466 12.466 0 0 1-5.071 2.449 27.512 27.512 0 0 1-5.865.587q-5.039 0-7.039-1.482a4.76 4.76 0 0 1-2-4.037 15.089 15.089 0 0 1 1.725-6.142l3.174-6.9a31.981 31.981 0 0 1 3-5.244 16.017 16.017 0 0 1 3.243-3.416 11.216 11.216 0 0 1 3.52-1.828 13.122 13.122 0 0 1 3.829-.552q1.173 0 1.794.034a4.023 4.023 0 0 1 1.035.173 8.74 8.74 0 0 1 6.14-2.278 5.162 5.162 0 0 1 3.451.966 3.479 3.479 0 0 1 1.1 2.761 11.415 11.415 0 0 1-1.242 4.623q.688.139 1.207.241a5.09 5.09 0 0 0 1 .1 9.277 9.277 0 0 0 2.933-.519 11.55 11.55 0 0 0 3.277-1.828zm-20.976 2.069a2.356 2.356 0 0 1-1-1.208 4.582 4.582 0 0 1-.31-1.689 5.123 5.123 0 0 1 .069-.966 3.579 3.579 0 0 0-1.208 1 9.537 9.537 0 0 0-1.139 2.173l-6.347 14.489a3.372 3.372 0 0 0-.345 1.381q0 1.313 1.173 1.312a2.525 2.525 0 0 0 1.483-.518 3.955 3.955 0 0 0 1.208-1.483zm6.762-3.1a4.176 4.176 0 0 0 .379-.9 3.688 3.688 0 0 0 .173-1.1 2.411 2.411 0 0 0-.241-1.14.9.9 0 0 0-.863-.447q-1.656 0-1.656 1.587-.001 1.998 2.208 1.996z" class="cls-1"/>
            <path id="Path_646" d="M1267.36 8967.773a12.973 12.973 0 0 1-3.209 4.209 31.014 31.014 0 0 1-5.278 3.9 32.952 32.952 0 0 1-6.21 2.863 18.7 18.7 0 0 1-6 1.1 4.788 4.788 0 0 1-3.691-1.448 4.893 4.893 0 0 1-1.346-3.45 7.748 7.748 0 0 1 .173-1.483 6.667 6.667 0 0 1 .586-1.69l7.452-16.767h-2.967l1.725-3.865h2.9l9.591-21.32 11.731-.759-9.8 22.079h3.105l-1.724 3.865h-3.106l-7.176 16.007a2.667 2.667 0 0 0-.344 1.1c0 .369.229.553.689.553a6.912 6.912 0 0 0 2.863-.759 20.1 20.1 0 0 0 3.209-1.9 21.683 21.683 0 0 0 2.9-2.482 10.286 10.286 0 0 0 1.863-2.449z" class="cls-1"/>
            <path id="Path_647" d="M1287.231 8967.773a13.288 13.288 0 0 1-3.208 4.141 30.557 30.557 0 0 1-5.313 3.9 35.237 35.237 0 0 1-6.279 2.9 18.553 18.553 0 0 1-6.037 1.138 5.373 5.373 0 0 1-3.623-1.208 4.08 4.08 0 0 1-1.415-3.276 7.7 7.7 0 0 1 .9-3.449l10.28-23.047 8.695 4.762-7.315 16.49a3.651 3.651 0 0 0-.345 1.242q0 1.036 1.173 1.035a6.6 6.6 0 0 0 2.761-.76 19.778 19.778 0 0 0 3.1-1.862 21.235 21.235 0 0 0 2.76-2.381 8.9 8.9 0 0 0 1.726-2.311zm1.105-28.7a3.7 3.7 0 0 1-.863 2.381 7.433 7.433 0 0 1-2.139 1.794 12.128 12.128 0 0 1-2.8 1.139 10.814 10.814 0 0 1-2.828.414 6.438 6.438 0 0 1-3.209-.794 2.415 2.415 0 0 1-1.414-2.173 3.719 3.719 0 0 1 .759-2.174 7.528 7.528 0 0 1 2-1.9 10.883 10.883 0 0 1 2.759-1.312 10.2 10.2 0 0 1 3.106-.482 6.226 6.226 0 0 1 3.208.828 2.536 2.536 0 0 1 1.421 2.275z" class="cls-1"/>
            <path id="Path_648" d="M1322.7 8956.94q-3.8 4-11.868 4.829a61.243 61.243 0 0 1-4.554 9.592 20.428 20.428 0 0 1-4.588 5.45 12.47 12.47 0 0 1-5.072 2.449 27.512 27.512 0 0 1-5.865.587q-5.037 0-7.038-1.482a4.758 4.758 0 0 1-2-4.037 15.078 15.078 0 0 1 1.726-6.142l3.173-6.9a31.99 31.99 0 0 1 3-5.244 16.047 16.047 0 0 1 3.244-3.416 11.2 11.2 0 0 1 3.519-1.828 13.126 13.126 0 0 1 3.829-.552q1.173 0 1.794.034a4.013 4.013 0 0 1 1.035.173 8.741 8.741 0 0 1 6.141-2.278 5.159 5.159 0 0 1 3.45.966 3.479 3.479 0 0 1 1.105 2.761 11.417 11.417 0 0 1-1.243 4.623c.459.093.863.173 1.207.241a5.089 5.089 0 0 0 1 .1 9.272 9.272 0 0 0 2.933-.519 11.548 11.548 0 0 0 3.277-1.828zm-20.975 2.069a2.357 2.357 0 0 1-1-1.208 4.583 4.583 0 0 1-.311-1.689 5.109 5.109 0 0 1 .07-.966 3.567 3.567 0 0 0-1.208 1 9.541 9.541 0 0 0-1.139 2.173l-6.348 14.489a3.386 3.386 0 0 0-.345 1.381q0 1.313 1.173 1.312a2.53 2.53 0 0 0 1.484-.518 3.974 3.974 0 0 0 1.208-1.483zm6.761-3.1a4.182 4.182 0 0 0 .379-.9 3.654 3.654 0 0 0 .173-1.1 2.41 2.41 0 0 0-.241-1.14.9.9 0 0 0-.862-.447q-1.657 0-1.657 1.587-.004 1.998 2.204 1.996z" class="cls-1"/>
            <path id="Path_649" d="M1351.4 8967.773a12.807 12.807 0 0 1-3.243 4.209 31.616 31.616 0 0 1-5.347 3.9 33.58 33.58 0 0 1-6.279 2.863 18.828 18.828 0 0 1-5.968 1.1 5.291 5.291 0 0 1-3.726-1.208 4.145 4.145 0 0 1-1.312-3.208 10.306 10.306 0 0 1 .863-3.449q.863-2.209 2.07-4.83t2.519-5.244q1.31-2.621 2.138-4.691a8.753 8.753 0 0 0 .277-.966 3.291 3.291 0 0 0 .069-.621q0-.829-.967-.828a2.85 2.85 0 0 0-1.587.448 2.732 2.732 0 0 0-1.035 1.276l-10.212 23.114h-11.522l13.662-30.773 7.245 3.8a7.562 7.562 0 0 1 4.209-2.036 32.093 32.093 0 0 1 4.83-.379 5.543 5.543 0 0 1 4.036 1.38 5.055 5.055 0 0 1 1.414 3.795 10.434 10.434 0 0 1-.552 3.07 39.249 39.249 0 0 1-1.379 3.69q-.828 1.932-1.76 3.9t-1.621 3.691a3.766 3.766 0 0 0-.484 1.587q0 1.036 1.242 1.035a6.5 6.5 0 0 0 2.692-.76 19.728 19.728 0 0 0 3.1-1.862 21.172 21.172 0 0 0 2.76-2.381 8.927 8.927 0 0 0 1.726-2.311z" class="cls-1"/>
            <path id="Path_650" d="M1381.829 8967.773a18.509 18.509 0 0 1-4.071 4.9 28.987 28.987 0 0 1-5.693 3.829 30.033 30.033 0 0 1-6.658 2.484 29.225 29.225 0 0 1-6.969.861 11.436 11.436 0 0 1-3.83-.621 9.328 9.328 0 0 1-3.036-1.724 8.508 8.508 0 0 1-2-2.485 6.292 6.292 0 0 1-.723-2.966v-.759a6.946 6.946 0 0 1-1.45 1.173q-.966.621-1.586 1.035a6.887 6.887 0 0 1-.346-1.794 5.081 5.081 0 0 1 1.277-2.968 43.824 43.824 0 0 0 2.518-3.656q1.173-1.863 2.208-3.209t2.1-2.519q1.07-1.172 2.243-2.242t2.553-2.312c-.046-.321-.081-.587-.1-.794a8.864 8.864 0 0 1-.035-.932 12.887 12.887 0 0 1 .656-4.106 10.8 10.8 0 0 1 1.828-3.415 9.022 9.022 0 0 1 2.8-2.311 7.449 7.449 0 0 1 3.553-.862 5.2 5.2 0 0 1 2.9.725 3.024 3.024 0 0 1 1.1 2.726 7.776 7.776 0 0 1-.138 1.38 5.619 5.619 0 0 1-.656 1.69 14.46 14.46 0 0 1-1.483 2.1 26.315 26.315 0 0 1-2.553 2.622q5.589 7.037 5.589 10.9a9.91 9.91 0 0 1-7.038 10 19.588 19.588 0 0 0 3.9-1.069 27.742 27.742 0 0 0 4.174-2 23.042 23.042 0 0 0 3.865-2.83 15.956 15.956 0 0 0 2.966-3.552zm-21.8-8.073a25.042 25.042 0 0 0-2.449 1.967 14.347 14.347 0 0 0-2.518 3.07 11.637 11.637 0 0 0-1.553 3.174 9.865 9.865 0 0 0-.38 2.622 2.141 2.141 0 0 0 .587 1.689 3.081 3.081 0 0 0 2.035.519 4.217 4.217 0 0 0 2.208-.621 6.087 6.087 0 0 0 1.76-1.587 7.883 7.883 0 0 0 1.139-2.173 7.34 7.34 0 0 0 .414-2.382 17.958 17.958 0 0 0-.346-3.656 9.144 9.144 0 0 0-.901-2.622zm4.347-9.659a5.319 5.319 0 0 0 1.794-1.656 2.825 2.825 0 0 0 .345-1.243c0-.459-.206-.689-.62-.689q-1.657 0-1.657 2.07c0 .138.011.38.035.725a4.713 4.713 0 0 0 .099.793z" class="cls-1"/>
            <path id="Path_651" d="M583.789 8989.508v-1.379h784.031v1.379z" class="cls-1"/>
        </g>
    </g>
</svg>
