<svg xmlns="http://www.w3.org/2000/svg" width="865.45" height="64.447" viewBox="0 0 865.45 64.447">
    <defs>
        <style>
            .cls-1{fill:#ffcb05}
        </style>
    </defs>
    <g id="Group_270" transform="translate(-550.083 -8024.977)">
        <g id="Group_269">
            <path id="Path_600" d="M595.141 8064.652a12.618 12.618 0 0 1-2.761 3.727 29.444 29.444 0 0 1-4.277 3.381 33.411 33.411 0 0 1-7.66 3.657 27.089 27.089 0 0 1-8.486 1.31q-1.656 0-3.795-.1a15.761 15.761 0 0 1-4.072-.725 8.428 8.428 0 0 1-3.277-1.9 4.848 4.848 0 0 1-1.346-3.692 10.6 10.6 0 0 1 .138-1.587 15.669 15.669 0 0 1 .518-2.138q.378-1.242 1.069-3.036t1.864-4.416l9.866-22.012a26.592 26.592 0 0 1 3.382-5.623 16.367 16.367 0 0 1 4.243-3.761 17.457 17.457 0 0 1 5.313-2.1 30.291 30.291 0 0 1 6.59-.656 22.212 22.212 0 0 1 7.658.966 3.515 3.515 0 0 1 2.415 3.52 8.3 8.3 0 0 1-.275 2.138l-11.662 4.279a9.875 9.875 0 0 0 .69-1.139 10.964 10.964 0 0 0 .587-1.312c.16-.436.3-.85.414-1.241a3.554 3.554 0 0 0 .173-.931q0-1.036-2.208-1.036a4.141 4.141 0 0 0-2.208.552 5.321 5.321 0 0 0-1.725 2.415l-13.663 30.636q-1.587 3.52-2.139 5a8.18 8.18 0 0 0-.551 1.828q0 1.175 2.483 1.173a27.093 27.093 0 0 0 6.383-.793 31.361 31.361 0 0 0 6.107-2.139 24.029 24.029 0 0 0 5-3.139 10.714 10.714 0 0 0 3.07-3.795z" class="cls-1"/>
            <path id="Path_601" d="M628.812 8064.652a13.3 13.3 0 0 1-3.07 4 32.678 32.678 0 0 1-5.072 3.934 34.569 34.569 0 0 1-5.8 2.966 14.526 14.526 0 0 1-5.244 1.173 4.773 4.773 0 0 1-3.036-.828 4.112 4.112 0 0 1-1.38-1.794 11.822 11.822 0 0 1-3.485 1.794 16.286 16.286 0 0 1-5.485.828 6.666 6.666 0 0 1-4.658-1.38 5.018 5.018 0 0 1-1.483-3.864 16.918 16.918 0 0 1 1.725-6.693l7.314-16.49h10.35l-8.97 20.079a6.124 6.124 0 0 0-.552 2.345q0 1.105.966 1.1 1.517 0 2.9-3.035l10.212-23.047 8.763 4.762-7.312 16.498a2.744 2.744 0 0 0-.276 1.242q0 1.035 1.242 1.035a6.278 6.278 0 0 0 2.657-.759 20.694 20.694 0 0 0 3.07-1.863 21.3 21.3 0 0 0 2.76-2.38 10.749 10.749 0 0 0 1.794-2.311z" class="cls-1"/>
            <path id="Path_602" d="M659.31 8064.652a18.53 18.53 0 0 1-4.071 4.9 29 29 0 0 1-5.693 3.829 30.037 30.037 0 0 1-6.658 2.484 29.215 29.215 0 0 1-6.97.862 11.43 11.43 0 0 1-3.829-.621 9.327 9.327 0 0 1-3.036-1.724 8.5 8.5 0 0 1-2-2.485 6.285 6.285 0 0 1-.724-2.967v-.758a6.939 6.939 0 0 1-1.449 1.172q-.968.622-1.587 1.036a6.916 6.916 0 0 1-.345-1.794 5.087 5.087 0 0 1 1.276-2.968 43.98 43.98 0 0 0 2.519-3.656q1.172-1.864 2.208-3.209t2.1-2.519q1.07-1.171 2.243-2.242t2.553-2.312c-.047-.321-.081-.587-.1-.794a9.237 9.237 0 0 1-.034-.931 12.906 12.906 0 0 1 .655-4.106 10.781 10.781 0 0 1 1.829-3.415 9 9 0 0 1 2.794-2.311 7.453 7.453 0 0 1 3.553-.863 5.207 5.207 0 0 1 2.9.725 3.026 3.026 0 0 1 1.1 2.726 7.782 7.782 0 0 1-.138 1.38 5.659 5.659 0 0 1-.656 1.69 14.542 14.542 0 0 1-1.483 2.1 26.434 26.434 0 0 1-2.553 2.623q5.589 7.037 5.589 10.9a9.912 9.912 0 0 1-7.038 10 19.516 19.516 0 0 0 3.9-1.07 27.522 27.522 0 0 0 4.175-2 22.985 22.985 0 0 0 3.864-2.829 15.964 15.964 0 0 0 2.967-3.552zm-21.8-8.073a25.058 25.058 0 0 0-2.45 1.967 14.359 14.359 0 0 0-2.518 3.07 11.673 11.673 0 0 0-1.553 3.174 9.907 9.907 0 0 0-.38 2.622 2.148 2.148 0 0 0 .587 1.69 3.09 3.09 0 0 0 2.036.518 4.223 4.223 0 0 0 2.208-.621 6.089 6.089 0 0 0 1.759-1.587 7.794 7.794 0 0 0 1.138-2.173 7.28 7.28 0 0 0 .415-2.381 18.032 18.032 0 0 0-.345-3.657 9.152 9.152 0 0 0-.901-2.622zm4.347-9.659a5.309 5.309 0 0 0 1.793-1.657 2.824 2.824 0 0 0 .346-1.242c0-.459-.207-.69-.621-.69q-1.656 0-1.656 2.07 0 .207.034.725a4.694 4.694 0 0 0 .1.794z" class="cls-1"/>
            <path id="Path_603" d="M679.25 8064.652a12.973 12.973 0 0 1-3.209 4.209 31.027 31.027 0 0 1-5.278 3.9 33.008 33.008 0 0 1-6.21 2.863 18.712 18.712 0 0 1-6 1.1 4.789 4.789 0 0 1-3.692-1.449 4.894 4.894 0 0 1-1.345-3.45 7.747 7.747 0 0 1 .172-1.484 6.69 6.69 0 0 1 .587-1.69l7.452-16.767h-2.967l1.725-3.864h2.9l9.591-21.321 11.73-.759-9.8 22.08h3.1l-1.725 3.864h-3.105L666 8067.9a2.658 2.658 0 0 0-.345 1.1c0 .369.229.553.69.553a6.913 6.913 0 0 0 2.863-.759 20.209 20.209 0 0 0 3.209-1.9 21.82 21.82 0 0 0 2.9-2.483 10.35 10.35 0 0 0 1.863-2.449z" class="cls-1"/>
            <path id="Path_604" d="M714.784 8053.819q-3.8 4-11.868 4.83a61.344 61.344 0 0 1-4.554 9.591 20.439 20.439 0 0 1-4.589 5.451 12.473 12.473 0 0 1-5.071 2.449 27.575 27.575 0 0 1-5.865.587q-5.037 0-7.038-1.483a4.756 4.756 0 0 1-2-4.037 15.1 15.1 0 0 1 1.724-6.141l3.175-6.9a31.92 31.92 0 0 1 3-5.244 16 16 0 0 1 3.243-3.416 11.223 11.223 0 0 1 3.519-1.829 13.171 13.171 0 0 1 3.83-.551c.781 0 1.38.011 1.793.034a4.035 4.035 0 0 1 1.036.173 8.743 8.743 0 0 1 6.141-2.278 5.154 5.154 0 0 1 3.449.966 3.474 3.474 0 0 1 1.1 2.76 11.41 11.41 0 0 1-1.241 4.623q.688.14 1.207.242a5.118 5.118 0 0 0 1 .1 9.283 9.283 0 0 0 2.932-.518 11.6 11.6 0 0 0 3.278-1.829zm-20.976 2.07a2.363 2.363 0 0 1-1-1.208 4.589 4.589 0 0 1-.31-1.69 5.222 5.222 0 0 1 .069-.966 3.58 3.58 0 0 0-1.208 1 9.571 9.571 0 0 0-1.138 2.173l-6.348 14.49a3.363 3.363 0 0 0-.345 1.38q0 1.313 1.173 1.312a2.524 2.524 0 0 0 1.483-.518 3.951 3.951 0 0 0 1.208-1.483zm6.762-3.1a4.184 4.184 0 0 0 .379-.9 3.714 3.714 0 0 0 .173-1.1 2.394 2.394 0 0 0-.242-1.139.9.9 0 0 0-.862-.448q-1.656 0-1.656 1.587 0 1.997 2.208 1.995z" class="cls-1"/>
            <path id="Path_605" d="M758.322 8064.652a12.8 12.8 0 0 1-3.242 4.209 31.647 31.647 0 0 1-5.348 3.9 33.579 33.579 0 0 1-6.279 2.863 18.844 18.844 0 0 1-5.969 1.1 5.3 5.3 0 0 1-3.726-1.208 4.148 4.148 0 0 1-1.311-3.208 10.288 10.288 0 0 1 .863-3.45q.863-2.208 2.07-4.83t2.518-5.244q1.309-2.621 2.14-4.692a8.854 8.854 0 0 0 .275-.965 3.213 3.213 0 0 0 .069-.621q0-.829-.965-.829a2.514 2.514 0 0 0-2.623 1.725l-10.211 23.115h-11.455l10.143-22.769a4.036 4.036 0 0 0 .208-.691 3.032 3.032 0 0 0 .068-.551q0-.829-1.035-.829a2.566 2.566 0 0 0-1.483.449 2.8 2.8 0 0 0-1 1.276l-10.28 23.115h-11.524l13.661-30.774 7.314 3.8a10.248 10.248 0 0 1 3.45-1.795 19.419 19.419 0 0 1 5.52-.62 5.745 5.745 0 0 1 3.278.862 4.243 4.243 0 0 1 1.691 1.966 9.14 9.14 0 0 1 4.45-2.312 26.952 26.952 0 0 1 5.416-.516 5.544 5.544 0 0 1 4.037 1.38 5.06 5.06 0 0 1 1.415 3.795 10.473 10.473 0 0 1-.553 3.07 38.8 38.8 0 0 1-1.38 3.691q-.826 1.932-1.759 3.9t-1.621 3.691a3.766 3.766 0 0 0-.483 1.587q0 1.035 1.241 1.035a6.491 6.491 0 0 0 2.691-.759 19.828 19.828 0 0 0 3.1-1.863 21.226 21.226 0 0 0 2.76-2.38 8.922 8.922 0 0 0 1.726-2.311z" class="cls-1"/>
            <path id="Path_606" d="M785.507 8032.636a3.677 3.677 0 0 0 .345-1.311q0-1.449-2.829-1.448h-.69q-2.139 0-2.139-1.864a2.517 2.517 0 0 1 1.242-2.242q1.242-.792 5.106-.794a35.524 35.524 0 0 1 7.038.587 5.755 5.755 0 0 1 3.864 2.173 15.122 15.122 0 0 1 4.347-2.069 19.377 19.377 0 0 1 5.451-.691q10.486 0 10.488 6.9a9.26 9.26 0 0 1-1.38 4.657 20.65 20.65 0 0 1-3.761 4.623 33.97 33.97 0 0 1-5.52 4.174 41.67 41.67 0 0 1-6.658 3.312 8.481 8.481 0 0 1 4.106 2.692 6.865 6.865 0 0 1 1.621 4.553 16.864 16.864 0 0 1-2.346 8.867 20.374 20.374 0 0 1-6.382 6.554 30.934 30.934 0 0 1-9.488 4.037 47.046 47.046 0 0 1-11.592 1.38h-3.484q-1.692 0-3.14-.034t-2.45-.069a10.469 10.469 0 0 1-1.345-.1zm-5.106 38.088a2.248 2.248 0 0 0 1.242.277 8.482 8.482 0 0 0 4.278-1.346 19.149 19.149 0 0 0 4.244-3.45 20.25 20.25 0 0 0 3.277-4.693 11.055 11.055 0 0 0 1.311-5q0-3.655-5.313-6.072zm10.35-23.184q7.245-2.07 10.005-5.313a44.63 44.63 0 0 0 3.691-5.244 8.982 8.982 0 0 0 1.277-4.554q0-2.692-3.174-2.691a5.329 5.329 0 0 0-3.346 1.035 8.136 8.136 0 0 0-2.312 3.174z" class="cls-1"/>
            <path id="Path_607" d="M846.5 8064.652a13.3 13.3 0 0 1-3.07 4 32.677 32.677 0 0 1-5.072 3.934 34.572 34.572 0 0 1-5.8 2.966 14.53 14.53 0 0 1-5.244 1.173 4.773 4.773 0 0 1-3.036-.828 4.112 4.112 0 0 1-1.38-1.794 11.824 11.824 0 0 1-3.485 1.794 16.285 16.285 0 0 1-5.485.828 6.666 6.666 0 0 1-4.658-1.38 5.018 5.018 0 0 1-1.483-3.864 16.919 16.919 0 0 1 1.725-6.693l7.314-16.49h10.35l-8.97 20.079a6.122 6.122 0 0 0-.552 2.345q0 1.105.966 1.1 1.516 0 2.9-3.035l10.212-23.047 8.763 4.762-7.309 16.498a2.732 2.732 0 0 0-.276 1.242q0 1.035 1.242 1.035a6.282 6.282 0 0 0 2.657-.759 20.7 20.7 0 0 0 3.07-1.863 21.3 21.3 0 0 0 2.76-2.38 10.747 10.747 0 0 0 1.794-2.311z" class="cls-1"/>
            <path id="Path_608" d="M877 8064.652a18.507 18.507 0 0 1-4.07 4.9 28.994 28.994 0 0 1-5.693 3.829 30.037 30.037 0 0 1-6.658 2.484 29.221 29.221 0 0 1-6.97.862 11.426 11.426 0 0 1-3.829-.621 9.326 9.326 0 0 1-3.036-1.724 8.5 8.5 0 0 1-2-2.485 6.286 6.286 0 0 1-.724-2.967v-.758a6.937 6.937 0 0 1-1.449 1.172q-.968.622-1.588 1.036a6.951 6.951 0 0 1-.344-1.794 5.08 5.08 0 0 1 1.276-2.968 44.2 44.2 0 0 0 2.519-3.656q1.172-1.864 2.208-3.209t2.1-2.519q1.07-1.171 2.243-2.242t2.553-2.312c-.047-.321-.081-.587-.1-.794a9.219 9.219 0 0 1-.034-.931 12.906 12.906 0 0 1 .655-4.106 10.78 10.78 0 0 1 1.829-3.415 8.988 8.988 0 0 1 2.794-2.311 7.453 7.453 0 0 1 3.553-.863 5.209 5.209 0 0 1 2.9.725 3.026 3.026 0 0 1 1.1 2.726 7.875 7.875 0 0 1-.138 1.38 5.657 5.657 0 0 1-.656 1.69 14.471 14.471 0 0 1-1.484 2.1 26.3 26.3 0 0 1-2.552 2.623q5.589 7.037 5.589 10.9a9.912 9.912 0 0 1-7.038 10 19.515 19.515 0 0 0 3.9-1.07 27.521 27.521 0 0 0 4.175-2 22.986 22.986 0 0 0 3.864-2.829 15.964 15.964 0 0 0 2.967-3.552zm-21.8-8.073a24.935 24.935 0 0 0-2.45 1.967 14.36 14.36 0 0 0-2.518 3.07 11.671 11.671 0 0 0-1.553 3.174 9.9 9.9 0 0 0-.38 2.622 2.148 2.148 0 0 0 .587 1.69 3.086 3.086 0 0 0 2.035.518 4.217 4.217 0 0 0 2.208-.621 6.08 6.08 0 0 0 1.76-1.587 7.791 7.791 0 0 0 1.138-2.173 7.277 7.277 0 0 0 .414-2.381 18.035 18.035 0 0 0-.344-3.657 9.184 9.184 0 0 0-.897-2.622zm4.346-9.659a5.3 5.3 0 0 0 1.794-1.657 2.823 2.823 0 0 0 .346-1.242c0-.459-.207-.69-.621-.69q-1.656 0-1.656 2.07 0 .207.034.725a4.823 4.823 0 0 0 .1.794z" class="cls-1"/>
            <path id="Path_609" d="M896.871 8064.652a13.29 13.29 0 0 1-3.208 4.141 30.615 30.615 0 0 1-5.313 3.9 35.3 35.3 0 0 1-6.279 2.9 18.542 18.542 0 0 1-6.038 1.138 5.375 5.375 0 0 1-3.622-1.208 4.079 4.079 0 0 1-1.415-3.277 7.7 7.7 0 0 1 .9-3.449l10.281-23.047 8.694 4.762-7.317 16.488a3.627 3.627 0 0 0-.345 1.242q0 1.035 1.173 1.035a6.584 6.584 0 0 0 2.76-.759 19.828 19.828 0 0 0 3.1-1.863 21.3 21.3 0 0 0 2.76-2.38 8.915 8.915 0 0 0 1.725-2.311zm1.1-28.7a3.7 3.7 0 0 1-.862 2.381 7.438 7.438 0 0 1-2.139 1.794 12.126 12.126 0 0 1-2.795 1.138 10.8 10.8 0 0 1-2.829.415 6.434 6.434 0 0 1-3.208-.794 2.414 2.414 0 0 1-1.415-2.173 3.72 3.72 0 0 1 .759-2.174 7.537 7.537 0 0 1 2-1.9 10.923 10.923 0 0 1 2.76-1.311 10.194 10.194 0 0 1 3.1-.483 6.23 6.23 0 0 1 3.209.829 2.536 2.536 0 0 1 1.424 2.274z" class="cls-1"/>
            <path id="Path_610" d="M931.508 8064.652a12.8 12.8 0 0 1-3.242 4.209 31.646 31.646 0 0 1-5.348 3.9 33.581 33.581 0 0 1-6.279 2.863 18.844 18.844 0 0 1-5.969 1.1 5.3 5.3 0 0 1-3.726-1.208 4.148 4.148 0 0 1-1.311-3.208 10.288 10.288 0 0 1 .863-3.45q.863-2.208 2.07-4.83t2.518-5.244q1.311-2.621 2.14-4.692a9.14 9.14 0 0 0 .276-.965 3.288 3.288 0 0 0 .068-.621q0-.829-.965-.829a2.844 2.844 0 0 0-1.587.449 2.723 2.723 0 0 0-1.036 1.276l-10.211 23.115h-11.523l13.661-30.774 7.245 3.8a7.574 7.574 0 0 1 4.209-2.036 32.114 32.114 0 0 1 4.83-.379 5.544 5.544 0 0 1 4.037 1.38 5.06 5.06 0 0 1 1.415 3.795 10.473 10.473 0 0 1-.553 3.07 39.106 39.106 0 0 1-1.38 3.691q-.828 1.932-1.759 3.9t-1.621 3.691a3.77 3.77 0 0 0-.484 1.587q0 1.035 1.242 1.035a6.491 6.491 0 0 0 2.691-.759 19.825 19.825 0 0 0 3.1-1.863 21.306 21.306 0 0 0 2.761-2.38 8.937 8.937 0 0 0 1.725-2.311z" class="cls-1"/>
            <path id="Path_611" d="M960.765 8064.652a13.538 13.538 0 0 1-2.277 3.243 20.712 20.712 0 0 1-3.657 3.106 33.192 33.192 0 0 1-7.866 4.277 26.056 26.056 0 0 1-9.039 1.449q-2.762 0-4.865-.173a11.381 11.381 0 0 1-3.553-.793A4.875 4.875 0 0 1 927.3 8074a5.458 5.458 0 0 1-.759-3.071q0-2.828 2.139-7.728l2.552-5.727a25.189 25.189 0 0 1 2.692-4.8 12.573 12.573 0 0 1 3.415-3.208 13.881 13.881 0 0 1 4.554-1.794 29.592 29.592 0 0 1 6.107-.551 26.461 26.461 0 0 1 4.45.309 8.63 8.63 0 0 1 2.726.864 3.107 3.107 0 0 1 1.345 1.379 4.436 4.436 0 0 1 .379 1.864 17.446 17.446 0 0 1-.517 3.932 11.263 11.263 0 0 1-2.1 4.279 8.289 8.289 0 0 1-3 2.38 20.259 20.259 0 0 1-4.174 1.483 38.8 38.8 0 0 1-4.589.828q-2.313.278-4.243.345-.828 1.8-1.277 3.071a6.627 6.627 0 0 0-.449 2.1q0 1.862 2.554 1.862a23.289 23.289 0 0 0 5.8-.759 27.481 27.481 0 0 0 5.623-2.1 24.971 24.971 0 0 0 4.795-3.14 14.262 14.262 0 0 0 3.312-3.863zm-21.045-3.518a7.857 7.857 0 0 0 5.175-2.623 8.385 8.385 0 0 0 1.518-2.552 8.678 8.678 0 0 0 .552-3.106q0-.9-1.311-.9a2.336 2.336 0 0 0-1.484.517 6.118 6.118 0 0 0-1.414 2.174z" class="cls-1"/>
            <path id="Path_612" d="M991.193 8064.652a18.492 18.492 0 0 1-4.071 4.9 28.988 28.988 0 0 1-5.692 3.829 30.063 30.063 0 0 1-6.659 2.484 29.193 29.193 0 0 1-6.968.862 11.432 11.432 0 0 1-3.83-.621 9.327 9.327 0 0 1-3.036-1.724 8.482 8.482 0 0 1-2-2.485 6.286 6.286 0 0 1-.725-2.967v-.758a6.9 6.9 0 0 1-1.448 1.172q-.968.622-1.588 1.036a6.951 6.951 0 0 1-.344-1.794 5.08 5.08 0 0 1 1.276-2.968 43.963 43.963 0 0 0 2.518-3.656q1.173-1.864 2.208-3.209t2.1-2.519q1.07-1.171 2.244-2.242t2.552-2.312c-.046-.321-.081-.587-.1-.794a8.934 8.934 0 0 1-.034-.931 12.879 12.879 0 0 1 .655-4.106 10.779 10.779 0 0 1 1.828-3.415 9 9 0 0 1 2.8-2.311 7.454 7.454 0 0 1 3.554-.863 5.2 5.2 0 0 1 2.9.725 3.024 3.024 0 0 1 1.1 2.726 7.79 7.79 0 0 1-.139 1.38 5.626 5.626 0 0 1-.655 1.69 14.471 14.471 0 0 1-1.484 2.1 26.3 26.3 0 0 1-2.552 2.623q5.588 7.037 5.588 10.9a9.909 9.909 0 0 1-7.038 10 19.488 19.488 0 0 0 3.9-1.07 27.521 27.521 0 0 0 4.175-2 22.986 22.986 0 0 0 3.864-2.829 15.99 15.99 0 0 0 2.967-3.552zm-21.8-8.073a24.935 24.935 0 0 0-2.45 1.967 14.362 14.362 0 0 0-2.518 3.07 11.671 11.671 0 0 0-1.553 3.174 9.865 9.865 0 0 0-.38 2.622 2.148 2.148 0 0 0 .587 1.69 3.086 3.086 0 0 0 2.035.518 4.215 4.215 0 0 0 2.208-.621 6.066 6.066 0 0 0 1.76-1.587 7.848 7.848 0 0 0 1.139-2.173 7.332 7.332 0 0 0 .414-2.381 17.886 17.886 0 0 0-.346-3.657 9.154 9.154 0 0 0-.899-2.622zm4.346-9.659a5.316 5.316 0 0 0 1.794-1.657 2.821 2.821 0 0 0 .345-1.242c0-.459-.206-.69-.62-.69q-1.657 0-1.656 2.07c0 .138.01.38.034.725a4.719 4.719 0 0 0 .1.794z" class="cls-1"/>
            <path id="Path_613" d="M1021.69 8064.652a18.493 18.493 0 0 1-4.071 4.9 28.958 28.958 0 0 1-5.692 3.829 30.073 30.073 0 0 1-6.658 2.484 29.207 29.207 0 0 1-6.969.862 11.432 11.432 0 0 1-3.83-.621 9.326 9.326 0 0 1-3.036-1.724 8.481 8.481 0 0 1-2-2.485 6.286 6.286 0 0 1-.724-2.967v-.758a6.937 6.937 0 0 1-1.449 1.172q-.968.622-1.587 1.036a6.885 6.885 0 0 1-.346-1.794 5.083 5.083 0 0 1 1.277-2.968 43.729 43.729 0 0 0 2.518-3.656q1.173-1.864 2.208-3.209t2.1-2.519q1.068-1.171 2.243-2.242t2.552-2.312c-.045-.321-.081-.587-.1-.794a9.219 9.219 0 0 1-.034-.931 12.906 12.906 0 0 1 .655-4.106 10.8 10.8 0 0 1 1.828-3.415 9 9 0 0 1 2.795-2.311 7.454 7.454 0 0 1 3.554-.863 5.2 5.2 0 0 1 2.9.725 3.024 3.024 0 0 1 1.1 2.726 7.79 7.79 0 0 1-.139 1.38 5.6 5.6 0 0 1-.655 1.69 14.471 14.471 0 0 1-1.484 2.1 26.3 26.3 0 0 1-2.552 2.623q5.588 7.037 5.589 10.9a9.911 9.911 0 0 1-7.039 10 19.487 19.487 0 0 0 3.9-1.07 27.521 27.521 0 0 0 4.175-2 22.986 22.986 0 0 0 3.864-2.829 15.964 15.964 0 0 0 2.967-3.552zm-21.8-8.073a24.935 24.935 0 0 0-2.45 1.967 14.36 14.36 0 0 0-2.518 3.07 11.671 11.671 0 0 0-1.553 3.174 9.865 9.865 0 0 0-.38 2.622 2.148 2.148 0 0 0 .587 1.69 3.086 3.086 0 0 0 2.035.518 4.215 4.215 0 0 0 2.208-.621 6.066 6.066 0 0 0 1.76-1.587 7.848 7.848 0 0 0 1.139-2.173 7.332 7.332 0 0 0 .414-2.381 17.89 17.89 0 0 0-.346-3.657 9.156 9.156 0 0 0-.899-2.622zm4.346-9.659a5.315 5.315 0 0 0 1.794-1.657 2.82 2.82 0 0 0 .345-1.242c0-.459-.206-.69-.62-.69q-1.658 0-1.656 2.07c0 .138.01.38.034.725a4.72 4.72 0 0 0 .1.794z" class="cls-1"/>
            <path id="Path_614" d="M1029.348 8076.52l19.458-43.884a3.693 3.693 0 0 0 .344-1.311q0-1.449-2.829-1.448h-.689q-2.141 0-2.14-1.864a2.517 2.517 0 0 1 1.242-2.242q1.242-.792 5.107-.794a33.543 33.543 0 0 1 7.038.621 5.867 5.867 0 0 1 3.863 2.208 12.947 12.947 0 0 1 4.175-2.1 19.361 19.361 0 0 1 5.623-.725q5.313 0 7.659 1.518a4.939 4.939 0 0 1 2.347 4.416 12.718 12.718 0 0 1-1.381 5.244l-7.728 17.112a21.352 21.352 0 0 1-7.9 9.384q-5.142 3.312-13.628 3.313a35.82 35.82 0 0 1-3.8-.207l-4.83 10.763zm37.95-39.33q.965-2.276 1.276-3.311a6.127 6.127 0 0 0 .311-1.657 2.367 2.367 0 0 0-.725-1.794 3.266 3.266 0 0 0-2.311-.69 5.494 5.494 0 0 0-5.382 3.588L1048.185 8061q.55.07 1.035.1c.321.025.621.036.9.036a9.22 9.22 0 0 0 5.728-1.726 15.336 15.336 0 0 0 4.209-6.071z" class="cls-1"/>
            <path id="Path_615" d="M1105.247 8064.652a13.3 13.3 0 0 1-3.209 4.141 30.6 30.6 0 0 1-5.312 3.9 35.281 35.281 0 0 1-6.28 2.9 18.538 18.538 0 0 1-6.038 1.138 5.059 5.059 0 0 1-3.725-1.242 4.657 4.657 0 0 1-1.243-3.45 7.829 7.829 0 0 1 .38-2.173 27.352 27.352 0 0 1 .966-2.691q.586-1.414 1.311-2.9t1.415-2.795a34.351 34.351 0 0 0 1.863-3.829 5.949 5.949 0 0 0 .414-1.484q0-.483-1.311-1.034l-1.45-.621a27.763 27.763 0 0 1-5.382 8.9q-2 2.277-3.553 3.795a25.154 25.154 0 0 1-2.794 2.415 10.056 10.056 0 0 1-2.243 1.277 5.2 5.2 0 0 1-1.828.379l-.966-2.415a7 7 0 0 0 1.449-1.725 77.826 77.826 0 0 0 5.071-10.626q2.173-5.588 4.106-11.178l16.836 9.522a4.486 4.486 0 0 1 1.483 1.311 2.427 2.427 0 0 1 .448 1.311 5.556 5.556 0 0 1-.621 2.174q-.62 1.345-1.414 2.9t-1.414 3.1a7.389 7.389 0 0 0-.621 2.656q0 .968 1.1.966a6.6 6.6 0 0 0 2.726-.724 19.863 19.863 0 0 0 3.106-1.829 20.288 20.288 0 0 0 2.793-2.38 9.865 9.865 0 0 0 1.794-2.38z" class="cls-1"/>
            <path id="Path_616" d="M1140.713 8053.819q-3.8 4-11.868 4.83a61.345 61.345 0 0 1-4.554 9.591 20.44 20.44 0 0 1-4.589 5.451 12.472 12.472 0 0 1-5.071 2.449 27.575 27.575 0 0 1-5.865.587q-5.039 0-7.038-1.483a4.758 4.758 0 0 1-2-4.037 15.085 15.085 0 0 1 1.725-6.141l3.174-6.9a32 32 0 0 1 3-5.244 16.032 16.032 0 0 1 3.243-3.416 11.216 11.216 0 0 1 3.52-1.829 13.155 13.155 0 0 1 3.829-.551q1.173 0 1.794.034a4.042 4.042 0 0 1 1.035.173 8.742 8.742 0 0 1 6.14-2.278 5.16 5.16 0 0 1 3.451.966 3.477 3.477 0 0 1 1.1 2.76 11.414 11.414 0 0 1-1.242 4.623q.688.14 1.207.242a5.124 5.124 0 0 0 1 .1 9.289 9.289 0 0 0 2.933-.518 11.576 11.576 0 0 0 3.277-1.829zm-20.976 2.07a2.363 2.363 0 0 1-1-1.208 4.591 4.591 0 0 1-.31-1.69 5.133 5.133 0 0 1 .069-.966 3.59 3.59 0 0 0-1.208 1 9.568 9.568 0 0 0-1.139 2.173l-6.347 14.49a3.362 3.362 0 0 0-.345 1.38q0 1.313 1.173 1.312a2.523 2.523 0 0 0 1.483-.518 3.943 3.943 0 0 0 1.208-1.483zm6.762-3.1a4.193 4.193 0 0 0 .379-.9 3.682 3.682 0 0 0 .173-1.1 2.407 2.407 0 0 0-.241-1.139.9.9 0 0 0-.863-.448q-1.656 0-1.656 1.587 0 1.997 2.209 1.995z" class="cls-1"/>
            <path id="Path_617" d="M1143.748 8082.868q-2.967 6.554-12.351 6.556-4.071 0-5.865-1.415a4.839 4.839 0 0 1-1.794-4.037 12.651 12.651 0 0 1 1.173-4.83l20.7-46.368a11.725 11.725 0 0 1 5.589-6.106 21.972 21.972 0 0 1 9.316-1.691 8.511 8.511 0 0 1 4.829 1.139 3.668 3.668 0 0 1 1.656 3.208 9.22 9.22 0 0 1-.759 3.243l-8.763 19.527a25.079 25.079 0 0 1-2.07 3.726 37.091 37.091 0 0 1-2.622 3.484 22.891 22.891 0 0 1-2.8 2.795 11.061 11.061 0 0 1-2.724 1.725 5.245 5.245 0 0 0 1.379 2.761 3.556 3.556 0 0 0 2.623 1.034 6.238 6.238 0 0 0 1.724-.311 10.36 10.36 0 0 0 2.174-.965 11.451 11.451 0 0 0 2.242-1.725 13.35 13.35 0 0 0 2.07-2.656l2.07 2.69a13.258 13.258 0 0 1-5.106 5.658 13.035 13.035 0 0 1-6.831 2 15.183 15.183 0 0 1-1.725-.069 4.955 4.955 0 0 1-.966-.207 2.474 2.474 0 0 1 .207 1.1 10.528 10.528 0 0 1-.311 2.312 15.933 15.933 0 0 1-1.069 3zm-2.9-7.245a13.053 13.053 0 0 0 1.172-4.829q0-1.657-1.035-2l-5.727 12.764a5.8 5.8 0 0 0-.414 1.1 2.9 2.9 0 0 0-.069.483c0 .414.252.621.759.621a2.35 2.35 0 0 0 2.277-1.449zm19.458-43.538a1.565 1.565 0 0 0 .137-.691q0-.827-1.173-.828a1.769 1.769 0 0 0-1.656 1.1l-12.143 27.185a8.151 8.151 0 0 0 2.9-2.174 17.992 17.992 0 0 0 2.967-4.588z" class="cls-1"/>
            <path id="Path_618" d="M1181.422 8064.652a13.305 13.305 0 0 1-3.208 4.141 30.623 30.623 0 0 1-5.314 3.9 35.269 35.269 0 0 1-6.279 2.9 18.531 18.531 0 0 1-6.037 1.138 5.371 5.371 0 0 1-3.622-1.208 4.082 4.082 0 0 1-1.415-3.277 7.7 7.7 0 0 1 .9-3.449l10.281-23.047 8.694 4.762L1168.1 8067a3.644 3.644 0 0 0-.344 1.242q0 1.035 1.173 1.035a6.583 6.583 0 0 0 2.76-.759 19.87 19.87 0 0 0 3.1-1.863 21.287 21.287 0 0 0 2.76-2.38 8.912 8.912 0 0 0 1.725-2.311zm1.1-28.7a3.7 3.7 0 0 1-.863 2.381 7.411 7.411 0 0 1-2.139 1.794 12.092 12.092 0 0 1-2.8 1.138 10.79 10.79 0 0 1-2.828.415 6.44 6.44 0 0 1-3.209-.794 2.415 2.415 0 0 1-1.414-2.173 3.721 3.721 0 0 1 .759-2.174 7.537 7.537 0 0 1 2-1.9 10.908 10.908 0 0 1 2.76-1.311 10.2 10.2 0 0 1 3.1-.483 6.224 6.224 0 0 1 3.208.829 2.536 2.536 0 0 1 1.43 2.274z" class="cls-1"/>
            <path id="Path_619" d="M1206.261 8064.652a15.061 15.061 0 0 1-3.243 4.347 26.6 26.6 0 0 1-5.175 3.864 30.5 30.5 0 0 1-6.487 2.8 24.738 24.738 0 0 1-7.245 1.069 8.08 8.08 0 0 1-5.623-1.9 6.178 6.178 0 0 1-2.1-4.8 8.477 8.477 0 0 1 .173-1.691 7.845 7.845 0 0 1 .586-1.758l14.628-32.845a14.115 14.115 0 0 1 5.727-6.728 18.6 18.6 0 0 1 9.246-2.035 9.447 9.447 0 0 1 5 1.1 3.653 3.653 0 0 1 1.76 3.312 6.733 6.733 0 0 1-.277 1.76 25.278 25.278 0 0 1-1.1 2.933l-4.071 8.969a26.434 26.434 0 0 1-15.387 14.421l-4.141 9.246a3.351 3.351 0 0 0-.414 1.45q0 .827 1.278 1.276a7.535 7.535 0 0 0 2.518.448 9.2 9.2 0 0 0 3.449-.724 18.836 18.836 0 0 0 3.485-1.864 20.778 20.778 0 0 0 3.1-2.552 12.673 12.673 0 0 0 2.174-2.794zm-.277-30.5q.554-1.241.725-1.76a2.858 2.858 0 0 0 .173-.862q0-.688-1.035-.689a1.907 1.907 0 0 0-1.864 1.242l-8.625 19.044a8.064 8.064 0 0 0 3.347-2.761 24.385 24.385 0 0 0 3.14-5.313z" class="cls-1"/>
            <path id="Path_620" d="M1235.516 8064.652a13.516 13.516 0 0 1-2.278 3.243 20.634 20.634 0 0 1-3.656 3.106 33.154 33.154 0 0 1-7.866 4.277 26.055 26.055 0 0 1-9.039 1.449q-2.761 0-4.865-.173a11.381 11.381 0 0 1-3.553-.793 4.88 4.88 0 0 1-2.208-1.759 5.457 5.457 0 0 1-.759-3.071q0-2.828 2.139-7.728l2.552-5.727a25.186 25.186 0 0 1 2.692-4.8 12.572 12.572 0 0 1 3.415-3.208 13.877 13.877 0 0 1 4.555-1.794 29.568 29.568 0 0 1 6.106-.551 26.454 26.454 0 0 1 4.45.309 8.63 8.63 0 0 1 2.726.864 3.107 3.107 0 0 1 1.345 1.379 4.435 4.435 0 0 1 .379 1.864 17.449 17.449 0 0 1-.517 3.932 11.253 11.253 0 0 1-2.1 4.279 8.277 8.277 0 0 1-3 2.38 20.238 20.238 0 0 1-4.174 1.483 38.757 38.757 0 0 1-4.589.828q-2.312.278-4.244.345-.827 1.8-1.276 3.071a6.621 6.621 0 0 0-.448 2.1q0 1.862 2.553 1.862a23.289 23.289 0 0 0 5.8-.759 27.51 27.51 0 0 0 5.624-2.1 25 25 0 0 0 4.794-3.14 14.283 14.283 0 0 0 3.313-3.863zm-21.045-3.518a7.857 7.857 0 0 0 5.175-2.623 8.383 8.383 0 0 0 1.518-2.552 8.677 8.677 0 0 0 .552-3.106q0-.9-1.312-.9a2.334 2.334 0 0 0-1.483.517 6.132 6.132 0 0 0-1.414 2.174z" class="cls-1"/>
            <path id="Path_621" d="M1243.1 8076.52l19.458-43.884a3.677 3.677 0 0 0 .345-1.311q0-1.449-2.829-1.448h-.689q-2.141 0-2.14-1.864a2.517 2.517 0 0 1 1.242-2.242q1.242-.792 5.107-.794a33.548 33.548 0 0 1 7.038.621 5.868 5.868 0 0 1 3.863 2.208 12.946 12.946 0 0 1 4.175-2.1 19.361 19.361 0 0 1 5.623-.725q5.313 0 7.659 1.518a4.939 4.939 0 0 1 2.347 4.416 12.716 12.716 0 0 1-1.381 5.244l-7.728 17.112a21.352 21.352 0 0 1-7.9 9.384q-5.142 3.312-13.628 3.313a35.822 35.822 0 0 1-3.8-.207l-4.83 10.763zm37.951-39.33q.964-2.276 1.276-3.311a6.13 6.13 0 0 0 .311-1.657 2.37 2.37 0 0 0-.725-1.794 3.267 3.267 0 0 0-2.312-.69 5.494 5.494 0 0 0-5.381 3.588L1261.941 8061q.552.07 1.036.1c.321.025.621.036.9.036a9.22 9.22 0 0 0 5.728-1.726 15.336 15.336 0 0 0 4.209-6.071z" class="cls-1"/>
            <path id="Path_622" d="M1322.386 8064.652a14.947 14.947 0 0 1-3.381 4.313 29.851 29.851 0 0 1-5.314 3.9 32.673 32.673 0 0 1-6.21 2.8 19.063 19.063 0 0 1-5.933 1.069 2.657 2.657 0 0 1-1.967-.724 3.451 3.451 0 0 1-.932-1.9 10.889 10.889 0 0 1-3.277 1.932 14.578 14.578 0 0 1-5 .69 7.38 7.38 0 0 1-4.657-1.414 5.106 5.106 0 0 1-1.828-4.312 15.811 15.811 0 0 1 .828-4.486 34.1 34.1 0 0 1 2.414-5.727 51.357 51.357 0 0 1 3.968-6.8 21.412 21.412 0 0 1 3.76-4.175 11.4 11.4 0 0 1 3.726-2.1 12.783 12.783 0 0 1 3.864-.586 7.659 7.659 0 0 1 4.036.793 6.692 6.692 0 0 1 1.967 1.966l.691-1.586h8.211l-7.245 16.214q-.76 1.726-1.07 2.45a3.313 3.313 0 0 0-.31 1.276c0 .69.389 1.035 1.172 1.035a6.58 6.58 0 0 0 2.76-.759 19.878 19.878 0 0 0 3.106-1.863 21.351 21.351 0 0 0 2.759-2.38 8.892 8.892 0 0 0 1.725-2.311zm-18.355-10.833a.788.788 0 0 0 .139-.448v-.448a1.053 1.053 0 0 0-.242-.657 1.132 1.132 0 0 0-.932-.31 2.27 2.27 0 0 0-1.621.553 4.925 4.925 0 0 0-1.069 1.724l-6.28 14.146a5.261 5.261 0 0 0-.621 2.345q0 1.105.966 1.1 1.587 0 3.036-3.035z" class="cls-1"/>
            <path id="Path_623" d="M1355.78 8064.652a12.863 12.863 0 0 1-2.483 3.45 24.8 24.8 0 0 1-3.83 3.243 27.363 27.363 0 0 1-4.243 2.415 9.3 9.3 0 0 1-3.726.966 4.233 4.233 0 0 1-2.14-.551l-2.829 6.554q-3.8 8.694-14.9 8.695-7.8 0-7.8-5.038a7.763 7.763 0 0 1 .828-3.519 10.789 10.789 0 0 1 2.243-3 15.052 15.052 0 0 1 3.278-2.347 16.163 16.163 0 0 1 3.864-1.483q-5.037-.966-5.037-6.348a14.857 14.857 0 0 1 .379-3.174 17.121 17.121 0 0 1 1.346-3.726 39.443 39.443 0 0 1 3.864-7.107 18.416 18.416 0 0 1 3.9-4.139 10.988 10.988 0 0 1 4.071-1.933 20.242 20.242 0 0 1 4.52-.482 6.64 6.64 0 0 1 3.242.723 4.11 4.11 0 0 1 1.863 2.036l.622-1.586h8.073l-7.8 17.457a6.33 6.33 0 0 0-.828 2.483q0 1.035 1.242 1.035a6.062 6.062 0 0 0 2.621-.759 21.546 21.546 0 0 0 3.036-1.863 21.24 21.24 0 0 0 2.761-2.38 10.781 10.781 0 0 0 1.794-2.311zm-27.944 9.937q-1.725 1.173-2.864 2.1a7.8 7.8 0 0 0-1.9 2.312 27.388 27.388 0 0 0-1.31 2.552 3.655 3.655 0 0 0-.345 1.311q0 .9 1.173.9a1.9 1.9 0 0 0 1.724-1.172 30.7 30.7 0 0 0 1.587-3.244q.832-1.931 1.935-4.759zm9.728-20.7a2.428 2.428 0 0 0 .207-.965q0-.966-1.242-.967a2.47 2.47 0 0 0-1.483.346 2.829 2.829 0 0 0-.793 1.1l-5.244 11.868a5.334 5.334 0 0 0-.552 2.07q0 .968.827.966a3.02 3.02 0 0 0 2.761-2.07z" class="cls-1"/>
            <path id="Path_624" d="M1385.1 8064.652a13.483 13.483 0 0 1-2.277 3.243 20.673 20.673 0 0 1-3.656 3.106 33.156 33.156 0 0 1-7.866 4.277 26.057 26.057 0 0 1-9.039 1.449q-2.761 0-4.865-.173a11.374 11.374 0 0 1-3.553-.793 4.88 4.88 0 0 1-2.208-1.759 5.458 5.458 0 0 1-.759-3.071q0-2.828 2.139-7.728l2.552-5.727a25.133 25.133 0 0 1 2.692-4.8 12.558 12.558 0 0 1 3.415-3.208 13.881 13.881 0 0 1 4.554-1.794 29.585 29.585 0 0 1 6.107-.551 26.454 26.454 0 0 1 4.45.309 8.63 8.63 0 0 1 2.726.864 3.111 3.111 0 0 1 1.345 1.379 4.435 4.435 0 0 1 .379 1.864 17.449 17.449 0 0 1-.517 3.932 11.251 11.251 0 0 1-2.1 4.279 8.277 8.277 0 0 1-3 2.38 20.222 20.222 0 0 1-4.175 1.483 38.706 38.706 0 0 1-4.588.828q-2.312.278-4.244.345-.827 1.8-1.276 3.071a6.624 6.624 0 0 0-.448 2.1q0 1.862 2.552 1.862a23.277 23.277 0 0 0 5.8-.759 27.467 27.467 0 0 0 5.624-2.1 24.969 24.969 0 0 0 4.795-3.14 14.283 14.283 0 0 0 3.313-3.863zm-21.044-3.518a7.852 7.852 0 0 0 5.174-2.623 8.366 8.366 0 0 0 1.519-2.552 8.68 8.68 0 0 0 .552-3.106q0-.9-1.312-.9a2.332 2.332 0 0 0-1.483.517 6.133 6.133 0 0 0-1.414 2.174z" class="cls-1"/>
            <path id="Path_625" d="M1415.533 8064.652a18.492 18.492 0 0 1-4.071 4.9 28.986 28.986 0 0 1-5.692 3.829 30.062 30.062 0 0 1-6.659 2.484 29.2 29.2 0 0 1-6.968.862 11.427 11.427 0 0 1-3.83-.621 9.343 9.343 0 0 1-3.037-1.724 8.515 8.515 0 0 1-2-2.485 6.3 6.3 0 0 1-.723-2.967v-.758a6.939 6.939 0 0 1-1.449 1.172q-.968.622-1.587 1.036a6.888 6.888 0 0 1-.346-1.794 5.082 5.082 0 0 1 1.277-2.968 43.743 43.743 0 0 0 2.518-3.656q1.173-1.864 2.208-3.209t2.1-2.519q1.07-1.171 2.244-2.242t2.552-2.312c-.046-.321-.081-.587-.1-.794a8.955 8.955 0 0 1-.034-.931 12.879 12.879 0 0 1 .655-4.106 10.779 10.779 0 0 1 1.828-3.415 9.006 9.006 0 0 1 2.8-2.311 7.454 7.454 0 0 1 3.554-.863 5.2 5.2 0 0 1 2.9.725 3.026 3.026 0 0 1 1.1 2.726 7.784 7.784 0 0 1-.139 1.38 5.625 5.625 0 0 1-.655 1.69 14.471 14.471 0 0 1-1.484 2.1 26.208 26.208 0 0 1-2.553 2.623q5.589 7.037 5.589 10.9a9.909 9.909 0 0 1-7.038 10 19.506 19.506 0 0 0 3.9-1.07 27.467 27.467 0 0 0 4.174-2 23.033 23.033 0 0 0 3.865-2.829 15.99 15.99 0 0 0 2.967-3.552zm-21.8-8.073a25.057 25.057 0 0 0-2.449 1.967 14.362 14.362 0 0 0-2.518 3.07 11.676 11.676 0 0 0-1.553 3.174 9.865 9.865 0 0 0-.38 2.622 2.144 2.144 0 0 0 .587 1.69 3.085 3.085 0 0 0 2.035.518 4.218 4.218 0 0 0 2.208-.621 6.067 6.067 0 0 0 1.76-1.587 7.873 7.873 0 0 0 1.139-2.173 7.33 7.33 0 0 0 .414-2.381 17.959 17.959 0 0 0-.346-3.657 9.121 9.121 0 0 0-.901-2.622zm4.347-9.659a5.315 5.315 0 0 0 1.794-1.657 2.821 2.821 0 0 0 .345-1.242c0-.459-.206-.69-.62-.69q-1.657 0-1.657 2.07c0 .138.011.38.035.725a4.712 4.712 0 0 0 .099.794z" class="cls-1"/>
            <path id="Path_626" d="M550.083 8086.386v-1.378h851.442v1.378z" class="cls-1"/>
        </g>
    </g>
</svg>
