<svg xmlns="http://www.w3.org/2000/svg" width="140.375" height="140.375" viewBox="0 0 140.375 140.375"><defs><style>.a{fill:#ffcb05;stroke:#000;stroke-miterlimit:10;stroke-width:8.559px;}.b{stroke:none;}.c{fill:none;}</style></defs><g transform="translate(-385.441 -12909.832)"><g class="a" transform="translate(394.001 12918.392)"><circle class="b" cx="61.628" cy="61.628" r="61.628"/><circle class="c" cx="61.628" cy="61.628" r="65.908"/></g><path d="M437.745,12947.17l-5.734-5.734a41.807,41.807,0,0,0-16.521,31.478h8.02A33.864,33.864,0,0,1,437.745,12947.17Zm49.68,25.743h8.02a42.063,42.063,0,0,0-16.52-31.478l-5.694,5.734A34.062,34.062,0,0,1,487.425,12972.913Zm-7.9,2c0-12.31-6.576-22.615-18.044-25.342v-2.728a6.014,6.014,0,0,0-12.029,0v2.728c-11.508,2.727-18.044,12.992-18.044,25.342v20.048l-8.019,8.021v4.01h64.156v-4.01l-8.02-8.021Zm-24.058,44.107a7.041,7.041,0,0,0,1.6-.16,8.14,8.14,0,0,0,5.774-4.732,8.049,8.049,0,0,0,.6-3.128H447.408A8.078,8.078,0,0,0,455.468,13019.025Z"/></g></svg>