<svg xmlns="http://www.w3.org/2000/svg" width="140.375" height="140.375" viewBox="0 0 140.375 140.375"><defs><style>.a{fill:#ffcb05;stroke:#000;stroke-miterlimit:10;stroke-width:8.559px;}.b{stroke:none;}.c{fill:none;}</style></defs><g transform="translate(-1050.603 -12456.607)"><g class="a" transform="translate(1059.162 12465.167)"><circle class="b" cx="61.628" cy="61.628" r="61.628"/><circle class="c" cx="61.628" cy="61.628" r="65.908"/></g><path d="M1146.871,12521.427v9.717h19.434v-9.717Zm-9.716,32.114c4.664,3.449,10.737,8.016,15.547,11.611,1.943-2.575,3.886-5.2,5.83-7.773-4.81-3.595-10.883-8.162-15.547-11.66C1141.041,12548.342,1139.1,12550.966,1137.155,12553.541Zm21.377-58.349c-1.944-2.575-3.887-5.2-5.831-7.774-4.809,3.595-10.882,8.162-15.546,11.66,1.943,2.575,3.886,5.2,5.83,7.773C1147.649,12503.354,1153.722,12498.835,1158.532,12495.192Zm-79.678,16.518a9.745,9.745,0,0,1-9.717,9.717v9.717a9.745,9.745,0,0,1,9.717,9.717h4.858v19.434h9.717v-19.434h4.859l24.292,14.574v-58.3l-24.292,14.575Zm55.871,14.575a21.764,21.764,0,0,0-7.287-16.275v32.5A21.578,21.578,0,0,0,1134.725,12526.285Z"/></g></svg>