<svg xmlns="http://www.w3.org/2000/svg" width="140.375" height="140.375" viewBox="0 0 140.375 140.375"><defs><style>.a{fill:#ffcb05;stroke:#000;stroke-miterlimit:10;stroke-width:8.559px;}.b{stroke:none;}.c{fill:none;}</style></defs><g transform="translate(-385.441 -13136.445)"><g class="a" transform="translate(394.001 13145.005)"><circle class="b" cx="61.628" cy="61.628" r="61.628"/><circle class="c" cx="61.628" cy="61.628" r="65.908"/></g><path d="M484.693,13171.14H426.932a8.275,8.275,0,0,0-8.251,8.251v57.762a8.275,8.275,0,0,0,8.251,8.251h57.761a8.275,8.275,0,0,0,8.251-8.251v-57.762A8.275,8.275,0,0,0,484.693,13171.14Zm-41.258,57.761h-8.251v-20.628h8.251Zm16.5,0h-8.251v-12.377h8.251Zm0-20.628h-8.251v-8.253h8.251Zm16.5,20.628H468.19v-41.258h8.251Z"/></g></svg>