<svg xmlns="http://www.w3.org/2000/svg" viewBox="0 0 227.43 40"><defs><style>.cls-1,.cls-2{fill:#7ed321;}.cls-2{fill-rule:evenodd;}.cls-3{fill:#fff;}</style></defs><title>Sign_Inmdpi</title><g id="Layer_2" data-name="Layer 2"><g id="SIGN_IN"><rect class="cls-1" x="47.43" width="180" height="40" rx="4.17"/><path class="cls-2" d="M34.81.36H4.35A4.35,4.35,0,0,0,0,4.71v8.7H4.35V4.71H34.81V35.17H4.35V26.46H0v8.71a4.35,4.35,0,0,0,4.35,4.35H34.81a4.37,4.37,0,0,0,4.35-4.35V4.71A4.37,4.37,0,0,0,34.81.36Z"/><polygon class="cls-2" points="15.42 27.75 18.49 30.82 29.37 19.94 18.49 9.06 15.42 12.13 21.04 17.76 0 17.76 0 22.11 21.04 22.11 15.42 27.75"/><path class="cls-3" d="M100.83,25l1.54-2.16a5.85,5.85,0,0,0,4.24,1.81c1.56,0,2.32-.73,2.32-1.49,0-2.36-7.68-.74-7.68-5.76,0-2.22,1.92-4.06,5.06-4.06a7.42,7.42,0,0,1,5.2,1.86l-1.58,2.08a5.73,5.73,0,0,0-3.88-1.46c-1.22,0-1.9.54-1.9,1.34,0,2.12,7.66.7,7.66,5.68,0,2.44-1.74,4.29-5.34,4.29A7.57,7.57,0,0,1,100.83,25Z"/><path class="cls-3" d="M114.13,26.9V13.55H117V26.9Z"/><path class="cls-3" d="M119.37,20.23a6.76,6.76,0,0,1,7.1-6.9,6.24,6.24,0,0,1,5.52,3l-2.36,1.28a3.78,3.78,0,0,0-3.16-1.74,4.15,4.15,0,0,0-4.18,4.38,4.16,4.16,0,0,0,4.18,4.39,4.5,4.5,0,0,0,2.84-1V22h-3.52V19.51h6.36v5.12a7.38,7.38,0,0,1-5.68,2.53A6.8,6.8,0,0,1,119.37,20.23Z"/><path class="cls-3" d="M144,26.9l-6.36-8.71V26.9h-2.84V13.55h2.92l6.18,8.38V13.55h2.84V26.9Z"/><path class="cls-3" d="M155.31,26.9V13.55h2.84V26.9Z"/><path class="cls-3" d="M170.39,26.9,164,18.19V26.9h-2.84V13.55h2.92l6.18,8.38V13.55h2.84V26.9Z"/></g></g></svg>