<svg xmlns="http://www.w3.org/2000/svg" viewBox="0 0 314.27 145.35"><defs><style>.cls-1{stroke:#8bc53f;stroke-miterlimit:10;stroke-width:1.45px;}.cls-2{fill:#ffcb05;}.cls-3{fill:#fff;}.cls-4{fill:#7ed321;}</style></defs><title>Sign_Up_Trial_1mdpi</title><g id="Layer_2" data-name="Layer 2"><g id="FOOTER"><rect class="cls-1" x="0.72" y="31.96" width="312.82" height="112.67" rx="5.79"/><path class="cls-2" d="M20.28,65.62a7.88,7.88,0,0,0,2.37,1.76,7.08,7.08,0,0,0,3.1.69,4.26,4.26,0,0,0,2.87-.83,2.56,2.56,0,0,0,.94-2A2,2,0,0,0,29,63.82a3.91,3.91,0,0,0-1.38-.89,23.27,23.27,0,0,0-2.27-.7,24.9,24.9,0,0,1-3.11-1,5.37,5.37,0,0,1-2.05-1.48,3.9,3.9,0,0,1-.86-2.64,4.41,4.41,0,0,1,.78-2.55,5.17,5.17,0,0,1,2.19-1.77,7.56,7.56,0,0,1,3.18-.64,8.88,8.88,0,0,1,6.33,2.21l-1.51,1.93a6.06,6.06,0,0,0-2.26-1.52,7.53,7.53,0,0,0-2.77-.51,3.67,3.67,0,0,0-2.36.71,2.24,2.24,0,0,0-.9,1.85,1.7,1.7,0,0,0,.53,1.27,3.63,3.63,0,0,0,1.33.8c.53.2,1.26.42,2.18.66a25.5,25.5,0,0,1,3.18,1,5.36,5.36,0,0,1,2.1,1.56,4.17,4.17,0,0,1,.88,2.76,5.05,5.05,0,0,1-.7,2.63,4.9,4.9,0,0,1-2.16,1.91,8.43,8.43,0,0,1-3.71.72,10.83,10.83,0,0,1-4-.67,7.81,7.81,0,0,1-2.89-1.89Z"/><path class="cls-2" d="M35.24,52.45h2.61V69.84H35.24Z"/><path class="cls-2" d="M42.2,56.47a8.2,8.2,0,0,1,3.27-3.18A9.38,9.38,0,0,1,50,52.17,8.34,8.34,0,0,1,56.9,55.4l-2.11,1.22a5.89,5.89,0,0,0-2-1.69A5.78,5.78,0,0,0,50,54.28a6.2,6.2,0,0,0-3.25.87,6,6,0,0,0-2.26,2.45,8,8,0,0,0,0,7.11A6.05,6.05,0,0,0,50,68.07a5.65,5.65,0,0,0,2.5-.57,6.59,6.59,0,0,0,1.9-1.29V62.83H48.85V60.71H57V67.1a9.49,9.49,0,0,1-3.09,2.26,9.39,9.39,0,0,1-3.92.82A9.28,9.28,0,0,1,45.47,69a8.35,8.35,0,0,1-3.27-3.19,9.77,9.77,0,0,1,0-9.38Z"/><path class="cls-2" d="M63,56.49V69.84h-2.6V52.45h2.68l9.46,13v-13h2.61V69.84H72.59Z"/><path class="cls-2" d="M85.7,52.45h2.63V63.12a5.11,5.11,0,0,0,1.23,3.62,5.17,5.17,0,0,0,6.92,0,5.14,5.14,0,0,0,1.21-3.62V52.45h2.63V63a7.32,7.32,0,1,1-14.62,0Z"/><path class="cls-2" d="M104.21,52.45h7.32a6,6,0,0,1,3,.72,4.75,4.75,0,0,1,1.91,1.94,5.83,5.83,0,0,1,0,5.37,4.84,4.84,0,0,1-1.92,1.94,5.83,5.83,0,0,1-3,.72h-4.72v6.7h-2.6Zm9.29,3a3.13,3.13,0,0,0-2.31-.9h-4.38V61h4.38a3.08,3.08,0,0,0,3.21-3.23A3.17,3.17,0,0,0,113.5,55.46Z"/><path class="cls-2" d="M126.49,52.45h11.68v2.11H129.1v5.27H138v2.11H129.1v7.9h-2.61Z"/><path class="cls-2" d="M141.36,56.55a8.14,8.14,0,0,1,3.1-3.22,9.5,9.5,0,0,1,9.1,0,8.07,8.07,0,0,1,3.1,3.22,10.17,10.17,0,0,1,0,9.24,8.1,8.1,0,0,1-3.1,3.23,9.5,9.5,0,0,1-9.1,0,8.17,8.17,0,0,1-3.1-3.23,10.25,10.25,0,0,1,0-9.24Zm13,1.08a5.84,5.84,0,0,0-2.14-2.46,6.16,6.16,0,0,0-6.38,0,5.82,5.82,0,0,0-2.13,2.46,8.84,8.84,0,0,0,0,7.08,5.91,5.91,0,0,0,2.13,2.47,5.81,5.81,0,0,0,3.2.89,5.7,5.7,0,0,0,3.18-.91,6,6,0,0,0,2.14-2.46,8.6,8.6,0,0,0,0-7.07Z"/><path class="cls-2" d="M166.79,63.14h-3.26v6.7h-2.61V52.45h7.33a6.05,6.05,0,0,1,2.9.67,4.8,4.8,0,0,1,2,1.87,5.51,5.51,0,0,1,.71,2.81,4.91,4.91,0,0,1-1.27,3.53,5,5,0,0,1-3.06,1.55l4.46,7h-3Zm3.44-7.68a3.17,3.17,0,0,0-2.32-.9h-4.38V61h4.38a3.17,3.17,0,0,0,2.32-.9,3.45,3.45,0,0,0,0-4.67Z"/><path class="cls-2" d="M194.76,66.24h-8.53l-1.4,3.6H182l6.91-17.39h3.25L199,69.84h-2.87Zm-7.85-2.11H194l-3.52-9.2Z"/><path class="cls-3" d="M206.59,61.19c0-5.56,3.34-9,8.6-9a8.8,8.8,0,0,1,5.29,1.67l-1.95,3.44a4.84,4.84,0,0,0-3.34-1.14,4,4,0,0,0-4.07,4v.21a5.46,5.46,0,0,1,4.28-2c3.13,0,6,2,6,5.71s-2.89,6.1-6.93,6.1C209,70.15,206.59,66.16,206.59,61.19Zm10.29,3c0-1.46-1.48-2.06-2.84-2.06a4.05,4.05,0,0,0-2.92,1.17,2.92,2.92,0,0,0,3.08,2.87C215.87,66.19,216.88,65.17,216.88,64.21Z"/><path class="cls-3" d="M222.67,61.16c0-4.59,2.37-9,7.46-9s7.45,4.38,7.45,9-2.37,9-7.45,9S222.67,65.75,222.67,61.16Zm10.37,0c0-3.08-.83-5-2.91-5s-2.92,1.92-2.92,5,.83,5,2.92,5S233,64.23,233,61.16Z"/><path class="cls-3" d="M246.49,69.84V52.45h7.3c5.48,0,9.41,3.29,9.41,8.68s-3.93,8.71-9.38,8.71Zm12.12-8.71a4.45,4.45,0,0,0-4.79-4.77H251v9.57h2.81A4.62,4.62,0,0,0,258.61,61.13Z"/><path class="cls-3" d="M276.42,69.84l-.86-2.5H268.7l-.86,2.5h-5.08l6.54-17.39h5.63l6.57,17.39Zm-4.3-13-2.22,6.55h4.43Z"/><path class="cls-3" d="M285.75,69.84v-7l-6.6-10.38h5.06L288,58.87l3.73-6.42h5.08l-6.57,10.38v7Z"/><rect class="cls-4" x="67.83" y="83.97" width="180" height="40" rx="5.61"/><path class="cls-3" d="M102.42,111V97.7h9.78v3h-6.34v2.08h6.2v3h-6.2V111Z"/><path class="cls-3" d="M121.9,111l-2.24-4.48H117.9V111h-3.44V97.7h6.68a4.3,4.3,0,0,1,4.64,4.44,4,4,0,0,1-2.66,4l2.72,4.9Zm.38-8.92a1.49,1.49,0,0,0-1.66-1.42H117.9v2.86h2.72A1.48,1.48,0,0,0,122.28,102.12Z"/><path class="cls-3" d="M128.08,111V97.7h9.78v3h-6.34v2.08h6.2v3h-6.2V108h6.34v3Z"/><path class="cls-3" d="M140.26,111V97.7H150v3H143.7v2.08h6.2v3h-6.2V108H150v3Z"/><path class="cls-3" d="M160.94,111V100.7H157.2v-3h10.9v3h-3.72V111Z"/><path class="cls-3" d="M177.58,111l-2.24-4.48h-1.76V111h-3.44V97.7h6.68a4.3,4.3,0,0,1,4.64,4.44,4,4,0,0,1-2.66,4l2.72,4.9Zm.38-8.92a1.49,1.49,0,0,0-1.66-1.42h-2.72v2.86h2.72A1.48,1.48,0,0,0,178,102.12Z"/><path class="cls-3" d="M183.76,111V97.7h3.44V111Z"/><path class="cls-3" d="M199.06,111l-.66-1.92h-5.26l-.66,1.92h-3.9l5-13.34h4.32L203,111Zm-3.3-9.94-1.7,5h3.4Z"/><path class="cls-3" d="M204.34,111V97.7h3.44V108h5.36v3Z"/><path class="cls-3" d="M10.55.2h1.14V12.5h6.46v1h-7.6Z"/><path class="cls-3" d="M19.51,8.7c0-2.82,1.82-5.06,4.64-5.06s4.66,2.24,4.66,5.06-1.8,5.08-4.66,5.08S19.51,11.52,19.51,8.7Zm8.18,0c0-2.14-1.26-4.12-3.54-4.12s-3.52,2-3.52,4.12,1.28,4.14,3.52,4.14S27.69,10.86,27.69,8.7Z"/><path class="cls-3" d="M30.93,8.7c0-2.82,1.82-5.06,4.64-5.06s4.66,2.24,4.66,5.06-1.8,5.08-4.66,5.08S30.93,11.52,30.93,8.7Zm8.18,0c0-2.14-1.26-4.12-3.54-4.12s-3.52,2-3.52,4.12,1.28,4.14,3.52,4.14S39.11,10.86,39.11,8.7Z"/><path class="cls-3" d="M45.75,8.94,44,10.64v2.9h-1V.2h1V9.4l5.68-5.52H51l-4.5,4.36L51,13.54h-1.4Z"/><path class="cls-3" d="M52.73,1.44a.82.82,0,0,1,.8-.8.8.8,0,0,1,0,1.6A.82.82,0,0,1,52.73,1.44ZM53,3.88h1v9.66H53Z"/><path class="cls-3" d="M63.81,7c0-1.88-.94-2.44-2.34-2.44a4.2,4.2,0,0,0-3.14,1.66v7.3h-1V3.88h1V5.34a4.9,4.9,0,0,1,3.48-1.7c2,0,3,1,3,3.14v6.76h-1Z"/><path class="cls-3" d="M68.71,15.2a3.68,3.68,0,0,0,3.2,1.36c1.76,0,3.3-.88,3.3-3.1V11.94a4.18,4.18,0,0,1-3.36,1.8c-2.56,0-4.32-1.94-4.32-5s1.76-5.06,4.32-5.06a4.13,4.13,0,0,1,3.36,1.8V3.88h1.06v9.56c0,3-2,4-4.36,4A4.64,4.64,0,0,1,68.11,16Zm6.5-8.86A3.89,3.89,0,0,0,72,4.58c-2.14,0-3.38,1.78-3.38,4.12s1.24,4.1,3.38,4.1A3.89,3.89,0,0,0,75.21,11Z"/><path class="cls-3" d="M84.87,11.68V4.82h-1.6V3.88h1.6V1.24h1.06V3.88h2v.94h-2v6.7c0,.78.32,1.32,1,1.32A1.51,1.51,0,0,0,88,12.38l.4.8a2.17,2.17,0,0,1-1.64.6C85.49,13.78,84.87,13,84.87,11.68Z"/><path class="cls-3" d="M89.61,8.7c0-2.82,1.82-5.06,4.64-5.06s4.66,2.24,4.66,5.06-1.8,5.08-4.66,5.08S89.61,11.52,89.61,8.7Zm8.18,0c0-2.14-1.26-4.12-3.54-4.12s-3.52,2-3.52,4.12,1.28,4.14,3.52,4.14S97.79,10.86,97.79,8.7Z"/><path class="cls-3" d="M106.81.2h5a3.79,3.79,0,0,1,4,3.9,3.8,3.8,0,0,1-4,3.9H108v5.54h-1.14Zm4.88,1H108V7h3.74a2.76,2.76,0,0,0,2.94-2.86A2.76,2.76,0,0,0,111.69,1.24Z"/><path class="cls-3" d="M118.19,3.88h1V5.54a4.15,4.15,0,0,1,3.26-1.86V4.82a4.22,4.22,0,0,0-.52,0,3.68,3.68,0,0,0-2.74,1.72v7h-1Z"/><path class="cls-3" d="M124,8.7c0-2.82,1.82-5.06,4.64-5.06s4.66,2.24,4.66,5.06-1.8,5.08-4.66,5.08S124,11.52,124,8.7Zm8.18,0c0-2.14-1.26-4.12-3.54-4.12s-3.52,2-3.52,4.12,1.28,4.14,3.52,4.14S132.15,10.86,132.15,8.7Z"/><path class="cls-3" d="M147.45,6.78c0-1.36-.58-2.2-1.94-2.2a3.58,3.58,0,0,0-2.76,1.64v7.32h-1.06V6.78c0-1.36-.56-2.2-1.94-2.2A3.71,3.71,0,0,0,137,6.24v7.3h-1V3.88h1V5.34a4.25,4.25,0,0,1,3.12-1.7,2.43,2.43,0,0,1,2.54,1.82,4,4,0,0,1,3.2-1.82c1.78,0,2.64,1,2.64,2.94v7h-1Z"/><path class="cls-3" d="M151.17,8.7c0-2.82,1.82-5.06,4.64-5.06s4.66,2.24,4.66,5.06-1.8,5.08-4.66,5.08S151.17,11.52,151.17,8.7Zm8.18,0c0-2.14-1.26-4.12-3.54-4.12s-3.52,2-3.52,4.12,1.28,4.14,3.52,4.14S159.35,10.86,159.35,8.7Z"/><path class="cls-3" d="M163.35,11.68V4.82h-1.6V3.88h1.6V1.24h1.06V3.88h2v.94h-2v6.7c0,.78.32,1.32,1,1.32a1.51,1.51,0,0,0,1.08-.46l.4.8a2.17,2.17,0,0,1-1.64.6C164,13.78,163.35,13,163.35,11.68Z"/><path class="cls-3" d="M172.75,3.64c2.94,0,4.56,2.34,4.56,5.12V9h-8.08A3.76,3.76,0,0,0,173,12.88a4.29,4.29,0,0,0,3.18-1.34l.54.68a5,5,0,0,1-3.78,1.56,4.77,4.77,0,0,1-4.84-5.08A4.8,4.8,0,0,1,172.75,3.64Zm-3.52,4.58h7a3.54,3.54,0,0,0-3.52-3.68A3.64,3.64,0,0,0,169.23,8.22Z"/><path class="cls-3" d="M190.75,5.28,188,13.54h-1l-3.14-9.66H185l2.56,8.2,2.72-8.2h.9l2.72,8.2,2.56-8.2h1.12l-3.14,9.66h-1Z"/><path class="cls-3" d="M199.27,1.44a.82.82,0,0,1,.8-.8.8.8,0,1,1,0,1.6A.82.82,0,0,1,199.27,1.44Zm.28,2.44h1v9.66h-1Z"/><path class="cls-3" d="M204,11.68V4.82h-1.6V3.88H204V1.24h1.06V3.88h2v.94h-2v6.7c0,.78.32,1.32,1,1.32a1.51,1.51,0,0,0,1.08-.46l.4.8a2.17,2.17,0,0,1-1.64.6C204.65,13.78,204,13,204,11.68Z"/><path class="cls-3" d="M215.85,7c0-1.86-.94-2.38-2.34-2.38a4.2,4.2,0,0,0-3.14,1.66v7.3h-1V.2h1V5.34a4.9,4.9,0,0,1,3.48-1.7c2,0,3,.92,3,3.1v6.8h-1Z"/><path class="cls-3" d="M233.71,10.26h-7.1l-1.34,3.28H224L229.45.2h1.42l5.46,13.34h-1.28Zm-6.74-1h6.38l-3.2-7.9Z"/><path class="cls-3" d="M238.25,3.88h1V5.54a4.15,4.15,0,0,1,3.26-1.86V4.82a4.22,4.22,0,0,0-.52,0,3.68,3.68,0,0,0-2.74,1.72v7h-1Z"/><path class="cls-3" d="M243.11,3.88h1.16l3.5,8.44,3.5-8.44h1.18l-4.08,9.66h-1.18Z"/><path class="cls-3" d="M253.71,12.68l5.72-7.86h-5.72V3.88h7.06v.84L255,12.62h5.86v.92h-7.14Z"/><path class="cls-3" d="M272,10.26h-7.1l-1.34,3.28h-1.28L267.73.2h1.42l5.46,13.34h-1.28Zm-6.74-1h6.38l-3.2-7.9Z"/><path class="cls-3" d="M276.53,17.22V3.88h1V5.42a4.12,4.12,0,0,1,3.36-1.78c2.58,0,4.32,2,4.32,5.06s-1.74,5.08-4.32,5.08a4.13,4.13,0,0,1-3.36-1.8v5.24Zm4.22-12.64a3.87,3.87,0,0,0-3.18,1.74v4.76a3.94,3.94,0,0,0,3.18,1.76c2.16,0,3.38-1.8,3.38-4.14S282.91,4.58,280.75,4.58Z"/><path class="cls-3" d="M287.93,17.22V3.88h1V5.42a4.12,4.12,0,0,1,3.36-1.78c2.58,0,4.32,2,4.32,5.06s-1.74,5.08-4.32,5.08A4.13,4.13,0,0,1,289,12v5.24Zm4.22-12.64A3.87,3.87,0,0,0,289,6.32v4.76a3.94,3.94,0,0,0,3.18,1.76c2.16,0,3.38-1.8,3.38-4.14S294.31,4.58,292.15,4.58Z"/><path class="cls-3" d="M302.31,5.72c1-.66,1.9-1.3,1.9-2.52S303.29,1,301.53,1A4,4,0,0,0,298,2.84l-.72-.74a5.09,5.09,0,0,1,4.3-2.1c2.4,0,3.82,1.42,3.82,3.08s-1.22,2.52-2.32,3.28c-.92.62-1.76,1.2-1.76,2.14a1.4,1.4,0,0,0,.6,1l-.8.5a2,2,0,0,1-.82-1.58C300.31,7.1,301.31,6.4,302.31,5.72Zm-1,6.26a.88.88,0,0,1,.88.86.88.88,0,1,1-1.76,0A.88.88,0,0,1,301.31,12Z"/><path class="cls-3" d="M8.89,17.21v-.78H306.13v.78Z"/></g></g></svg>