<svg xmlns="http://www.w3.org/2000/svg" width="39.156" height="39.156" viewBox="0 0 39.156 39.156"><defs><style>.a{fill:#7ed321;fill-rule:evenodd;}</style></defs><g transform="translate(-1574.381 -102.637)"><path class="a" d="M1609.186,102.637h-30.454a4.35,4.35,0,0,0-4.351,4.351v8.7h4.351v-8.7h30.454v30.455h-30.454v-8.7h-4.351v8.7a4.35,4.35,0,0,0,4.351,4.35h30.454a4.364,4.364,0,0,0,4.351-4.35V106.988A4.364,4.364,0,0,0,1609.186,102.637Z"/><path class="a" d="M1589.8,130.025l3.067,3.067,10.877-10.877-10.877-10.877-3.067,3.067,5.612,5.634h-21.035v4.351h21.035Z"/></g></svg>