<svg xmlns="http://www.w3.org/2000/svg" width="43.149" height="43.152" viewBox="0 0 43.149 43.152">
  <defs>
    <style>
      .cls-1 {
        fill: none;
        stroke: #ffca05;
        stroke-miterlimit: 10;
        stroke-width: 2.5px;
      }

      .cls-2 {
        fill: #ffca05;
      }
    </style>
  </defs>
  <g id="Group_136" data-name="Group 136" transform="translate(-829.916 -9481.429)">
    <path id="Path_248" data-name="Path 248" d="M851.566,9484.261a18.753,18.753,0,1,0,18.779,18.752A18.789,18.789,0,0,0,851.566,9484.261Z"/>
    <g id="Group_135" data-name="Group 135">
      <path id="Path_249" data-name="Path 249" class="cls-1" d="M851.493,9523.331a20.326,20.326,0,1,1,20.322-20.325A20.353,20.353,0,0,1,851.493,9523.331Z"/>
      <path id="Path_250" data-name="Path 250" class="cls-2" d="M865.438,9495.6a8.935,8.935,0,0,1-3.12.853h-.005a5.7,5.7,0,0,0,2.38-3.016,8.721,8.721,0,0,1-3.508,1.328,5.5,5.5,0,0,0-9.438,3.848,5.728,5.728,0,0,0,.122,1.167c-5.469-.031-10.235-4.155-11.284-5.708a5.493,5.493,0,0,0,1.623,7.259,4.658,4.658,0,0,1-2.41-.643,5.545,5.545,0,0,0,4.351,5.442,5.255,5.255,0,0,1-2.429.112,5.682,5.682,0,0,0,5.085,3.8,10.9,10.9,0,0,1-8,2.287,15.523,15.523,0,0,0,23.963-13.027c0-.231,0-.467-.013-.693,0-.075,0-.148,0-.223A9.4,9.4,0,0,0,865.438,9495.6Z"/>
    </g>
  </g>
</svg>
