<svg xmlns="http://www.w3.org/2000/svg" width="43.15" height="43.15" viewBox="0 0 43.15 43.15">
  <defs>
    <style>
      .cls-1 {
        fill: none;
        stroke: #ffca05;
        stroke-miterlimit: 10;
        stroke-width: 2.5px;
      }

      .cls-2 {
        fill: #ffca05;
        fill-rule: evenodd;
      }
    </style>
  </defs>
  <g id="Group_141" data-name="Group 141" transform="translate(-770.257 -9481.431)">
    <path id="Path_254" data-name="Path 254" d="M791.873,9484.261a18.753,18.753,0,1,0,18.785,18.752A18.787,18.787,0,0,0,791.873,9484.261Z"/>
    <g id="Group_140" data-name="Group 140">
      <path id="Path_255" data-name="Path 255" class="cls-1" d="M791.831,9523.331a20.325,20.325,0,1,1,20.326-20.325A20.346,20.346,0,0,1,791.831,9523.331Z"/>
      <path id="Path_256" data-name="Path 256" class="cls-2" d="M800.5,9498.148a.528.528,0,0,1-.527.526h-3.15a.528.528,0,0,1-.527-.526V9495a.525.525,0,0,1,.527-.527h3.15a.525.525,0,0,1,.527.527Zm2.634-3.678v17.065a2.778,2.778,0,0,1-2.773,2.779H783.3a2.781,2.781,0,0,1-2.779-2.779v-17.065a2.781,2.781,0,0,1,2.779-2.773h17.066A2.778,2.778,0,0,1,803.138,9494.471Zm-2.71,6.812h-1.809a6.991,6.991,0,1,1-13.753,1.777,7.1,7.1,0,0,1,.227-1.777h-1.787c-.01,0-.024-.009-.034-.009v8.866a1.487,1.487,0,0,0,1.489,1.489h14.178a1.485,1.485,0,0,0,1.489-1.489Zm-4.05,1.777a4.523,4.523,0,1,1-4.522-4.531A4.527,4.527,0,0,1,796.378,9503.06Z"/>
    </g>
  </g>
</svg>
