<svg xmlns="http://www.w3.org/2000/svg" width="683.127" height="159.448" viewBox="0 0 683.127 159.448">
    <defs>
        <style>
            .cls-2{fill:#ffca07}.cls-3{fill:#fff}
        </style>
    </defs>
    <g id="STAND" transform="translate(-617.953 -7165.92)">
        <g id="Group_339">
            <g id="Rectangle_518" stroke="#fff" stroke-miterlimit="10" stroke-width="1.563px">
                <path stroke="none" d="M0 0H680.001V156.322H0z" transform="translate(619.516 7167.483)"/>
                <path fill="none" d="M-0.782 -0.782H680.7819999999999V157.10299999999998H-0.782z" transform="translate(619.516 7167.483)"/>
            </g>
            <path id="Path_686" d="M1082 7201.68l-125.489.039 14.479 10.295-99.79 9.786 128.158.092-17.713-11.277z" class="cls-2"/>
            <path id="Path_687" d="M1289.483 7311.97H629.55v-132.649h659.934zm-657.262-2.684h654.591V7182h-654.59z" class="cls-2"/>
            <g id="Group_338">
                <path id="Path_688" d="M670.385 7280.535a7 7 0 0 1-2.936-1.223 5.641 5.641 0 0 1-1.8-2.358 9.608 9.608 0 0 1-.625-3.752v-10.192h10.233v7.834q0 1.6.625 2.064a6.438 6.438 0 0 0 3.145.469 7.431 7.431 0 0 0 3.062-.42c.53-.282.8-.982.8-2.108v-8.169a10.773 10.773 0 0 0-1.342-5.561 16.32 16.32 0 0 0-3.313-4 39.458 39.458 0 0 0-4.278-3.242 31.341 31.341 0 0 1-4.279-3.37 16.871 16.871 0 0 1-3.312-4.338 12.875 12.875 0 0 1-1.343-6.19v-8.845q0-4.719 2.6-6.192a14.93 14.93 0 0 1 7.3-1.474h7.972a26.788 26.788 0 0 1 4.194.3 8.092 8.092 0 0 1 3.146 1.137 5.306 5.306 0 0 1 1.971 2.357 9.641 9.641 0 0 1 .672 3.877v10.528h-9.983v-8.087q0-1.683-.8-2.105a7.425 7.425 0 0 0-3.062-.423 7.041 7.041 0 0 0-3.146.423q-.624.422-.625 2.105v5.9a6.526 6.526 0 0 0 1.341 4.044 18.676 18.676 0 0 0 3.315 3.326q1.973 1.563 4.32 3.159a28.338 28.338 0 0 1 4.321 3.622 18.619 18.619 0 0 1 3.314 4.717 14.432 14.432 0 0 1 1.341 6.487v12.382a9.632 9.632 0 0 1-.67 3.875 5.293 5.293 0 0 1-1.972 2.359 8.532 8.532 0 0 1-3.146 1.178 23.5 23.5 0 0 1-4.2.338h-8.891a26.867 26.867 0 0 1-3.949-.432z" class="cls-3"/>
                <path id="Path_689" d="M706.205 7280.786a23.358 23.358 0 0 1-3.819-.251 4.51 4.51 0 0 1-2.306-1.012 3.909 3.909 0 0 1-1.132-2.188 18.927 18.927 0 0 1-.293-3.705v-25.53h-5.628l15.771-20.634v13.393h7.3v7.244h-7.3v22.497a2.091 2.091 0 0 0 2.769 2.779h4.533v7.413z" class="cls-3"/>
                <path id="Path_690" d="M726.423 7280.786a22.631 22.631 0 0 1-3.733-.251 4.5 4.5 0 0 1-2.306-1.012 4.109 4.109 0 0 1-1.177-2.188 16.764 16.764 0 0 1-.335-3.705v-11.711a20.818 20.818 0 0 1 .252-3.579 4.185 4.185 0 0 1 1.007-2.189 4 4 0 0 1 2.139-1.094 18.182 18.182 0 0 1 3.649-.3h11.073v-4.457a1.6 1.6 0 0 0-2.189-2.189h-14.344v-7.243h18.959a22.633 22.633 0 0 1 3.733.253 4.51 4.51 0 0 1 2.307 1.01 4.138 4.138 0 0 1 1.173 2.188 16.717 16.717 0 0 1 .336 3.707v32.768zm10.57-7.413V7262h-5.628q-.924 0-1.467.04a1.017 1.017 0 0 0-1.1.931 1.132 1.132 0 0 0 0 .164q-.042.55-.042 1.474v6.232a9.412 9.412 0 0 0 .084 1.433 1.373 1.373 0 0 0 .335.757 1.222 1.222 0 0 0 .8.295c.363.03.854.042 1.468.042z" class="cls-3"/>
                <path id="Path_691" d="M751 7280.786v-39.927h9.9v2.526a13.439 13.439 0 0 1 4.534-2.658 15.642 15.642 0 0 1 4.533-.625 13.12 13.12 0 0 1 3.02.379 12.254 12.254 0 0 1 2.935 1.094 7.4 7.4 0 0 1 2.224 1.77 3.632 3.632 0 0 1 .881 2.4v35.043h-9.988v-30.748a2.114 2.114 0 0 0-.211-1.178c-.141-.167-.518-.254-1.132-.254h-5.956q-.84 0-.84 1.012v31.167z" class="cls-3"/>
                <path id="Path_692" d="M790.093 7280.786a18.178 18.178 0 0 1-3.65-.293 4 4 0 0 1-2.139-1.1 4.2 4.2 0 0 1-1.007-2.188 20.728 20.728 0 0 1-.251-3.58v-25.609a16.767 16.767 0 0 1 .336-3.706 4.117 4.117 0 0 1 1.174-2.188 4.477 4.477 0 0 1 2.308-1.01 22.569 22.569 0 0 1 3.732-.254h10.569v-23.5l9.983 4.551v58.88zm11.072-7.413V7248.1h-5.537a3.7 3.7 0 0 0-2.263.422 3.939 3.939 0 0 0-.421 2.359v19.71a3.941 3.941 0 0 0 .421 2.359 3.7 3.7 0 0 0 2.263.421z" class="cls-3"/>
                <path id="Path_693" d="M830.862 7280.786a23.345 23.345 0 0 1-3.818-.251 4.3 4.3 0 0 1-2.307-1.054 4.381 4.381 0 0 1-1.176-2.232 17.354 17.354 0 0 1-.334-3.791v-46.493a17.225 17.225 0 0 1 .334-3.79 4.39 4.39 0 0 1 1.176-2.233 4.3 4.3 0 0 1 2.307-1.053 23.238 23.238 0 0 1 3.818-.252h13a24.176 24.176 0 0 1 3.859.252 4.6 4.6 0 0 1 2.391 1.053 4.229 4.229 0 0 1 1.216 2.233 17.277 17.277 0 0 1 .336 3.79v46.5a19.029 19.029 0 0 1-.294 3.707 4.306 4.306 0 0 1-1.094 2.233 4.246 4.246 0 0 1-2.188 1.094 18.18 18.18 0 0 1-3.649.294zm8.052-7.581a1.843 1.843 0 0 0 2.432-2.442v-41.112a3.418 3.418 0 0 0-.377-2.064 3.373 3.373 0 0 0-2.055-.38h-3.02a3.374 3.374 0 0 0-2.056.38 3.425 3.425 0 0 0-.377 2.064v41.112a1.843 1.843 0 0 0 2.433 2.442z" class="cls-3"/>
                <path id="Path_694" d="M874.061 7280.786h-9.731a9.816 9.816 0 0 1-6.669-1.852q-2.057-1.852-2.055-6.566v-31.5h9.9v30.071a2.186 2.186 0 0 0 2.518 2.443h5.62v-32.514h9.983v38.58l-9.564 3.283z" class="cls-3"/>
                <path id="Path_695" d="M897.8 7280.786a23.326 23.326 0 0 1-3.817-.251 4.5 4.5 0 0 1-2.306-1.012 3.9 3.9 0 0 1-1.133-2.188 18.933 18.933 0 0 1-.294-3.705v-25.53h-5.62l15.772-20.634v13.393h7.3v7.244h-7.3v22.497a2.089 2.089 0 0 0 2.768 2.779h4.53v7.413z" class="cls-3"/>
                <path id="Path_696" d="M965.328 7261.043a12.129 12.129 0 0 1-4.689 2.791 31.653 31.653 0 0 1-6.427 1.35 27.441 27.441 0 0 1-1.375 4.922 18.879 18.879 0 0 1-2.9 5.159 16.65 16.65 0 0 1-4.663 4.051 15.348 15.348 0 0 1-11.387.991 3.4 3.4 0 0 1-1.973-1.681 10.516 10.516 0 0 1-3.256 1.651 13.047 13.047 0 0 1-4.155.69 6.946 6.946 0 0 1-4.784-1.407 4.888 4.888 0 0 1-1.554-3.811 10.973 10.973 0 0 1 .479-3.031 26.993 26.993 0 0 1 1.314-3.513l6.755-15.186 7.114 4.14-6.994 15.548a7.475 7.475 0 0 0-.389 1.08 3.646 3.646 0 0 0-.156.962q0 .959.9.959 1.374 0 2.572-2.642l6.515-14.525 6.933 4.2-4.422 9.966a4.506 4.506 0 0 0-.478 2.042q0 .959.836.959a3.5 3.5 0 0 0 2.33-1.5 22.02 22.02 0 0 0 2.542-3.661 30.486 30.486 0 0 0 2.094-4.533 15.486 15.486 0 0 0 .984-4.173 2.456 2.456 0 0 1-.925-1.2 5.618 5.618 0 0 1-.21-1.681 6.1 6.1 0 0 1 .538-2.521 6.507 6.507 0 0 1 1.494-2.1 7.371 7.371 0 0 1 2.272-1.442 7.491 7.491 0 0 1 2.868-.539 5.517 5.517 0 0 1 3.378.959 3.438 3.438 0 0 1 1.285 2.942 7.956 7.956 0 0 1-1.315 3.422c.24.039.5.068.782.089s.558.03.836.03a7.472 7.472 0 0 0 2.542-.419 13.873 13.873 0 0 0 2.6-1.321zm-12.254-1.02a4.542 4.542 0 0 0 .358-1.681q0-1.32-.9-1.321-1.434 0-1.435 1.38a1.555 1.555 0 0 0 .419 1.141 2.379 2.379 0 0 0 1.554.476z" class="cls-3"/>
                <path id="Path_697" d="M977.165 7270.461a11.527 11.527 0 0 1-2.78 3.6 26.461 26.461 0 0 1-4.6 3.393 30.523 30.523 0 0 1-5.442 2.519 15.939 15.939 0 0 1-5.229.991 4.658 4.658 0 0 1-3.139-1.05 3.557 3.557 0 0 1-1.225-2.851 6.708 6.708 0 0 1 .782-3l8.91-20.049 7.532 4.141-6.336 14.348a3.174 3.174 0 0 0-.3 1.08q0 .9 1.016.9a5.688 5.688 0 0 0 2.392-.659 17.076 17.076 0 0 0 2.69-1.621 18.458 18.458 0 0 0 2.39-2.072 7.76 7.76 0 0 0 1.5-2.011zm.956-24.969a3.222 3.222 0 0 1-.747 2.07 6.41 6.41 0 0 1-1.854 1.563 10.359 10.359 0 0 1-2.42.989 9.236 9.236 0 0 1-2.451.361 5.56 5.56 0 0 1-2.781-.69 2.1 2.1 0 0 1-1.224-1.892 3.239 3.239 0 0 1 .658-1.89 6.5 6.5 0 0 1 1.732-1.651 9.517 9.517 0 0 1 2.391-1.141 8.835 8.835 0 0 1 2.689-.42 5.376 5.376 0 0 1 2.781.72 2.208 2.208 0 0 1 1.226 1.981z" class="cls-3"/>
                <path id="Path_698" d="M994.381 7270.461a11.294 11.294 0 0 1-2.78 3.663 27.1 27.1 0 0 1-4.574 3.392 28.5 28.5 0 0 1-5.38 2.49 16.152 16.152 0 0 1-5.2.959 4.145 4.145 0 0 1-3.2-1.26 4.263 4.263 0 0 1-1.166-3 6.756 6.756 0 0 1 .156-1.292 5.936 5.936 0 0 1 .508-1.471l6.456-14.585h-2.571l1.494-3.361h2.511l8.308-18.549 10.161-.661L990.62 7256h2.688l-1.494 3.361h-2.689l-6.217 13.926a2.334 2.334 0 0 0-.3.959q0 .483.6.482a5.97 5.97 0 0 0 2.481-.661 17.647 17.647 0 0 0 2.779-1.65 19 19 0 0 0 2.511-2.161 8.994 8.994 0 0 0 1.614-2.131z" class="cls-3"/>
                <path id="Path_699" d="M1024.208 7270.461a10.541 10.541 0 0 1-2.689 3.573 28.058 28.058 0 0 1-4.544 3.392 29.159 29.159 0 0 1-5.349 2.549 15.443 15.443 0 0 1-5.172.991 3.945 3.945 0 0 1-3.378-1.26 4.659 4.659 0 0 1-.925-2.822 7.738 7.738 0 0 1 .119-1.351 5.987 5.987 0 0 1 .478-1.47q1.374-3.242 2.779-6a58.562 58.562 0 0 0 2.6-5.94c.2-.521.312-.86.358-1.021a1.794 1.794 0 0 0 .059-.419q0-.781-.9-.782a2.266 2.266 0 0 0-2.211 1.5l-8.547 19.383h-9.925l19.852-44.659h9.924l-9.206 20.529a11.432 11.432 0 0 1 2.57-1.109 8.74 8.74 0 0 1 2.332-.332 5.844 5.844 0 0 1 3.857 1.021 3.706 3.706 0 0 1 1.165 2.94 10.183 10.183 0 0 1-.27 2.345 22.9 22.9 0 0 1-.808 2.61q-.539 1.473-1.344 3.363t-1.942 4.472c-.12.359-.23.68-.33.959a2.114 2.114 0 0 0-.156.66q0 .9 1.077.9a5.1 5.1 0 0 0 2.152-.659 19.365 19.365 0 0 0 5.021-3.692 7.648 7.648 0 0 0 1.493-2.011z" class="cls-3"/>
                <path id="Path_700" d="M1039.492 7227.55h-4.949v-7.918h22.313l6.8 61.155h-9.982l-.587-7.328h-9.223l-.672 7.328h-10.072zm12.751 38.158l-3.86-38.411-3.858 38.411z" class="cls-3"/>
                <path id="Path_701" d="M1066.675 7280.786v-40.517l9.395-4.549v5.139h8.472v7.243h-5.283a1.871 1.871 0 0 0-2.523 2.526v30.156z" class="cls-3"/>
                <path id="Path_702" d="M1094.6 7280.786l-9.4-39.927h10.571l4.614 29.735 4.445-29.735h10.653l-9.394 39.927z" class="cls-3"/>
                <path id="Path_703" d="M1116.582 7280.786v-5.643l13.589-27.043h-12.834v-7.244h25.67v5.643l-13.255 26.872h12.836v7.413z" class="cls-3"/>
                <path id="Path_704" d="M1152.235 7227.55h-4.951v-7.918h22.316l6.8 61.155h-9.986l-.588-7.328h-9.226l-.671 7.328h-10.069zm12.749 38.158l-3.858-38.411-3.858 38.411z" class="cls-3"/>
                <path id="Path_705" d="M1179.413 7300.749v-60.312l9.9-4.634v5.054h10.57a23.375 23.375 0 0 1 3.776.254 4.543 4.543 0 0 1 2.345 1.009 4.158 4.158 0 0 1 1.174 2.189 16.764 16.764 0 0 1 .336 3.706v25.609a17.9 17.9 0 0 1-.294 3.58 4.474 4.474 0 0 1-1.047 2.188 3.992 3.992 0 0 1-2.14 1.094 17.558 17.558 0 0 1-3.564.294h-11.159v19.969zm9.9-27.377h5.537a3.709 3.709 0 0 0 2.265-.421 3.976 3.976 0 0 0 .419-2.358v-19.711a3.966 3.966 0 0 0-.419-2.358 3.7 3.7 0 0 0-2.265-.422h-5.537z" class="cls-3"/>
                <path id="Path_706" d="M1211.542 7300.749v-60.312l9.9-4.634v5.054h10.57a23.375 23.375 0 0 1 3.776.254 4.532 4.532 0 0 1 2.344 1.009 4.145 4.145 0 0 1 1.174 2.189 16.707 16.707 0 0 1 .337 3.706v25.609a17.92 17.92 0 0 1-.294 3.58 4.466 4.466 0 0 1-1.048 2.188 3.986 3.986 0 0 1-2.139 1.094 17.568 17.568 0 0 1-3.565.294h-11.162v19.969zm9.9-27.377h5.537a3.708 3.708 0 0 0 2.265-.421 3.975 3.975 0 0 0 .419-2.358v-19.711a3.974 3.974 0 0 0-.419-2.358 3.7 3.7 0 0 0-2.265-.422h-5.544z" class="cls-3"/>
                <path id="Path_707" d="M1242.579 7219.632h11.577l-2.685 48.688h-5.784zm1.931 53.149h8.129v8h-8.129z" class="cls-3"/>
            </g>
        </g>
    </g>
</svg>
