<svg xmlns="http://www.w3.org/2000/svg" width="682.812" height="159.375" viewBox="0 0 682.812 159.375">
    <defs>
        <style>
            .cls-2{fill:#ffca07}.cls-3{fill:#fff}
        </style>
    </defs>
    <g id="Group_344" transform="translate(-618.698 -265.87)">
        <g id="STAND">
            <g id="Group_339">
                <g id="Rectangle_518" stroke="#fff" stroke-miterlimit="10" stroke-width="1.563px">
                    <path stroke="none" d="M0 0H679.688V156.25H0z" transform="translate(620.26 267.432)"/>
                    <path fill="none" d="M-0.781 -0.781H680.469V157.03199999999998H-0.781z" transform="translate(620.26 267.432)"/>
                </g>
                <path id="Path_686" d="M1082.533 301.614l-125.431.039 14.472 10.29-99.743 9.78 128.1.092-17.705-11.272z" class="cls-2"/>
                <path id="Path_687" d="M1289.919 411.853H630.29V279.266h659.63zm-656.959-2.682h654.288V281.947H632.96z" class="cls-2"/>
                <g id="Group_338">
                    <path id="Path_688" d="M671.1 380.433a7 7 0 0 1-2.934-1.222 5.64 5.64 0 0 1-1.8-2.358 9.594 9.594 0 0 1-.625-3.75v-10.187h10.228v7.83q0 1.6.625 2.064a6.443 6.443 0 0 0 3.144.468 7.432 7.432 0 0 0 3.061-.42c.529-.282.8-.981.8-2.107v-8.165a10.762 10.762 0 0 0-1.342-5.558 16.3 16.3 0 0 0-3.31-4 39.713 39.713 0 0 0-4.277-3.241 31.232 31.232 0 0 1-4.277-3.368 16.883 16.883 0 0 1-3.31-4.336 12.849 12.849 0 0 1-1.342-6.187v-8.841q0-4.716 2.6-6.189a14.924 14.924 0 0 1 7.3-1.473h7.959a26.749 26.749 0 0 1 4.193.3 8.083 8.083 0 0 1 3.143 1.136 5.3 5.3 0 0 1 1.971 2.356 9.61 9.61 0 0 1 .671 3.875v10.523H683.6v-8.082q0-1.684-.8-2.1a7.412 7.412 0 0 0-3.061-.422 7.013 7.013 0 0 0-3.143.422q-.625.421-.625 2.1v5.893a6.51 6.51 0 0 0 1.34 4.042 18.621 18.621 0 0 0 3.313 3.325q1.973 1.563 4.319 3.158a28.312 28.312 0 0 1 4.318 3.62 18.6 18.6 0 0 1 3.313 4.714 14.436 14.436 0 0 1 1.34 6.485v12.376a9.6 9.6 0 0 1-.67 3.873 5.281 5.281 0 0 1-1.97 2.358 8.527 8.527 0 0 1-3.145 1.178 23.565 23.565 0 0 1-4.193.337h-8.887a26.966 26.966 0 0 1-3.949-.427z" class="cls-3"/>
                    <path id="Path_689" d="M706.91 380.684a23.236 23.236 0 0 1-3.818-.252 4.493 4.493 0 0 1-2.3-1.011 3.9 3.9 0 0 1-1.132-2.187 18.987 18.987 0 0 1-.294-3.7v-25.516h-5.625l15.759-20.625v13.387h7.3v7.24h-7.3v22.48a2.091 2.091 0 0 0 2.768 2.778h4.532v7.409z" class="cls-3"/>
                    <path id="Path_690" d="M727.118 380.684a22.607 22.607 0 0 1-3.731-.252 4.485 4.485 0 0 1-2.305-1.011 4.1 4.1 0 0 1-1.177-2.187 16.738 16.738 0 0 1-.334-3.7v-11.708a20.723 20.723 0 0 1 .251-3.579 4.2 4.2 0 0 1 1.006-2.187 4 4 0 0 1 2.139-1.094 18.207 18.207 0 0 1 3.647-.3h11.068v-4.463a1.6 1.6 0 0 0-2.188-2.187h-14.337v-7.24h18.95a22.613 22.613 0 0 1 3.731.253 4.514 4.514 0 0 1 2.306 1.009 4.129 4.129 0 0 1 1.172 2.188 16.632 16.632 0 0 1 .336 3.705v32.753zm10.565-7.41v-11.365h-5.625q-.924 0-1.467.04a1.016 1.016 0 0 0-1.094.931 1.1 1.1 0 0 0 0 .163q-.042.551-.042 1.474v6.229a9.277 9.277 0 0 0 .084 1.433 1.368 1.368 0 0 0 .335.756 1.214 1.214 0 0 0 .8.3c.362.03.853.042 1.467.042z" class="cls-3"/>
                    <path id="Path_691" d="M751.685 380.684v-39.909h9.894v2.525a13.41 13.41 0 0 1 4.531-2.657 15.6 15.6 0 0 1 4.531-.624 13.067 13.067 0 0 1 3.018.378 12.269 12.269 0 0 1 2.935 1.094 7.389 7.389 0 0 1 2.222 1.769 3.637 3.637 0 0 1 .881 2.4v35.027h-9.984v-30.735a2.1 2.1 0 0 0-.211-1.178c-.141-.167-.517-.253-1.131-.253h-5.954q-.839 0-.839 1.011v31.153z" class="cls-3"/>
                    <path id="Path_692" d="M790.758 380.684a18.136 18.136 0 0 1-3.648-.294 3.987 3.987 0 0 1-2.137-1.094 4.2 4.2 0 0 1-1.007-2.187 20.706 20.706 0 0 1-.251-3.578v-25.6a16.7 16.7 0 0 1 .336-3.7 4.124 4.124 0 0 1 1.173-2.187 4.481 4.481 0 0 1 2.307-1.009 22.5 22.5 0 0 1 3.731-.254h10.564v-23.494l9.978 4.548v58.854zm11.068-7.41v-25.259h-5.535a3.676 3.676 0 0 0-2.262.422 3.933 3.933 0 0 0-.421 2.357v19.7a3.948 3.948 0 0 0 .421 2.357 3.7 3.7 0 0 0 2.262.421z" class="cls-3"/>
                    <path id="Path_693" d="M831.508 380.684a23.2 23.2 0 0 1-3.815-.252 4.28 4.28 0 0 1-2.306-1.053 4.365 4.365 0 0 1-1.175-2.231 17.276 17.276 0 0 1-.335-3.789v-46.471a17.271 17.271 0 0 1 .335-3.789 4.379 4.379 0 0 1 1.175-2.232 4.309 4.309 0 0 1 2.306-1.053 23.309 23.309 0 0 1 3.815-.251h13a24.169 24.169 0 0 1 3.857.251 4.6 4.6 0 0 1 2.39 1.053 4.22 4.22 0 0 1 1.215 2.232 17.144 17.144 0 0 1 .336 3.789v46.476a19.083 19.083 0 0 1-.293 3.7 4.308 4.308 0 0 1-1.094 2.232 4.247 4.247 0 0 1-2.187 1.094 18.206 18.206 0 0 1-3.647.294zm8.049-7.578a1.842 1.842 0 0 0 2.431-2.441v-41.093a3.413 3.413 0 0 0-.377-2.063 3.377 3.377 0 0 0-2.054-.38h-3.019a3.37 3.37 0 0 0-2.054.38 3.413 3.413 0 0 0-.377 2.063v41.093a1.842 1.842 0 0 0 2.431 2.441z" class="cls-3"/>
                    <path id="Path_694" d="M874.688 380.684h-9.727a9.813 9.813 0 0 1-6.665-1.852q-2.057-1.851-2.055-6.562v-31.489h9.894v30.057a2.186 2.186 0 0 0 2.517 2.442h5.617v-32.5h9.978v38.563l-9.559 3.281z" class="cls-3"/>
                    <path id="Path_695" d="M898.416 380.684a23.2 23.2 0 0 1-3.815-.252 4.489 4.489 0 0 1-2.3-1.011 3.9 3.9 0 0 1-1.133-2.187 18.982 18.982 0 0 1-.294-3.7v-25.516h-5.617l15.764-20.625v13.387h7.294v7.24h-7.294v22.48a2.089 2.089 0 0 0 2.768 2.778h4.531v7.409z" class="cls-3"/>
                    <path id="Path_696" d="M965.913 360.95a12.109 12.109 0 0 1-4.687 2.789 31.6 31.6 0 0 1-6.424 1.35 27.453 27.453 0 0 1-1.375 4.92 18.853 18.853 0 0 1-2.9 5.156 16.651 16.651 0 0 1-4.66 4.05 15.348 15.348 0 0 1-11.383.99 3.4 3.4 0 0 1-1.972-1.68 10.517 10.517 0 0 1-3.255 1.65 13.03 13.03 0 0 1-4.153.689 6.936 6.936 0 0 1-4.781-1.406 4.888 4.888 0 0 1-1.553-3.809 10.968 10.968 0 0 1 .478-3.03 26.956 26.956 0 0 1 1.314-3.511l6.752-15.18 7.111 4.139-6.991 15.541a7.512 7.512 0 0 0-.389 1.079 3.65 3.65 0 0 0-.156.962q0 .959.895.959 1.373 0 2.57-2.641l6.513-14.519 6.929 4.2-4.42 9.961a4.518 4.518 0 0 0-.478 2.041q0 .959.836.959a3.507 3.507 0 0 0 2.329-1.5 22.017 22.017 0 0 0 2.541-3.659 30.511 30.511 0 0 0 2.092-4.531 15.513 15.513 0 0 0 .985-4.171 2.463 2.463 0 0 1-.926-1.2 5.606 5.606 0 0 1-.209-1.68 6.081 6.081 0 0 1 .538-2.52 6.492 6.492 0 0 1 1.493-2.1 7.36 7.36 0 0 1 2.271-1.441 7.482 7.482 0 0 1 2.867-.539 5.511 5.511 0 0 1 3.376.959 3.437 3.437 0 0 1 1.284 2.94 7.952 7.952 0 0 1-1.314 3.421c.239.039.5.068.782.089s.557.03.835.03a7.473 7.473 0 0 0 2.541-.419 13.831 13.831 0 0 0 2.6-1.321zm-12.248-1.02a4.561 4.561 0 0 0 .357-1.68q0-1.32-.895-1.321-1.434 0-1.434 1.38a1.547 1.547 0 0 0 .419 1.14 2.368 2.368 0 0 0 1.553.476z" class="cls-3"/>
                    <path id="Path_697" d="M977.744 370.364a11.527 11.527 0 0 1-2.778 3.593 26.373 26.373 0 0 1-4.6 3.391 30.449 30.449 0 0 1-5.439 2.518 15.954 15.954 0 0 1-5.227.99 4.643 4.643 0 0 1-3.137-1.049 3.552 3.552 0 0 1-1.225-2.849 6.726 6.726 0 0 1 .781-3l8.906-20.039 7.528 4.139-6.332 14.342a3.151 3.151 0 0 0-.3 1.08q0 .9 1.015.9a5.685 5.685 0 0 0 2.391-.659 17.068 17.068 0 0 0 2.689-1.621 18.323 18.323 0 0 0 2.389-2.071 7.75 7.75 0 0 0 1.495-2.009zm.956-24.958a3.224 3.224 0 0 1-.746 2.069 6.4 6.4 0 0 1-1.854 1.562 10.4 10.4 0 0 1-2.419.989 9.224 9.224 0 0 1-2.45.361 5.541 5.541 0 0 1-2.779-.691 2.1 2.1 0 0 1-1.224-1.89 3.243 3.243 0 0 1 .658-1.889 6.5 6.5 0 0 1 1.731-1.65 9.471 9.471 0 0 1 2.391-1.141 8.812 8.812 0 0 1 2.687-.42 5.376 5.376 0 0 1 2.78.72 2.208 2.208 0 0 1 1.225 1.98z" class="cls-3"/>
                    <path id="Path_698" d="M994.952 370.364a11.262 11.262 0 0 1-2.778 3.66 27.1 27.1 0 0 1-4.572 3.391 28.456 28.456 0 0 1-5.378 2.489 16.171 16.171 0 0 1-5.2.959 4.143 4.143 0 0 1-3.2-1.26 4.26 4.26 0 0 1-1.166-3 6.68 6.68 0 0 1 .156-1.291 5.848 5.848 0 0 1 .508-1.47l6.453-14.578h-2.57l1.493-3.36h2.51l8.3-18.54 10.157-.661-8.483 19.2h2.687l-1.494 3.36H989.7l-6.214 13.919a2.336 2.336 0 0 0-.3.959c0 .322.2.481.6.481a5.947 5.947 0 0 0 2.479-.66 17.664 17.664 0 0 0 2.778-1.649 19 19 0 0 0 2.51-2.161 8.986 8.986 0 0 0 1.614-2.129z" class="cls-3"/>
                    <path id="Path_699" d="M1024.766 370.364a10.557 10.557 0 0 1-2.687 3.57 28.041 28.041 0 0 1-4.543 3.391 29.062 29.062 0 0 1-5.347 2.548 15.453 15.453 0 0 1-5.169.99 3.939 3.939 0 0 1-3.376-1.259 4.654 4.654 0 0 1-.925-2.821 7.739 7.739 0 0 1 .119-1.35 6.006 6.006 0 0 1 .478-1.47q1.373-3.239 2.778-6a58.591 58.591 0 0 0 2.6-5.937c.2-.52.312-.859.358-1.02a1.8 1.8 0 0 0 .059-.419q0-.781-.9-.781a2.26 2.26 0 0 0-2.209 1.5l-8.544 19.375h-9.92l19.843-44.639h9.919l-9.2 20.52a11.42 11.42 0 0 1 2.569-1.109 8.716 8.716 0 0 1 2.331-.331 5.831 5.831 0 0 1 3.855 1.02 3.7 3.7 0 0 1 1.164 2.939 10.156 10.156 0 0 1-.268 2.343 23.3 23.3 0 0 1-.808 2.61q-.538 1.472-1.344 3.36t-1.941 4.47q-.18.54-.329.959a2.116 2.116 0 0 0-.157.66q0 .9 1.077.9a5.1 5.1 0 0 0 2.151-.659 19.389 19.389 0 0 0 5.019-3.691 7.658 7.658 0 0 0 1.492-2.009z" class="cls-3"/>
                    <path id="Path_700" d="M1040.043 327.472h-4.943v-7.914h22.3l6.792 61.127h-9.978l-.586-7.325h-9.219l-.672 7.325h-10.062zm12.745 38.141l-3.858-38.394-3.856 38.394z" class="cls-3"/>
                    <path id="Path_701" d="M1067.213 380.684v-40.5l9.391-4.547v5.136h8.468v7.24h-5.281a3.957 3.957 0 0 0-2.187.337 4 4 0 0 0-.335 2.187v30.143z" class="cls-3"/>
                    <path id="Path_702" d="M1095.13 380.684l-9.392-39.909h10.562l4.612 29.721 4.442-29.721h10.649l-9.389 39.909z" class="cls-3"/>
                    <path id="Path_703" d="M1117.1 380.684v-5.64l13.583-27.031h-12.828v-7.241h25.658v5.641l-13.249 26.859h12.83v7.41z" class="cls-3"/>
                    <path id="Path_704" d="M1152.733 327.472h-4.948v-7.914h22.3l6.792 61.127h-9.977l-.587-7.325h-9.219l-.67 7.325h-10.062zm12.744 38.141l-3.856-38.394-3.856 38.394z" class="cls-3"/>
                    <path id="Path_705" d="M1179.9 400.637v-60.284l9.894-4.631v5.051h10.565a23.474 23.474 0 0 1 3.774.253 4.551 4.551 0 0 1 2.344 1.01 4.145 4.145 0 0 1 1.173 2.187 16.7 16.7 0 0 1 .336 3.705v25.6a17.81 17.81 0 0 1-.294 3.578 4.46 4.46 0 0 1-1.046 2.187 3.99 3.99 0 0 1-2.139 1.094 17.665 17.665 0 0 1-3.563.294h-11.154v19.959zm9.894-27.364h5.534a3.7 3.7 0 0 0 2.264-.421 3.971 3.971 0 0 0 .419-2.357v-19.7a3.965 3.965 0 0 0-.419-2.358 3.7 3.7 0 0 0-2.264-.422h-5.534z" class="cls-3"/>
                    <path id="Path_706" d="M1212.013 400.637v-60.284l9.894-4.631v5.051h10.565a23.475 23.475 0 0 1 3.774.253 4.542 4.542 0 0 1 2.344 1.01 4.145 4.145 0 0 1 1.173 2.187 16.7 16.7 0 0 1 .336 3.705v25.6a17.828 17.828 0 0 1-.294 3.578 4.46 4.46 0 0 1-1.046 2.187 3.99 3.99 0 0 1-2.139 1.094 17.666 17.666 0 0 1-3.563.294H1221.9v19.959zm9.894-27.364h5.534a3.7 3.7 0 0 0 2.264-.421 3.971 3.971 0 0 0 .419-2.357v-19.7a3.965 3.965 0 0 0-.419-2.358 3.7 3.7 0 0 0-2.264-.422h-5.541z" class="cls-3"/>
                    <path id="Path_707" d="M1243.036 319.557h11.572l-2.684 48.666h-5.781zm1.93 53.125h8.125v8h-8.125z" class="cls-3"/>
                </g>
            </g>
        </g>
    </g>
</svg>
