<svg xmlns="http://www.w3.org/2000/svg" width="550.508" height="550.509" viewBox="0 0 550.508 550.509">
    <defs>
        <style>
            .cls-1{fill:#ffca05}.cls-2{fill:#fff}
        </style>
    </defs>
    <g id="Group_103" transform="translate(-685.613 -6263.993)">
        <g id="Group_86">
            <circle id="Ellipse_14" cx="272.242" cy="272.242" r="272.242" transform="translate(688.625 6267.005)"/>
            <path id="Path_140" d="M960.867 6814.5c-151.777 0-275.254-123.479-275.254-275.254s123.477-275.255 275.254-275.255 275.254 123.478 275.254 275.255S1112.644 6814.5 960.867 6814.5zm0-544.485c-148.455 0-269.23 120.776-269.23 269.231s120.775 269.23 269.23 269.23 269.23-120.776 269.23-269.23-120.775-269.229-269.23-269.229z" class="cls-1"/>
        </g>
        <g id="Group_87">
            <circle id="Ellipse_15" cx="191.179" cy="191.179" r="191.179" class="cls-1" transform="translate(769.688 6348.068)"/>
            <path id="Path_141" d="M960.867 6733.439c-107.078 0-194.191-87.114-194.191-194.191s87.113-194.192 194.191-194.192 194.193 87.114 194.193 194.192-87.115 194.191-194.193 194.191zm0-382.359c-103.756 0-188.167 84.412-188.167 188.168s84.411 188.167 188.167 188.167 188.169-84.411 188.169-188.167-84.413-188.168-188.169-188.168z" class="cls-1"/>
        </g>
        <g id="Group_90">
            <path id="Path_142" d="M753.175 6653.559a237.235 237.235 0 0 1-23.607-166.243l7.84 1.753a229.219 229.219 0 0 0 22.8 160.619z" class="cls-1"/>
            <g id="Group_88">
                <path id="Path_143" d="M758.733 6617.364l-4.263 28.691-27.561-9.039 49.752 44.975z" class="cls-1"/>
                <path id="Path_144" d="M758.916 6627.977l14.019 47.983-16.683-27.018z" class="cls-2"/>
            </g>
            <g id="Group_89">
                <path id="Path_145" d="M743.664 6491.3a10.569 10.569 0 1 0-12.778 7.756 10.572 10.572 0 0 0 12.778-7.756z" class="cls-2"/>
                <path id="Path_146" d="M745.029 6491.634a11.975 11.975 0 1 1-8.787-14.477 11.989 11.989 0 0 1 8.787 14.477c-1.568 6.414 1.571-6.414 0 0zm-20.534-5.022a9.164 9.164 0 1 0 11.079-6.724 9.173 9.173 0 0 0-11.079 6.724c-1.201 4.91 1.205-4.912 0 0z" class="cls-1"/>
            </g>
        </g>
        <g id="Group_93">
            <path id="Path_147" d="M1168.559 6653.559l-7.036-3.871a229.207 229.207 0 0 0 22.805-160.619l7.84-1.753a237.224 237.224 0 0 1-23.609 166.243z" class="cls-1"/>
            <g id="Group_91">
                <path id="Path_148" d="M1194.827 6637.016l-27.561 9.039-4.266-28.691-17.927 64.626z" class="cls-1"/>
                <path id="Path_149" d="M1185.421 6641.933l-36.621 34.027 16.683-27.018z" class="cls-2"/>
            </g>
            <g id="Group_92">
                <path id="Path_150" d="M1198.6 6486.279a10.569 10.569 0 1 0-7.756 12.777 10.571 10.571 0 0 0 7.756-12.777z" class="cls-2"/>
                <path id="Path_151" d="M1199.971 6485.945a11.976 11.976 0 1 1-14.478-8.788 11.991 11.991 0 0 1 14.478 8.788c1.568 6.413-1.571-6.414 0 0zm-20.535 5.021a9.164 9.164 0 1 0 6.725-11.078 9.172 9.172 0 0 0-6.725 11.078c1.201 4.91-1.2-4.909 0 0z" class="cls-1"/>
            </g>
        </g>
        <g id="Group_94">
            <path id="Path_152" d="M775.358 6434.686l-39.64-6.753 4.665-7.822 30.1 5.842-19.472-23.662 4.665-7.822 24.809 31.621z" class="cls-2"/>
            <path id="Path_153" d="M797.717 6402.479l-28.264-24.648 5.248-6.017 28.263 24.646z" class="cls-2"/>
            <path id="Path_154" d="M816.046 6382.743l-23.81-28.979 20.508-16.849 4.461 5.431-14.337 11.78 5.032 6.126 14.035-11.53 4.461 5.431-14.033 11.53 5.389 6.56 14.339-11.779 4.461 5.431z" class="cls-2"/>
            <path id="Path_155" d="M876.505 6343.646l-16.9-20.513 5.041 26.081-7.685 3.61-25.661-29.382 8.093-3.8 17.474 21.733-5.057-27.565 5.649-2.654 17.933 21.52-5.616-27.3 8.142-3.824 6.271 38.486z" class="cls-2"/>
            <path id="Path_156" d="M966.454 6326.111l-.816-26.243-9.748 26.571-3.485.109-11.379-25.914.816 26.243-7.98.247-1.165-37.482 11.182-.347 9.807 22.364 8.4-22.93 11.238-.349 1.165 37.482z" class="cls-2"/>
            <path id="Path_157" d="M995.308 6309.375c2.606-11 12.517-16.974 23.516-14.369 11.054 2.618 17.233 12.4 14.627 23.4s-12.515 16.976-23.569 14.357c-11.001-2.604-17.182-12.389-14.574-23.388zm30.154 7.141c1.62-6.84-1.539-13.021-8.271-14.615s-12.272 2.525-13.892 9.366c-1.608 6.786 1.484 13.009 8.214 14.6s12.341-2.567 13.949-9.351z" class="cls-2"/>
            <path id="Path_158" d="M1044.56 6342.907l17.106-33.374 17.562 9c6.354 3.257 7.531 8.977 5.248 13.431-2.155 4.2-6.193 5.671-9.679 4.705 3.27 2.372 4.353 7.286 2.2 11.489-2.565 5-7.97 7.288-14.325 4.031zm25.693.533c1.078-2.1.5-4.672-2.3-6.108l-9.156-4.693-3.975 7.756 9.156 4.692c2.7 1.386 5.045.755 6.275-1.647zm6.326-13.942a4.035 4.035 0 0 0-2.032-5.654l-8.9-4.565-3.72 7.256 8.906 4.565c2.399 1.23 4.667.5 5.746-1.6z" class="cls-2"/>
            <path id="Path_159" d="M1086.513 6367.373l22.726-29.838 6.352 4.837-22.726 29.839z" class="cls-2"/>
            <path id="Path_160" d="M1107.361 6384.436l27.14-25.874 5.508 5.778-22.055 21.025 10.94 11.475-5.086 4.848z" class="cls-2"/>
            <path id="Path_161" d="M1134.142 6414.954l31.7-20.029 14.172 22.431-5.939 3.753-9.909-15.682-6.7 4.234 9.7 15.349-5.942 3.754-9.7-15.35-7.175 4.534 9.909 15.683-5.94 3.753z" class="cls-2"/>
        </g>
        <g id="Group_95">
            <path id="Path_162" d="M792.161 6725.241l2.085-4.087-9.689-9.393-4.022 2.208-9.245-8.962 36.038-17.3 10.254 9.941-16.177 36.552zm12.543-24.569l-11.078 6.1 5.328 5.165z" class="cls-2"/>
            <path id="Path_163" d="M842.394 6760.623l1.257-12.833-3.581-2.008-5.771 10.3-9.911-5.553 18.331-32.725 17.467 9.785c7.654 4.287 8.917 11.7 5.481 17.831a12.089 12.089 0 0 1-11.439 6.613l-.549 14.9zm13.242-20.879c.991-1.769-.141-3.432-1.808-4.367l-6.035-3.377-2.885 5.152 6.034 3.381c1.669.929 3.679 1.027 4.694-.789z" class="cls-2"/>
            <path id="Path_164" d="M891.123 6780.529l-4.034-39.763 12.468 3.21 1.539 26.466 14.141-22.422 12.466 3.214-22.752 32.86z" class="cls-2"/>
            <path id="Path_165" d="M944.548 6790.193l.064-9 14.416-18.516-14.286-.1.07-9.9 29.3.206-.063 8.94-14.47 18.572 14.733.1-.069 9.9z" class="cls-2"/>
            <path id="Path_166" d="M1028.921 6781.123l-2.361-3.94-13.105 3.228-.263 4.583-12.505 3.077 4.465-39.73 13.872-3.416 22.4 33.117zm-14.172-23.677l-.712 12.629 7.209-1.777z" class="cls-2"/>
            <path id="Path_167" d="M1067.392 6767.2l-17.957-32.925 17.574-9.585c7.7-4.2 14.645-1.326 18.012 4.845 3.338 6.123 1.991 13.515-5.71 17.716l-7.6 4.145 5.652 10.368zm7.508-32.146c-.968-1.779-2.759-1.891-4.437-.975l-6.319 3.447 2.826 5.183 6.319-3.447c1.68-.918 2.555-2.483 1.611-4.21z" class="cls-2"/>
            <path id="Path_168" d="M1120.331 6733.848l-25.521-27.488 14.669-13.617c6.428-5.969 13.868-4.9 18.651.251 4.743 5.111 5.263 12.609-1.165 18.579l-6.346 5.89 8.034 8.656zm-.649-33.01c-1.377-1.484-3.138-1.151-4.54.149l-5.275 4.9 4.018 4.326 5.273-4.9c1.402-1.3 1.863-3.033.524-4.475z" class="cls-2"/>
        </g>
        <g id="Group_96">
            <rect id="Rectangle_35" width="152.705" height="288.443" fill="#bbbdbf" rx="26.478" transform="translate(882.84 6394.362)"/>
            <path id="Path_169" d="M1009.067 6394.362a26.478 26.478 0 0 1 26.478 26.478v235.487a26.479 26.479 0 0 1-26.478 26.478h-99.749a26.478 26.478 0 0 1-26.478-26.478V6420.84a26.478 26.478 0 0 1 26.478-26.478h99.749m0-10.041h-99.749a36.561 36.561 0 0 0-36.518 36.519v235.487a36.56 36.56 0 0 0 36.518 36.518h99.749a36.56 36.56 0 0 0 36.518-36.518V6420.84a36.56 36.56 0 0 0-36.518-36.519z"/>
        </g>
        <g id="Group_97">
            <rect id="Rectangle_36" width="129.642" height="133.515" rx="18.474" transform="translate(894.461 6404.364)"/>
            <path id="Path_170" d="M1005.629 6410.388a12.464 12.464 0 0 1 12.45 12.45v96.562a12.465 12.465 0 0 1-12.45 12.451h-92.693a12.465 12.465 0 0 1-12.45-12.451v-96.566a12.464 12.464 0 0 1 12.45-12.45h92.693m0-6.024h-92.693a18.475 18.475 0 0 0-18.475 18.474v96.566a18.476 18.476 0 0 0 18.475 18.475h92.693a18.475 18.475 0 0 0 18.471-18.475v-96.566a18.474 18.474 0 0 0-18.474-18.474z" class="cls-2"/>
        </g>
        <g id="Group_99">
            <g id="Group_98">
                <circle id="Ellipse_16" cx="49.425" cy="49.425" r="49.425" class="cls-2" transform="translate(753.07 6490.917)"/>
                <path id="Path_171" d="M802.494 6592.929a52.588 52.588 0 1 1 52.588-52.588 52.648 52.648 0 0 1-52.588 52.588zm0-98.85a46.262 46.262 0 1 0 46.261 46.262 46.315 46.315 0 0 0-46.261-46.262z"/>
            </g>
            <path id="Path_172" d="M814.064 6503.727c.11 9.447-4.942 15.158-12.961 16.147a15.548 15.548 0 0 1 12.961-16.147z"/>
            <path id="Path_173" d="M827.136 6525.256c-4.833-6.261-9.666-8.238-19.442-4.943s-19.246-6.392-27.571 2.637c-7.8 8.458-8.747 21.139.439 37.456 8.348 14.829 17.9 7.03 17.9 7.03 2.856-1.318 6.81-.549 10.655.989s12.631 3.734 19.881-16.367c-6.585-3.076-14.714-15.927-1.862-26.802z"/>
        </g>
        <g id="Group_101">
            <g id="Group_100">
                <circle id="Ellipse_17" cx="49.425" cy="49.425" r="49.425" class="cls-2" transform="translate(1068.907 6490.917)"/>
                <path id="Path_174" d="M1118.332 6592.929a52.588 52.588 0 1 1 52.588-52.588 52.647 52.647 0 0 1-52.588 52.588zm0-98.85a46.262 46.262 0 1 0 46.262 46.262 46.315 46.315 0 0 0-46.262-46.262z"/>
            </g>
            <path id="Path_175" fill-rule="evenodd" d="M1128.444 6519.235h-4.544v-4.545h4.545zm-15.7 0h-4.544v-4.545h4.545zm16.665-9.622l4.083-4.083a1.577 1.577 0 0 0-2.23-2.23l-4.648 4.649a18.326 18.326 0 0 0-8.291-1.979 18.589 18.589 0 0 0-8.354 1.979l-4.68-4.649a1.577 1.577 0 0 0-2.23 2.23l4.115 4.114a18.791 18.791 0 0 0-7.7 15.17h37.688a18.737 18.737 0 0 0-7.756-15.201zm15.609 18.341a4.706 4.706 0 0 0-4.711 4.711v21.985a4.711 4.711 0 0 0 9.422 0v-21.985a4.7 4.7 0 0 0-4.714-4.711zm-53.391 0a4.706 4.706 0 0 0-4.711 4.711v21.985a4.711 4.711 0 0 0 9.422 0v-21.985a4.7 4.7 0 0 0-4.714-4.711zm7.852 31.407a3.15 3.15 0 0 0 3.141 3.141h3.14v10.992a4.711 4.711 0 0 0 9.422 0V6562.5h6.281v10.992a4.711 4.711 0 0 0 9.422 0V6562.5h3.141a3.151 3.151 0 0 0 3.141-3.141v-31.407h-37.688z"/>
        </g>
        <g id="Group_102">
            <path id="Path_176" d="M920.269 6656.83l-15.069-37.5h5.342l12.651 32.385 12.65-32.385h5.342l-15.126 37.5z" class="cls-2"/>
            <path id="Path_177" d="M955.633 6656.83v-37.5h4.667v37.5z" class="cls-2"/>
            <path id="Path_178" d="M1005.393 6656.83l-3.316-8.321h-18.666l-3.318 8.321h-5.342l15.068-37.5h5.791l15.125 37.5zm-12.65-32.666l-7.983 20.184h15.911z" class="cls-2"/>
            <path id="Path_179" d="M904.7 6664.87v-1.124h116.1v1.124z" class="cls-2"/>
        </g>
    </g>
</svg>
