<svg xmlns="http://www.w3.org/2000/svg" xmlns:xlink="http://www.w3.org/1999/xlink" width="146.64" height="140.038" viewBox="0 0 146.64 140.038"><defs><style>.a{fill:url(#a);}.b{fill:#82651f;}</style><linearGradient id="a" x1="0.09" y1="0.085" x2="0.887" y2="0.891" gradientUnits="objectBoundingBox"><stop offset="0.233" stop-color="#fbc926"/><stop offset="0.316" stop-color="#fffbcc"/><stop offset="0.369" stop-color="#eed688"/><stop offset="0.512" stop-color="#fffbcc"/><stop offset="0.718" stop-color="#fbc926"/></linearGradient></defs><g transform="translate(-1565.528 -14630.895)"><path class="a" d="M1709.287,14700.911l-15.585-17.874,2.2-23.686-23.157-5.283-12.063-20.428-21.837,9.421-21.749-9.421-12.151,20.428-23.069,5.283,2.2,23.686-15.673,17.874,15.585,17.875-2.2,23.686,23.157,5.283,12.063,20.428,21.837-9.51,21.749,9.422,12.063-20.428,23.157-5.283-2.2-23.686Z"/><path class="b" d="M1660.683,14633.641l12.063,20.428,23.157,5.282-2.2,23.687,15.585,17.875-15.673,17.786,2.2,23.685-23.157,5.284-12.063,20.427-21.749-9.421-21.837,9.51-12.063-20.428-23.157-5.283,2.2-23.686-15.585-17.874,15.673-17.875-2.2-23.687,23.069-5.282,12.151-20.428,21.749,9.421,21.837-9.421m.9-2.746-1.753.757-20.977,9.05-20.89-9.048-1.748-.759-.974,1.639-11.677,19.631-22.165,5.076-1.849.423.175,1.889,2.115,22.757-15.059,17.176-1.248,1.423,1.244,1.428,14.975,17.175-2.115,22.762-.176,1.89,1.851.423,22.248,5.075,11.589,19.625.974,1.648,1.756-.764,20.974-9.134,20.886,9.047,1.754.76.972-1.646,11.589-19.625,22.248-5.076,1.851-.422-.176-1.891-2.114-22.755,15.054-17.084,1.256-1.425-1.248-1.431-14.975-17.175,2.115-22.762.176-1.89-1.851-.422-22.248-5.076-11.589-19.625-.97-1.645Z"/><path class="b" d="M1626.431,14727.943l-18.667-18.667,6.252-6.252,12.415,12.415,37.334-37.333,6.252,6.251Z"/><path class="b" d="M1623.409,14656.426l-1.986.882,5.929,13.348-2.576,1.144-5.929-13.346-1.985.883-.881-1.986,6.545-2.907Z"/><path class="b" d="M1634.957,14651.693l2.819-.008.013,5.824,2.194-.006-.012-5.822,2.841-.007.037,16.776-2.842.006-.018-8.757-2.2,0,.021,8.758-2.819.007Z"/><path class="b" d="M1655.232,14654.266l6.026,2.538-.845,2-3.385-1.428-1.417,3.365,2.726,1.147-.853,2.024-2.726-1.148-2.539,6.025,3.385,1.427-.86,2.045-6.027-2.54Z"/><path class="b" d="M1602.652,14719.864a41.382,41.382,0,0,1,4.6-45.714l1.114.92a39.931,39.931,0,0,0-4.444,44.113Z"/><path class="b" d="M1605.19,14714.771l-2.518,3.557-4.308.657,8.408,5.983Z"/><path class="b" d="M1608.747,14679.651l-1.767-3.984-4.094-1.494,9.422-4.208Z"/><path class="b" d="M1675.372,14720.437l-1.263-.7a39.934,39.934,0,0,0,4.964-19.29,39.514,39.514,0,0,0-8.314-24.383l1.143-.884a40.949,40.949,0,0,1,8.615,25.267A41.37,41.37,0,0,1,1675.372,14720.437Z"/><path class="b" d="M1670.252,14680.624l1.886-3.929,4.137-1.369-9.291-4.49Z"/><path class="b" d="M1672.914,14715.311l2.46,3.6,4.3.727-8.5,5.847Z"/><path class="b" d="M1638.9,14755.029q-1.473-.006-2.925-.093l.084-1.44q1.416.082,2.846.089Zm2.923-.063-.07-1.441q1.431-.07,2.841-.214l.147,1.437Q1643.3,14754.9,1641.825,14754.966Zm-8.764-.274q-1.46-.164-2.9-.4l.237-1.424q1.4.231,2.822.392Zm14.582-.316-.223-1.427q1.414-.221,2.8-.516l.3,1.413C1649.571,14754.048,1648.612,14754.222,1647.643,14754.375Zm-20.353-.642q-1.434-.316-2.837-.711l.389-1.391q1.365.381,2.761.691Zm26.074-.568-.372-1.4q1.377-.366,2.729-.812l.449,1.374Q1654.784,14752.783,1653.364,14753.165Zm-31.706-1.006q-1.395-.472-2.751-1.016l.536-1.34q1.32.527,2.677.987Zm37.269-.816-.522-1.349q1.326-.511,2.619-1.1l.595,1.313Q1660.29,14750.813,1658.927,14751.343Zm-42.71-1.359q-1.334-.618-2.625-1.306l.68-1.273q1.256.669,2.551,1.27Zm48.031-1.047-.663-1.283q1.263-.655,2.489-1.373l.731,1.243C1665.967,14748.017,1665.112,14748.489,1664.248,14748.937Zm-53.205-1.7q-1.255-.757-2.466-1.58l.812-1.193q1.174.8,2.4,1.534Zm58.243-1.262-.8-1.205q1.189-.785,2.33-1.634l.86,1.159Q1670.505,14745.167,1669.286,14745.975Zm-63.09-2.024q-1.166-.886-2.283-1.831l.934-1.1q1.086.921,2.224,1.783Zm67.782-1.46-.923-1.111q1.1-.907,2.144-1.875l.98,1.062Q1675.105,14741.556,1673.978,14742.49Zm-72.245-2.321q-1.067-1-2.075-2.063l1.046-1q.98,1.028,2.019,2.006Zm76.543-1.645-1.035-1.008q.995-1.021,1.934-2.094l1.086.95Q1679.3,14737.476,1678.276,14738.524Zm-80.58-2.59q-.951-1.11-1.842-2.271l1.145-.88q.868,1.129,1.794,2.212Zm84.433-1.814-1.136-.893q.879-1.119,1.7-2.286l1.182.828C1683.313,14732.57,1682.73,14733.352,1682.129,14734.12Zm-87.995-2.824q-.825-1.2-1.588-2.451l1.232-.753q.741,1.217,1.546,2.39Zm91.358-1.967-1.225-.765q.756-1.21,1.446-2.459l1.264.7Q1686.268,14728.088,1685.492,14729.329Zm-94.4-3.021q-.691-1.283-1.314-2.606l1.306-.615q.6,1.289,1.28,2.537Zm97.236-2.109-1.3-.629q.618-1.28,1.172-2.6l1.331.56C1689.151,14722.432,1688.749,14723.324,1688.326,14724.2Zm-99.726-3.171q-.552-1.351-1.031-2.736l1.365-.474q.468,1.349,1,2.665Zm101.99-2.231-1.36-.486q.477-1.336.883-2.707l1.385.411Q1691.079,14717.422,1690.59,14718.8Zm-103.9-3.3q-.4-1.4-.73-2.833l1.408-.322q.32,1.393.709,2.758Zm105.565-2.307-1.405-.34q.333-1.378.588-2.784l1.422.26Q1692.595,14711.772,1692.254,14713.192Zm-106.869-3.4q-.249-1.433-.421-2.9l1.433-.169q.168,1.421.41,2.818Zm107.921-2.36-1.433-.183q.18-1.406.287-2.835l1.441.108Q1693.491,14705.991,1693.306,14707.436Zm-108.607-3.448q-.093-1.449-.11-2.922l1.444-.018q.016,1.434.107,2.849Zm109.04-2.386-1.444-.027c.007-.374.011-.751.011-1.127,0-.578-.01-1.152-.028-1.726l1.444-.045c.019.587.028,1.179.028,1.771Q1693.75,14701.024,1693.739,14701.6Zm-107.709-1.154h-1.444q0-1.471.077-2.924l1.442.075Q1586.03,14699.015,1586.03,14700.447Zm106.083-4.567q-.12-1.425-.317-2.83l1.43-.2q.2,1.443.326,2.91Zm-105.783-1.121-1.435-.151c.1-.977.232-1.942.389-2.9l1.424.231Q1586.482,14693.339,1586.33,14694.759Zm105-4.52q-.272-1.4-.617-2.778l1.4-.353q.357,1.412.637,2.854Zm-104.091-1.1-1.411-.3q.312-1.434.7-2.841l1.393.381C1587.665,14687.284,1587.437,14688.207,1587.236,14689.137Zm102.7-4.422q-.42-1.365-.914-2.7l1.354-.5q.505,1.368.94,2.771Zm-101.2-1.067-1.371-.457q.465-1.395,1-2.755l1.345.527Q1589.195,14682.287,1588.741,14683.647Zm99.227-4.267q-.564-1.305-1.2-2.578l1.292-.643q.649,1.305,1.231,2.647Zm-97.134-1.042-1.315-.6q.612-1.337,1.293-2.632l1.278.674Q1591.425,14677.037,1590.834,14678.339Zm94.6-4.048q-.7-1.238-1.468-2.436l1.216-.778q.786,1.232,1.507,2.5Zm-91.95-1-1.241-.739q.751-1.261,1.565-2.474l1.2.8Q1594.214,14672.063,1593.485,14673.29Zm88.883-3.793q-.833-1.157-1.721-2.267l1.128-.9q.912,1.14,1.766,2.327Zm-85.71-.942-1.153-.865c.585-.781,1.193-1.546,1.817-2.293l1.109.928Q1597.514,14667.416,1596.658,14668.555Zm82.147-3.5q-.948-1.059-1.952-2.071l1.024-1.019q1.032,1.04,2.006,2.128Zm-78.486-.865-1.055-.984q1-1.071,2.051-2.085l1,1.038Q1601.293,14663.149,1600.319,14664.19Zm74.472-3.173q-1.055-.955-2.163-1.853l.911-1.122q1.136.923,2.223,1.9Zm-70.369-.776-.945-1.091q1.107-.958,2.261-1.854l.886,1.143Q1605.5,14659.308,1604.422,14660.241Zm65.945-2.813q-1.152-.835-2.351-1.613l.784-1.213q1.231.8,2.413,1.655Zm-61.446-.677-.824-1.187q1.2-.832,2.446-1.6l.759,1.229C1610.495,14655.69,1609.7,14656.211,1608.921,14656.751Zm56.661-2.423q-1.233-.712-2.509-1.354l.649-1.289q1.311.661,2.579,1.391Zm-51.819-.564-.691-1.267q1.28-.7,2.6-1.33l.624,1.3Q1615.009,14653.083,1613.763,14653.764Zm46.729-2q-1.3-.57-2.643-1.075l.508-1.351q1.375.516,2.713,1.1Zm-41.6-.445-.553-1.334q1.35-.558,2.735-1.045l.477,1.363Q1620.207,14650.771,1618.893,14651.314Zm36.257-1.562q-1.355-.426-2.739-.782l.358-1.4q1.422.365,2.812.8Zm-30.886-.325-.4-1.387q1.4-.407,2.83-.742l.33,1.407Q1625.628,14649.03,1624.264,14649.428Zm25.373-1.088q-1.392-.277-2.808-.482l.206-1.431q1.453.212,2.884.5Zm-19.828-.209-.254-1.422q1.435-.255,2.894-.435l.178,1.432Q1631.2,14647.885,1629.809,14648.131Zm14.189-.6q-1.409-.129-2.841-.182l.053-1.443q1.47.056,2.921.186Zm-8.538-.09-.1-1.44q1.45-.1,2.923-.124l.023,1.444Q1636.874,14647.338,1635.46,14647.437Z"/><path class="b" d="M1639.168,14728.446a28.029,28.029,0,0,1-6.5-.76l.335-1.4a26.58,26.58,0,0,0,31.983-32.081l1.405-.339a28.029,28.029,0,0,1-27.222,34.583Z"/><path class="b" d="M1612.612,14700.447h-1.444a28.031,28.031,0,0,1,28-28,27.736,27.736,0,0,1,17,5.749l-.877,1.147a26.308,26.308,0,0,0-16.12-5.453A26.586,26.586,0,0,0,1612.612,14700.447Z"/><path class="b" d="M1615.613,14725.761l-.8-.606,1.389-1.833,5.014,3.8a3.074,3.074,0,0,1,1.279,1.955,2.838,2.838,0,0,1-.651,2.238l-7.139,9.418a2.9,2.9,0,0,1-1.986,1.242,3.1,3.1,0,0,1-2.257-.712l-4.191-3.179Zm-4.623,12.982a1.087,1.087,0,0,0,.941.3,1.483,1.483,0,0,0,.734-.564l6.461-8.521a1.531,1.531,0,0,0,.348-.887,1.122,1.122,0,0,0-.555-.866l-.879-.666-7.967,10.511Z"/><path class="b" d="M1630.433,14731.578l6.827,1.165-.388,2.267-3.835-.654-.65,3.81,3.087.528-.392,2.292-3.087-.529-1.165,6.828,3.834.654-.395,2.315-6.826-1.167Z"/><path class="b" d="M1646.008,14734.316l-1.392.39-.622-2.214,6.269-1.758,6.709,16.566-2.8.785-.74-2-2.592.726.388,2.1-2.828.794Zm6.577,9.667-4.1-10.437,1.932,11.044Z"/><path class="b" d="M1657.664,14726.9l2.336-2.051,10.166,11.589,2.87-2.517,1.548,1.765-5.2,4.566Z"/></g></svg>