<svg xmlns="http://www.w3.org/2000/svg" width="43.15" height="43.152" viewBox="0 0 43.15 43.152"><defs><style>.a{fill:none;stroke:#ffca05;stroke-miterlimit:10;stroke-width:2.5px;}.b{fill:#ffca05;}</style></defs><g transform="translate(-829.64 -15735.054)"><path d="M851.291,15737.886a18.754,18.754,0,1,0,18.779,18.753A18.789,18.789,0,0,0,851.291,15737.886Z"/><path class="a" d="M851.218,15776.956a20.326,20.326,0,1,1,20.322-20.324A20.353,20.353,0,0,1,851.218,15776.956Z"/><path class="b" d="M865.163,15749.224a8.893,8.893,0,0,1-3.12.853h-.005a5.7,5.7,0,0,0,2.38-3.016,8.706,8.706,0,0,1-3.508,1.328,5.5,5.5,0,0,0-9.439,3.849,5.66,5.66,0,0,0,.123,1.167c-5.469-.032-10.235-4.155-11.285-5.708a5.492,5.492,0,0,0,1.624,7.258,4.658,4.658,0,0,1-2.41-.643,5.544,5.544,0,0,0,4.351,5.442,5.242,5.242,0,0,1-2.429.112,5.679,5.679,0,0,0,5.085,3.8,10.906,10.906,0,0,1-8,2.288,15.523,15.523,0,0,0,23.963-13.028c0-.231,0-.466-.013-.692,0-.076-.005-.149-.005-.223A9.4,9.4,0,0,0,865.163,15749.224Z"/></g></svg>