<svg xmlns="http://www.w3.org/2000/svg" width="140.375" height="140.375" viewBox="0 0 140.375 140.375"><defs><style>.a{fill:#ffcb05;stroke:#000;stroke-miterlimit:10;stroke-width:8.559px;}.b{stroke:none;}.c{fill:none;}</style></defs><g transform="translate(-385.441 -12456.607)"><g class="a" transform="translate(394.001 12465.167)"><circle class="b" cx="61.628" cy="61.628" r="61.628"/><circle class="c" cx="61.628" cy="61.628" r="65.908"/></g><path d="M488.938,12493.472H416.209a7.2,7.2,0,0,0-7.2,7.2v51.948a7.2,7.2,0,0,0,7.2,7.194h43.559v-9.194H418.209v-47.948h68.729v20.779h9.194v-22.779A7.2,7.2,0,0,0,488.938,12493.472Z"/><path d="M499.286,12546.322l4.918-3.9-4.974-8.593-5.823,2.261a14.185,14.185,0,0,0-3-1.7l-.848-6.161H479.67l-.9,6.219a15.185,15.185,0,0,0-2.939,1.7l-5.88-2.318-4.974,8.593,4.918,3.957a13.609,13.609,0,0,0,0,3.393l-4.918,3.9,4.974,8.593,5.823-2.261a14.227,14.227,0,0,0,3,1.7l.9,6.1h9.893l.9-6.218a15.3,15.3,0,0,0,2.94-1.7l5.879,2.317,4.975-8.592-4.918-3.957A21.994,21.994,0,0,0,499.286,12546.322Zm-14.7,7.349a5.653,5.653,0,1,1,5.653-5.653A5.67,5.67,0,0,1,484.588,12553.671Z"/><path d="M441.7,12545.7l29.34-19.561-29.34-19.56Z"/></g></svg>