<svg xmlns="http://www.w3.org/2000/svg" xmlns:xlink="http://www.w3.org/1999/xlink" width="144.201" height="144.2" viewBox="0 0 144.201 144.2">
  <defs>
    <clipPath id="clip-path">
      <rect id="Rectangle_161" data-name="Rectangle 161" width="144.201" height="144.201" rx="19.227" transform="translate(986.376 8236.596)" fill="none"/>
    </clipPath>
    <clipPath id="clip-path-2">
      <rect id="Rectangle_160" data-name="Rectangle 160" width="2280.773" height="324.451" transform="translate(-279.059 8171.706)" fill="none"/>
    </clipPath>
    <clipPath id="clip-path-3">
      <path id="Path_685" data-name="Path 685" d="M1059.678,8267.839a42.059,42.059,0,1,0,42.059,42.06A42.1,42.1,0,0,0,1059.678,8267.839Zm1.753,22.771a89.237,89.237,0,0,0,12.293-1.086,76.77,76.77,0,0,1,2.583,18.62h-14.876Zm0-3.529v-15.506c4.493,1.146,8.507,6.628,11.241,14.535A87.067,87.067,0,0,1,1061.431,8287.081Zm-3.505-15.506v15.506a86.565,86.565,0,0,1-11.245-.971C1049.415,8278.2,1053.432,8272.722,1057.926,8271.575Zm0,19.035v17.534h-14.88a76.72,76.72,0,0,1,2.584-18.62A89.266,89.266,0,0,0,1057.926,8290.61Zm-18.385,17.534h-18.328a38.316,38.316,0,0,1,8.64-22.641,87.758,87.758,0,0,0,12.278,3.4A79.822,79.822,0,0,0,1039.541,8308.145Zm0,3.506a82.847,82.847,0,0,0,1.816,16.06,87.7,87.7,0,0,0-13.474,3.953,38.3,38.3,0,0,1-6.67-20.013Zm3.505,0h14.88v14.2a89.549,89.549,0,0,0-13.092,1.218A79.168,79.168,0,0,1,1043.046,8311.65Zm14.88,17.7v18.867c-5.083-1.293-9.548-8.131-12.244-17.749A86.957,86.957,0,0,1,1057.926,8329.353Zm3.505,18.867v-18.867a86.957,86.957,0,0,1,12.24,1.118C1070.979,8340.089,1066.51,8346.927,1061.431,8348.22Zm0-22.372v-14.2h14.876a79.1,79.1,0,0,1-1.788,15.415A89.548,89.548,0,0,0,1061.431,8325.848Zm18.381-14.2h18.329a38.306,38.306,0,0,1-6.671,20.013A87.672,87.672,0,0,0,1078,8327.71,82.62,82.62,0,0,0,1079.812,8311.65Zm0-3.506a79.828,79.828,0,0,0-2.59-19.244,88.117,88.117,0,0,0,12.282-3.4,38.346,38.346,0,0,1,8.637,22.641Zm7.119-25.49a84.163,84.163,0,0,1-10.733,2.867,35.915,35.915,0,0,0-7.126-12.972A38.558,38.558,0,0,1,1086.931,8282.654Zm-36.65-10.1a35.915,35.915,0,0,0-7.126,12.972,84.353,84.353,0,0,1-10.733-2.863A38.53,38.53,0,0,1,1050.281,8272.55Zm-20.2,62.02a84.408,84.408,0,0,1,12.11-3.456c1.893,6.883,4.69,12.48,8.087,16.133A38.593,38.593,0,0,1,1030.084,8334.569Zm38.988,12.677c3.4-3.652,6.194-9.25,8.087-16.133a84.264,84.264,0,0,1,12.11,3.456A38.6,38.6,0,0,1,1069.072,8347.246Z" fill="none" clip-rule="evenodd"/>
    </clipPath>
  </defs>
  <g id="website_icon-2" transform="translate(-986.376 -8236.596)">
    <g id="Group_308" data-name="Group 308">
      <g id="Group_307" data-name="Group 307" clip-path="url(#clip-path)">
        <g id="Group_306" data-name="Group 306">
          <g id="Group_305" data-name="Group 305" clip-path="url(#clip-path-2)">
            <rect id="Rectangle_159" data-name="Rectangle 159" width="168.234" height="168.234" transform="translate(974.359 8224.579)" fill="#000002"/>
          </g>
        </g>
      </g>
    </g>
    <g id="website_icon">
      <g id="Group_312" data-name="Group 312">
        <g id="Group_311" data-name="Group 311" clip-path="url(#clip-path-3)">
          <g id="Group_310" data-name="Group 310">
            <g id="Group_309" data-name="Group 309" clip-path="url(#clip-path-2)">
              <rect id="Rectangle_162" data-name="Rectangle 162" width="108.15" height="108.15" transform="translate(1005.603 8255.822)" fill="#ffca05"/>
            </g>
          </g>
        </g>
      </g>
      <path id="Path_686" data-name="Path 686" d="M1059.678,8267.839a42.059,42.059,0,1,0,42.059,42.06A42.1,42.1,0,0,0,1059.678,8267.839Zm1.753,22.771a89.209,89.209,0,0,0,12.292-1.086,76.768,76.768,0,0,1,2.584,18.62h-14.876Zm0-3.529v-15.506c4.493,1.146,8.507,6.628,11.241,14.535A87.083,87.083,0,0,1,1061.431,8287.081Zm-3.505-15.506v15.506a86.55,86.55,0,0,1-11.245-.971C1049.415,8278.2,1053.432,8272.722,1057.926,8271.575Zm0,19.035v17.534h-14.88a76.77,76.77,0,0,1,2.583-18.62A89.28,89.28,0,0,0,1057.926,8290.61Zm-18.385,17.534h-18.329a38.324,38.324,0,0,1,8.641-22.641,87.758,87.758,0,0,0,12.278,3.4A79.822,79.822,0,0,0,1039.541,8308.145Zm0,3.506a82.847,82.847,0,0,0,1.816,16.06,87.672,87.672,0,0,0-13.474,3.953,38.3,38.3,0,0,1-6.671-20.013Zm3.505,0h14.88v14.2a89.549,89.549,0,0,0-13.092,1.218A79.083,79.083,0,0,1,1043.046,8311.65Zm14.88,17.7v18.867c-5.083-1.293-9.549-8.131-12.244-17.749A86.944,86.944,0,0,1,1057.926,8329.353Zm3.505,18.867v-18.867a86.957,86.957,0,0,1,12.24,1.118C1070.979,8340.089,1066.51,8346.927,1061.431,8348.22Zm0-22.372v-14.2h14.876a79.253,79.253,0,0,1-1.788,15.415A89.548,89.548,0,0,0,1061.431,8325.848Zm18.381-14.2h18.328a38.3,38.3,0,0,1-6.67,20.013A87.736,87.736,0,0,0,1078,8327.71,82.62,82.62,0,0,0,1079.812,8311.65Zm0-3.506a79.771,79.771,0,0,0-2.591-19.244,88.089,88.089,0,0,0,12.283-3.4,38.345,38.345,0,0,1,8.636,22.641Zm7.119-25.49a84.206,84.206,0,0,1-10.733,2.867,35.915,35.915,0,0,0-7.126-12.972A38.558,38.558,0,0,1,1086.931,8282.654Zm-36.65-10.1a35.9,35.9,0,0,0-7.126,12.972,84.266,84.266,0,0,1-10.733-2.863A38.53,38.53,0,0,1,1050.281,8272.55Zm-20.2,62.02a84.408,84.408,0,0,1,12.11-3.456c1.893,6.883,4.69,12.48,8.087,16.133A38.593,38.593,0,0,1,1030.084,8334.569Zm38.988,12.677c3.4-3.652,6.194-9.25,8.086-16.133a84.274,84.274,0,0,1,12.111,3.456A38.6,38.6,0,0,1,1069.072,8347.246Z" fill="none" stroke="#ffca05" stroke-miterlimit="10" stroke-width="0.601"/>
    </g>
  </g>
</svg>
