<svg xmlns="http://www.w3.org/2000/svg" width="995.247" height="82.912" viewBox="0 0 995.247 82.912">
  <defs>
    <style>
      .cls-1 {
        fill: #000;
      }
    </style>
  </defs>
  <g id="Group_536" data-name="Group 536" transform="translate(-465.368 -181.205)">
    <g id="Group_177" data-name="Group 177">
      <path id="Path_398" data-name="Path 398" class="cls-1" d="M691.3,227.5q-8.005,5.451-14.491,5.451-3.312,0-4.83-1.449a4.764,4.764,0,0,1-1.517-3.588,8.1,8.1,0,0,1,.241-1.9,14.953,14.953,0,0,1,.656-2.036l15.732-35.121a3.69,3.69,0,0,0,.344-1.311q0-1.449-2.828-1.449h-.69q-2.141,0-2.139-1.863A2.516,2.516,0,0,1,683.022,182q1.244-.793,5.107-.794a28.033,28.033,0,0,1,8.384,1q3.069,1,3.07,3.829a9.025,9.025,0,0,1-.828,3.519l-15.663,34.983a3.583,3.583,0,0,0-.345.932,3.967,3.967,0,0,0-.069.724.853.853,0,0,0,.966.966,5.5,5.5,0,0,0,2.415-.759,16.34,16.34,0,0,0,4.278-3.415,41.5,41.5,0,0,0,4-5.141,106.237,106.237,0,0,0,9.073-16.9q3.831-8.968,7.486-19.527h11.386q-2.07,5.521-4.209,10.868t-4.416,10.626q-2.277,5.277-4.762,10.66t-5.243,10.971a4.2,4.2,0,0,0-.483,1.656q0,.968,1.035.966a3.614,3.614,0,0,0,1-.173,6.993,6.993,0,0,0,1.346-.586,16.843,16.843,0,0,0,4.312-3.415,35.678,35.678,0,0,0,3.968-5.141,93.438,93.438,0,0,0,4.934-8.211q2.241-4.207,4.209-8.728t3.8-9.35q1.825-4.828,3.622-10.143h11.454q-2.07,5.589-4.313,11.109a108.068,108.068,0,0,1-5.037,10.7,79.894,79.894,0,0,1-6.417,10,58.73,58.73,0,0,1-8.452,9.039,55.566,55.566,0,0,1-11.454,8,22.224,22.224,0,0,1-9.8,2.691q-3.383,0-4.727-1.449a5.073,5.073,0,0,1-1.345-3.588Z"/>
      <path id="Path_399" data-name="Path 399" class="cls-1" d="M763.546,220.88a13.559,13.559,0,0,1-2.277,3.243,20.638,20.638,0,0,1-3.657,3.1,33.139,33.139,0,0,1-7.866,4.278,26.063,26.063,0,0,1-9.039,1.449q-2.761,0-4.864-.172a11.388,11.388,0,0,1-3.554-.794,4.871,4.871,0,0,1-2.208-1.759,5.459,5.459,0,0,1-.759-3.071q0-2.827,2.139-7.728l2.553-5.727a25.1,25.1,0,0,1,2.691-4.795,12.567,12.567,0,0,1,3.415-3.209,13.9,13.9,0,0,1,4.555-1.794,29.651,29.651,0,0,1,6.106-.552,26.319,26.319,0,0,1,4.45.311,8.649,8.649,0,0,1,2.726.862,3.111,3.111,0,0,1,1.346,1.38,4.436,4.436,0,0,1,.379,1.863,17.388,17.388,0,0,1-.518,3.933,11.256,11.256,0,0,1-2.1,4.278,8.27,8.27,0,0,1-3,2.38,20.2,20.2,0,0,1-4.175,1.484,38.765,38.765,0,0,1-4.589.828q-2.311.277-4.243.345-.828,1.8-1.277,3.071a6.648,6.648,0,0,0-.448,2.1q0,1.863,2.553,1.863a23.3,23.3,0,0,0,5.8-.759,27.516,27.516,0,0,0,5.624-2.1,25.025,25.025,0,0,0,4.795-3.14,14.275,14.275,0,0,0,3.312-3.864ZM742.5,217.361a7.852,7.852,0,0,0,5.175-2.622,8.382,8.382,0,0,0,1.518-2.553,8.647,8.647,0,0,0,.552-3.105q0-.9-1.311-.9a2.333,2.333,0,0,0-1.484.518,6.124,6.124,0,0,0-1.414,2.173Z"/>
      <path id="Path_400" data-name="Path 400" class="cls-1" d="M788.386,220.88a15.065,15.065,0,0,1-3.243,4.347,26.639,26.639,0,0,1-5.175,3.864,30.5,30.5,0,0,1-6.487,2.795,24.768,24.768,0,0,1-7.245,1.069,8.081,8.081,0,0,1-5.623-1.9,6.179,6.179,0,0,1-2.1-4.8,8.461,8.461,0,0,1,.173-1.69,7.87,7.87,0,0,1,.586-1.76L773.9,189.968a14.106,14.106,0,0,1,5.727-6.727,18.6,18.6,0,0,1,9.246-2.036,9.446,9.446,0,0,1,5,1.1,3.655,3.655,0,0,1,1.76,3.312,6.731,6.731,0,0,1-.277,1.76,25.215,25.215,0,0,1-1.1,2.932l-4.071,8.97A26.437,26.437,0,0,1,774.793,213.7l-4.141,9.246a3.35,3.35,0,0,0-.414,1.449q0,.828,1.278,1.277a7.556,7.556,0,0,0,2.518.448,9.213,9.213,0,0,0,3.449-.724,18.88,18.88,0,0,0,3.485-1.863,20.91,20.91,0,0,0,3.1-2.553,12.634,12.634,0,0,0,2.174-2.795Zm-.277-30.5q.554-1.242.725-1.759a2.874,2.874,0,0,0,.173-.863c0-.459-.345-.69-1.035-.69a1.907,1.907,0,0,0-1.864,1.242l-8.625,19.044a8.05,8.05,0,0,0,3.347-2.76,24.379,24.379,0,0,0,3.14-5.313Z"/>
      <path id="Path_401" data-name="Path 401" class="cls-1" d="M817.917,220.88a10.3,10.3,0,0,1-1.794,2.726,19.075,19.075,0,0,1-2.9,2.656,35.875,35.875,0,0,1-8.556,4.933,26.633,26.633,0,0,1-9.937,1.76q-2.624,0-4.726-.207a12.485,12.485,0,0,1-3.588-.828,5.07,5.07,0,0,1-2.277-1.759,5.143,5.143,0,0,1-.793-3q0-2.827,2.138-7.728l2.554-5.727q2.483-5.656,6.485-8a19.986,19.986,0,0,1,10.212-2.346,21.369,21.369,0,0,1,7,.828,3.269,3.269,0,0,1,2.174,3.381,7.142,7.142,0,0,1-.346,1.932L801.84,213.7a10.835,10.835,0,0,0,1.346-2.277,5.87,5.87,0,0,0,.585-2.346q0-.9-1.31-.9a2.348,2.348,0,0,0-2.277,1.449l-6.762,14.973a5.972,5.972,0,0,0-.484,2.277,1.063,1.063,0,0,0,.829,1.173,6.792,6.792,0,0,0,1.656.207,26.026,26.026,0,0,0,6.762-.966,28.175,28.175,0,0,0,6.9-2.9,23.649,23.649,0,0,0,3.726-2.656,14.119,14.119,0,0,0,2.966-3.554Z"/>
      <path id="Path_402" data-name="Path 402" class="cls-1" d="M853.382,210.047q-3.8,4-11.868,4.83a61.333,61.333,0,0,1-4.554,9.591,20.454,20.454,0,0,1-4.589,5.451,12.5,12.5,0,0,1-5.071,2.45,27.618,27.618,0,0,1-5.865.586q-5.039,0-7.039-1.483a4.758,4.758,0,0,1-2-4.037,15.083,15.083,0,0,1,1.725-6.141l3.174-6.9a32.053,32.053,0,0,1,3-5.244,16.063,16.063,0,0,1,3.243-3.415,11.226,11.226,0,0,1,3.52-1.829,13.194,13.194,0,0,1,3.829-.552q1.173,0,1.794.035a4.038,4.038,0,0,1,1.035.172,8.746,8.746,0,0,1,6.14-2.277,5.16,5.16,0,0,1,3.451.966,3.477,3.477,0,0,1,1.1,2.76,11.418,11.418,0,0,1-1.242,4.623l1.207.242a5.11,5.11,0,0,0,1,.1,9.292,9.292,0,0,0,2.933-.517,11.6,11.6,0,0,0,3.277-1.829Zm-20.976,2.07a2.362,2.362,0,0,1-1-1.207,4.6,4.6,0,0,1-.31-1.691,5.128,5.128,0,0,1,.069-.966,3.578,3.578,0,0,0-1.208,1,9.568,9.568,0,0,0-1.139,2.173l-6.347,14.49a3.365,3.365,0,0,0-.345,1.38q0,1.313,1.173,1.311a2.517,2.517,0,0,0,1.483-.518,3.921,3.921,0,0,0,1.208-1.483Zm6.762-3.105a4.177,4.177,0,0,0,.379-.9,3.675,3.675,0,0,0,.173-1.1,2.4,2.4,0,0,0-.241-1.138.9.9,0,0,0-.863-.449q-1.656,0-1.656,1.587Q836.96,209.013,839.168,209.012Z"/>
      <path id="Path_403" data-name="Path 403" class="cls-1" d="M896.921,220.88a12.824,12.824,0,0,1-3.243,4.209,31.6,31.6,0,0,1-5.347,3.9,33.516,33.516,0,0,1-6.279,2.864,18.843,18.843,0,0,1-5.969,1.1,5.3,5.3,0,0,1-3.726-1.207,4.148,4.148,0,0,1-1.311-3.209,10.3,10.3,0,0,1,.862-3.45q.862-2.208,2.071-4.83t2.518-5.244q1.309-2.62,2.139-4.692a8.841,8.841,0,0,0,.276-.966,3.262,3.262,0,0,0,.069-.621q0-.828-.966-.828a2.511,2.511,0,0,0-2.621,1.725l-10.213,23.115H853.728l10.142-22.77a3.97,3.97,0,0,0,.207-.69,3.047,3.047,0,0,0,.069-.552q0-.828-1.035-.828a2.562,2.562,0,0,0-1.483.449,2.786,2.786,0,0,0-1,1.276l-10.281,23.115H838.823l13.662-30.774,7.314,3.795a10.231,10.231,0,0,1,3.45-1.794,19.384,19.384,0,0,1,5.521-.621,5.749,5.749,0,0,1,3.277.862,4.244,4.244,0,0,1,1.69,1.967,9.122,9.122,0,0,1,4.45-2.311,26.9,26.9,0,0,1,5.417-.518,5.55,5.55,0,0,1,4.037,1.38,5.064,5.064,0,0,1,1.414,3.8,10.474,10.474,0,0,1-.552,3.071,39.065,39.065,0,0,1-1.38,3.691q-.828,1.934-1.76,3.9t-1.621,3.691a3.779,3.779,0,0,0-.483,1.587q0,1.035,1.242,1.035a6.493,6.493,0,0,0,2.691-.759,19.823,19.823,0,0,0,3.1-1.863,21.318,21.318,0,0,0,2.76-2.38,8.914,8.914,0,0,0,1.725-2.312Z"/>
      <path id="Path_404" data-name="Path 404" class="cls-1" d="M926.177,220.88a13.537,13.537,0,0,1-2.278,3.243,20.593,20.593,0,0,1-3.656,3.1,33.138,33.138,0,0,1-7.866,4.278,26.063,26.063,0,0,1-9.039,1.449q-2.762,0-4.864-.172a11.388,11.388,0,0,1-3.554-.794,4.872,4.872,0,0,1-2.208-1.759,5.46,5.46,0,0,1-.759-3.071q0-2.827,2.139-7.728l2.553-5.727a25.1,25.1,0,0,1,2.691-4.795,12.553,12.553,0,0,1,3.415-3.209,13.888,13.888,0,0,1,4.555-1.794,29.644,29.644,0,0,1,6.106-.552,26.327,26.327,0,0,1,4.45.311,8.65,8.65,0,0,1,2.726.862,3.117,3.117,0,0,1,1.346,1.38,4.437,4.437,0,0,1,.378,1.863,17.381,17.381,0,0,1-.517,3.933,11.243,11.243,0,0,1-2.1,4.278,8.254,8.254,0,0,1-3,2.38,20.174,20.174,0,0,1-4.174,1.484,38.769,38.769,0,0,1-4.589.828q-2.312.277-4.243.345-.828,1.8-1.277,3.071a6.621,6.621,0,0,0-.448,2.1q0,1.863,2.553,1.863a23.3,23.3,0,0,0,5.8-.759,27.518,27.518,0,0,0,5.624-2.1,25.027,25.027,0,0,0,4.795-3.14,14.294,14.294,0,0,0,3.312-3.864Zm-21.045-3.519a7.852,7.852,0,0,0,5.175-2.622,8.382,8.382,0,0,0,1.518-2.553,8.67,8.67,0,0,0,.552-3.105q0-.9-1.312-.9a2.332,2.332,0,0,0-1.483.518,6.124,6.124,0,0,0-1.414,2.173Z"/>
      <path id="Path_405" data-name="Path 405" class="cls-1" d="M962.263,220.88a12.979,12.979,0,0,1-3.209,4.209,30.96,30.96,0,0,1-5.279,3.9,32.831,32.831,0,0,1-6.21,2.864,18.708,18.708,0,0,1-6,1.1,4.789,4.789,0,0,1-3.691-1.449,4.9,4.9,0,0,1-1.346-3.45,7.744,7.744,0,0,1,.173-1.483,6.715,6.715,0,0,1,.586-1.691l7.452-16.767H941.77l1.724-3.864h2.9l9.59-21.321,11.731-.759-9.8,22.08h3.106l-1.725,3.864H956.19l-7.175,16.008a2.662,2.662,0,0,0-.345,1.1c0,.369.229.552.689.552a6.9,6.9,0,0,0,2.864-.759,20.264,20.264,0,0,0,3.209-1.9,21.72,21.72,0,0,0,2.9-2.484,10.286,10.286,0,0,0,1.863-2.45Z"/>
      <path id="Path_406" data-name="Path 406" class="cls-1" d="M997.8,210.047q-3.8,4-11.868,4.83a61.333,61.333,0,0,1-4.554,9.591,20.454,20.454,0,0,1-4.589,5.451,12.5,12.5,0,0,1-5.071,2.45,27.618,27.618,0,0,1-5.865.586q-5.039,0-7.038-1.483a4.759,4.759,0,0,1-2-4.037,15.083,15.083,0,0,1,1.725-6.141l3.174-6.9a32.053,32.053,0,0,1,3-5.244,16.063,16.063,0,0,1,3.243-3.415,11.226,11.226,0,0,1,3.52-1.829,13.194,13.194,0,0,1,3.829-.552q1.173,0,1.794.035a4.038,4.038,0,0,1,1.035.172,8.746,8.746,0,0,1,6.14-2.277,5.16,5.16,0,0,1,3.451.966,3.477,3.477,0,0,1,1.1,2.76,11.418,11.418,0,0,1-1.242,4.623l1.207.242a5.11,5.11,0,0,0,1,.1,9.292,9.292,0,0,0,2.933-.517A11.585,11.585,0,0,0,996,207.632Zm-20.976,2.07a2.362,2.362,0,0,1-1-1.207,4.6,4.6,0,0,1-.31-1.691,5.128,5.128,0,0,1,.069-.966,3.578,3.578,0,0,0-1.208,1,9.607,9.607,0,0,0-1.139,2.173l-6.347,14.49a3.365,3.365,0,0,0-.345,1.38q0,1.313,1.173,1.311a2.517,2.517,0,0,0,1.483-.518,3.921,3.921,0,0,0,1.208-1.483Zm6.762-3.105a4.177,4.177,0,0,0,.379-.9,3.675,3.675,0,0,0,.173-1.1,2.4,2.4,0,0,0-.241-1.138.9.9,0,0,0-.863-.449q-1.656,0-1.656,1.587Q981.374,209.013,983.582,209.012Z"/>
      <path id="Path_407" data-name="Path 407" class="cls-1" d="M1048.1,221.018a12.945,12.945,0,0,1-3.208,4.106,32.236,32.236,0,0,1-5.279,3.863,32.86,32.86,0,0,1-6.21,2.864,18.708,18.708,0,0,1-6,1.1q-4.554,0-4.554-4.83c0-.229.011-.483.035-.759a6.553,6.553,0,0,1,.1-.759,21.091,21.091,0,0,1-15.456,6.348q-5.314,0-5.313-5.037a6.318,6.318,0,0,1,.138-1.242,17.2,17.2,0,0,1,.552-1.932q.414-1.242,1.277-3.312t2.311-5.382l10.971-24.633a17.407,17.407,0,0,1,6.037-7.762q3.691-2.448,9.7-2.45a10,10,0,0,1,5.8,1.449,6.952,6.952,0,0,1,2.691,3.1l1.863-4.14h10.281l-19.32,43.263a1.3,1.3,0,0,0-.069.414q0,.483.759.483a7.177,7.177,0,0,0,2.864-.724,18.442,18.442,0,0,0,3.208-1.863,21.732,21.732,0,0,0,2.9-2.484,9.676,9.676,0,0,0,1.863-2.519Zm-11.523-26.358a11.746,11.746,0,0,0,.828-2.38,10.432,10.432,0,0,0,.276-2.312,5.536,5.536,0,0,0-.793-3.036,2.639,2.639,0,0,0-2.381-1.242,3.517,3.517,0,0,0-1.242.207,3.046,3.046,0,0,0-1.07.725,7.384,7.384,0,0,0-1.069,1.448,26.049,26.049,0,0,0-1.242,2.45l-11.868,26.427q-1.656,3.8-2.346,5.623a8.857,8.857,0,0,0-.69,2.519q0,1.656,1.38,1.656a5.356,5.356,0,0,0,2.725-.9,16.7,16.7,0,0,0,2.864-2.208,21.829,21.829,0,0,0,2.484-2.794,16.117,16.117,0,0,0,1.656-2.657Z"/>
      <path id="Path_408" data-name="Path 408" class="cls-1" d="M1077.766,220.88a13.283,13.283,0,0,1-3.209,4.14,30.514,30.514,0,0,1-5.313,3.9,35.376,35.376,0,0,1-6.279,2.9,18.522,18.522,0,0,1-6.038,1.138,5.06,5.06,0,0,1-3.726-1.242,4.661,4.661,0,0,1-1.242-3.45,7.835,7.835,0,0,1,.38-2.174,27.092,27.092,0,0,1,.966-2.69q.585-1.415,1.31-2.9t1.415-2.8a34.668,34.668,0,0,0,1.864-3.829,5.946,5.946,0,0,0,.414-1.484c0-.321-.439-.666-1.312-1.035l-1.449-.621a27.752,27.752,0,0,1-5.382,8.9q-2,2.277-3.554,3.795a25.109,25.109,0,0,1-2.794,2.415,10.047,10.047,0,0,1-2.243,1.277,5.2,5.2,0,0,1-1.828.379l-.966-2.415a6.972,6.972,0,0,0,1.449-1.725,77.791,77.791,0,0,0,5.072-10.626q2.173-5.589,4.1-11.178l16.836,9.522a4.477,4.477,0,0,1,1.484,1.311,2.434,2.434,0,0,1,.448,1.311,5.553,5.553,0,0,1-.621,2.174q-.619,1.345-1.414,2.9t-1.414,3.1a7.389,7.389,0,0,0-.621,2.656q0,.968,1.1.966a6.6,6.6,0,0,0,2.726-.725,19.714,19.714,0,0,0,3.1-1.828,20.139,20.139,0,0,0,2.794-2.381,9.882,9.882,0,0,0,1.794-2.38Z"/>
      <path id="Path_409" data-name="Path 409" class="cls-1" d="M1105.365,206.735q-2,4.968-3.657,8.418t-3,5.762a31.016,31.016,0,0,1-2.449,3.691,28,28,0,0,1-2,2.277,23.412,23.412,0,0,1-7.108,4.519,21.44,21.44,0,0,1-8.073,1.553,7.052,7.052,0,0,1-4.45-1.414,5.109,5.109,0,0,1-1.828-4.313q0-2.829,2.208-7.8l6.624-14.9h10.349l-9.039,20.079a6.759,6.759,0,0,0-.69,2.346.975.975,0,0,0,1.1,1.1,1.634,1.634,0,0,0,.829-.241,4.432,4.432,0,0,0,1.035-1,15.329,15.329,0,0,0,1.448-2.277q.829-1.517,2.07-4.071,1.38-2.9,3.347-7.348t4.52-11.144Z"/>
      <path id="Path_410" data-name="Path 410" class="cls-1" d="M1135.863,220.88a15.86,15.86,0,0,1-3.864,4.9,27.072,27.072,0,0,1-7.313,4.692,32.669,32.669,0,0,1-4.451,1.76,17.4,17.4,0,0,1-5.21.724q-2.624,0-5-.1t-4.657-.1q-2.07,0-3.8.035a12.561,12.561,0,0,0-2.277.172l-.552-2.346q2.415-2.691,5.348-5.382t5.865-5.313q2.931-2.62,5.623-5.037a60.559,60.559,0,0,0,4.555-4.485q-.829-.067-2-.1t-2.347-.1q-1.173-.067-2.242-.1t-1.76-.035a7.9,7.9,0,0,0-2.38.38,14.157,14.157,0,0,0-2.381,1l-.551-1.173a13.384,13.384,0,0,1,2.1-5.831,4.7,4.7,0,0,1,3.967-2.173,18.38,18.38,0,0,1,2.691.242q1.587.241,3.415.552t3.865.552a34.8,34.8,0,0,0,4.1.241,26.268,26.268,0,0,0,2.967-.172q1.518-.172,3.1-.311l1.036,1.173q-2.555,2.76-5.624,5.658t-6.107,5.589q-3.036,2.691-5.658,5t-4.277,3.967c.414-.092.907-.183,1.483-.276a15.435,15.435,0,0,1,2.312-.138c1.01,0,2.208.058,3.587.173s2.874.172,4.486.172a9.042,9.042,0,0,0,2.587-.379,10.592,10.592,0,0,0,3-1.622,19.6,19.6,0,0,0,2.552-2.173,9.281,9.281,0,0,0,1.657-2.312Z"/>
      <path id="Path_411" data-name="Path 411" class="cls-1" d="M1175.951,221.018a12.934,12.934,0,0,1-3.208,4.106,32.27,32.27,0,0,1-5.278,3.863,32.916,32.916,0,0,1-6.21,2.864,18.708,18.708,0,0,1-6,1.1q-4.554,0-4.555-4.83c0-.229.011-.483.035-.759a6.5,6.5,0,0,1,.1-.759,21.1,21.1,0,0,1-15.456,6.348q-5.314,0-5.314-5.037a6.317,6.317,0,0,1,.138-1.242,17.263,17.263,0,0,1,.553-1.932q.413-1.242,1.276-3.312t2.312-5.382l10.97-24.633a17.416,17.416,0,0,1,6.038-7.762q3.69-2.448,9.695-2.45a10,10,0,0,1,5.8,1.449,6.95,6.95,0,0,1,2.69,3.1l1.863-4.14h10.282l-19.321,43.263a1.33,1.33,0,0,0-.069.414q0,.483.76.483a7.172,7.172,0,0,0,2.863-.724,18.406,18.406,0,0,0,3.208-1.863,21.681,21.681,0,0,0,2.9-2.484,9.678,9.678,0,0,0,1.863-2.519Zm-11.522-26.358a11.8,11.8,0,0,0,.828-2.38,10.487,10.487,0,0,0,.275-2.312,5.528,5.528,0,0,0-.793-3.036,2.638,2.638,0,0,0-2.381-1.242,3.517,3.517,0,0,0-1.242.207,3.044,3.044,0,0,0-1.069.725,7.341,7.341,0,0,0-1.069,1.448,25.758,25.758,0,0,0-1.243,2.45l-11.868,26.427q-1.654,3.8-2.346,5.623a8.893,8.893,0,0,0-.69,2.519q0,1.656,1.381,1.656a5.362,5.362,0,0,0,2.725-.9,16.7,16.7,0,0,0,2.864-2.208,21.761,21.761,0,0,0,2.483-2.794,16.041,16.041,0,0,0,1.656-2.657Z"/>
      <path id="Path_412" data-name="Path 412" class="cls-1" d="M1207.554,220.88a11.134,11.134,0,0,1-1.242,2.07,12.514,12.514,0,0,1-2.312,2.381,15.067,15.067,0,0,1-3.243,1.966,9.842,9.842,0,0,1-4.106.828,4.152,4.152,0,0,1-2-.483,3.882,3.882,0,0,1-1.379-1.173,18.022,18.022,0,0,1-5.52,5.072,11.6,11.6,0,0,1-5.451,1.414,6.414,6.414,0,0,1-2.278-.345,2.835,2.835,0,0,1-1.172-.69l-6,13.524H1161.53l18.217-40.917h8.142l-1.035,2.415a12.186,12.186,0,0,1,3.38-2.622,11.4,11.4,0,0,1,5.175-.966,5.97,5.97,0,0,1,4.209,1.346,4.7,4.7,0,0,1,1.449,3.622,17.036,17.036,0,0,1-.862,4.934,58.007,58.007,0,0,1-2.656,6.727,3.882,3.882,0,0,0-.207,1.242q0,1.313,1.724,1.311a6.519,6.519,0,0,0,3.485-1.1,8.574,8.574,0,0,0,2.932-3.243Zm-15.387-10.35a2.746,2.746,0,0,0,.275-1.242q0-1.1-1.172-1.1a2.219,2.219,0,0,0-2.208,1.449l-7.314,16.077a2.988,2.988,0,0,0-.276.759,2.911,2.911,0,0,0-.07.552q0,1.242,1.1,1.242,1.516,0,3.1-3.243Z"/>
      <path id="Path_413" data-name="Path 413" class="cls-1" d="M1239.293,220.88a11.087,11.087,0,0,1-1.242,2.07,12.484,12.484,0,0,1-2.312,2.381,15.067,15.067,0,0,1-3.243,1.966,9.841,9.841,0,0,1-4.1.828,4.147,4.147,0,0,1-2-.483,3.877,3.877,0,0,1-1.38-1.173,18.022,18.022,0,0,1-5.52,5.072,11.605,11.605,0,0,1-5.451,1.414,6.4,6.4,0,0,1-2.277-.345,2.833,2.833,0,0,1-1.173-.69l-6,13.524H1193.27l18.216-40.917h8.142l-1.035,2.415a12.176,12.176,0,0,1,3.381-2.622,11.391,11.391,0,0,1,5.174-.966,5.969,5.969,0,0,1,4.209,1.346,4.7,4.7,0,0,1,1.45,3.622,17.007,17.007,0,0,1-.863,4.934,58.007,58.007,0,0,1-2.656,6.727,3.882,3.882,0,0,0-.207,1.242q0,1.313,1.725,1.311a6.519,6.519,0,0,0,3.484-1.1,8.585,8.585,0,0,0,2.933-3.243Zm-15.387-10.35a2.746,2.746,0,0,0,.276-1.242q0-1.1-1.173-1.1a2.219,2.219,0,0,0-2.208,1.449l-7.314,16.077a3.026,3.026,0,0,0-.276.759,2.886,2.886,0,0,0-.069.552q0,1.242,1.1,1.242,1.516,0,3.1-3.243Z"/>
      <path id="Path_414" data-name="Path 414" class="cls-1" d="M1248.952,226.952a3.706,3.706,0,0,1-.862,2.381,7.737,7.737,0,0,1-2.174,1.828,11.792,11.792,0,0,1-2.829,1.173,10.578,10.578,0,0,1-2.76.414,6.076,6.076,0,0,1-3.347-.862,2.533,2.533,0,0,1-1.345-2.174,3.661,3.661,0,0,1,.76-2.208,7.3,7.3,0,0,1,2-1.828,11.543,11.543,0,0,1,2.793-1.277,10.553,10.553,0,0,1,3.14-.483,6.286,6.286,0,0,1,3.174.828A2.485,2.485,0,0,1,1248.952,226.952Zm-6.969-10.212,15.111-35.328H1269.1L1251.16,221.5Z"/>
    </g>
    <g id="Group_180" data-name="Group 180">
      <rect id="Rectangle_75" data-name="Rectangle 75" class="cls-1" width="988.104" height="1" transform="translate(468.94 259.858)"/>
      <g id="Group_178" data-name="Group 178">
        <path id="Path_415" data-name="Path 415" class="cls-1" d="M469.128,264.117a3.76,3.76,0,1,1,3.76-3.759A3.76,3.76,0,0,1,469.128,264.117Z"/>
      </g>
      <g id="Group_179" data-name="Group 179">
        <circle id="Ellipse_41" data-name="Ellipse 41" class="cls-1" cx="3.76" cy="3.76" r="3.76" transform="translate(1453.096 256.598)"/>
      </g>
    </g>
    <path id="Path_416" data-name="Path 416" class="cls-1" d="M1357.218,215.522l59.639-6.971-6.194,6.579,45.02.134-57.865,7,7.694-7.143Z"/>
    <path id="Path_417" data-name="Path 417" class="cls-1" d="M516.474,215.125l7.694,7.143-57.866-7,45.021-.134-6.2-6.579,59.639,6.971Z"/>
  </g>
</svg>
